<svg width="320" height="240" viewBox="0 0 320 240" fill="none" xmlns="http://www.w3.org/2000/svg">
<path d="M217.58 216.412H215.204V219.328C215.204 219.568 215.216 219.79 215.24 219.994C215.264 220.186 215.318 220.354 215.402 220.498C215.486 220.642 215.612 220.756 215.78 220.84C215.96 220.912 216.194 220.948 216.482 220.948C216.626 220.948 216.812 220.936 217.04 220.912C217.28 220.876 217.46 220.804 217.58 220.696V222.946C217.28 223.054 216.968 223.126 216.644 223.162C216.32 223.198 216.002 223.216 215.69 223.216C215.234 223.216 214.814 223.168 214.43 223.072C214.046 222.976 213.71 222.826 213.422 222.622C213.134 222.406 212.906 222.13 212.738 221.794C212.582 221.458 212.504 221.05 212.504 220.57V216.412H210.776V214.252H212.504V211.66H215.204V214.252H217.58V216.412Z" fill="#565656"/>
<path d="M201.286 214.252H203.878V215.44H203.914C203.998 215.272 204.118 215.104 204.274 214.936C204.43 214.768 204.616 214.618 204.832 214.486C205.048 214.354 205.294 214.246 205.57 214.162C205.846 214.078 206.146 214.036 206.47 214.036C207.154 214.036 207.706 214.144 208.126 214.36C208.546 214.564 208.87 214.852 209.098 215.224C209.338 215.596 209.5 216.034 209.584 216.538C209.668 217.042 209.71 217.588 209.71 218.176V223H207.01V218.716C207.01 218.464 206.998 218.206 206.974 217.942C206.962 217.666 206.908 217.414 206.812 217.186C206.728 216.958 206.59 216.772 206.398 216.628C206.218 216.484 205.954 216.412 205.606 216.412C205.258 216.412 204.976 216.478 204.76 216.61C204.544 216.73 204.376 216.898 204.256 217.114C204.148 217.318 204.076 217.552 204.04 217.816C204.004 218.08 203.986 218.356 203.986 218.644V223H201.286V214.252Z" fill="#565656"/>
<path d="M199.231 221.488C198.799 222.04 198.253 222.466 197.593 222.766C196.933 223.066 196.249 223.216 195.541 223.216C194.869 223.216 194.233 223.108 193.633 222.892C193.045 222.676 192.529 222.37 192.085 221.974C191.653 221.566 191.311 221.08 191.059 220.516C190.807 219.952 190.681 219.322 190.681 218.626C190.681 217.93 190.807 217.3 191.059 216.736C191.311 216.172 191.653 215.692 192.085 215.296C192.529 214.888 193.045 214.576 193.633 214.36C194.233 214.144 194.869 214.036 195.541 214.036C196.165 214.036 196.729 214.144 197.233 214.36C197.749 214.576 198.181 214.888 198.529 215.296C198.889 215.692 199.165 216.172 199.357 216.736C199.549 217.3 199.645 217.93 199.645 218.626V219.472H193.381C193.489 219.988 193.723 220.402 194.083 220.714C194.443 221.014 194.887 221.164 195.415 221.164C195.859 221.164 196.231 221.068 196.531 220.876C196.843 220.672 197.113 220.414 197.341 220.102L199.231 221.488ZM196.945 217.636C196.957 217.18 196.807 216.79 196.495 216.466C196.183 216.142 195.781 215.98 195.289 215.98C194.989 215.98 194.725 216.028 194.497 216.124C194.269 216.22 194.071 216.346 193.903 216.502C193.747 216.646 193.621 216.82 193.525 217.024C193.441 217.216 193.393 217.42 193.381 217.636H196.945Z" fill="#565656"/>
<path d="M186.311 214.252H189.011V223H186.311V214.252ZM186.095 211.498C186.095 211.066 186.245 210.7 186.545 210.4C186.857 210.088 187.229 209.932 187.661 209.932C188.093 209.932 188.459 210.088 188.759 210.4C189.071 210.7 189.227 211.066 189.227 211.498C189.227 211.93 189.071 212.302 188.759 212.614C188.459 212.914 188.093 213.064 187.661 213.064C187.229 213.064 186.857 212.914 186.545 212.614C186.245 212.302 186.095 211.93 186.095 211.498Z" fill="#565656"/>
<path d="M183.513 217.078C183.381 216.886 183.195 216.73 182.955 216.61C182.715 216.478 182.457 216.412 182.181 216.412C181.497 216.412 180.963 216.616 180.579 217.024C180.207 217.432 180.021 217.966 180.021 218.626C180.021 219.286 180.207 219.82 180.579 220.228C180.963 220.636 181.497 220.84 182.181 220.84C182.481 220.84 182.739 220.774 182.955 220.642C183.171 220.51 183.357 220.354 183.513 220.174L185.295 222.046C184.875 222.478 184.377 222.784 183.801 222.964C183.237 223.132 182.697 223.216 182.181 223.216C181.509 223.216 180.873 223.108 180.273 222.892C179.685 222.676 179.169 222.37 178.725 221.974C178.293 221.566 177.951 221.08 177.699 220.516C177.447 219.952 177.321 219.322 177.321 218.626C177.321 217.93 177.447 217.3 177.699 216.736C177.951 216.172 178.293 215.692 178.725 215.296C179.169 214.888 179.685 214.576 180.273 214.36C180.873 214.144 181.509 214.036 182.181 214.036C182.697 214.036 183.237 214.126 183.801 214.306C184.377 214.474 184.875 214.774 185.295 215.206L183.513 217.078Z" fill="#565656"/>
<path d="M172.949 214.252H175.649V223H172.949V214.252ZM172.733 211.498C172.733 211.066 172.883 210.7 173.183 210.4C173.495 210.088 173.867 209.932 174.299 209.932C174.731 209.932 175.097 210.088 175.397 210.4C175.709 210.7 175.865 211.066 175.865 211.498C175.865 211.93 175.709 212.302 175.397 212.614C175.097 212.914 174.731 213.064 174.299 213.064C173.867 213.064 173.495 212.914 173.183 212.614C172.883 212.302 172.733 211.93 172.733 211.498ZM167.189 216.412H165.407V214.252H167.189V212.704C167.189 212.224 167.231 211.774 167.315 211.354C167.399 210.922 167.561 210.544 167.801 210.22C168.041 209.896 168.383 209.644 168.827 209.464C169.283 209.272 169.877 209.176 170.609 209.176C170.885 209.176 171.155 209.188 171.419 209.212C171.683 209.236 171.941 209.278 172.193 209.338L172.067 211.624C171.911 211.564 171.767 211.522 171.635 211.498C171.503 211.462 171.353 211.444 171.185 211.444C170.753 211.444 170.429 211.54 170.213 211.732C169.997 211.912 169.889 212.29 169.889 212.866V214.252H171.887V216.412H169.889V223H167.189V216.412Z" fill="#565656"/>
<path d="M160.527 216.412H158.745V214.252H160.527V212.704C160.527 212.224 160.569 211.774 160.653 211.354C160.737 210.922 160.899 210.544 161.139 210.22C161.379 209.896 161.721 209.644 162.165 209.464C162.621 209.272 163.215 209.176 163.947 209.176C164.223 209.176 164.493 209.188 164.757 209.212C165.021 209.236 165.279 209.278 165.531 209.338L165.405 211.624C165.249 211.564 165.105 211.522 164.973 211.498C164.841 211.462 164.691 211.444 164.523 211.444C164.091 211.444 163.767 211.54 163.551 211.732C163.335 211.912 163.227 212.29 163.227 212.866V214.252H165.225V216.412H163.227V223H160.527V216.412Z" fill="#565656"/>
<path d="M148.703 210.256H157.361V212.848H151.511V215.224H157.037V217.816H151.511V220.408H157.685V223H148.703V210.256Z" fill="#565656"/>
<path d="M141.555 216.412H139.179V219.328C139.179 219.568 139.191 219.79 139.215 219.994C139.239 220.186 139.293 220.354 139.377 220.498C139.461 220.642 139.587 220.756 139.755 220.84C139.935 220.912 140.169 220.948 140.457 220.948C140.601 220.948 140.787 220.936 141.015 220.912C141.255 220.876 141.435 220.804 141.555 220.696V222.946C141.255 223.054 140.943 223.126 140.619 223.162C140.295 223.198 139.977 223.216 139.665 223.216C139.209 223.216 138.789 223.168 138.405 223.072C138.021 222.976 137.685 222.826 137.397 222.622C137.109 222.406 136.881 222.13 136.713 221.794C136.557 221.458 136.479 221.05 136.479 220.57V216.412H134.751V214.252H136.479V211.66H139.179V214.252H141.555V216.412Z" fill="#565656"/>
<path d="M132.215 216.826C131.819 216.334 131.297 216.088 130.649 216.088C130.421 216.088 130.199 216.142 129.983 216.25C129.767 216.358 129.659 216.544 129.659 216.808C129.659 217.024 129.767 217.186 129.983 217.294C130.211 217.39 130.493 217.48 130.829 217.564C131.177 217.636 131.543 217.72 131.927 217.816C132.323 217.9 132.689 218.038 133.025 218.23C133.373 218.422 133.655 218.686 133.871 219.022C134.099 219.346 134.213 219.784 134.213 220.336C134.213 220.9 134.087 221.368 133.835 221.74C133.595 222.1 133.283 222.394 132.899 222.622C132.515 222.838 132.083 222.988 131.603 223.072C131.123 223.168 130.649 223.216 130.181 223.216C129.569 223.216 128.951 223.132 128.327 222.964C127.703 222.784 127.175 222.472 126.743 222.028L128.381 220.21C128.633 220.522 128.909 220.762 129.209 220.93C129.521 221.086 129.881 221.164 130.289 221.164C130.601 221.164 130.883 221.122 131.135 221.038C131.387 220.942 131.513 220.774 131.513 220.534C131.513 220.306 131.399 220.138 131.171 220.03C130.955 219.91 130.673 219.814 130.325 219.742C129.989 219.658 129.623 219.574 129.227 219.49C128.843 219.394 128.477 219.256 128.129 219.076C127.793 218.896 127.511 218.644 127.283 218.32C127.067 217.984 126.959 217.54 126.959 216.988C126.959 216.472 127.061 216.028 127.265 215.656C127.481 215.284 127.757 214.978 128.093 214.738C128.441 214.498 128.837 214.324 129.281 214.216C129.725 214.096 130.175 214.036 130.631 214.036C131.207 214.036 131.789 214.12 132.377 214.288C132.965 214.456 133.463 214.756 133.871 215.188L132.215 216.826Z" fill="#565656"/>
<path d="M115.954 218.626C115.954 217.93 116.08 217.3 116.332 216.736C116.584 216.172 116.926 215.692 117.358 215.296C117.802 214.888 118.318 214.576 118.906 214.36C119.506 214.144 120.142 214.036 120.814 214.036C121.486 214.036 122.116 214.144 122.704 214.36C123.304 214.576 123.82 214.888 124.252 215.296C124.696 215.692 125.044 216.172 125.296 216.736C125.548 217.3 125.674 217.93 125.674 218.626C125.674 219.322 125.548 219.952 125.296 220.516C125.044 221.08 124.696 221.566 124.252 221.974C123.82 222.37 123.304 222.676 122.704 222.892C122.116 223.108 121.486 223.216 120.814 223.216C120.142 223.216 119.506 223.108 118.906 222.892C118.318 222.676 117.802 222.37 117.358 221.974C116.926 221.566 116.584 221.08 116.332 220.516C116.08 219.952 115.954 219.322 115.954 218.626ZM118.654 218.626C118.654 219.286 118.84 219.82 119.212 220.228C119.596 220.636 120.13 220.84 120.814 220.84C121.498 220.84 122.026 220.636 122.398 220.228C122.782 219.82 122.974 219.286 122.974 218.626C122.974 217.966 122.782 217.432 122.398 217.024C122.026 216.616 121.498 216.412 120.814 216.412C120.13 216.412 119.596 216.616 119.212 217.024C118.84 217.432 118.654 217.966 118.654 218.626Z" fill="#565656"/>
<path d="M112.632 213.568C112.356 213.232 112.014 212.974 111.606 212.794C111.21 212.614 110.748 212.524 110.22 212.524C109.692 212.524 109.2 212.626 108.744 212.83C108.3 213.034 107.91 213.322 107.574 213.694C107.25 214.054 106.992 214.486 106.8 214.99C106.62 215.494 106.53 216.04 106.53 216.628C106.53 217.228 106.62 217.78 106.8 218.284C106.992 218.776 107.25 219.208 107.574 219.58C107.898 219.94 108.276 220.222 108.708 220.426C109.152 220.63 109.626 220.732 110.13 220.732C110.706 220.732 111.216 220.612 111.66 220.372C112.104 220.132 112.47 219.796 112.758 219.364L115.098 221.11C114.558 221.866 113.874 222.424 113.046 222.784C112.218 223.144 111.366 223.324 110.49 223.324C109.494 223.324 108.576 223.168 107.736 222.856C106.896 222.544 106.17 222.1 105.558 221.524C104.946 220.936 104.466 220.228 104.118 219.4C103.782 218.572 103.614 217.648 103.614 216.628C103.614 215.608 103.782 214.684 104.118 213.856C104.466 213.028 104.946 212.326 105.558 211.75C106.17 211.162 106.896 210.712 107.736 210.4C108.576 210.088 109.494 209.932 110.49 209.932C110.85 209.932 111.222 209.968 111.606 210.04C112.002 210.1 112.386 210.202 112.758 210.346C113.142 210.49 113.508 210.682 113.856 210.922C114.204 211.162 114.516 211.456 114.792 211.804L112.632 213.568Z" fill="#565656"/>
<g clip-path="url(#clip0_1568_60276)">
<path d="M160 171C198.66 171 230 139.66 230 101C230 62.3401 198.66 31 160 31C121.34 31 90 62.3401 90 101C90 139.66 121.34 171 160 171Z" fill="#324A5E"/>
<path d="M164.439 170.856C199.873 168.637 228.159 140.063 229.913 104.506L197.606 72.1987L160.629 97.2289L118.859 125.276L164.439 170.856Z" fill="#2B3B4E"/>
<path d="M194.372 86.3871H156.74C154.245 86.3871 152.223 84.3645 152.223 81.8694V75.3493C152.223 72.8542 154.245 70.8315 156.74 70.8315H194.372C196.867 70.8315 198.889 72.8542 198.889 75.3493V81.8699C198.889 84.3645 196.866 86.3871 194.372 86.3871Z" fill="#F9B54C"/>
<path d="M194.372 101.943H156.74C154.245 101.943 152.223 99.9202 152.223 97.4256V90.9049C152.223 88.4098 154.245 86.3872 156.74 86.3872H194.372C196.867 86.3872 198.889 88.4098 198.889 90.9049V97.4256C198.889 99.9202 196.866 101.943 194.372 101.943Z" fill="#FFD15D"/>
<path d="M194.372 117.498H156.74C154.245 117.498 152.223 115.476 152.223 112.981V106.461C152.223 103.965 154.245 101.943 156.74 101.943H194.372C196.867 101.943 198.889 103.966 198.889 106.461V112.981C198.889 115.476 196.866 117.498 194.372 117.498Z" fill="#F9B54C"/>
<path d="M194.372 133.054H156.74C154.245 133.054 152.223 131.031 152.223 128.537V122.016C152.223 119.521 154.245 117.499 156.74 117.499H194.372C196.867 117.499 198.889 119.522 198.889 122.016V128.537C198.889 131.031 196.866 133.054 194.372 133.054Z" fill="#FFD15D"/>
<path d="M194.372 70.8315H175.399V86.3871H194.372C196.867 86.3871 198.889 84.3645 198.889 81.8699V75.3487C198.889 72.8542 196.866 70.8315 194.372 70.8315Z" fill="#F4A200"/>
<path d="M194.372 86.3872H175.399V101.943H194.372C196.867 101.943 198.889 99.9202 198.889 97.4256V90.9049C198.889 88.4098 196.866 86.3872 194.372 86.3872Z" fill="#F9B54C"/>
<path d="M194.372 101.943H175.399V117.498H194.372C196.867 117.498 198.889 115.476 198.889 112.981V106.461C198.889 103.965 196.866 101.943 194.372 101.943Z" fill="#F4A200"/>
<path d="M194.372 117.499H175.399V133.054H194.372C196.867 133.054 198.889 131.032 198.889 128.537V122.016C198.889 119.521 196.866 117.499 194.372 117.499Z" fill="#F9B54C"/>
<path d="M138.552 128.812C150.398 128.812 160 119.209 160 107.364C160 95.5186 150.398 85.916 138.552 85.916C126.707 85.916 117.104 95.5186 117.104 107.364C117.104 119.209 126.707 128.812 138.552 128.812Z" fill="#FFD15D"/>
<path d="M138.552 85.916C138.5 85.916 138.448 85.9198 138.396 85.9198V128.807C138.448 128.808 138.5 128.811 138.552 128.811C150.398 128.811 160 119.209 160 107.363C160 95.518 150.398 85.916 138.552 85.916Z" fill="#F9B54C"/>
<path d="M138.552 133.997C123.867 133.997 111.919 122.049 111.919 107.364C111.919 92.678 123.867 80.7305 138.552 80.7305C153.238 80.7305 165.185 92.678 165.185 107.364C165.185 122.049 153.238 133.997 138.552 133.997ZM138.552 91.1011C129.585 91.1011 122.289 98.3967 122.289 107.364C122.289 116.331 129.585 123.627 138.552 123.627C147.519 123.627 154.815 116.331 154.815 107.364C154.815 98.3967 147.519 91.1011 138.552 91.1011Z" fill="#F9B54C"/>
<path d="M138.552 80.7305C138.5 80.7305 138.448 80.7343 138.396 80.7343V91.1047C138.448 91.1041 138.5 91.1009 138.552 91.1009C147.52 91.1009 154.815 98.3965 154.815 107.364C154.815 116.331 147.52 123.626 138.552 123.626C138.5 123.626 138.448 123.623 138.396 123.622V133.993C138.448 133.993 138.5 133.997 138.552 133.997C153.238 133.997 165.186 122.049 165.186 107.364C165.186 92.6781 153.238 80.7305 138.552 80.7305Z" fill="#F4A200"/>
</g>
<defs>
<clipPath id="clip0_1568_60276">
<rect width="140" height="140" fill="white" transform="translate(90 31)"/>
</clipPath>
</defs>
</svg>
