<svg width="320" height="240" viewBox="0 0 320 240" fill="none" xmlns="http://www.w3.org/2000/svg">
<path d="M187.409 221.488C186.977 222.04 186.431 222.466 185.771 222.766C185.111 223.066 184.427 223.216 183.719 223.216C183.047 223.216 182.411 223.108 181.811 222.892C181.223 222.676 180.707 222.37 180.263 221.974C179.831 221.566 179.489 221.08 179.237 220.516C178.985 219.952 178.859 219.322 178.859 218.626C178.859 217.93 178.985 217.3 179.237 216.736C179.489 216.172 179.831 215.692 180.263 215.296C180.707 214.888 181.223 214.576 181.811 214.36C182.411 214.144 183.047 214.036 183.719 214.036C184.343 214.036 184.907 214.144 185.411 214.36C185.927 214.576 186.359 214.888 186.707 215.296C187.067 215.692 187.343 216.172 187.535 216.736C187.727 217.3 187.823 217.93 187.823 218.626V219.472H181.559C181.667 219.988 181.901 220.402 182.261 220.714C182.621 221.014 183.065 221.164 183.593 221.164C184.037 221.164 184.409 221.068 184.709 220.876C185.021 220.672 185.291 220.414 185.519 220.102L187.409 221.488ZM185.123 217.636C185.135 217.18 184.985 216.79 184.673 216.466C184.361 216.142 183.959 215.98 183.467 215.98C183.167 215.98 182.903 216.028 182.675 216.124C182.447 216.22 182.249 216.346 182.081 216.502C181.925 216.646 181.799 216.82 181.703 217.024C181.619 217.216 181.571 217.42 181.559 217.636H185.123Z" fill="#565656"/>
<path d="M174.49 209.392H177.19V223H174.49V209.392Z" fill="#565656"/>
<path d="M163.368 214.252H165.852V215.404H165.888C165.996 215.248 166.134 215.092 166.302 214.936C166.482 214.768 166.686 214.618 166.914 214.486C167.154 214.354 167.412 214.246 167.688 214.162C167.964 214.078 168.258 214.036 168.57 214.036C169.218 214.036 169.806 214.15 170.334 214.378C170.862 214.594 171.312 214.906 171.684 215.314C172.068 215.71 172.362 216.184 172.566 216.736C172.77 217.288 172.872 217.894 172.872 218.554C172.872 219.166 172.776 219.754 172.584 220.318C172.404 220.87 172.14 221.362 171.792 221.794C171.456 222.226 171.042 222.574 170.55 222.838C170.058 223.09 169.5 223.216 168.876 223.216C168.312 223.216 167.784 223.132 167.292 222.964C166.812 222.784 166.416 222.484 166.104 222.064H166.068V227.104H163.368V214.252ZM165.852 218.626C165.852 219.286 166.038 219.82 166.41 220.228C166.794 220.636 167.328 220.84 168.012 220.84C168.696 220.84 169.224 220.636 169.596 220.228C169.98 219.82 170.172 219.286 170.172 218.626C170.172 217.966 169.98 217.432 169.596 217.024C169.224 216.616 168.696 216.412 168.012 216.412C167.328 216.412 166.794 216.616 166.41 217.024C166.038 217.432 165.852 217.966 165.852 218.626Z" fill="#565656"/>
<path d="M147.454 214.252H150.046V215.44H150.082C150.166 215.272 150.286 215.104 150.442 214.936C150.598 214.768 150.784 214.618 151 214.486C151.216 214.354 151.462 214.246 151.738 214.162C152.014 214.078 152.314 214.036 152.638 214.036C153.25 214.036 153.79 214.162 154.258 214.414C154.738 214.666 155.098 215.062 155.338 215.602C155.65 215.038 156.028 214.636 156.472 214.396C156.916 214.156 157.462 214.036 158.11 214.036C158.698 214.036 159.19 214.138 159.586 214.342C159.994 214.534 160.312 214.804 160.54 215.152C160.78 215.488 160.948 215.89 161.044 216.358C161.152 216.814 161.206 217.306 161.206 217.834V223H158.506V217.906C158.506 217.498 158.416 217.15 158.236 216.862C158.068 216.562 157.762 216.412 157.318 216.412C157.006 216.412 156.742 216.466 156.526 216.574C156.322 216.67 156.154 216.808 156.022 216.988C155.902 217.168 155.812 217.378 155.752 217.618C155.704 217.858 155.68 218.11 155.68 218.374V223H152.98V218.374C152.98 218.218 152.974 218.026 152.962 217.798C152.95 217.57 152.908 217.354 152.836 217.15C152.764 216.946 152.644 216.772 152.476 216.628C152.32 216.484 152.086 216.412 151.774 216.412C151.426 216.412 151.144 216.478 150.928 216.61C150.712 216.73 150.544 216.898 150.424 217.114C150.316 217.318 150.244 217.552 150.208 217.816C150.172 218.08 150.154 218.356 150.154 218.644V223H147.454V214.252Z" fill="#565656"/>
<path d="M142.814 214.252H145.514V223H142.814V214.252ZM142.598 211.498C142.598 211.066 142.748 210.7 143.048 210.4C143.36 210.088 143.732 209.932 144.164 209.932C144.596 209.932 144.962 210.088 145.262 210.4C145.574 210.7 145.73 211.066 145.73 211.498C145.73 211.93 145.574 212.302 145.262 212.614C144.962 212.914 144.596 213.064 144.164 213.064C143.732 213.064 143.36 212.914 143.048 212.614C142.748 212.302 142.598 211.93 142.598 211.498Z" fill="#565656"/>
<path d="M139.084 213.37C138.856 213.082 138.544 212.872 138.148 212.74C137.764 212.596 137.398 212.524 137.05 212.524C136.846 212.524 136.636 212.548 136.42 212.596C136.204 212.644 136 212.722 135.808 212.83C135.616 212.926 135.46 213.058 135.34 213.226C135.22 213.394 135.16 213.598 135.16 213.838C135.16 214.222 135.304 214.516 135.592 214.72C135.88 214.924 136.24 215.098 136.672 215.242C137.116 215.386 137.59 215.53 138.094 215.674C138.598 215.818 139.066 216.022 139.498 216.286C139.942 216.55 140.308 216.904 140.596 217.348C140.884 217.792 141.028 218.386 141.028 219.13C141.028 219.838 140.896 220.456 140.632 220.984C140.368 221.512 140.008 221.95 139.552 222.298C139.108 222.646 138.586 222.904 137.986 223.072C137.398 223.24 136.774 223.324 136.114 223.324C135.286 223.324 134.518 223.198 133.81 222.946C133.102 222.694 132.442 222.286 131.83 221.722L133.828 219.526C134.116 219.91 134.476 220.21 134.908 220.426C135.352 220.63 135.808 220.732 136.276 220.732C136.504 220.732 136.732 220.708 136.96 220.66C137.2 220.6 137.41 220.516 137.59 220.408C137.782 220.3 137.932 220.162 138.04 219.994C138.16 219.826 138.22 219.628 138.22 219.4C138.22 219.016 138.07 218.716 137.77 218.5C137.482 218.272 137.116 218.08 136.672 217.924C136.228 217.768 135.748 217.612 135.232 217.456C134.716 217.3 134.236 217.09 133.792 216.826C133.348 216.562 132.976 216.214 132.676 215.782C132.388 215.35 132.244 214.78 132.244 214.072C132.244 213.388 132.376 212.788 132.64 212.272C132.916 211.756 133.276 211.324 133.72 210.976C134.176 210.628 134.698 210.37 135.286 210.202C135.874 210.022 136.48 209.932 137.104 209.932C137.824 209.932 138.52 210.034 139.192 210.238C139.864 210.442 140.47 210.784 141.01 211.264L139.084 213.37Z" fill="#565656"/>
<g clip-path="url(#clip0_1568_60171)">
<path d="M160 171C198.66 171 230 139.66 230 101C230 62.3401 198.66 31 160 31C121.34 31 90 62.3401 90 101C90 139.66 121.34 171 160 171Z" fill="#B5F1F4"/>
<path d="M229.247 111.278L189.461 71.4927L151.673 109.485L131.155 131.11L170.29 170.245C200.717 165.762 224.769 141.706 229.247 111.278Z" fill="#84DBFF"/>
<path d="M160 139.889C181.478 139.889 198.889 122.478 198.889 101C198.889 79.5224 181.478 62.1113 160 62.1113C138.522 62.1113 121.111 79.5224 121.111 101C121.111 122.478 138.522 139.889 160 139.889Z" fill="#E6F3FF"/>
<path d="M160 62.1113C159.947 62.1113 159.896 62.1152 159.843 62.1152V139.885C159.896 139.885 159.947 139.889 160 139.889C181.477 139.889 198.889 122.478 198.889 101C198.889 79.523 181.477 62.1113 160 62.1113Z" fill="#CFDBE6"/>
<path d="M160 142.717C136.998 142.717 118.283 124.003 118.283 101C118.283 77.9971 136.998 59.2827 160 59.2827C183.003 59.2827 201.718 77.9971 201.718 101C201.718 124.003 183.003 142.717 160 142.717ZM160 64.9393C140.116 64.9393 123.94 81.1156 123.94 101C123.94 120.884 140.116 137.061 160 137.061C179.885 137.061 196.061 120.884 196.061 101C196.061 81.1156 179.885 64.9393 160 64.9393Z" fill="#324A5E"/>
<path d="M160 59.2827C159.948 59.2827 159.895 59.2846 159.843 59.2846V64.9431C159.896 64.9431 159.947 64.9393 160 64.9393C179.884 64.9393 196.06 81.1156 196.06 101C196.06 120.884 179.884 137.061 160 137.061C159.947 137.061 159.896 137.057 159.843 137.057V142.715C159.895 142.715 159.948 142.717 160 142.717C183.003 142.717 201.717 124.003 201.717 101C201.717 77.9971 183.003 59.2827 160 59.2827Z" fill="#2B3B4E"/>
<path d="M191.111 101C191.111 83.8176 177.182 69.8887 160 69.8887V101H191.111Z" fill="#FC6F58"/>
<path d="M160 73.8957C161.301 73.8957 162.357 72.8404 162.357 71.5387C162.357 70.2369 161.301 69.1816 160 69.1816C158.698 69.1816 157.643 70.2369 157.643 71.5387C157.643 72.8404 158.698 73.8957 160 73.8957Z" fill="#324A5E"/>
<path d="M160 132.818C161.301 132.818 162.357 131.763 162.357 130.461C162.357 129.159 161.301 128.104 160 128.104C158.698 128.104 157.643 129.159 157.643 130.461C157.643 131.763 158.698 132.818 160 132.818Z" fill="#324A5E"/>
<path d="M160 69.1816C159.946 69.1816 159.896 69.1939 159.843 69.1978V73.8801C159.896 73.8834 159.946 73.8957 160 73.8957C161.301 73.8957 162.357 72.8402 162.357 71.5387C162.357 70.2371 161.301 69.1816 160 69.1816Z" fill="#2B3B4E"/>
<path d="M160 128.104C159.946 128.104 159.896 128.117 159.843 128.121V132.803C159.896 132.807 159.946 132.819 160 132.819C161.301 132.819 162.357 131.764 162.357 130.462C162.357 129.161 161.301 128.104 160 128.104Z" fill="#2B3B4E"/>
<path d="M189.461 103.357C190.762 103.357 191.818 102.302 191.818 101C191.818 99.6983 190.762 98.6431 189.461 98.6431C188.159 98.6431 187.104 99.6983 187.104 101C187.104 102.302 188.159 103.357 189.461 103.357Z" fill="#2B3B4E"/>
<path d="M130.539 103.357C131.84 103.357 132.896 102.302 132.896 101C132.896 99.6983 131.84 98.6431 130.539 98.6431C129.237 98.6431 128.182 99.6983 128.182 101C128.182 102.302 129.237 103.357 130.539 103.357Z" fill="#324A5E"/>
<path d="M180.831 124.187C182.132 124.187 183.188 123.132 183.188 121.83C183.188 120.528 182.132 119.473 180.831 119.473C179.529 119.473 178.474 120.528 178.474 121.83C178.474 123.132 179.529 124.187 180.831 124.187Z" fill="#2B3B4E"/>
<path d="M139.17 82.527C140.471 82.527 141.527 81.4718 141.527 80.17C141.527 78.8683 140.471 77.813 139.17 77.813C137.868 77.813 136.812 78.8683 136.812 80.17C136.812 81.4718 137.868 82.527 139.17 82.527Z" fill="#324A5E"/>
<path d="M180.831 82.527C182.132 82.527 183.188 81.4718 183.188 80.17C183.188 78.8683 182.132 77.813 180.831 77.813C179.529 77.813 178.474 78.8683 178.474 80.17C178.474 81.4718 179.529 82.527 180.831 82.527Z" fill="#2B3B4E"/>
<path d="M139.17 124.187C140.471 124.187 141.527 123.132 141.527 121.83C141.527 120.528 140.471 119.473 139.17 119.473C137.868 119.473 136.812 120.528 136.812 121.83C136.812 123.132 137.868 124.187 139.17 124.187Z" fill="#324A5E"/>
</g>
<defs>
<clipPath id="clip0_1568_60171">
<rect width="140" height="140" fill="white" transform="translate(90 31)"/>
</clipPath>
</defs>
</svg>
