<svg width="320" height="240" viewBox="0 0 320 240" fill="none" xmlns="http://www.w3.org/2000/svg">
<path d="M194.571 221.488C194.139 222.04 193.593 222.466 192.933 222.766C192.273 223.066 191.589 223.216 190.881 223.216C190.209 223.216 189.573 223.108 188.973 222.892C188.385 222.676 187.869 222.37 187.425 221.974C186.993 221.566 186.651 221.08 186.399 220.516C186.147 219.952 186.021 219.322 186.021 218.626C186.021 217.93 186.147 217.3 186.399 216.736C186.651 216.172 186.993 215.692 187.425 215.296C187.869 214.888 188.385 214.576 188.973 214.36C189.573 214.144 190.209 214.036 190.881 214.036C191.505 214.036 192.069 214.144 192.573 214.36C193.089 214.576 193.521 214.888 193.869 215.296C194.229 215.692 194.505 216.172 194.697 216.736C194.889 217.3 194.985 217.93 194.985 218.626V219.472H188.721C188.829 219.988 189.063 220.402 189.423 220.714C189.783 221.014 190.227 221.164 190.755 221.164C191.199 221.164 191.571 221.068 191.871 220.876C192.183 220.672 192.453 220.414 192.681 220.102L194.571 221.488ZM192.285 217.636C192.297 217.18 192.147 216.79 191.835 216.466C191.523 216.142 191.121 215.98 190.629 215.98C190.329 215.98 190.065 216.028 189.837 216.124C189.609 216.22 189.411 216.346 189.243 216.502C189.087 216.646 188.961 216.82 188.865 217.024C188.781 217.216 188.733 217.42 188.721 217.636H192.285Z" fill="#565656"/>
<path d="M175.372 214.252H178.288L180.502 220.192H180.538L182.59 214.252H185.308L181.852 223H178.99L175.372 214.252Z" fill="#565656"/>
<path d="M171.65 214.252H174.35V223H171.65V214.252ZM171.434 211.498C171.434 211.066 171.584 210.7 171.884 210.4C172.196 210.088 172.568 209.932 173 209.932C173.432 209.932 173.798 210.088 174.098 210.4C174.41 210.7 174.566 211.066 174.566 211.498C174.566 211.93 174.41 212.302 174.098 212.614C173.798 212.914 173.432 213.064 173 213.064C172.568 213.064 172.196 212.914 171.884 212.614C171.584 212.302 171.434 211.93 171.434 211.498Z" fill="#565656"/>
<path d="M170.241 216.412H167.865V219.328C167.865 219.568 167.877 219.79 167.901 219.994C167.925 220.186 167.979 220.354 168.063 220.498C168.147 220.642 168.273 220.756 168.441 220.84C168.621 220.912 168.855 220.948 169.143 220.948C169.287 220.948 169.474 220.936 169.701 220.912C169.942 220.876 170.121 220.804 170.241 220.696V222.946C169.941 223.054 169.63 223.126 169.306 223.162C168.981 223.198 168.663 223.216 168.351 223.216C167.895 223.216 167.475 223.168 167.091 223.072C166.707 222.976 166.371 222.826 166.083 222.622C165.795 222.406 165.567 222.13 165.399 221.794C165.243 221.458 165.165 221.05 165.165 220.57V216.412H163.438V214.252H165.165V211.66H167.865V214.252H170.241V216.412Z" fill="#565656"/>
<path d="M159.644 214.252H162.344V223H159.644V214.252ZM159.428 211.498C159.428 211.066 159.578 210.7 159.878 210.4C160.19 210.088 160.562 209.932 160.994 209.932C161.426 209.932 161.792 210.088 162.092 210.4C162.404 210.7 162.56 211.066 162.56 211.498C162.56 211.93 162.404 212.302 162.092 212.614C161.792 212.914 161.426 213.064 160.994 213.064C160.562 213.064 160.19 212.914 159.878 212.614C159.578 212.302 159.428 211.93 159.428 211.498Z" fill="#565656"/>
<path d="M157.696 223H155.104V221.812H155.068C154.972 221.98 154.846 222.148 154.69 222.316C154.546 222.484 154.366 222.634 154.15 222.766C153.934 222.898 153.688 223.006 153.412 223.09C153.136 223.174 152.836 223.216 152.512 223.216C151.828 223.216 151.27 223.114 150.838 222.91C150.418 222.694 150.088 222.4 149.848 222.028C149.62 221.656 149.464 221.218 149.38 220.714C149.308 220.21 149.272 219.664 149.272 219.076V214.252H151.972V218.536C151.972 218.788 151.978 219.052 151.99 219.328C152.014 219.592 152.068 219.838 152.152 220.066C152.248 220.294 152.386 220.48 152.566 220.624C152.758 220.768 153.028 220.84 153.376 220.84C153.724 220.84 154.006 220.78 154.222 220.66C154.438 220.528 154.6 220.36 154.708 220.156C154.828 219.94 154.906 219.7 154.942 219.436C154.978 219.172 154.996 218.896 154.996 218.608V214.252H157.696V223Z" fill="#565656"/>
<path d="M147.9 216.412H145.524V219.328C145.524 219.568 145.536 219.79 145.56 219.994C145.584 220.186 145.638 220.354 145.722 220.498C145.806 220.642 145.932 220.756 146.1 220.84C146.28 220.912 146.514 220.948 146.802 220.948C146.946 220.948 147.132 220.936 147.36 220.912C147.6 220.876 147.78 220.804 147.9 220.696V222.946C147.6 223.054 147.288 223.126 146.964 223.162C146.64 223.198 146.322 223.216 146.01 223.216C145.554 223.216 145.134 223.168 144.75 223.072C144.366 222.976 144.03 222.826 143.742 222.622C143.454 222.406 143.226 222.13 143.058 221.794C142.902 221.458 142.824 221.05 142.824 220.57V216.412H141.096V214.252H142.824V211.66H145.524V214.252H147.9V216.412Z" fill="#565656"/>
<path d="M131.606 214.252H134.198V215.44H134.234C134.318 215.272 134.438 215.104 134.594 214.936C134.75 214.768 134.936 214.618 135.152 214.486C135.368 214.354 135.614 214.246 135.89 214.162C136.166 214.078 136.466 214.036 136.79 214.036C137.474 214.036 138.026 214.144 138.446 214.36C138.866 214.564 139.19 214.852 139.418 215.224C139.658 215.596 139.82 216.034 139.904 216.538C139.988 217.042 140.03 217.588 140.03 218.176V223H137.33V218.716C137.33 218.464 137.318 218.206 137.294 217.942C137.282 217.666 137.228 217.414 137.132 217.186C137.048 216.958 136.91 216.772 136.718 216.628C136.538 216.484 136.274 216.412 135.926 216.412C135.578 216.412 135.296 216.478 135.08 216.61C134.864 216.73 134.696 216.898 134.576 217.114C134.468 217.318 134.396 217.552 134.36 217.816C134.324 218.08 134.306 218.356 134.306 218.644V223H131.606V214.252Z" fill="#565656"/>
<path d="M126.586 210.256H129.394V223H126.586V210.256Z" fill="#565656"/>
<g clip-path="url(#clip0_1568_60241)">
<path d="M160 171C198.66 171 230 139.66 230 101C230 62.3401 198.66 31 160 31C121.34 31 90 62.3401 90 101C90 139.66 121.34 171 160 171Z" fill="#FC6F58"/>
<path d="M229.926 104.151L189.463 63.6885L154.599 105.341L130.106 137.837L163.194 170.925C199.326 169.301 228.325 140.289 229.926 104.151Z" fill="#F1543F"/>
<path d="M185.612 139.889H134.388C131.351 139.889 128.889 137.427 128.889 134.389V67.6104C128.889 64.5734 131.351 62.1113 134.388 62.1113H185.612C188.649 62.1113 191.112 64.5734 191.112 67.6104V134.39C191.112 137.427 188.65 139.889 185.612 139.889Z" fill="#47677C"/>
<path d="M185.612 62.1113H159.686V139.889H185.612C188.649 139.889 191.111 137.427 191.111 134.389V67.611C191.111 64.5734 188.649 62.1113 185.612 62.1113Z" fill="#4A6475"/>
<path d="M186.397 66.9053H133.603V128.501H186.397V66.9053Z" fill="#324A5E"/>
<path d="M186.396 66.9053H159.685V128.501H186.396V66.9053Z" fill="#2B3B4E"/>
<path d="M160 136.118C161.431 136.118 162.592 134.957 162.592 133.525C162.592 132.093 161.431 130.933 160 130.933C158.568 130.933 157.407 132.093 157.407 133.525C157.407 134.957 158.568 136.118 160 136.118Z" fill="#272525"/>
<path d="M200.299 123.744C198.951 123.744 197.736 124.303 196.867 125.199V124.978C196.867 122.336 194.725 120.193 192.082 120.193C190.734 120.193 189.519 120.753 188.649 121.649V121.34C188.649 118.698 186.508 116.556 183.865 116.556C182.08 116.556 180.527 117.535 179.705 118.983V105.784C179.705 103.142 177.563 101 174.92 101C172.277 101 170.135 103.141 170.135 105.784V137.84L168.951 132.912C168.118 130.149 165.203 128.586 162.441 129.42C159.679 130.253 158.115 133.168 158.949 135.93L167.283 170.624C181.608 169.144 194.648 163.341 205.084 154.545V128.528C205.084 125.886 202.942 123.744 200.299 123.744Z" fill="#FFD15D"/>
<path d="M205.084 128.528C205.084 125.886 202.942 123.743 200.299 123.743C198.951 123.743 197.736 124.303 196.867 125.199V124.978C196.867 122.335 194.725 120.193 192.082 120.193C190.734 120.193 189.519 120.752 188.65 121.649V121.34C188.65 120.852 188.576 120.383 188.44 119.94V164.966C194.487 162.272 200.087 158.756 205.084 154.545L205.084 128.528Z" fill="#F9B54C"/>
<path d="M171.666 96.8753H148.333C146.186 96.8753 144.444 95.1341 144.444 92.9865C144.444 90.8389 146.186 89.0977 148.333 89.0977H171.666C173.814 89.0977 175.555 90.8389 175.555 92.9865C175.555 95.1341 173.814 96.8753 171.666 96.8753Z" fill="#90DFAA"/>
<path d="M171.667 89.0977H159.686V96.8753H171.666C173.814 96.8753 175.555 95.1341 175.555 92.9865C175.556 90.8389 173.814 89.0977 171.667 89.0977Z" fill="#4CDBC4"/>
</g>
<defs>
<clipPath id="clip0_1568_60241">
<rect width="140" height="140" fill="white" transform="translate(90 31)"/>
</clipPath>
</defs>
</svg>
