<svg width="1200" height="450" viewBox="0 0 1200 450" fill="none" xmlns="http://www.w3.org/2000/svg">
<rect x="90" y="21" width="1020" height="65" rx="4" fill="#218FCF"/>
<path d="M460.906 59H457.486L452.126 44.84H455.966L459.246 54.88H459.326L462.586 44.84H466.366L460.906 59ZM480.359 59L480.439 48.98H480.379L476.699 59H474.299L470.719 48.98H470.659L470.739 59H467.519V44.84H472.379L475.599 53.92H475.679L478.759 44.84H483.699V59H480.359ZM499.12 59H495.82L493.86 52.8H493.82L491.9 59H488.6L485.16 49.04H488.7L490.42 55.34H490.48L492.26 49.04H495.56L497.4 55.34H497.44L499.18 49.04H502.58L499.12 59ZM509.742 54.66H509.322C508.962 54.66 508.595 54.68 508.222 54.72C507.862 54.7467 507.535 54.8067 507.242 54.9C506.962 54.9933 506.729 55.1333 506.542 55.32C506.355 55.4933 506.262 55.7267 506.262 56.02C506.262 56.2067 506.302 56.3667 506.382 56.5C506.475 56.6333 506.589 56.74 506.722 56.82C506.855 56.9 507.009 56.96 507.182 57C507.355 57.0267 507.522 57.04 507.682 57.04C508.349 57.04 508.855 56.86 509.202 56.5C509.562 56.1267 509.742 55.6267 509.742 55V54.66ZM503.722 50.4C504.309 49.84 504.989 49.42 505.762 49.14C506.549 48.86 507.349 48.72 508.162 48.72C509.002 48.72 509.709 48.8267 510.282 49.04C510.869 49.24 511.342 49.56 511.702 50C512.062 50.4267 512.322 50.9733 512.482 51.64C512.655 52.2933 512.742 53.0733 512.742 53.98V59H509.742V57.94H509.682C509.429 58.3533 509.042 58.6733 508.522 58.9C508.015 59.1267 507.462 59.24 506.862 59.24C506.462 59.24 506.049 59.1867 505.622 59.08C505.195 58.9733 504.802 58.8 504.442 58.56C504.095 58.32 503.809 58 503.582 57.6C503.355 57.2 503.242 56.7067 503.242 56.12C503.242 55.4 503.435 54.82 503.822 54.38C504.222 53.94 504.729 53.6 505.342 53.36C505.969 53.12 506.662 52.96 507.422 52.88C508.182 52.8 508.922 52.76 509.642 52.76V52.6C509.642 52.1067 509.469 51.7467 509.122 51.52C508.775 51.28 508.349 51.16 507.842 51.16C507.375 51.16 506.922 51.26 506.482 51.46C506.055 51.66 505.689 51.9 505.382 52.18L503.722 50.4ZM521.65 51.72C521.503 51.68 521.357 51.6533 521.21 51.64C521.077 51.6267 520.943 51.62 520.81 51.62C520.37 51.62 519.997 51.7 519.69 51.86C519.397 52.02 519.157 52.2133 518.97 52.44C518.797 52.6667 518.67 52.9133 518.59 53.18C518.51 53.4467 518.47 53.68 518.47 53.88V59H515.19V49.04H518.35V50.48H518.39C518.643 49.9733 519.003 49.56 519.47 49.24C519.937 48.92 520.477 48.76 521.09 48.76C521.223 48.76 521.35 48.7667 521.47 48.78C521.603 48.7933 521.71 48.8133 521.79 48.84L521.65 51.72ZM529.628 52.88C529.628 52.36 529.462 51.9133 529.128 51.54C528.808 51.1667 528.322 50.98 527.668 50.98C527.348 50.98 527.055 51.0333 526.788 51.14C526.522 51.2333 526.288 51.3667 526.088 51.54C525.888 51.7133 525.728 51.92 525.608 52.16C525.488 52.3867 525.422 52.6267 525.408 52.88H529.628ZM532.648 54.14C532.648 54.2733 532.648 54.4067 532.648 54.54C532.648 54.6733 532.642 54.8 532.628 54.92H525.408C525.435 55.2 525.515 55.4533 525.648 55.68C525.795 55.9067 525.975 56.1067 526.188 56.28C526.415 56.44 526.662 56.5667 526.928 56.66C527.208 56.7533 527.495 56.8 527.788 56.8C528.308 56.8 528.748 56.7067 529.108 56.52C529.468 56.32 529.762 56.0667 529.988 55.76L532.268 57.2C531.802 57.88 531.182 58.4067 530.408 58.78C529.648 59.14 528.762 59.32 527.748 59.32C527.002 59.32 526.295 59.2067 525.628 58.98C524.962 58.74 524.375 58.4 523.868 57.96C523.375 57.5067 522.982 56.9533 522.688 56.3C522.408 55.6467 522.268 54.9 522.268 54.06C522.268 53.2467 522.408 52.5133 522.688 51.86C522.968 51.1933 523.348 50.6333 523.828 50.18C524.308 49.7133 524.875 49.3533 525.528 49.1C526.182 48.8467 526.888 48.72 527.648 48.72C528.382 48.72 529.055 48.8467 529.668 49.1C530.282 49.34 530.808 49.6933 531.248 50.16C531.688 50.6267 532.028 51.1933 532.268 51.86C532.522 52.5267 532.648 53.2867 532.648 54.14ZM552.322 57.04C551.696 57.76 550.922 58.3333 550.002 58.76C549.082 59.1733 548.022 59.38 546.822 59.38C545.729 59.38 544.716 59.2 543.782 58.84C542.862 58.48 542.062 57.9733 541.382 57.32C540.702 56.6533 540.169 55.86 539.782 54.94C539.396 54.02 539.202 53.0067 539.202 51.9C539.202 50.7667 539.396 49.74 539.782 48.82C540.182 47.9 540.729 47.12 541.422 46.48C542.116 45.8267 542.929 45.3267 543.862 44.98C544.796 44.6333 545.802 44.46 546.882 44.46C547.882 44.46 548.862 44.64 549.822 45C550.796 45.3467 551.582 45.86 552.182 46.54L549.862 48.86C549.542 48.42 549.122 48.0933 548.602 47.88C548.082 47.6667 547.549 47.56 547.002 47.56C546.402 47.56 545.849 47.6733 545.342 47.9C544.849 48.1133 544.422 48.4133 544.062 48.8C543.702 49.1867 543.422 49.6467 543.222 50.18C543.022 50.7 542.922 51.2733 542.922 51.9C542.922 52.54 543.022 53.1267 543.222 53.66C543.422 54.1933 543.696 54.6533 544.042 55.04C544.402 55.4133 544.829 55.7067 545.322 55.92C545.816 56.1333 546.356 56.24 546.942 56.24C547.622 56.24 548.216 56.1067 548.722 55.84C549.229 55.5733 549.636 55.2267 549.942 54.8L552.322 57.04ZM553.648 59V43.88H556.968V59H553.648ZM570.125 53.98C570.125 54.7933 569.978 55.5333 569.685 56.2C569.392 56.8533 568.992 57.4133 568.485 57.88C567.978 58.3333 567.392 58.6867 566.725 58.94C566.058 59.1933 565.345 59.32 564.585 59.32C563.838 59.32 563.125 59.1933 562.445 58.94C561.778 58.6867 561.192 58.3333 560.685 57.88C560.192 57.4133 559.798 56.8533 559.505 56.2C559.212 55.5333 559.065 54.7933 559.065 53.98C559.065 53.1667 559.212 52.4333 559.505 51.78C559.798 51.1267 560.192 50.5733 560.685 50.12C561.192 49.6667 561.778 49.32 562.445 49.08C563.125 48.84 563.838 48.72 564.585 48.72C565.345 48.72 566.058 48.84 566.725 49.08C567.392 49.32 567.978 49.6667 568.485 50.12C568.992 50.5733 569.392 51.1267 569.685 51.78C569.978 52.4333 570.125 53.1667 570.125 53.98ZM566.965 53.98C566.965 53.66 566.912 53.3467 566.805 53.04C566.698 52.7333 566.545 52.4667 566.345 52.24C566.145 52 565.898 51.8067 565.605 51.66C565.312 51.5133 564.972 51.44 564.585 51.44C564.198 51.44 563.858 51.5133 563.565 51.66C563.272 51.8067 563.025 52 562.825 52.24C562.638 52.4667 562.492 52.7333 562.385 53.04C562.292 53.3467 562.245 53.66 562.245 53.98C562.245 54.3 562.292 54.6133 562.385 54.92C562.492 55.2267 562.645 55.5067 562.845 55.76C563.045 56 563.292 56.1933 563.585 56.34C563.878 56.4867 564.218 56.56 564.605 56.56C564.992 56.56 565.332 56.4867 565.625 56.34C565.918 56.1933 566.165 56 566.365 55.76C566.565 55.5067 566.712 55.2267 566.805 54.92C566.912 54.6133 566.965 54.3 566.965 53.98ZM578.762 59V57.62H578.722C578.602 57.8467 578.442 58.06 578.242 58.26C578.055 58.46 577.829 58.6333 577.562 58.78C577.309 58.9267 577.022 59.0467 576.702 59.14C576.395 59.2333 576.069 59.28 575.722 59.28C575.055 59.28 574.489 59.16 574.022 58.92C573.569 58.68 573.195 58.3733 572.902 58C572.622 57.6133 572.415 57.18 572.282 56.7C572.162 56.2067 572.102 55.7067 572.102 55.2V49.04H575.402V54.44C575.402 54.72 575.422 54.9867 575.462 55.24C575.502 55.4933 575.575 55.72 575.682 55.92C575.802 56.12 575.955 56.28 576.142 56.4C576.329 56.5067 576.575 56.56 576.882 56.56C577.455 56.56 577.889 56.3467 578.182 55.92C578.489 55.4933 578.642 54.9933 578.642 54.42V49.04H581.922V59H578.762ZM592.027 59V57.7H591.987C591.667 58.2067 591.207 58.6 590.607 58.88C590.02 59.1467 589.394 59.28 588.727 59.28C587.98 59.28 587.314 59.1333 586.727 58.84C586.14 58.5467 585.64 58.16 585.227 57.68C584.827 57.1867 584.52 56.62 584.307 55.98C584.094 55.34 583.987 54.6733 583.987 53.98C583.987 53.2867 584.094 52.6267 584.307 52C584.534 51.36 584.847 50.8 585.247 50.32C585.66 49.84 586.154 49.46 586.727 49.18C587.314 48.9 587.967 48.76 588.687 48.76C589.42 48.76 590.04 48.9 590.547 49.18C591.054 49.46 591.447 49.7667 591.727 50.1H591.767V43.88H595.047V59H592.027ZM591.907 54C591.907 53.68 591.847 53.3667 591.727 53.06C591.62 52.7533 591.46 52.48 591.247 52.24C591.047 52 590.8 51.8067 590.507 51.66C590.214 51.5133 589.88 51.44 589.507 51.44C589.12 51.44 588.78 51.5133 588.487 51.66C588.194 51.8067 587.947 52 587.747 52.24C587.547 52.4667 587.394 52.7333 587.287 53.04C587.194 53.3467 587.147 53.66 587.147 53.98C587.147 54.3 587.194 54.62 587.287 54.94C587.394 55.2467 587.547 55.52 587.747 55.76C587.947 56 588.194 56.1933 588.487 56.34C588.78 56.4867 589.12 56.56 589.507 56.56C589.88 56.56 590.214 56.4867 590.507 56.34C590.8 56.1933 591.047 56 591.247 55.76C591.46 55.52 591.62 55.2467 591.727 54.94C591.847 54.6333 591.907 54.32 591.907 54ZM602.491 64L602.471 44H605.091V64H602.491ZM618.635 59H615.095L611.175 49.04H614.795L616.895 55.5H616.955L619.055 49.04H622.555L618.635 59ZM631.483 48.52C631.19 48.1467 630.803 47.8533 630.323 47.64C629.856 47.4133 629.403 47.3 628.963 47.3C628.736 47.3 628.503 47.32 628.263 47.36C628.036 47.4 627.83 47.48 627.643 47.6C627.456 47.7067 627.296 47.8533 627.163 48.04C627.043 48.2133 626.983 48.44 626.983 48.72C626.983 48.96 627.03 49.16 627.123 49.32C627.23 49.48 627.376 49.62 627.563 49.74C627.763 49.86 627.996 49.9733 628.263 50.08C628.53 50.1733 628.83 50.2733 629.163 50.38C629.643 50.54 630.143 50.72 630.663 50.92C631.183 51.1067 631.656 51.36 632.083 51.68C632.51 52 632.863 52.4 633.143 52.88C633.423 53.3467 633.563 53.9333 633.563 54.64C633.563 55.4533 633.41 56.16 633.103 56.76C632.81 57.3467 632.41 57.8333 631.903 58.22C631.396 58.6067 630.816 58.8933 630.163 59.08C629.51 59.2667 628.836 59.36 628.143 59.36C627.13 59.36 626.15 59.1867 625.203 58.84C624.256 58.48 623.47 57.9733 622.843 57.32L625.083 55.04C625.43 55.4667 625.883 55.8267 626.443 56.12C627.016 56.4 627.583 56.54 628.143 56.54C628.396 56.54 628.643 56.5133 628.883 56.46C629.123 56.4067 629.33 56.32 629.503 56.2C629.69 56.08 629.836 55.92 629.943 55.72C630.05 55.52 630.103 55.28 630.103 55C630.103 54.7333 630.036 54.5067 629.903 54.32C629.77 54.1333 629.576 53.9667 629.323 53.82C629.083 53.66 628.776 53.52 628.403 53.4C628.043 53.2667 627.63 53.1267 627.163 52.98C626.71 52.8333 626.263 52.66 625.823 52.46C625.396 52.26 625.01 52.0067 624.663 51.7C624.33 51.38 624.056 51 623.843 50.56C623.643 50.1067 623.543 49.56 623.543 48.92C623.543 48.1333 623.703 47.46 624.023 46.9C624.343 46.34 624.763 45.88 625.283 45.52C625.803 45.16 626.39 44.9 627.043 44.74C627.696 44.5667 628.356 44.48 629.023 44.48C629.823 44.48 630.636 44.6267 631.463 44.92C632.303 45.2133 633.036 45.6467 633.663 46.22L631.483 48.52ZM646.719 53.98C646.719 54.6733 646.613 55.34 646.399 55.98C646.186 56.62 645.873 57.1867 645.459 57.68C645.059 58.16 644.566 58.5467 643.979 58.84C643.393 59.1333 642.726 59.28 641.979 59.28C641.366 59.28 640.786 59.16 640.239 58.92C639.693 58.6667 639.266 58.3267 638.959 57.9H638.919V63.8H635.639V49.04H638.759V50.26H638.819C639.126 49.86 639.546 49.5133 640.079 49.22C640.626 48.9133 641.266 48.76 641.999 48.76C642.719 48.76 643.373 48.9 643.959 49.18C644.546 49.46 645.039 49.84 645.439 50.32C645.853 50.8 646.166 51.36 646.379 52C646.606 52.6267 646.719 53.2867 646.719 53.98ZM643.539 53.98C643.539 53.66 643.486 53.3467 643.379 53.04C643.286 52.7333 643.139 52.4667 642.939 52.24C642.753 52 642.513 51.8067 642.219 51.66C641.926 51.5133 641.586 51.44 641.199 51.44C640.826 51.44 640.493 51.5133 640.199 51.66C639.906 51.8067 639.653 52 639.439 52.24C639.239 52.48 639.079 52.7533 638.959 53.06C638.853 53.3667 638.799 53.68 638.799 54C638.799 54.32 638.853 54.6333 638.959 54.94C639.079 55.2467 639.239 55.52 639.439 55.76C639.653 56 639.906 56.1933 640.199 56.34C640.493 56.4867 640.826 56.56 641.199 56.56C641.586 56.56 641.926 56.4867 642.219 56.34C642.513 56.1933 642.753 56 642.939 55.76C643.139 55.52 643.286 55.2467 643.379 54.94C643.486 54.62 643.539 54.3 643.539 53.98ZM655.344 59V53.6C655.344 53.32 655.324 53.0533 655.284 52.8C655.244 52.5467 655.164 52.3267 655.044 52.14C654.937 51.94 654.791 51.7867 654.604 51.68C654.417 51.56 654.177 51.5 653.884 51.5C653.311 51.5 652.871 51.7067 652.564 52.12C652.257 52.52 652.104 53.02 652.104 53.62V59H648.824V43.88H652.104V50.3H652.144C652.371 49.9 652.731 49.5467 653.224 49.24C653.717 48.92 654.311 48.76 655.004 48.76C655.684 48.76 656.251 48.88 656.704 49.12C657.171 49.36 657.544 49.6733 657.824 50.06C658.117 50.4333 658.324 50.8667 658.444 51.36C658.577 51.8533 658.644 52.3467 658.644 52.84V59H655.344ZM667.988 52.88C667.988 52.36 667.821 51.9133 667.488 51.54C667.168 51.1667 666.681 50.98 666.028 50.98C665.708 50.98 665.414 51.0333 665.148 51.14C664.881 51.2333 664.648 51.3667 664.448 51.54C664.248 51.7133 664.088 51.92 663.968 52.16C663.848 52.3867 663.781 52.6267 663.768 52.88H667.988ZM671.008 54.14C671.008 54.2733 671.008 54.4067 671.008 54.54C671.008 54.6733 671.001 54.8 670.988 54.92H663.768C663.794 55.2 663.874 55.4533 664.008 55.68C664.154 55.9067 664.334 56.1067 664.548 56.28C664.774 56.44 665.021 56.5667 665.288 56.66C665.568 56.7533 665.854 56.8 666.148 56.8C666.668 56.8 667.108 56.7067 667.468 56.52C667.828 56.32 668.121 56.0667 668.348 55.76L670.628 57.2C670.161 57.88 669.541 58.4067 668.768 58.78C668.008 59.14 667.121 59.32 666.108 59.32C665.361 59.32 664.654 59.2067 663.988 58.98C663.321 58.74 662.734 58.4 662.228 57.96C661.734 57.5067 661.341 56.9533 661.048 56.3C660.768 55.6467 660.628 54.9 660.628 54.06C660.628 53.2467 660.768 52.5133 661.048 51.86C661.328 51.1933 661.708 50.6333 662.188 50.18C662.668 49.7133 663.234 49.3533 663.888 49.1C664.541 48.8467 665.248 48.72 666.008 48.72C666.741 48.72 667.414 48.8467 668.028 49.1C668.641 49.34 669.168 49.6933 669.608 50.16C670.048 50.6267 670.388 51.1933 670.628 51.86C670.881 52.5267 671.008 53.2867 671.008 54.14ZM679.502 51.72C679.355 51.68 679.208 51.6533 679.062 51.64C678.928 51.6267 678.795 51.62 678.662 51.62C678.222 51.62 677.848 51.7 677.542 51.86C677.248 52.02 677.008 52.2133 676.822 52.44C676.648 52.6667 676.522 52.9133 676.442 53.18C676.362 53.4467 676.322 53.68 676.322 53.88V59H673.042V49.04H676.202V50.48H676.242C676.495 49.9733 676.855 49.56 677.322 49.24C677.788 48.92 678.328 48.76 678.942 48.76C679.075 48.76 679.202 48.7667 679.322 48.78C679.455 48.7933 679.562 48.8133 679.642 48.84L679.502 51.72ZM687.48 52.88C687.48 52.36 687.313 51.9133 686.98 51.54C686.66 51.1667 686.173 50.98 685.52 50.98C685.2 50.98 684.907 51.0333 684.64 51.14C684.373 51.2333 684.14 51.3667 683.94 51.54C683.74 51.7133 683.58 51.92 683.46 52.16C683.34 52.3867 683.273 52.6267 683.26 52.88H687.48ZM690.5 54.14C690.5 54.2733 690.5 54.4067 690.5 54.54C690.5 54.6733 690.493 54.8 690.48 54.92H683.26C683.287 55.2 683.367 55.4533 683.5 55.68C683.647 55.9067 683.827 56.1067 684.04 56.28C684.267 56.44 684.513 56.5667 684.78 56.66C685.06 56.7533 685.347 56.8 685.64 56.8C686.16 56.8 686.6 56.7067 686.96 56.52C687.32 56.32 687.613 56.0667 687.84 55.76L690.12 57.2C689.653 57.88 689.033 58.4067 688.26 58.78C687.5 59.14 686.613 59.32 685.6 59.32C684.853 59.32 684.147 59.2067 683.48 58.98C682.813 58.74 682.227 58.4 681.72 57.96C681.227 57.5067 680.833 56.9533 680.54 56.3C680.26 55.6467 680.12 54.9 680.12 54.06C680.12 53.2467 680.26 52.5133 680.54 51.86C680.82 51.1933 681.2 50.6333 681.68 50.18C682.16 49.7133 682.727 49.3533 683.38 49.1C684.033 48.8467 684.74 48.72 685.5 48.72C686.233 48.72 686.907 48.8467 687.52 49.1C688.133 49.34 688.66 49.6933 689.1 50.16C689.54 50.6267 689.88 51.1933 690.12 51.86C690.373 52.5267 690.5 53.2867 690.5 54.14ZM699.234 54.2V58.38H696.634V54.2H692.374V51.68H696.614V47.5H699.214V51.68H703.474V54.2H699.234Z" fill="white"/>
<path d="M729.178 48.1649L729.798 48.4602L730.034 47.8143C730.971 45.2389 733.161 43.5688 735.593 43.6265C738.524 43.7152 741.011 46.3394 741.277 49.8316L741.317 50.3558L741.84 50.4063C743.817 50.5968 745.506 52.7 745.448 55.4615L745.448 55.4619C745.389 58.3176 743.48 60.3632 741.411 60.309L741.403 60.3088H741.394C741.034 60.3088 736.146 60.325 731.206 60.3414L731.036 60.3419C726.073 60.3583 721.109 60.3748 720.668 60.375C719.666 60.3448 718.658 59.8353 717.899 59.0226C717.14 58.2092 716.673 57.1385 716.7 56.0527L716.7 56.0525C716.756 53.786 718.521 52.0734 720.579 52.1293L720.587 52.1296H720.596C720.87 52.1296 721.191 52.183 721.499 52.271L722.152 52.4573L722.283 51.7914C722.767 49.3485 724.799 47.6072 727.182 47.6628C727.91 47.6928 728.553 47.8678 729.178 48.1649Z" stroke="white" stroke-width="1.25"/>
<path d="M215.291 350.98C215.291 349.847 215.477 348.82 215.851 347.9C216.224 346.967 216.737 346.173 217.391 345.52C218.057 344.867 218.844 344.367 219.751 344.02C220.671 343.66 221.677 343.48 222.771 343.48C223.877 343.467 224.891 343.633 225.811 343.98C226.731 344.313 227.524 344.807 228.191 345.46C228.857 346.113 229.377 346.9 229.751 347.82C230.124 348.74 230.311 349.767 230.311 350.9C230.311 352.007 230.124 353.013 229.751 353.92C229.377 354.827 228.857 355.607 228.191 356.26C227.524 356.913 226.731 357.427 225.811 357.8C224.891 358.16 223.877 358.347 222.771 358.36C221.677 358.36 220.671 358.187 219.751 357.84C218.844 357.48 218.057 356.98 217.391 356.34C216.737 355.687 216.224 354.907 215.851 354C215.477 353.093 215.291 352.087 215.291 350.98ZM217.931 350.82C217.931 351.58 218.044 352.28 218.271 352.92C218.511 353.56 218.844 354.113 219.271 354.58C219.697 355.047 220.204 355.413 220.791 355.68C221.391 355.947 222.057 356.08 222.791 356.08C223.524 356.08 224.191 355.947 224.791 355.68C225.391 355.413 225.904 355.047 226.331 354.58C226.757 354.113 227.084 353.56 227.311 352.92C227.551 352.28 227.671 351.58 227.671 350.82C227.671 350.113 227.551 349.453 227.311 348.84C227.084 348.227 226.757 347.693 226.331 347.24C225.904 346.773 225.391 346.413 224.791 346.16C224.191 345.893 223.524 345.76 222.791 345.76C222.057 345.76 221.391 345.893 220.791 346.16C220.204 346.413 219.697 346.773 219.271 347.24C218.844 347.693 218.511 348.227 218.271 348.84C218.044 349.453 217.931 350.113 217.931 350.82ZM232.491 348.4H234.771V349.94H234.811C235.038 349.46 235.384 349.047 235.851 348.7C236.318 348.34 236.951 348.16 237.751 348.16C238.391 348.16 238.931 348.267 239.371 348.48C239.824 348.693 240.191 348.973 240.471 349.32C240.751 349.667 240.951 350.067 241.071 350.52C241.191 350.973 241.251 351.447 241.251 351.94V358H238.851V353.14C238.851 352.873 238.838 352.58 238.811 352.26C238.784 351.927 238.711 351.62 238.591 351.34C238.484 351.047 238.311 350.807 238.071 350.62C237.831 350.42 237.504 350.32 237.091 350.32C236.691 350.32 236.351 350.387 236.071 350.52C235.804 350.653 235.578 350.833 235.391 351.06C235.218 351.287 235.091 351.547 235.011 351.84C234.931 352.133 234.891 352.44 234.891 352.76V358H232.491V348.4ZM248.235 354.1H243.295V352.06H248.235V354.1ZM250.284 348.4H252.564V349.84H252.604C252.95 349.253 253.417 348.827 254.004 348.56C254.59 348.293 255.224 348.16 255.904 348.16C256.637 348.16 257.297 348.293 257.884 348.56C258.47 348.813 258.97 349.167 259.384 349.62C259.797 350.073 260.11 350.607 260.324 351.22C260.537 351.833 260.644 352.493 260.644 353.2C260.644 353.907 260.53 354.567 260.304 355.18C260.077 355.793 259.757 356.327 259.344 356.78C258.944 357.233 258.457 357.593 257.884 357.86C257.31 358.113 256.684 358.24 256.004 358.24C255.55 358.24 255.15 358.193 254.804 358.1C254.457 358.007 254.15 357.887 253.884 357.74C253.617 357.593 253.39 357.44 253.204 357.28C253.017 357.107 252.864 356.94 252.744 356.78H252.684V362.56H250.284V348.4ZM258.244 353.2C258.244 352.827 258.177 352.467 258.044 352.12C257.924 351.773 257.737 351.467 257.484 351.2C257.244 350.933 256.95 350.72 256.604 350.56C256.257 350.4 255.864 350.32 255.424 350.32C254.984 350.32 254.59 350.4 254.244 350.56C253.897 350.72 253.597 350.933 253.344 351.2C253.104 351.467 252.917 351.773 252.784 352.12C252.664 352.467 252.604 352.827 252.604 353.2C252.604 353.573 252.664 353.933 252.784 354.28C252.917 354.627 253.104 354.933 253.344 355.2C253.597 355.467 253.897 355.68 254.244 355.84C254.59 356 254.984 356.08 255.424 356.08C255.864 356.08 256.257 356 256.604 355.84C256.95 355.68 257.244 355.467 257.484 355.2C257.737 354.933 257.924 354.627 258.044 354.28C258.177 353.933 258.244 353.573 258.244 353.2ZM262.881 348.4H265.281V349.92H265.321C265.588 349.36 265.968 348.927 266.461 348.62C266.955 348.313 267.521 348.16 268.161 348.16C268.308 348.16 268.448 348.173 268.581 348.2C268.728 348.227 268.875 348.26 269.021 348.3V350.62C268.821 350.567 268.621 350.527 268.421 350.5C268.235 350.46 268.048 350.44 267.861 350.44C267.301 350.44 266.848 350.547 266.501 350.76C266.168 350.96 265.908 351.193 265.721 351.46C265.548 351.727 265.428 351.993 265.361 352.26C265.308 352.527 265.281 352.727 265.281 352.86V358H262.881V348.4ZM272.223 354.04C272.303 354.76 272.583 355.32 273.063 355.72C273.543 356.12 274.123 356.32 274.803 356.32C275.403 356.32 275.903 356.2 276.303 355.96C276.717 355.707 277.077 355.393 277.383 355.02L279.103 356.32C278.543 357.013 277.917 357.507 277.223 357.8C276.53 358.093 275.803 358.24 275.043 358.24C274.323 358.24 273.643 358.12 273.003 357.88C272.363 357.64 271.81 357.3 271.343 356.86C270.877 356.42 270.503 355.893 270.223 355.28C269.957 354.653 269.823 353.96 269.823 353.2C269.823 352.44 269.957 351.753 270.223 351.14C270.503 350.513 270.877 349.98 271.343 349.54C271.81 349.1 272.363 348.76 273.003 348.52C273.643 348.28 274.323 348.16 275.043 348.16C275.71 348.16 276.317 348.28 276.863 348.52C277.423 348.747 277.897 349.08 278.283 349.52C278.683 349.96 278.99 350.507 279.203 351.16C279.43 351.8 279.543 352.54 279.543 353.38V354.04H272.223ZM277.143 352.24C277.13 351.533 276.91 350.98 276.483 350.58C276.057 350.167 275.463 349.96 274.703 349.96C273.983 349.96 273.41 350.167 272.983 350.58C272.57 350.993 272.317 351.547 272.223 352.24H277.143ZM281.688 348.4H283.968V349.9H284.008C284.221 349.447 284.561 349.047 285.028 348.7C285.508 348.34 286.148 348.16 286.948 348.16C288.454 348.16 289.454 348.753 289.948 349.94C290.294 349.327 290.728 348.88 291.248 348.6C291.768 348.307 292.388 348.16 293.108 348.16C293.748 348.16 294.288 348.267 294.728 348.48C295.168 348.693 295.521 348.987 295.788 349.36C296.068 349.733 296.268 350.173 296.388 350.68C296.508 351.173 296.568 351.707 296.568 352.28V358H294.168V352.56C294.168 352.267 294.141 351.987 294.088 351.72C294.034 351.44 293.941 351.2 293.808 351C293.674 350.787 293.494 350.62 293.268 350.5C293.041 350.38 292.748 350.32 292.388 350.32C292.014 350.32 291.694 350.393 291.428 350.54C291.174 350.673 290.961 350.86 290.788 351.1C290.628 351.327 290.508 351.593 290.428 351.9C290.361 352.193 290.328 352.493 290.328 352.8V358H287.928V352.28C287.928 351.68 287.801 351.207 287.548 350.86C287.294 350.5 286.874 350.32 286.288 350.32C285.888 350.32 285.548 350.387 285.268 350.52C285.001 350.653 284.774 350.833 284.588 351.06C284.414 351.287 284.288 351.547 284.208 351.84C284.128 352.133 284.088 352.44 284.088 352.76V358H281.688V348.4ZM299.23 348.4H301.63V358H299.23V348.4ZM298.89 345.14C298.89 344.753 299.03 344.42 299.31 344.14C299.603 343.847 299.97 343.7 300.41 343.7C300.85 343.7 301.217 343.84 301.51 344.12C301.817 344.387 301.97 344.727 301.97 345.14C301.97 345.553 301.817 345.9 301.51 346.18C301.217 346.447 300.85 346.58 300.41 346.58C299.97 346.58 299.603 346.44 299.31 346.16C299.03 345.867 298.89 345.527 298.89 345.14ZM309.505 351.06C309.039 350.407 308.412 350.08 307.625 350.08C307.305 350.08 306.992 350.16 306.685 350.32C306.379 350.48 306.225 350.74 306.225 351.1C306.225 351.393 306.352 351.607 306.605 351.74C306.859 351.873 307.179 351.987 307.565 352.08C307.952 352.173 308.365 352.273 308.805 352.38C309.259 352.473 309.679 352.627 310.065 352.84C310.452 353.04 310.772 353.32 311.025 353.68C311.279 354.04 311.405 354.533 311.405 355.16C311.405 355.733 311.279 356.22 311.025 356.62C310.785 357.007 310.465 357.32 310.065 357.56C309.679 357.8 309.239 357.973 308.745 358.08C308.252 358.187 307.759 358.24 307.265 358.24C306.519 358.24 305.832 358.133 305.205 357.92C304.579 357.707 304.019 357.32 303.525 356.76L305.125 355.26C305.432 355.607 305.759 355.893 306.105 356.12C306.465 356.333 306.899 356.44 307.405 356.44C307.579 356.44 307.759 356.42 307.945 356.38C308.132 356.34 308.305 356.273 308.465 356.18C308.625 356.087 308.752 355.973 308.845 355.84C308.952 355.693 309.005 355.527 309.005 355.34C309.005 355.007 308.879 354.76 308.625 354.6C308.372 354.44 308.052 354.313 307.665 354.22C307.279 354.113 306.859 354.02 306.405 353.94C305.965 353.847 305.552 353.707 305.165 353.52C304.779 353.32 304.459 353.047 304.205 352.7C303.952 352.353 303.825 351.873 303.825 351.26C303.825 350.727 303.932 350.267 304.145 349.88C304.372 349.48 304.665 349.153 305.025 348.9C305.385 348.647 305.799 348.46 306.265 348.34C306.732 348.22 307.205 348.16 307.685 348.16C308.325 348.16 308.959 348.273 309.585 348.5C310.212 348.713 310.719 349.087 311.105 349.62L309.505 351.06ZM315.192 354.04C315.272 354.76 315.552 355.32 316.032 355.72C316.512 356.12 317.092 356.32 317.772 356.32C318.372 356.32 318.872 356.2 319.272 355.96C319.685 355.707 320.045 355.393 320.352 355.02L322.072 356.32C321.512 357.013 320.885 357.507 320.192 357.8C319.499 358.093 318.772 358.24 318.012 358.24C317.292 358.24 316.612 358.12 315.972 357.88C315.332 357.64 314.779 357.3 314.312 356.86C313.845 356.42 313.472 355.893 313.192 355.28C312.925 354.653 312.792 353.96 312.792 353.2C312.792 352.44 312.925 351.753 313.192 351.14C313.472 350.513 313.845 349.98 314.312 349.54C314.779 349.1 315.332 348.76 315.972 348.52C316.612 348.28 317.292 348.16 318.012 348.16C318.679 348.16 319.285 348.28 319.832 348.52C320.392 348.747 320.865 349.08 321.252 349.52C321.652 349.96 321.959 350.507 322.172 351.16C322.399 351.8 322.512 352.54 322.512 353.38V354.04H315.192ZM320.112 352.24C320.099 351.533 319.879 350.98 319.452 350.58C319.025 350.167 318.432 349.96 317.672 349.96C316.952 349.96 316.379 350.167 315.952 350.58C315.539 350.993 315.285 351.547 315.192 352.24H320.112ZM329.876 351.06C329.41 350.407 328.783 350.08 327.996 350.08C327.676 350.08 327.363 350.16 327.056 350.32C326.75 350.48 326.596 350.74 326.596 351.1C326.596 351.393 326.723 351.607 326.976 351.74C327.23 351.873 327.55 351.987 327.936 352.08C328.323 352.173 328.736 352.273 329.176 352.38C329.63 352.473 330.05 352.627 330.436 352.84C330.823 353.04 331.143 353.32 331.396 353.68C331.65 354.04 331.776 354.533 331.776 355.16C331.776 355.733 331.65 356.22 331.396 356.62C331.156 357.007 330.836 357.32 330.436 357.56C330.05 357.8 329.61 357.973 329.116 358.08C328.623 358.187 328.13 358.24 327.636 358.24C326.89 358.24 326.203 358.133 325.576 357.92C324.95 357.707 324.39 357.32 323.896 356.76L325.496 355.26C325.803 355.607 326.13 355.893 326.476 356.12C326.836 356.333 327.27 356.44 327.776 356.44C327.95 356.44 328.13 356.42 328.316 356.38C328.503 356.34 328.676 356.273 328.836 356.18C328.996 356.087 329.123 355.973 329.216 355.84C329.323 355.693 329.376 355.527 329.376 355.34C329.376 355.007 329.25 354.76 328.996 354.6C328.743 354.44 328.423 354.313 328.036 354.22C327.65 354.113 327.23 354.02 326.776 353.94C326.336 353.847 325.923 353.707 325.536 353.52C325.15 353.32 324.83 353.047 324.576 352.7C324.323 352.353 324.196 351.873 324.196 351.26C324.196 350.727 324.303 350.267 324.516 349.88C324.743 349.48 325.036 349.153 325.396 348.9C325.756 348.647 326.17 348.46 326.636 348.34C327.103 348.22 327.576 348.16 328.056 348.16C328.696 348.16 329.33 348.273 329.956 348.5C330.583 348.713 331.09 349.087 331.476 349.62L329.876 351.06ZM338.261 348.4H340.881L343.441 355.12H343.481L346.061 348.4H348.521L344.741 358H342.181L338.261 348.4ZM357.092 346.88C356.826 346.493 356.466 346.213 356.012 346.04C355.572 345.853 355.106 345.76 354.612 345.76C354.319 345.76 354.032 345.793 353.752 345.86C353.486 345.927 353.239 346.033 353.012 346.18C352.799 346.327 352.626 346.52 352.492 346.76C352.359 346.987 352.292 347.26 352.292 347.58C352.292 348.06 352.459 348.427 352.792 348.68C353.126 348.933 353.539 349.153 354.032 349.34C354.526 349.527 355.066 349.707 355.652 349.88C356.239 350.053 356.779 350.293 357.272 350.6C357.766 350.907 358.179 351.313 358.512 351.82C358.846 352.327 359.012 353 359.012 353.84C359.012 354.6 358.872 355.267 358.592 355.84C358.312 356.4 357.932 356.867 357.452 357.24C356.986 357.613 356.439 357.893 355.812 358.08C355.186 358.267 354.526 358.36 353.832 358.36C352.952 358.36 352.106 358.213 351.292 357.92C350.479 357.627 349.779 357.133 349.192 356.44L351.092 354.6C351.399 355.067 351.799 355.433 352.292 355.7C352.799 355.953 353.332 356.08 353.892 356.08C354.186 356.08 354.479 356.04 354.772 355.96C355.066 355.88 355.332 355.76 355.572 355.6C355.812 355.44 356.006 355.24 356.152 355C356.299 354.747 356.372 354.46 356.372 354.14C356.372 353.62 356.206 353.22 355.872 352.94C355.539 352.66 355.126 352.427 354.632 352.24C354.139 352.04 353.599 351.853 353.012 351.68C352.426 351.507 351.886 351.273 351.392 350.98C350.899 350.673 350.486 350.273 350.152 349.78C349.819 349.273 349.652 348.6 349.652 347.76C349.652 347.027 349.799 346.393 350.092 345.86C350.399 345.327 350.792 344.887 351.272 344.54C351.766 344.18 352.326 343.913 352.952 343.74C353.579 343.567 354.219 343.48 354.872 343.48C355.619 343.48 356.339 343.593 357.032 343.82C357.739 344.047 358.372 344.42 358.932 344.94L357.092 346.88ZM361.417 348.4H363.697V349.84H363.737C364.083 349.253 364.55 348.827 365.137 348.56C365.723 348.293 366.357 348.16 367.037 348.16C367.77 348.16 368.43 348.293 369.017 348.56C369.603 348.813 370.103 349.167 370.517 349.62C370.93 350.073 371.243 350.607 371.457 351.22C371.67 351.833 371.777 352.493 371.777 353.2C371.777 353.907 371.663 354.567 371.437 355.18C371.21 355.793 370.89 356.327 370.477 356.78C370.077 357.233 369.59 357.593 369.017 357.86C368.443 358.113 367.817 358.24 367.137 358.24C366.683 358.24 366.283 358.193 365.937 358.1C365.59 358.007 365.283 357.887 365.017 357.74C364.75 357.593 364.523 357.44 364.337 357.28C364.15 357.107 363.997 356.94 363.877 356.78H363.817V362.56H361.417V348.4ZM369.377 353.2C369.377 352.827 369.31 352.467 369.177 352.12C369.057 351.773 368.87 351.467 368.617 351.2C368.377 350.933 368.083 350.72 367.737 350.56C367.39 350.4 366.997 350.32 366.557 350.32C366.117 350.32 365.723 350.4 365.377 350.56C365.03 350.72 364.73 350.933 364.477 351.2C364.237 351.467 364.05 351.773 363.917 352.12C363.797 352.467 363.737 352.827 363.737 353.2C363.737 353.573 363.797 353.933 363.917 354.28C364.05 354.627 364.237 354.933 364.477 355.2C364.73 355.467 365.03 355.68 365.377 355.84C365.723 356 366.117 356.08 366.557 356.08C366.997 356.08 367.39 356 367.737 355.84C368.083 355.68 368.377 355.467 368.617 355.2C368.87 354.933 369.057 354.627 369.177 354.28C369.31 353.933 369.377 353.573 369.377 353.2ZM376.414 349.74H376.454C376.641 349.34 376.968 348.98 377.434 348.66C377.914 348.327 378.528 348.16 379.274 348.16C379.914 348.16 380.454 348.267 380.894 348.48C381.348 348.693 381.714 348.973 381.994 349.32C382.274 349.667 382.474 350.067 382.594 350.52C382.714 350.973 382.774 351.447 382.774 351.94V358H380.374V353.14C380.374 352.873 380.361 352.58 380.334 352.26C380.308 351.927 380.234 351.62 380.114 351.34C380.008 351.047 379.834 350.807 379.594 350.62C379.354 350.42 379.028 350.32 378.614 350.32C378.214 350.32 377.874 350.387 377.594 350.52C377.328 350.653 377.101 350.833 376.914 351.06C376.741 351.287 376.614 351.547 376.534 351.84C376.454 352.133 376.414 352.44 376.414 352.76V358H374.014V342.88H376.414V349.74ZM387.419 354.04C387.499 354.76 387.779 355.32 388.259 355.72C388.739 356.12 389.319 356.32 389.999 356.32C390.599 356.32 391.099 356.2 391.499 355.96C391.912 355.707 392.272 355.393 392.579 355.02L394.299 356.32C393.739 357.013 393.112 357.507 392.419 357.8C391.725 358.093 390.999 358.24 390.239 358.24C389.519 358.24 388.839 358.12 388.199 357.88C387.559 357.64 387.005 357.3 386.539 356.86C386.072 356.42 385.699 355.893 385.419 355.28C385.152 354.653 385.019 353.96 385.019 353.2C385.019 352.44 385.152 351.753 385.419 351.14C385.699 350.513 386.072 349.98 386.539 349.54C387.005 349.1 387.559 348.76 388.199 348.52C388.839 348.28 389.519 348.16 390.239 348.16C390.905 348.16 391.512 348.28 392.059 348.52C392.619 348.747 393.092 349.08 393.479 349.52C393.879 349.96 394.185 350.507 394.399 351.16C394.625 351.8 394.739 352.54 394.739 353.38V354.04H387.419ZM392.339 352.24C392.325 351.533 392.105 350.98 391.679 350.58C391.252 350.167 390.659 349.96 389.899 349.96C389.179 349.96 388.605 350.167 388.179 350.58C387.765 350.993 387.512 351.547 387.419 352.24H392.339ZM396.983 348.4H399.383V349.92H399.423C399.69 349.36 400.07 348.927 400.563 348.62C401.056 348.313 401.623 348.16 402.263 348.16C402.41 348.16 402.55 348.173 402.683 348.2C402.83 348.227 402.976 348.26 403.123 348.3V350.62C402.923 350.567 402.723 350.527 402.523 350.5C402.336 350.46 402.15 350.44 401.963 350.44C401.403 350.44 400.95 350.547 400.603 350.76C400.27 350.96 400.01 351.193 399.823 351.46C399.65 351.727 399.53 351.993 399.463 352.26C399.41 352.527 399.383 352.727 399.383 352.86V358H396.983V348.4ZM406.325 354.04C406.405 354.76 406.685 355.32 407.165 355.72C407.645 356.12 408.225 356.32 408.905 356.32C409.505 356.32 410.005 356.2 410.405 355.96C410.818 355.707 411.178 355.393 411.485 355.02L413.205 356.32C412.645 357.013 412.018 357.507 411.325 357.8C410.632 358.093 409.905 358.24 409.145 358.24C408.425 358.24 407.745 358.12 407.105 357.88C406.465 357.64 405.912 357.3 405.445 356.86C404.978 356.42 404.605 355.893 404.325 355.28C404.058 354.653 403.925 353.96 403.925 353.2C403.925 352.44 404.058 351.753 404.325 351.14C404.605 350.513 404.978 349.98 405.445 349.54C405.912 349.1 406.465 348.76 407.105 348.52C407.745 348.28 408.425 348.16 409.145 348.16C409.812 348.16 410.418 348.28 410.965 348.52C411.525 348.747 411.998 349.08 412.385 349.52C412.785 349.96 413.092 350.507 413.305 351.16C413.532 351.8 413.645 352.54 413.645 353.38V354.04H406.325ZM411.245 352.24C411.232 351.533 411.012 350.98 410.585 350.58C410.158 350.167 409.565 349.96 408.805 349.96C408.085 349.96 407.512 350.167 407.085 350.58C406.672 350.993 406.418 351.547 406.325 352.24H411.245Z" fill="#737373"/>
<path d="M876.85 343.84H881.61C882.29 343.84 882.943 343.907 883.57 344.04C884.21 344.173 884.77 344.4 885.25 344.72C885.73 345.027 886.11 345.447 886.39 345.98C886.683 346.5 886.83 347.153 886.83 347.94C886.83 348.833 886.676 349.553 886.37 350.1C886.063 350.647 885.65 351.073 885.13 351.38C884.61 351.673 884.003 351.873 883.31 351.98C882.63 352.087 881.916 352.14 881.17 352.14H879.37V358H876.85V343.84ZM880.89 349.98C881.25 349.98 881.623 349.967 882.01 349.94C882.396 349.913 882.75 349.833 883.07 349.7C883.403 349.567 883.67 349.367 883.87 349.1C884.083 348.833 884.19 348.46 884.19 347.98C884.19 347.54 884.096 347.193 883.91 346.94C883.723 346.673 883.483 346.473 883.19 346.34C882.896 346.193 882.57 346.1 882.21 346.06C881.85 346.02 881.503 346 881.17 346H879.37V349.98H880.89ZM897.616 358H895.336V356.46H895.296C895.069 356.94 894.723 357.36 894.256 357.72C893.789 358.067 893.156 358.24 892.356 358.24C891.716 358.24 891.169 358.14 890.716 357.94C890.276 357.727 889.916 357.447 889.636 357.1C889.356 356.74 889.156 356.333 889.036 355.88C888.916 355.427 888.856 354.953 888.856 354.46V348.4H891.256V353.26C891.256 353.527 891.269 353.827 891.296 354.16C891.323 354.48 891.389 354.787 891.496 355.08C891.616 355.36 891.789 355.6 892.016 355.8C892.256 355.987 892.589 356.08 893.016 356.08C893.416 356.08 893.749 356.013 894.016 355.88C894.296 355.747 894.523 355.567 894.696 355.34C894.883 355.113 895.016 354.853 895.096 354.56C895.176 354.267 895.216 353.96 895.216 353.64V348.4H897.616V358ZM900.34 342.88H902.74V349.62H902.8C902.92 349.46 903.074 349.3 903.26 349.14C903.447 348.967 903.674 348.807 903.94 348.66C904.207 348.513 904.514 348.393 904.86 348.3C905.207 348.207 905.607 348.16 906.06 348.16C906.74 348.16 907.367 348.293 907.94 348.56C908.514 348.813 909 349.167 909.4 349.62C909.814 350.073 910.134 350.607 910.36 351.22C910.587 351.833 910.7 352.493 910.7 353.2C910.7 353.907 910.594 354.567 910.38 355.18C910.167 355.793 909.854 356.327 909.44 356.78C909.027 357.233 908.527 357.593 907.94 357.86C907.354 358.113 906.694 358.24 905.96 358.24C905.28 358.24 904.647 358.107 904.06 357.84C903.474 357.573 903.007 357.147 902.66 356.56H902.62V358H900.34V342.88ZM908.3 353.2C908.3 352.827 908.234 352.467 908.1 352.12C907.98 351.773 907.794 351.467 907.54 351.2C907.3 350.933 907.007 350.72 906.66 350.56C906.314 350.4 905.92 350.32 905.48 350.32C905.04 350.32 904.647 350.4 904.3 350.56C903.954 350.72 903.654 350.933 903.4 351.2C903.16 351.467 902.974 351.773 902.84 352.12C902.72 352.467 902.66 352.827 902.66 353.2C902.66 353.573 902.72 353.933 902.84 354.28C902.974 354.627 903.16 354.933 903.4 355.2C903.654 355.467 903.954 355.68 904.3 355.84C904.647 356 905.04 356.08 905.48 356.08C905.92 356.08 906.314 356 906.66 355.84C907.007 355.68 907.3 355.467 907.54 355.2C907.794 354.933 907.98 354.627 908.1 354.28C908.234 353.933 908.3 353.573 908.3 353.2ZM912.978 342.88H915.378V358H912.978V342.88ZM918.193 348.4H920.593V358H918.193V348.4ZM917.853 345.14C917.853 344.753 917.993 344.42 918.273 344.14C918.566 343.847 918.933 343.7 919.373 343.7C919.813 343.7 920.18 343.84 920.473 344.12C920.78 344.387 920.933 344.727 920.933 345.14C920.933 345.553 920.78 345.9 920.473 346.18C920.18 346.447 919.813 346.58 919.373 346.58C918.933 346.58 918.566 346.44 918.273 346.16C917.993 345.867 917.853 345.527 917.853 345.14ZM929.908 351.28C929.628 350.987 929.335 350.753 929.028 350.58C928.722 350.407 928.408 350.32 928.088 350.32C927.648 350.32 927.255 350.4 926.908 350.56C926.562 350.72 926.262 350.933 926.008 351.2C925.768 351.467 925.582 351.773 925.448 352.12C925.328 352.467 925.268 352.827 925.268 353.2C925.268 353.573 925.328 353.933 925.448 354.28C925.582 354.627 925.768 354.933 926.008 355.2C926.262 355.467 926.562 355.68 926.908 355.84C927.255 356 927.648 356.08 928.088 356.08C928.462 356.08 928.808 356.007 929.128 355.86C929.448 355.7 929.722 355.473 929.948 355.18L931.548 356.9C931.308 357.14 931.028 357.347 930.708 357.52C930.402 357.693 930.088 357.833 929.768 357.94C929.448 358.047 929.142 358.12 928.848 358.16C928.555 358.213 928.302 358.24 928.088 358.24C927.368 358.24 926.688 358.12 926.048 357.88C925.408 357.64 924.855 357.3 924.388 356.86C923.922 356.42 923.548 355.893 923.268 355.28C923.002 354.653 922.868 353.96 922.868 353.2C922.868 352.44 923.002 351.753 923.268 351.14C923.548 350.513 923.922 349.98 924.388 349.54C924.855 349.1 925.408 348.76 926.048 348.52C926.688 348.28 927.368 348.16 928.088 348.16C928.702 348.16 929.315 348.28 929.928 348.52C930.555 348.747 931.102 349.113 931.568 349.62L929.908 351.28ZM948.855 347.16C948.335 346.6 947.828 346.227 947.335 346.04C946.855 345.853 946.368 345.76 945.875 345.76C945.141 345.76 944.475 345.893 943.875 346.16C943.288 346.413 942.781 346.773 942.355 347.24C941.928 347.693 941.595 348.227 941.355 348.84C941.128 349.453 941.015 350.113 941.015 350.82C941.015 351.58 941.128 352.28 941.355 352.92C941.595 353.56 941.928 354.113 942.355 354.58C942.781 355.047 943.288 355.413 943.875 355.68C944.475 355.947 945.141 356.08 945.875 356.08C946.448 356.08 947.001 355.947 947.535 355.68C948.081 355.4 948.588 354.96 949.055 354.36L951.135 355.84C950.495 356.72 949.715 357.36 948.795 357.76C947.875 358.16 946.895 358.36 945.855 358.36C944.761 358.36 943.755 358.187 942.835 357.84C941.928 357.48 941.141 356.98 940.475 356.34C939.821 355.687 939.308 354.907 938.935 354C938.561 353.093 938.375 352.087 938.375 350.98C938.375 349.847 938.561 348.82 938.935 347.9C939.308 346.967 939.821 346.173 940.475 345.52C941.141 344.867 941.928 344.367 942.835 344.02C943.755 343.66 944.761 343.48 945.855 343.48C946.815 343.48 947.701 343.653 948.515 344C949.341 344.333 950.108 344.907 950.815 345.72L948.855 347.16ZM952.646 342.88H955.046V358H952.646V342.88ZM957.321 353.2C957.321 352.44 957.455 351.753 957.721 351.14C958.001 350.513 958.375 349.98 958.841 349.54C959.308 349.1 959.861 348.76 960.501 348.52C961.141 348.28 961.821 348.16 962.541 348.16C963.261 348.16 963.941 348.28 964.581 348.52C965.221 348.76 965.775 349.1 966.241 349.54C966.708 349.98 967.075 350.513 967.341 351.14C967.621 351.753 967.761 352.44 967.761 353.2C967.761 353.96 967.621 354.653 967.341 355.28C967.075 355.893 966.708 356.42 966.241 356.86C965.775 357.3 965.221 357.64 964.581 357.88C963.941 358.12 963.261 358.24 962.541 358.24C961.821 358.24 961.141 358.12 960.501 357.88C959.861 357.64 959.308 357.3 958.841 356.86C958.375 356.42 958.001 355.893 957.721 355.28C957.455 354.653 957.321 353.96 957.321 353.2ZM959.721 353.2C959.721 353.573 959.781 353.933 959.901 354.28C960.035 354.627 960.221 354.933 960.461 355.2C960.715 355.467 961.015 355.68 961.361 355.84C961.708 356 962.101 356.08 962.541 356.08C962.981 356.08 963.375 356 963.721 355.84C964.068 355.68 964.361 355.467 964.601 355.2C964.855 354.933 965.041 354.627 965.161 354.28C965.295 353.933 965.361 353.573 965.361 353.2C965.361 352.827 965.295 352.467 965.161 352.12C965.041 351.773 964.855 351.467 964.601 351.2C964.361 350.933 964.068 350.72 963.721 350.56C963.375 350.4 962.981 350.32 962.541 350.32C962.101 350.32 961.708 350.4 961.361 350.56C961.015 350.72 960.715 350.933 960.461 351.2C960.221 351.467 960.035 351.773 959.901 352.12C959.781 352.467 959.721 352.827 959.721 353.2ZM978.768 358H976.488V356.46H976.448C976.222 356.94 975.875 357.36 975.408 357.72C974.942 358.067 974.308 358.24 973.508 358.24C972.868 358.24 972.322 358.14 971.868 357.94C971.428 357.727 971.068 357.447 970.788 357.1C970.508 356.74 970.308 356.333 970.188 355.88C970.068 355.427 970.008 354.953 970.008 354.46V348.4H972.408V353.26C972.408 353.527 972.422 353.827 972.448 354.16C972.475 354.48 972.542 354.787 972.648 355.08C972.768 355.36 972.942 355.6 973.168 355.8C973.408 355.987 973.742 356.08 974.168 356.08C974.568 356.08 974.902 356.013 975.168 355.88C975.448 355.747 975.675 355.567 975.848 355.34C976.035 355.113 976.168 354.853 976.248 354.56C976.328 354.267 976.368 353.96 976.368 353.64V348.4H978.768V358ZM989.093 356.56H989.053C988.706 357.147 988.239 357.573 987.653 357.84C987.066 358.107 986.433 358.24 985.753 358.24C985.006 358.24 984.339 358.113 983.753 357.86C983.179 357.593 982.686 357.233 982.273 356.78C981.859 356.327 981.546 355.793 981.333 355.18C981.119 354.567 981.013 353.907 981.013 353.2C981.013 352.493 981.126 351.833 981.353 351.22C981.579 350.607 981.893 350.073 982.293 349.62C982.706 349.167 983.199 348.813 983.773 348.56C984.346 348.293 984.973 348.16 985.653 348.16C986.106 348.16 986.506 348.207 986.853 348.3C987.199 348.393 987.506 348.513 987.773 348.66C988.039 348.807 988.266 348.967 988.453 349.14C988.639 349.3 988.793 349.46 988.913 349.62H988.973V342.88H991.373V358H989.093V356.56ZM983.413 353.2C983.413 353.573 983.473 353.933 983.593 354.28C983.726 354.627 983.913 354.933 984.153 355.2C984.406 355.467 984.706 355.68 985.053 355.84C985.399 356 985.793 356.08 986.233 356.08C986.673 356.08 987.066 356 987.413 355.84C987.759 355.68 988.053 355.467 988.293 355.2C988.546 354.933 988.733 354.627 988.853 354.28C988.986 353.933 989.053 353.573 989.053 353.2C989.053 352.827 988.986 352.467 988.853 352.12C988.733 351.773 988.546 351.467 988.293 351.2C988.053 350.933 987.759 350.72 987.413 350.56C987.066 350.4 986.673 350.32 986.233 350.32C985.793 350.32 985.399 350.4 985.053 350.56C984.706 350.72 984.406 350.933 984.153 351.2C983.913 351.467 983.726 351.773 983.593 352.12C983.473 352.467 983.413 352.827 983.413 353.2Z" fill="#737373"/>
<rect x="90" y="104" width="128" height="216" rx="4" fill="#218FCF"/>
<rect x="105" y="124" width="98" height="35" rx="4" fill="#1E4489"/>
<circle cx="183" cy="141" r="6" fill="#87DB33"/>
<circle cx="163" cy="141" r="6" fill="#87DB33"/>
<rect x="105" y="171" width="98" height="35" rx="4" fill="#1E4489"/>
<circle cx="183" cy="188" r="6" fill="#87DB33"/>
<circle cx="163" cy="188" r="6" fill="#87DB33"/>
<rect x="105" y="219" width="98" height="35" rx="4" fill="#1E4489"/>
<circle cx="183" cy="236" r="6" fill="#87DB33"/>
<circle cx="163" cy="236" r="6" fill="#87DB33"/>
<rect x="105" y="267" width="98" height="35" rx="4" fill="#1E4489"/>
<circle cx="183" cy="284" r="6" fill="#87DB33"/>
<circle cx="163" cy="284" r="6" fill="#87DB33"/>
<rect x="248" y="104" width="128" height="216" rx="4" fill="#218FCF"/>
<rect x="263" y="124" width="98" height="35" rx="4" fill="#1E4489"/>
<circle cx="341" cy="141" r="6" fill="#87DB33"/>
<circle cx="321" cy="141" r="6" fill="#87DB33"/>
<rect x="263" y="171" width="98" height="35" rx="4" fill="#1E4489"/>
<circle cx="341" cy="188" r="6" fill="#87DB33"/>
<circle cx="321" cy="188" r="6" fill="#87DB33"/>
<rect x="263" y="219" width="98" height="35" rx="4" fill="#1E4489"/>
<circle cx="341" cy="236" r="6" fill="#87DB33"/>
<circle cx="321" cy="236" r="6" fill="#87DB33"/>
<rect x="263" y="267" width="98" height="35" rx="4" fill="#1E4489"/>
<circle cx="341" cy="284" r="6" fill="#87DB33"/>
<circle cx="321" cy="284" r="6" fill="#87DB33"/>
<rect x="406" y="104" width="128" height="216" rx="4" fill="#218FCF"/>
<rect x="421" y="124" width="98" height="35" rx="4" fill="#1E4489"/>
<circle cx="499" cy="141" r="6" fill="#87DB33"/>
<circle cx="479" cy="141" r="6" fill="#87DB33"/>
<rect x="421" y="171" width="98" height="35" rx="4" fill="#1E4489"/>
<circle cx="499" cy="188" r="6" fill="#87DB33"/>
<circle cx="479" cy="188" r="6" fill="#87DB33"/>
<rect x="421" y="219" width="98" height="35" rx="4" fill="#1E4489"/>
<circle cx="499" cy="236" r="6" fill="#87DB33"/>
<circle cx="479" cy="236" r="6" fill="#87DB33"/>
<rect x="421" y="267" width="98" height="35" rx="4" fill="#1E4489"/>
<circle cx="499" cy="284" r="6" fill="#87DB33"/>
<circle cx="479" cy="284" r="6" fill="#87DB33"/>
<path d="M719 266.828H1008.46" stroke="#218FCF" stroke-width="1.8" stroke-linejoin="round"/>
<path d="M728.381 240.668H919.091" stroke="#218FCF" stroke-width="1.8" stroke-linejoin="round"/>
<path d="M1039.38 191.72C1035.39 191.721 1031.42 192.356 1027.63 193.6C1026.14 179.75 1019.78 166.877 1009.7 157.266C999.613 147.656 986.449 141.93 972.543 141.104C958.637 140.278 944.888 144.406 933.737 152.755C922.585 161.104 914.753 173.134 911.63 186.71H903.31C891.982 186.71 881.119 191.209 873.109 199.219C865.099 207.229 860.6 218.092 860.6 229.42H1077.08C1077.08 219.421 1073.11 209.832 1066.04 202.762C1058.97 195.692 1049.38 191.72 1039.38 191.72V191.72Z" fill="#218FCF"/>
<path d="M814.18 240.718C814.184 235.7 815.239 230.737 817.278 226.152C819.317 221.566 822.294 217.458 826.017 214.093C829.74 210.728 834.127 208.18 838.895 206.613C843.663 205.047 848.706 204.497 853.7 204.998" stroke="#218FCF" stroke-width="1.8" stroke-linejoin="round"/>
<path d="M853.051 205.219C853.053 195.131 856.744 185.392 863.429 177.838C870.114 170.283 879.331 165.434 889.343 164.205C899.355 162.975 909.472 165.45 917.786 171.163C926.1 176.875 932.038 185.431 934.481 195.219" stroke="#218FCF" stroke-width="1.8" stroke-linejoin="round"/>
<path d="M343.942 378.504L344.936 378.976L345.312 377.943C346.205 375.489 348.267 373.949 350.509 374.001C353.206 374.084 355.574 376.516 355.829 379.86L355.893 380.699L356.73 380.78C358.452 380.946 360.055 382.822 359.999 385.454L359.999 385.454C359.943 388.177 358.14 389.981 356.346 389.934L356.333 389.934H356.32C355.96 389.934 351.094 389.95 346.167 389.966L345.961 389.967C341.018 389.983 336.075 390 335.599 390C334.716 389.972 333.801 389.519 333.099 388.767C332.396 388.014 331.977 387.035 332.001 386.062L332.001 386.062C332.052 383.984 333.663 382.454 335.494 382.504L335.508 382.505H335.521C335.753 382.505 336.037 382.55 336.322 382.632L337.366 382.93L337.577 381.864C338.029 379.583 339.914 377.988 342.095 378.038C342.768 378.066 343.36 378.227 343.942 378.504Z" stroke="#737373" stroke-width="2"/>
<path fill-rule="evenodd" clip-rule="evenodd" d="M279.162 382.067L279.652 381.577C281.174 380.062 281.181 377.601 279.668 376.078L275.553 371.987C274.035 370.469 271.573 370.469 270.054 371.987L263.404 378.637C261.886 380.155 261.886 382.617 263.404 384.136L267.495 388.227C269.014 389.745 271.476 389.745 272.994 388.227L273.305 387.916L275.001 389.596H277.676V391.929H280.546V393.197L282.779 395.445H287.445V390.35L279.162 382.067ZM285.89 393.889H283.448L282.071 392.52V390.342H279.209V388.009H275.623L273.29 385.676L271.89 387.13C270.979 388.04 269.503 388.04 268.592 387.13L264.501 383C263.591 382.089 263.591 380.613 264.501 379.702L271.159 373.045C272.07 372.135 273.545 372.135 274.456 373.045L278.548 377.136C279.457 378.047 279.457 379.522 278.548 380.433L276.992 381.989L285.89 390.996V393.889ZM267.028 379.591C266.637 379.982 266.637 380.615 267.028 381.005C267.418 381.395 268.051 381.395 268.441 381.005L272.368 377.078C272.758 376.688 272.758 376.055 272.368 375.665C271.978 375.274 271.345 375.274 270.954 375.665L267.028 379.591Z" fill="#737373"/>
<path d="M279.652 381.577L279.299 381.222L279.298 381.223L279.652 381.577ZM279.162 382.067L278.808 381.713L278.455 382.067L278.808 382.42L279.162 382.067ZM279.668 376.078L280.022 375.725L280.02 375.723L279.668 376.078ZM275.553 371.987L275.2 372.34L275.201 372.341L275.553 371.987ZM270.054 371.987L269.701 371.633L269.701 371.633L270.054 371.987ZM263.404 378.637L263.051 378.283L263.051 378.283L263.404 378.637ZM263.404 384.136L263.051 384.489L263.051 384.489L263.404 384.136ZM267.495 388.227L267.142 388.58L267.142 388.58L267.495 388.227ZM272.994 388.227L273.348 388.58L273.348 388.58L272.994 388.227ZM273.305 387.916L273.657 387.56L273.304 387.21L272.952 387.562L273.305 387.916ZM275.001 389.596L274.649 389.951L274.795 390.096H275.001V389.596ZM277.676 389.596H278.176V389.096H277.676V389.596ZM277.676 391.929H277.176V392.429H277.676V391.929ZM280.546 391.929H281.046V391.429H280.546V391.929ZM280.546 393.197H280.046V393.403L280.192 393.549L280.546 393.197ZM282.779 395.445L282.424 395.797L282.571 395.945H282.779V395.445ZM287.445 395.445V395.945H287.945V395.445H287.445ZM287.445 390.35H287.945V390.143L287.799 389.997L287.445 390.35ZM283.448 393.889L283.095 394.244L283.241 394.389H283.448V393.889ZM285.89 393.889V394.389H286.39V393.889H285.89ZM282.071 392.52H281.571V392.728L281.718 392.875L282.071 392.52ZM282.071 390.342H282.571V389.842H282.071V390.342ZM279.209 390.342H278.709V390.842H279.209V390.342ZM279.209 388.009H279.709V387.509H279.209V388.009ZM275.623 388.009L275.27 388.363L275.416 388.509H275.623V388.009ZM273.29 385.676L273.643 385.322L273.283 384.962L272.93 385.329L273.29 385.676ZM271.89 387.13L272.243 387.484L272.25 387.477L271.89 387.13ZM268.592 387.13L268.237 387.482L268.239 387.484L268.592 387.13ZM264.501 383L264.856 382.648L264.855 382.647L264.501 383ZM264.501 379.702L264.147 379.349L264.147 379.349L264.501 379.702ZM271.159 373.045L270.805 372.691L270.805 372.691L271.159 373.045ZM274.456 373.045L274.81 372.691L274.81 372.691L274.456 373.045ZM278.548 377.136L278.901 376.782L278.901 376.782L278.548 377.136ZM278.548 380.433L278.901 380.787L278.901 380.787L278.548 380.433ZM276.992 381.989L276.638 381.635L276.287 381.987L276.636 382.34L276.992 381.989ZM285.89 390.996H286.39V390.79L286.245 390.644L285.89 390.996ZM267.028 381.005L267.381 380.651L267.381 380.651L267.028 381.005ZM267.028 379.591L267.381 379.945L267.381 379.945L267.028 379.591ZM268.441 381.005L268.087 380.651L268.087 380.651L268.441 381.005ZM272.368 377.078L272.721 377.432L272.721 377.432L272.368 377.078ZM270.954 375.665L270.601 375.311L270.601 375.311L270.954 375.665ZM279.298 381.223L278.808 381.713L279.516 382.42L280.006 381.93L279.298 381.223ZM279.313 376.43C280.632 377.757 280.626 379.903 279.299 381.222L280.005 381.931C281.723 380.222 281.731 377.444 280.022 375.725L279.313 376.43ZM275.201 372.341L279.315 376.432L280.02 375.723L275.906 371.632L275.201 372.341ZM270.408 372.34C271.731 371.017 273.876 371.017 275.2 372.34L275.907 371.633C274.193 369.92 271.415 369.92 269.701 371.633L270.408 372.34ZM263.758 378.99L270.408 372.34L269.701 371.633L263.051 378.283L263.758 378.99ZM263.758 383.782C262.435 382.459 262.435 380.314 263.758 378.99L263.051 378.283C261.337 379.997 261.337 382.775 263.051 384.489L263.758 383.782ZM267.849 387.873L263.758 383.782L263.051 384.489L267.142 388.58L267.849 387.873ZM272.641 387.873C271.317 389.196 269.172 389.196 267.849 387.873L267.142 388.58C268.856 390.294 271.634 390.294 273.348 388.58L272.641 387.873ZM272.952 387.562L272.641 387.873L273.348 388.58L273.659 388.269L272.952 387.562ZM275.353 389.24L273.657 387.56L272.953 388.271L274.649 389.951L275.353 389.24ZM277.676 389.096H275.001V390.096H277.676V389.096ZM278.176 391.929V389.596H277.176V391.929H278.176ZM280.546 391.429H277.676V392.429H280.546V391.429ZM281.046 393.197V391.929H280.046V393.197H281.046ZM283.133 395.092L280.901 392.844L280.192 393.549L282.424 395.797L283.133 395.092ZM287.445 394.945H282.779V395.945H287.445V394.945ZM286.945 390.35V395.445H287.945V390.35H286.945ZM278.808 382.42L287.092 390.704L287.799 389.997L279.516 381.713L278.808 382.42ZM283.448 394.389H285.89V393.389H283.448V394.389ZM281.718 392.875L283.095 394.244L283.8 393.534L282.423 392.166L281.718 392.875ZM281.571 390.342V392.52H282.571V390.342H281.571ZM279.209 390.842H282.071V389.842H279.209V390.842ZM278.709 388.009V390.342H279.709V388.009H278.709ZM275.623 388.509H279.209V387.509H275.623V388.509ZM272.936 386.029L275.27 388.363L275.977 387.655L273.643 385.322L272.936 386.029ZM272.25 387.477L273.65 386.022L272.93 385.329L271.53 386.783L272.25 387.477ZM268.239 387.484C269.345 388.589 271.137 388.589 272.243 387.484L271.536 386.776C270.821 387.491 269.661 387.491 268.945 386.776L268.239 387.484ZM264.146 383.352L268.237 387.482L268.947 386.778L264.856 382.648L264.146 383.352ZM264.147 379.349C263.042 380.455 263.042 382.247 264.147 383.353L264.855 382.647C264.14 381.931 264.14 380.771 264.855 380.056L264.147 379.349ZM270.805 372.691L264.147 379.349L264.854 380.056L271.512 373.398L270.805 372.691ZM274.81 372.691C273.704 371.586 271.912 371.586 270.805 372.691L271.512 373.398C272.228 372.683 273.387 372.683 274.103 373.398L274.81 372.691ZM278.901 376.782L274.81 372.691L274.103 373.398L278.194 377.489L278.901 376.782ZM278.901 380.787C280.006 379.681 280.006 377.889 278.901 376.782L278.194 377.489C278.909 378.205 278.909 379.364 278.194 380.08L278.901 380.787ZM277.346 382.343L278.901 380.787L278.194 380.08L276.638 381.635L277.346 382.343ZM286.245 390.644L277.348 381.638L276.636 382.34L285.534 391.347L286.245 390.644ZM286.39 393.889V390.996H285.39V393.889H286.39ZM267.381 380.651C267.186 380.456 267.186 380.14 267.381 379.945L266.674 379.238C266.088 379.823 266.088 380.773 266.674 381.358L267.381 380.651ZM268.087 380.651C267.892 380.846 267.576 380.846 267.381 380.651L266.674 381.358C267.26 381.944 268.209 381.944 268.795 381.358L268.087 380.651ZM272.014 376.724L268.087 380.651L268.795 381.358L272.721 377.432L272.014 376.724ZM272.014 376.018C272.209 376.213 272.209 376.529 272.014 376.724L272.721 377.432C273.307 376.846 273.307 375.897 272.721 375.311L272.014 376.018ZM271.308 376.018C271.503 375.823 271.819 375.823 272.014 376.018L272.721 375.311C272.136 374.725 271.186 374.725 270.601 375.311L271.308 376.018ZM267.381 379.945L271.308 376.018L270.601 375.311L266.674 379.238L267.381 379.945Z" fill="#737373"/>
<path d="M321 382L311 376.226L311 387.774L321 382ZM298 383L312 383L312 381L298 381L298 383Z" fill="#737373"/>
</svg>
