<svg width="36" height="36" viewBox="0 0 36 36" fill="none" xmlns="http://www.w3.org/2000/svg">
<path fill-rule="evenodd" clip-rule="evenodd" d="M18 35C27.3888 35 35 27.3888 35 18C35 13.4913 33.2089 9.1673 30.0208 5.97918C26.8327 2.79107 22.5087 1 18 1C8.61116 1 1 8.61116 1 18C1 27.3888 8.61116 35 18 35ZM28.2425 12.1067C29.0249 12.8891 29.0249 14.1576 28.2425 14.94L15.8041 27.3642L8.0833 19.6433C7.30089 18.8609 7.30089 17.5924 8.0833 16.81C8.8657 16.0276 10.1342 16.0276 10.9166 16.81L15.8183 21.6975L25.4091 12.1067C26.1915 11.3243 27.4601 11.3243 28.2425 12.1067Z" fill="#62A420"/>
</svg>
