<svg width="36" height="36" viewBox="0 0 36 36" fill="none" xmlns="http://www.w3.org/2000/svg">
<path fill-rule="evenodd" clip-rule="evenodd" d="M34.7186 29.2139L20.8286 3.6539C20.2653 2.61619 19.1793 1.96997 17.9986 1.96997C16.8179 1.96997 15.7318 2.61619 15.1686 3.6539L1.2886 29.2139C0.730041 30.214 0.744887 31.4356 1.32758 32.4219C1.91028 33.4081 2.97308 34.0106 4.1186 34.0039H31.8886C33.0221 34.0027 34.0714 33.4057 34.6516 32.432C35.2317 31.4583 35.2572 30.2512 34.7186 29.2539V29.2139ZM16.7186 10.0039C16.7186 9.23071 17.3454 8.6039 18.1186 8.6039C18.8918 8.6039 19.5186 9.23071 19.5186 10.0039V22.0039C19.5186 22.7771 18.8918 23.4039 18.1186 23.4039C17.3454 23.4039 16.7186 22.7771 16.7186 22.0039V10.0039ZM16.3186 28.0539C16.3186 29.048 17.1245 29.8539 18.1186 29.8539C18.596 29.8539 19.0538 29.6643 19.3914 29.3267C19.729 28.9891 19.9186 28.5313 19.9186 28.0539C19.9186 27.0598 19.1127 26.2539 18.1186 26.2539C17.1245 26.2539 16.3186 27.0598 16.3186 28.0539Z" fill="#EC7700"/>
</svg>
