<svg width="1248" height="328" viewBox="0 0 1248 328" fill="none" xmlns="http://www.w3.org/2000/svg">
<path d="M34.0928 220.756L31.4768 227.008L28.8608 220.756H27.2048L30.6488 229H32.3168L35.7608 220.756H34.0928ZM37.96 229H39.46V223.492L42.172 228.52L44.896 223.492V229H46.384V220.756H44.896L42.172 225.784L39.46 220.756H37.96V229ZM50.7474 229H52.0794L53.3994 224.752L54.7314 229H56.0634L58.1514 222.796H56.6874L55.4034 227.032L54.0114 222.796H52.7874L51.4074 227.032L50.1114 222.796H48.6474L50.7474 229ZM62.9298 222.652C62.1498 222.652 61.3338 222.868 60.4578 223.3L60.9618 224.32C61.4898 224.056 62.0538 223.852 62.6418 223.852C63.7698 223.852 64.1658 224.548 64.1658 225.268V225.436C63.6018 225.22 62.9898 225.1 62.4258 225.1C61.0338 225.1 59.8938 225.94 59.8938 227.164C59.8938 228.364 60.8898 229.144 62.2098 229.144C62.9298 229.144 63.7098 228.832 64.1658 228.256V229H65.5938V225.268C65.5938 223.696 64.5738 222.652 62.9298 222.652ZM62.5338 228.076C61.8378 228.076 61.3218 227.704 61.3218 227.116C61.3218 226.528 61.9098 226.12 62.6418 226.12C63.1938 226.12 63.7098 226.204 64.1658 226.36V227.056C63.9978 227.716 63.2418 228.076 62.5338 228.076ZM69.679 223.996V222.796H68.215V229H69.679V225.868C69.679 224.692 70.567 223.9 71.899 223.9V222.652C70.879 222.652 70.075 223.168 69.679 223.996ZM76.8757 227.848C75.9877 227.848 75.3397 227.248 75.1597 226.396H79.8397C79.8397 224.104 78.7237 222.652 76.8037 222.652C75.0397 222.652 73.6477 224.02 73.6477 225.88C73.6477 227.788 75.1117 229.144 76.8877 229.144C77.7877 229.144 78.8677 228.76 79.4077 228.184L78.4837 227.224C78.1357 227.584 77.4517 227.848 76.8757 227.848ZM76.8637 223.948C77.7397 223.948 78.2677 224.5 78.4357 225.28H75.1717C75.3877 224.464 76.0477 223.948 76.8637 223.948ZM89.4951 229.144C90.4791 229.144 91.3071 228.736 91.9071 228.1L90.9231 227.248C90.5751 227.644 90.0471 227.896 89.5071 227.896C88.4871 227.896 87.6351 226.984 87.6351 225.892C87.6351 224.812 88.4871 223.9 89.5071 223.9C90.0351 223.9 90.5511 224.152 90.8871 224.524L91.8711 223.66C91.2831 223.048 90.4551 222.652 89.5191 222.652C87.7071 222.652 86.1831 224.128 86.1831 225.892C86.1831 227.656 87.7071 229.144 89.4951 229.144ZM94.0579 229H95.5219V220.612H94.0579V229ZM101.14 229.144C102.94 229.144 104.464 227.656 104.464 225.892C104.464 224.128 102.94 222.652 101.14 222.652C99.3399 222.652 97.8159 224.128 97.8159 225.892C97.8159 227.656 99.3399 229.144 101.14 229.144ZM101.14 227.896C100.108 227.896 99.2439 226.984 99.2439 225.892C99.2439 224.812 100.108 223.9 101.14 223.9C102.16 223.9 103.024 224.812 103.024 225.892C103.024 226.984 102.16 227.896 101.14 227.896ZM110.934 222.796V226.72C110.838 227.38 110.202 227.896 109.434 227.896C108.666 227.896 108.126 227.296 108.126 226.456V222.796H106.71V226.744C106.71 228.148 107.658 229.144 109.014 229.144C109.83 229.144 110.55 228.748 110.934 228.172V229H112.398V222.796H110.934ZM119.727 220.612V223.756C119.235 223.06 118.491 222.652 117.579 222.652C115.935 222.652 114.735 223.996 114.735 225.892C114.735 227.8 115.935 229.144 117.579 229.144C118.491 229.144 119.235 228.736 119.727 228.04V229H121.191V220.612H119.727ZM117.975 227.896C116.931 227.896 116.187 227.056 116.187 225.892C116.187 224.728 116.931 223.9 117.975 223.9C119.007 223.9 119.727 224.728 119.727 225.892C119.727 227.056 119.007 227.896 117.975 227.896Z" fill="#434343"/>
<rect x="16.5" y="207.5" width="117" height="35" rx="2.5" stroke="#434343"/>
<path d="M23.0928 179H24.5928V173.492L27.3048 178.52L30.0288 173.492V179H31.5168V170.756H30.0288L27.3048 175.784L24.5928 170.756H23.0928V179ZM36.9962 172.652C36.2162 172.652 35.4002 172.868 34.5242 173.3L35.0282 174.32C35.5562 174.056 36.1202 173.852 36.7082 173.852C37.8362 173.852 38.2322 174.548 38.2322 175.268V175.436C37.6682 175.22 37.0562 175.1 36.4922 175.1C35.1002 175.1 33.9602 175.94 33.9602 177.164C33.9602 178.364 34.9562 179.144 36.2762 179.144C36.9962 179.144 37.7762 178.832 38.2322 178.256V179H39.6602V175.268C39.6602 173.696 38.6402 172.652 36.9962 172.652ZM36.6002 178.076C35.9042 178.076 35.3882 177.704 35.3882 177.116C35.3882 176.528 35.9762 176.12 36.7082 176.12C37.2602 176.12 37.7762 176.204 38.2322 176.36V177.056C38.0642 177.716 37.3082 178.076 36.6002 178.076ZM43.7454 173.996V172.796H42.2814V179H43.7454V175.868C43.7454 174.692 44.6334 173.9 45.9654 173.9V172.652C44.9454 172.652 44.1414 173.168 43.7454 173.996ZM53.9061 172.796H52.1781L49.4901 175.736V170.612H48.0261V179H49.4901V177.452L50.3661 176.528L52.1181 179H53.8221L51.3501 175.568L53.9061 172.796ZM58.6804 177.848C57.7924 177.848 57.1444 177.248 56.9644 176.396H61.6444C61.6444 174.104 60.5284 172.652 58.6084 172.652C56.8444 172.652 55.4524 174.02 55.4524 175.88C55.4524 177.788 56.9164 179.144 58.6924 179.144C59.5924 179.144 60.6724 178.76 61.2124 178.184L60.2884 177.224C59.9404 177.584 59.2564 177.848 58.6804 177.848ZM58.6684 173.948C59.5444 173.948 60.0724 174.5 60.2404 175.28H56.9764C57.1924 174.464 57.8524 173.948 58.6684 173.948ZM67.0094 177.668C66.8774 177.8 66.6494 177.896 66.3974 177.896C66.0494 177.896 65.7854 177.596 65.7854 177.176V174.008H67.1894V172.796H65.7854V171.092H64.3574V172.796H63.4574V174.008H64.3574V177.356C64.3574 178.4 65.0774 179.144 66.1094 179.144C66.5774 179.144 67.0814 178.952 67.4294 178.652L67.0094 177.668ZM70.3097 171.86C70.7657 171.86 71.1377 171.464 71.1377 171.02C71.1377 170.576 70.7657 170.192 70.3097 170.192C69.8417 170.192 69.4697 170.576 69.4697 171.02C69.4697 171.464 69.8417 171.86 70.3097 171.86ZM69.5657 179H71.0297V172.796H69.5657V179ZM77.0318 172.652C76.2158 172.652 75.4958 173.048 75.1118 173.624V172.796H73.6478V179H75.1118V175.076C75.2078 174.416 75.8438 173.9 76.6118 173.9C77.3798 173.9 77.9198 174.5 77.9198 175.34V179H79.3358V175.052C79.3358 173.648 78.3878 172.652 77.0318 172.652ZM86.5451 172.796V173.72C86.1011 173.06 85.2971 172.652 84.4211 172.652C82.8131 172.652 81.6251 173.864 81.6251 175.592C81.6251 177.32 82.8131 178.544 84.4211 178.544C85.3091 178.544 86.0531 178.148 86.5451 177.488V178.292C86.5451 179.228 85.7771 179.816 84.5531 179.816C83.8211 179.816 83.0771 179.564 82.6451 179.168L82.1051 180.236C82.7171 180.716 83.7011 181.064 84.7691 181.064C86.6651 181.064 88.0091 179.936 88.0091 178.34V172.796H86.5451ZM84.8411 177.296C83.8571 177.296 83.1491 176.588 83.1491 175.592C83.1491 174.608 83.8571 173.9 84.8411 173.9C85.8371 173.9 86.5451 174.608 86.5451 175.592C86.5451 176.588 85.8371 177.296 84.8411 177.296ZM98.7062 172.652C97.7822 172.652 97.0382 173.072 96.5462 173.78V172.796H95.0822V181.064H96.5462V178.016C97.0382 178.724 97.7822 179.144 98.7062 179.144C100.35 179.144 101.55 177.8 101.55 175.892C101.55 173.996 100.35 172.652 98.7062 172.652ZM98.3102 177.896C97.2782 177.896 96.5582 177.056 96.5582 175.892C96.5582 174.728 97.2782 173.9 98.3102 173.9C99.3542 173.9 100.098 174.728 100.098 175.892C100.098 177.056 99.3542 177.896 98.3102 177.896ZM106.574 172.652C105.794 172.652 104.978 172.868 104.102 173.3L104.606 174.32C105.134 174.056 105.698 173.852 106.286 173.852C107.414 173.852 107.81 174.548 107.81 175.268V175.436C107.246 175.22 106.634 175.1 106.07 175.1C104.678 175.1 103.538 175.94 103.538 177.164C103.538 178.364 104.534 179.144 105.854 179.144C106.574 179.144 107.354 178.832 107.81 178.256V179H109.238V175.268C109.238 173.696 108.218 172.652 106.574 172.652ZM106.178 178.076C105.482 178.076 104.966 177.704 104.966 177.116C104.966 176.528 105.554 176.12 106.286 176.12C106.838 176.12 107.354 176.204 107.81 176.36V177.056C107.642 177.716 106.886 178.076 106.178 178.076ZM116.444 172.796V173.72C116 173.06 115.196 172.652 114.32 172.652C112.712 172.652 111.524 173.864 111.524 175.592C111.524 177.32 112.712 178.544 114.32 178.544C115.208 178.544 115.952 178.148 116.444 177.488V178.292C116.444 179.228 115.676 179.816 114.452 179.816C113.72 179.816 112.976 179.564 112.544 179.168L112.004 180.236C112.616 180.716 113.6 181.064 114.668 181.064C116.564 181.064 117.908 179.936 117.908 178.34V172.796H116.444ZM114.74 177.296C113.756 177.296 113.048 176.588 113.048 175.592C113.048 174.608 113.756 173.9 114.74 173.9C115.736 173.9 116.444 174.608 116.444 175.592C116.444 176.588 115.736 177.296 114.74 177.296ZM123.438 177.848C122.55 177.848 121.902 177.248 121.722 176.396H126.402C126.402 174.104 125.286 172.652 123.366 172.652C121.602 172.652 120.21 174.02 120.21 175.88C120.21 177.788 121.674 179.144 123.45 179.144C124.35 179.144 125.43 178.76 125.97 178.184L125.046 177.224C124.698 177.584 124.014 177.848 123.438 177.848ZM123.426 173.948C124.302 173.948 124.83 174.5 124.998 175.28H121.734C121.95 174.464 122.61 173.948 123.426 173.948Z" fill="#434343"/>
<rect x="16.5" y="157.5" width="117" height="35" rx="2.5" stroke="#434343"/>
<path d="M876.255 237H877.755V231.204L882.111 237H883.599V228.756H882.111V234.552L877.755 228.756H876.255V237ZM889.368 237.144C891.168 237.144 892.692 235.656 892.692 233.892C892.692 232.128 891.168 230.652 889.368 230.652C887.568 230.652 886.044 232.128 886.044 233.892C886.044 235.656 887.568 237.144 889.368 237.144ZM889.368 235.896C888.336 235.896 887.472 234.984 887.472 233.892C887.472 232.812 888.336 231.9 889.368 231.9C890.388 231.9 891.252 232.812 891.252 233.892C891.252 234.984 890.388 235.896 889.368 235.896ZM898.058 235.668C897.926 235.8 897.698 235.896 897.446 235.896C897.098 235.896 896.834 235.596 896.834 235.176V232.008H898.238V230.796H896.834V229.092H895.406V230.796H894.506V232.008H895.406V235.356C895.406 236.4 896.126 237.144 897.158 237.144C897.626 237.144 898.13 236.952 898.478 236.652L898.058 235.668ZM907.305 237.144C908.757 237.144 909.741 236.376 909.741 235.188C909.741 233.892 908.613 233.532 907.569 233.244C906.621 232.968 906.297 232.848 906.297 232.452C906.297 232.104 906.693 231.9 907.209 231.9C907.749 231.9 908.385 232.092 908.973 232.464L909.585 231.396C908.913 230.952 908.061 230.652 907.209 230.652C905.829 230.652 904.869 231.444 904.869 232.608C904.881 233.712 905.733 234.096 907.077 234.444C907.785 234.636 908.325 234.792 908.325 235.272C908.325 235.656 907.917 235.908 907.329 235.908C906.549 235.908 905.853 235.62 905.253 235.188L904.593 236.208C905.337 236.808 906.357 237.144 907.305 237.144ZM916.213 230.796V234.72C916.117 235.38 915.481 235.896 914.713 235.896C913.945 235.896 913.405 235.296 913.405 234.456V230.796H911.989V234.744C911.989 236.148 912.937 237.144 914.293 237.144C915.109 237.144 915.829 236.748 916.213 236.172V237H917.677V230.796H916.213ZM923.95 230.652C923.026 230.652 922.282 231.072 921.79 231.78V228.612H920.326V237H921.79V236.016C922.282 236.724 923.026 237.144 923.95 237.144C925.594 237.144 926.794 235.8 926.794 233.892C926.794 231.996 925.594 230.652 923.95 230.652ZM923.554 235.896C922.522 235.896 921.802 235.056 921.802 233.892C921.802 232.728 922.522 231.9 923.554 231.9C924.598 231.9 925.342 232.728 925.342 233.892C925.342 235.056 924.598 235.896 923.554 235.896ZM931.41 237.144C932.862 237.144 933.846 236.376 933.846 235.188C933.846 233.892 932.718 233.532 931.674 233.244C930.726 232.968 930.402 232.848 930.402 232.452C930.402 232.104 930.798 231.9 931.314 231.9C931.854 231.9 932.49 232.092 933.078 232.464L933.69 231.396C933.018 230.952 932.166 230.652 931.314 230.652C929.934 230.652 928.974 231.444 928.974 232.608C928.986 233.712 929.838 234.096 931.182 234.444C931.89 234.636 932.43 234.792 932.43 235.272C932.43 235.656 932.022 235.908 931.434 235.908C930.654 235.908 929.958 235.62 929.358 235.188L928.698 236.208C929.442 236.808 930.462 237.144 931.41 237.144ZM939.106 237.144C940.09 237.144 940.918 236.736 941.518 236.1L940.534 235.248C940.186 235.644 939.658 235.896 939.118 235.896C938.098 235.896 937.246 234.984 937.246 233.892C937.246 232.812 938.098 231.9 939.118 231.9C939.646 231.9 940.162 232.152 940.498 232.524L941.482 231.66C940.894 231.048 940.066 230.652 939.13 230.652C937.318 230.652 935.794 232.128 935.794 233.892C935.794 235.656 937.318 237.144 939.106 237.144ZM945.169 231.996V230.796H943.705V237H945.169V233.868C945.169 232.692 946.057 231.9 947.389 231.9V230.652C946.369 230.652 945.565 231.168 945.169 231.996ZM950.218 229.86C950.674 229.86 951.046 229.464 951.046 229.02C951.046 228.576 950.674 228.192 950.218 228.192C949.75 228.192 949.378 228.576 949.378 229.02C949.378 229.464 949.75 229.86 950.218 229.86ZM949.474 237H950.938V230.796H949.474V237ZM957.216 230.652C956.292 230.652 955.548 231.072 955.056 231.78V228.612H953.592V237H955.056V236.016C955.548 236.724 956.292 237.144 957.216 237.144C958.86 237.144 960.06 235.8 960.06 233.892C960.06 231.996 958.86 230.652 957.216 230.652ZM956.82 235.896C955.788 235.896 955.068 235.056 955.068 233.892C955.068 232.728 955.788 231.9 956.82 231.9C957.864 231.9 958.608 232.728 958.608 233.892C958.608 235.056 957.864 235.896 956.82 235.896ZM965.276 235.848C964.388 235.848 963.74 235.248 963.56 234.396H968.24C968.24 232.104 967.124 230.652 965.204 230.652C963.44 230.652 962.048 232.02 962.048 233.88C962.048 235.788 963.512 237.144 965.288 237.144C966.188 237.144 967.268 236.76 967.808 236.184L966.884 235.224C966.536 235.584 965.852 235.848 965.276 235.848ZM965.264 231.948C966.14 231.948 966.668 232.5 966.836 233.28H963.572C963.788 232.464 964.448 231.948 965.264 231.948Z" fill="#434343"/>
<rect x="823.5" y="215.5" width="198" height="35" rx="2.5" stroke="#434343"/>
<path d="M1068.96 167H1070.62L1067.18 158.756H1065.51L1062.06 167H1063.73L1064.36 165.512H1068.34L1068.96 167ZM1064.9 164.216L1066.35 160.748L1067.8 164.216H1064.9ZM1077.38 158.612V161.756C1076.89 161.06 1076.14 160.652 1075.23 160.652C1073.59 160.652 1072.39 161.996 1072.39 163.892C1072.39 165.8 1073.59 167.144 1075.23 167.144C1076.14 167.144 1076.89 166.736 1077.38 166.04V167H1078.84V158.612H1077.38ZM1075.63 165.896C1074.58 165.896 1073.84 165.056 1073.84 163.892C1073.84 162.728 1074.58 161.9 1075.63 161.9C1076.66 161.9 1077.38 162.728 1077.38 163.892C1077.38 165.056 1076.66 165.896 1075.63 165.896ZM1086.21 158.612V161.756C1085.72 161.06 1084.97 160.652 1084.06 160.652C1082.42 160.652 1081.22 161.996 1081.22 163.892C1081.22 165.8 1082.42 167.144 1084.06 167.144C1084.97 167.144 1085.72 166.736 1086.21 166.04V167H1087.67V158.612H1086.21ZM1084.46 165.896C1083.41 165.896 1082.67 165.056 1082.67 163.892C1082.67 162.728 1083.41 161.9 1084.46 161.9C1085.49 161.9 1086.21 162.728 1086.21 163.892C1086.21 165.056 1085.49 165.896 1084.46 165.896ZM1101.88 160.652C1100.96 160.652 1100.18 161.108 1099.88 161.828C1099.49 161.096 1098.77 160.652 1097.9 160.652C1097.12 160.652 1096.48 161.036 1096.17 161.636V160.796H1094.71V167H1096.17V163.196C1096.17 162.44 1096.73 161.9 1097.53 161.9C1098.25 161.9 1098.74 162.476 1098.74 163.292V167H1100.17V163.196C1100.17 162.44 1100.72 161.9 1101.52 161.9C1102.23 161.9 1102.72 162.476 1102.72 163.292V167H1104.15V163.052C1104.15 161.648 1103.18 160.652 1101.88 160.652ZM1109.73 167.144C1111.53 167.144 1113.06 165.656 1113.06 163.892C1113.06 162.128 1111.53 160.652 1109.73 160.652C1107.93 160.652 1106.41 162.128 1106.41 163.892C1106.41 165.656 1107.93 167.144 1109.73 167.144ZM1109.73 165.896C1108.7 165.896 1107.84 164.984 1107.84 163.892C1107.84 162.812 1108.7 161.9 1109.73 161.9C1110.75 161.9 1111.62 162.812 1111.62 163.892C1111.62 164.984 1110.75 165.896 1109.73 165.896ZM1116.83 161.996V160.796H1115.36V167H1116.83V163.868C1116.83 162.692 1117.72 161.9 1119.05 161.9V160.652C1118.03 160.652 1117.22 161.168 1116.83 161.996ZM1124.02 165.848C1123.14 165.848 1122.49 165.248 1122.31 164.396H1126.99C1126.99 162.104 1125.87 160.652 1123.95 160.652C1122.19 160.652 1120.8 162.02 1120.8 163.88C1120.8 165.788 1122.26 167.144 1124.04 167.144C1124.94 167.144 1126.02 166.76 1126.56 166.184L1125.63 165.224C1125.28 165.584 1124.6 165.848 1124.02 165.848ZM1124.01 161.948C1124.89 161.948 1125.42 162.5 1125.58 163.28H1122.32C1122.54 162.464 1123.2 161.948 1124.01 161.948ZM1138.37 158.612V161.756C1137.88 161.06 1137.14 160.652 1136.22 160.652C1134.58 160.652 1133.38 161.996 1133.38 163.892C1133.38 165.8 1134.58 167.144 1136.22 167.144C1137.14 167.144 1137.88 166.736 1138.37 166.04V167H1139.84V158.612H1138.37ZM1136.62 165.896C1135.58 165.896 1134.83 165.056 1134.83 163.892C1134.83 162.728 1135.58 161.9 1136.62 161.9C1137.65 161.9 1138.37 162.728 1138.37 163.892C1138.37 165.056 1137.65 165.896 1136.62 165.896ZM1145.18 160.652C1144.4 160.652 1143.59 160.868 1142.71 161.3L1143.22 162.32C1143.74 162.056 1144.31 161.852 1144.9 161.852C1146.02 161.852 1146.42 162.548 1146.42 163.268V163.436C1145.86 163.22 1145.24 163.1 1144.68 163.1C1143.29 163.1 1142.15 163.94 1142.15 165.164C1142.15 166.364 1143.14 167.144 1144.46 167.144C1145.18 167.144 1145.96 166.832 1146.42 166.256V167H1147.85V163.268C1147.85 161.696 1146.83 160.652 1145.18 160.652ZM1144.79 166.076C1144.09 166.076 1143.58 165.704 1143.58 165.116C1143.58 164.528 1144.16 164.12 1144.9 164.12C1145.45 164.12 1145.96 164.204 1146.42 164.36V165.056C1146.25 165.716 1145.5 166.076 1144.79 166.076ZM1153.53 165.668C1153.4 165.8 1153.17 165.896 1152.92 165.896C1152.57 165.896 1152.3 165.596 1152.3 165.176V162.008H1153.71V160.796H1152.3V159.092H1150.88V160.796H1149.98V162.008H1150.88V165.356C1150.88 166.4 1151.6 167.144 1152.63 167.144C1153.1 167.144 1153.6 166.952 1153.95 166.652L1153.53 165.668ZM1158.79 160.652C1158.01 160.652 1157.19 160.868 1156.31 161.3L1156.82 162.32C1157.35 162.056 1157.91 161.852 1158.5 161.852C1159.63 161.852 1160.02 162.548 1160.02 163.268V163.436C1159.46 163.22 1158.85 163.1 1158.28 163.1C1156.89 163.1 1155.75 163.94 1155.75 165.164C1155.75 166.364 1156.75 167.144 1158.07 167.144C1158.79 167.144 1159.57 166.832 1160.02 166.256V167H1161.45V163.268C1161.45 161.696 1160.43 160.652 1158.79 160.652ZM1158.39 166.076C1157.69 166.076 1157.18 165.704 1157.18 165.116C1157.18 164.528 1157.77 164.12 1158.5 164.12C1159.05 164.12 1159.57 164.204 1160.02 164.36V165.056C1159.85 165.716 1159.1 166.076 1158.39 166.076ZM1171.42 167.144C1172.4 167.144 1173.23 166.736 1173.83 166.1L1172.85 165.248C1172.5 165.644 1171.97 165.896 1171.43 165.896C1170.41 165.896 1169.56 164.984 1169.56 163.892C1169.56 162.812 1170.41 161.9 1171.43 161.9C1171.96 161.9 1172.48 162.152 1172.81 162.524L1173.8 161.66C1173.21 161.048 1172.38 160.652 1171.44 160.652C1169.63 160.652 1168.11 162.128 1168.11 163.892C1168.11 165.656 1169.63 167.144 1171.42 167.144ZM1178.88 165.848C1177.99 165.848 1177.34 165.248 1177.16 164.396H1181.84C1181.84 162.104 1180.72 160.652 1178.8 160.652C1177.04 160.652 1175.65 162.02 1175.65 163.88C1175.65 165.788 1177.11 167.144 1178.89 167.144C1179.79 167.144 1180.87 166.76 1181.41 166.184L1180.48 165.224C1180.14 165.584 1179.45 165.848 1178.88 165.848ZM1178.86 161.948C1179.74 161.948 1180.27 162.5 1180.44 163.28H1177.17C1177.39 162.464 1178.05 161.948 1178.86 161.948ZM1187.49 160.652C1186.68 160.652 1185.96 161.048 1185.57 161.624V160.796H1184.11V167H1185.57V163.076C1185.67 162.416 1186.3 161.9 1187.07 161.9C1187.84 161.9 1188.38 162.5 1188.38 163.34V167H1189.8V163.052C1189.8 161.648 1188.85 160.652 1187.49 160.652ZM1195.48 165.668C1195.35 165.8 1195.12 165.896 1194.87 165.896C1194.52 165.896 1194.26 165.596 1194.26 165.176V162.008H1195.66V160.796H1194.26V159.092H1192.83V160.796H1191.93V162.008H1192.83V165.356C1192.83 166.4 1193.55 167.144 1194.58 167.144C1195.05 167.144 1195.55 166.952 1195.9 166.652L1195.48 165.668ZM1200.93 165.848C1200.04 165.848 1199.39 165.248 1199.21 164.396H1203.89C1203.89 162.104 1202.78 160.652 1200.86 160.652C1199.09 160.652 1197.7 162.02 1197.7 163.88C1197.7 165.788 1199.17 167.144 1200.94 167.144C1201.84 167.144 1202.92 166.76 1203.46 166.184L1202.54 165.224C1202.19 165.584 1201.51 165.848 1200.93 165.848ZM1200.92 161.948C1201.79 161.948 1202.32 162.5 1202.49 163.28H1199.23C1199.44 162.464 1200.1 161.948 1200.92 161.948ZM1207.66 161.996V160.796H1206.2V167H1207.66V163.868C1207.66 162.692 1208.55 161.9 1209.88 161.9V160.652C1208.86 160.652 1208.06 161.168 1207.66 161.996ZM1214.26 167.144C1215.71 167.144 1216.7 166.376 1216.7 165.188C1216.7 163.892 1215.57 163.532 1214.52 163.244C1213.58 162.968 1213.25 162.848 1213.25 162.452C1213.25 162.104 1213.65 161.9 1214.16 161.9C1214.7 161.9 1215.34 162.092 1215.93 162.464L1216.54 161.396C1215.87 160.952 1215.02 160.652 1214.16 160.652C1212.78 160.652 1211.82 161.444 1211.82 162.608C1211.84 163.712 1212.69 164.096 1214.03 164.444C1214.74 164.636 1215.28 164.792 1215.28 165.272C1215.28 165.656 1214.87 165.908 1214.28 165.908C1213.5 165.908 1212.81 165.62 1212.21 165.188L1211.55 166.208C1212.29 166.808 1213.31 167.144 1214.26 167.144Z" fill="#434343"/>
<rect x="1048.5" y="145.5" width="183" height="35" rx="2.5" stroke="#434343"/>
<path d="M846.588 299L844.524 296.072C845.712 295.7 846.516 294.74 846.516 293.492C846.516 291.884 845.196 290.756 843.432 290.756H839.844V299H841.344V296.228H842.94L844.884 299H846.588ZM841.344 292.136H843.264C844.284 292.136 844.992 292.652 844.992 293.492C844.992 294.332 844.284 294.848 843.264 294.848H841.344V292.136ZM851.824 299.144C853.624 299.144 855.148 297.656 855.148 295.892C855.148 294.128 853.624 292.652 851.824 292.652C850.024 292.652 848.5 294.128 848.5 295.892C848.5 297.656 850.024 299.144 851.824 299.144ZM851.824 297.896C850.792 297.896 849.928 296.984 849.928 295.892C849.928 294.812 850.792 293.9 851.824 293.9C852.844 293.9 853.708 294.812 853.708 295.892C853.708 296.984 852.844 297.896 851.824 297.896ZM857.417 299H858.881V290.612H857.417V299ZM861.499 299H862.963V290.612H861.499V299ZM869.241 292.652C868.317 292.652 867.573 293.072 867.081 293.78V290.612H865.617V299H867.081V298.016C867.573 298.724 868.317 299.144 869.241 299.144C870.885 299.144 872.085 297.8 872.085 295.892C872.085 293.996 870.885 292.652 869.241 292.652ZM868.845 297.896C867.813 297.896 867.093 297.056 867.093 295.892C867.093 294.728 867.813 293.9 868.845 293.9C869.889 293.9 870.633 294.728 870.633 295.892C870.633 297.056 869.889 297.896 868.845 297.896ZM877.109 292.652C876.329 292.652 875.513 292.868 874.637 293.3L875.141 294.32C875.669 294.056 876.233 293.852 876.821 293.852C877.949 293.852 878.345 294.548 878.345 295.268V295.436C877.781 295.22 877.169 295.1 876.605 295.1C875.213 295.1 874.073 295.94 874.073 297.164C874.073 298.364 875.069 299.144 876.389 299.144C877.109 299.144 877.889 298.832 878.345 298.256V299H879.773V295.268C879.773 293.696 878.753 292.652 877.109 292.652ZM876.713 298.076C876.017 298.076 875.501 297.704 875.501 297.116C875.501 296.528 876.089 296.12 876.821 296.12C877.373 296.12 877.889 296.204 878.345 296.36V297.056C878.177 297.716 877.421 298.076 876.713 298.076ZM885.347 299.144C886.331 299.144 887.159 298.736 887.759 298.1L886.775 297.248C886.427 297.644 885.899 297.896 885.359 297.896C884.339 297.896 883.487 296.984 883.487 295.892C883.487 294.812 884.339 293.9 885.359 293.9C885.887 293.9 886.403 294.152 886.739 294.524L887.723 293.66C887.135 293.048 886.307 292.652 885.371 292.652C883.559 292.652 882.035 294.128 882.035 295.892C882.035 297.656 883.559 299.144 885.347 299.144ZM895.765 292.796H894.037L891.349 295.736V290.612H889.885V299H891.349V297.452L892.225 296.528L893.977 299H895.681L893.209 295.568L895.765 292.796ZM905.142 297.668C905.01 297.8 904.782 297.896 904.53 297.896C904.182 297.896 903.918 297.596 903.918 297.176V294.008H905.322V292.796H903.918V291.092H902.49V292.796H901.59V294.008H902.49V297.356C902.49 298.4 903.21 299.144 904.242 299.144C904.71 299.144 905.214 298.952 905.562 298.652L905.142 297.668ZM911.083 292.652C910.255 292.652 909.523 293.048 909.151 293.648V290.612H907.687V299H909.151V295.244C909.151 294.5 909.835 293.9 910.663 293.9C911.431 293.9 911.971 294.5 911.971 295.34V299H913.387V295.052C913.387 293.648 912.439 292.652 911.083 292.652ZM918.868 297.848C917.98 297.848 917.332 297.248 917.152 296.396H921.832C921.832 294.104 920.716 292.652 918.796 292.652C917.032 292.652 915.64 294.02 915.64 295.88C915.64 297.788 917.104 299.144 918.88 299.144C919.78 299.144 920.86 298.76 921.4 298.184L920.476 297.224C920.128 297.584 919.444 297.848 918.868 297.848ZM918.856 293.948C919.732 293.948 920.26 294.5 920.428 295.28H917.164C917.38 294.464 918.04 293.948 918.856 293.948ZM933.215 290.612V293.756C932.723 293.06 931.979 292.652 931.067 292.652C929.423 292.652 928.223 293.996 928.223 295.892C928.223 297.8 929.423 299.144 931.067 299.144C931.979 299.144 932.723 298.736 933.215 298.04V299H934.679V290.612H933.215ZM931.463 297.896C930.419 297.896 929.675 297.056 929.675 295.892C929.675 294.728 930.419 293.9 931.463 293.9C932.495 293.9 933.215 294.728 933.215 295.892C933.215 297.056 932.495 297.896 931.463 297.896ZM940.027 292.652C939.247 292.652 938.431 292.868 937.555 293.3L938.059 294.32C938.587 294.056 939.151 293.852 939.739 293.852C940.867 293.852 941.263 294.548 941.263 295.268V295.436C940.699 295.22 940.087 295.1 939.523 295.1C938.131 295.1 936.991 295.94 936.991 297.164C936.991 298.364 937.987 299.144 939.307 299.144C940.027 299.144 940.807 298.832 941.263 298.256V299H942.691V295.268C942.691 293.696 941.671 292.652 940.027 292.652ZM939.631 298.076C938.935 298.076 938.419 297.704 938.419 297.116C938.419 296.528 939.007 296.12 939.739 296.12C940.291 296.12 940.807 296.204 941.263 296.36V297.056C941.095 297.716 940.339 298.076 939.631 298.076ZM948.373 297.668C948.241 297.8 948.013 297.896 947.761 297.896C947.413 297.896 947.149 297.596 947.149 297.176V294.008H948.553V292.796H947.149V291.092H945.721V292.796H944.821V294.008H945.721V297.356C945.721 298.4 946.441 299.144 947.473 299.144C947.941 299.144 948.445 298.952 948.793 298.652L948.373 297.668ZM953.629 292.652C952.849 292.652 952.033 292.868 951.157 293.3L951.661 294.32C952.189 294.056 952.753 293.852 953.341 293.852C954.469 293.852 954.865 294.548 954.865 295.268V295.436C954.301 295.22 953.689 295.1 953.125 295.1C951.733 295.1 950.593 295.94 950.593 297.164C950.593 298.364 951.589 299.144 952.909 299.144C953.629 299.144 954.409 298.832 954.865 298.256V299H956.293V295.268C956.293 293.696 955.273 292.652 953.629 292.652ZM953.233 298.076C952.537 298.076 952.021 297.704 952.021 297.116C952.021 296.528 952.609 296.12 953.341 296.12C953.893 296.12 954.409 296.204 954.865 296.36V297.056C954.697 297.716 953.941 298.076 953.233 298.076ZM966.265 299.144C967.249 299.144 968.077 298.736 968.677 298.1L967.693 297.248C967.345 297.644 966.817 297.896 966.277 297.896C965.257 297.896 964.405 296.984 964.405 295.892C964.405 294.812 965.257 293.9 966.277 293.9C966.805 293.9 967.321 294.152 967.657 294.524L968.641 293.66C968.053 293.048 967.225 292.652 966.289 292.652C964.477 292.652 962.953 294.128 962.953 295.892C962.953 297.656 964.477 299.144 966.265 299.144ZM973.719 297.848C972.831 297.848 972.183 297.248 972.003 296.396H976.683C976.683 294.104 975.567 292.652 973.647 292.652C971.883 292.652 970.491 294.02 970.491 295.88C970.491 297.788 971.955 299.144 973.731 299.144C974.631 299.144 975.711 298.76 976.251 298.184L975.327 297.224C974.979 297.584 974.295 297.848 973.719 297.848ZM973.707 293.948C974.583 293.948 975.111 294.5 975.279 295.28H972.015C972.231 294.464 972.891 293.948 973.707 293.948ZM982.336 292.652C981.52 292.652 980.8 293.048 980.416 293.624V292.796H978.952V299H980.416V295.076C980.512 294.416 981.148 293.9 981.916 293.9C982.684 293.9 983.224 294.5 983.224 295.34V299H984.64V295.052C984.64 293.648 983.692 292.652 982.336 292.652ZM990.326 297.668C990.194 297.8 989.966 297.896 989.714 297.896C989.366 297.896 989.102 297.596 989.102 297.176V294.008H990.506V292.796H989.102V291.092H987.674V292.796H986.774V294.008H987.674V297.356C987.674 298.4 988.394 299.144 989.426 299.144C989.894 299.144 990.398 298.952 990.746 298.652L990.326 297.668ZM995.774 297.848C994.886 297.848 994.238 297.248 994.058 296.396H998.738C998.738 294.104 997.622 292.652 995.702 292.652C993.938 292.652 992.546 294.02 992.546 295.88C992.546 297.788 994.01 299.144 995.786 299.144C996.686 299.144 997.766 298.76 998.306 298.184L997.382 297.224C997.034 297.584 996.35 297.848 995.774 297.848ZM995.762 293.948C996.638 293.948 997.166 294.5 997.334 295.28H994.07C994.286 294.464 994.946 293.948 995.762 293.948ZM1002.51 293.996V292.796H1001.04V299H1002.51V295.868C1002.51 294.692 1003.4 293.9 1004.73 293.9V292.652C1003.71 292.652 1002.9 293.168 1002.51 293.996Z" fill="#434343"/>
<rect x="823.5" y="277.5" width="198" height="35" rx="2.5" stroke="#434343"/>
<path d="M181.594 206L179.53 203.072C180.718 202.7 181.522 201.74 181.522 200.492C181.522 198.884 180.202 197.756 178.438 197.756H174.85V206H176.35V203.228H177.946L179.89 206H181.594ZM176.35 199.136H178.27C179.29 199.136 179.998 199.652 179.998 200.492C179.998 201.332 179.29 201.848 178.27 201.848H176.35V199.136ZM186.721 204.848C185.833 204.848 185.185 204.248 185.005 203.396H189.685C189.685 201.104 188.569 199.652 186.649 199.652C184.885 199.652 183.493 201.02 183.493 202.88C183.493 204.788 184.957 206.144 186.733 206.144C187.633 206.144 188.713 205.76 189.253 205.184L188.329 204.224C187.981 204.584 187.297 204.848 186.721 204.848ZM186.709 200.948C187.585 200.948 188.113 201.5 188.281 202.28H185.017C185.233 201.464 185.893 200.948 186.709 200.948ZM196.67 199.796V200.756C196.178 200.06 195.434 199.652 194.522 199.652C192.878 199.652 191.678 200.996 191.678 202.892C191.678 204.8 192.878 206.144 194.522 206.144C195.434 206.144 196.178 205.736 196.67 205.04V208.064H198.134V199.796H196.67ZM194.918 204.896C193.874 204.896 193.13 204.056 193.13 202.892C193.13 201.728 193.874 200.9 194.918 200.9C195.95 200.9 196.67 201.728 196.67 202.892C196.67 204.056 195.95 204.896 194.918 204.896ZM204.983 199.796V203.72C204.887 204.38 204.251 204.896 203.483 204.896C202.715 204.896 202.175 204.296 202.175 203.456V199.796H200.759V203.744C200.759 205.148 201.707 206.144 203.063 206.144C203.879 206.144 204.599 205.748 204.983 205.172V206H206.447V199.796H204.983ZM211.952 204.848C211.064 204.848 210.416 204.248 210.236 203.396H214.916C214.916 201.104 213.8 199.652 211.88 199.652C210.116 199.652 208.724 201.02 208.724 202.88C208.724 204.788 210.188 206.144 211.964 206.144C212.864 206.144 213.944 205.76 214.484 205.184L213.56 204.224C213.212 204.584 212.528 204.848 211.952 204.848ZM211.94 200.948C212.816 200.948 213.344 201.5 213.512 202.28H210.248C210.464 201.464 211.124 200.948 211.94 200.948ZM219.477 206.144C220.929 206.144 221.913 205.376 221.913 204.188C221.913 202.892 220.785 202.532 219.741 202.244C218.793 201.968 218.469 201.848 218.469 201.452C218.469 201.104 218.865 200.9 219.381 200.9C219.921 200.9 220.557 201.092 221.145 201.464L221.757 200.396C221.085 199.952 220.233 199.652 219.381 199.652C218.001 199.652 217.041 200.444 217.041 201.608C217.053 202.712 217.905 203.096 219.249 203.444C219.957 203.636 220.497 203.792 220.497 204.272C220.497 204.656 220.089 204.908 219.501 204.908C218.721 204.908 218.025 204.62 217.425 204.188L216.765 205.208C217.509 205.808 218.529 206.144 219.477 206.144ZM227.281 204.668C227.149 204.8 226.921 204.896 226.669 204.896C226.321 204.896 226.057 204.596 226.057 204.176V201.008H227.461V199.796H226.057V198.092H224.629V199.796H223.729V201.008H224.629V204.356C224.629 205.4 225.349 206.144 226.381 206.144C226.849 206.144 227.353 205.952 227.701 205.652L227.281 204.668ZM237.332 204.668C237.2 204.8 236.972 204.896 236.72 204.896C236.372 204.896 236.108 204.596 236.108 204.176V201.008H237.512V199.796H236.108V198.092H234.68V199.796H233.78V201.008H234.68V204.356C234.68 205.4 235.4 206.144 236.432 206.144C236.9 206.144 237.404 205.952 237.752 205.652L237.332 204.668ZM241.388 200.996V199.796H239.924V206H241.388V202.868C241.388 201.692 242.276 200.9 243.608 200.9V199.652C242.588 199.652 241.784 200.168 241.388 200.996ZM246.437 198.86C246.893 198.86 247.265 198.464 247.265 198.02C247.265 197.576 246.893 197.192 246.437 197.192C245.969 197.192 245.597 197.576 245.597 198.02C245.597 198.464 245.969 198.86 246.437 198.86ZM245.693 206H247.157V199.796H245.693V206ZM252.475 199.652C251.695 199.652 250.879 199.868 250.003 200.3L250.507 201.32C251.035 201.056 251.599 200.852 252.187 200.852C253.315 200.852 253.711 201.548 253.711 202.268V202.436C253.147 202.22 252.535 202.1 251.971 202.1C250.579 202.1 249.439 202.94 249.439 204.164C249.439 205.364 250.435 206.144 251.755 206.144C252.475 206.144 253.255 205.832 253.711 205.256V206H255.139V202.268C255.139 200.696 254.119 199.652 252.475 199.652ZM252.079 205.076C251.383 205.076 250.867 204.704 250.867 204.116C250.867 203.528 251.455 203.12 252.187 203.12C252.739 203.12 253.255 203.204 253.711 203.36V204.056C253.543 204.716 252.787 205.076 252.079 205.076ZM257.724 206H259.188V197.612H257.724V206Z" fill="#434343"/>
<rect x="164.5" y="184.5" width="106" height="35" rx="2.5" stroke="#434343"/>
<path d="M170.986 271H172.474V264.124H175.114V262.756H168.346V264.124H170.986V271ZM178.847 265.996V264.796H177.383V271H178.847V267.868C178.847 266.692 179.735 265.9 181.067 265.9V264.652C180.047 264.652 179.243 265.168 178.847 265.996ZM183.896 263.86C184.352 263.86 184.724 263.464 184.724 263.02C184.724 262.576 184.352 262.192 183.896 262.192C183.428 262.192 183.056 262.576 183.056 263.02C183.056 263.464 183.428 263.86 183.896 263.86ZM183.152 271H184.616V264.796H183.152V271ZM189.934 264.652C189.154 264.652 188.338 264.868 187.462 265.3L187.966 266.32C188.494 266.056 189.058 265.852 189.646 265.852C190.774 265.852 191.17 266.548 191.17 267.268V267.436C190.606 267.22 189.994 267.1 189.43 267.1C188.038 267.1 186.898 267.94 186.898 269.164C186.898 270.364 187.894 271.144 189.214 271.144C189.934 271.144 190.714 270.832 191.17 270.256V271H192.598V267.268C192.598 265.696 191.578 264.652 189.934 264.652ZM189.538 270.076C188.842 270.076 188.326 269.704 188.326 269.116C188.326 268.528 188.914 268.12 189.646 268.12C190.198 268.12 190.714 268.204 191.17 268.36V269.056C191.002 269.716 190.246 270.076 189.538 270.076ZM195.183 271H196.647V262.612H195.183V271ZM206.363 264.652C205.583 264.652 204.767 264.868 203.891 265.3L204.395 266.32C204.923 266.056 205.487 265.852 206.075 265.852C207.203 265.852 207.599 266.548 207.599 267.268V267.436C207.035 267.22 206.423 267.1 205.859 267.1C204.467 267.1 203.327 267.94 203.327 269.164C203.327 270.364 204.323 271.144 205.643 271.144C206.363 271.144 207.143 270.832 207.599 270.256V271H209.027V267.268C209.027 265.696 208.007 264.652 206.363 264.652ZM205.967 270.076C205.271 270.076 204.755 269.704 204.755 269.116C204.755 268.528 205.343 268.12 206.075 268.12C206.627 268.12 207.143 268.204 207.599 268.36V269.056C207.431 269.716 206.675 270.076 205.967 270.076ZM215.273 264.652C214.349 264.652 213.605 265.072 213.113 265.78V264.796H211.649V273.064H213.113V270.016C213.605 270.724 214.349 271.144 215.273 271.144C216.917 271.144 218.117 269.8 218.117 267.892C218.117 265.996 216.917 264.652 215.273 264.652ZM214.877 269.896C213.845 269.896 213.125 269.056 213.125 267.892C213.125 266.728 213.845 265.9 214.877 265.9C215.921 265.9 216.665 266.728 216.665 267.892C216.665 269.056 215.921 269.896 214.877 269.896ZM224.101 264.652C223.177 264.652 222.433 265.072 221.941 265.78V264.796H220.477V273.064H221.941V270.016C222.433 270.724 223.177 271.144 224.101 271.144C225.745 271.144 226.945 269.8 226.945 267.892C226.945 265.996 225.745 264.652 224.101 264.652ZM223.705 269.896C222.673 269.896 221.953 269.056 221.953 267.892C221.953 266.728 222.673 265.9 223.705 265.9C224.749 265.9 225.493 266.728 225.493 267.892C225.493 269.056 224.749 269.896 223.705 269.896ZM230.769 265.996V264.796H229.305V271H230.769V267.868C230.769 266.692 231.657 265.9 232.989 265.9V264.652C231.969 264.652 231.165 265.168 230.769 265.996ZM237.921 271.144C239.721 271.144 241.245 269.656 241.245 267.892C241.245 266.128 239.721 264.652 237.921 264.652C236.121 264.652 234.597 266.128 234.597 267.892C234.597 269.656 236.121 271.144 237.921 271.144ZM237.921 269.896C236.889 269.896 236.025 268.984 236.025 267.892C236.025 266.812 236.889 265.9 237.921 265.9C238.941 265.9 239.805 266.812 239.805 267.892C239.805 268.984 238.941 269.896 237.921 269.896ZM245.31 271H246.69L249.318 264.796H247.758L245.994 269.308L244.194 264.796H242.646L245.31 271ZM253.829 269.848C252.941 269.848 252.293 269.248 252.113 268.396H256.793C256.793 266.104 255.677 264.652 253.757 264.652C251.993 264.652 250.601 266.02 250.601 267.88C250.601 269.788 252.065 271.144 253.841 271.144C254.741 271.144 255.821 270.76 256.361 270.184L255.437 269.224C255.089 269.584 254.405 269.848 253.829 269.848ZM253.817 265.948C254.693 265.948 255.221 266.5 255.389 267.28H252.125C252.341 266.464 253.001 265.948 253.817 265.948ZM263.778 262.612V265.756C263.286 265.06 262.542 264.652 261.63 264.652C259.986 264.652 258.786 265.996 258.786 267.892C258.786 269.8 259.986 271.144 261.63 271.144C262.542 271.144 263.286 270.736 263.778 270.04V271H265.242V262.612H263.778ZM262.026 269.896C260.982 269.896 260.238 269.056 260.238 267.892C260.238 266.728 260.982 265.9 262.026 265.9C263.058 265.9 263.778 266.728 263.778 267.892C263.778 269.056 263.058 269.896 262.026 269.896Z" fill="#434343"/>
<rect x="164.5" y="249.5" width="106" height="35" rx="2.5" stroke="#434343"/>
<path d="M294.956 271H297.86C300.584 271 302.504 269.284 302.504 266.872C302.504 264.46 300.584 262.756 297.86 262.756H294.956V271ZM296.456 269.644V264.112H298.016C299.756 264.112 300.98 265.252 300.98 266.872C300.98 268.492 299.756 269.644 298.016 269.644H296.456ZM307.821 269.848C306.933 269.848 306.285 269.248 306.105 268.396H310.785C310.785 266.104 309.669 264.652 307.749 264.652C305.985 264.652 304.593 266.02 304.593 267.88C304.593 269.788 306.057 271.144 307.833 271.144C308.733 271.144 309.813 270.76 310.353 270.184L309.429 269.224C309.081 269.584 308.397 269.848 307.821 269.848ZM307.809 265.948C308.685 265.948 309.213 266.5 309.381 267.28H306.117C306.333 266.464 306.993 265.948 307.809 265.948ZM316.714 264.652C315.79 264.652 315.046 265.072 314.554 265.78V264.796H313.09V273.064H314.554V270.016C315.046 270.724 315.79 271.144 316.714 271.144C318.358 271.144 319.558 269.8 319.558 267.892C319.558 265.996 318.358 264.652 316.714 264.652ZM316.318 269.896C315.286 269.896 314.566 269.056 314.566 267.892C314.566 266.728 315.286 265.9 316.318 265.9C317.362 265.9 318.106 266.728 318.106 267.892C318.106 269.056 317.362 269.896 316.318 269.896ZM321.882 271H323.346V262.612H321.882V271ZM328.964 271.144C330.764 271.144 332.288 269.656 332.288 267.892C332.288 266.128 330.764 264.652 328.964 264.652C327.164 264.652 325.64 266.128 325.64 267.892C325.64 269.656 327.164 271.144 328.964 271.144ZM328.964 269.896C327.932 269.896 327.068 268.984 327.068 267.892C327.068 266.812 327.932 265.9 328.964 265.9C329.984 265.9 330.848 266.812 330.848 267.892C330.848 268.984 329.984 269.896 328.964 269.896ZM335.677 273.16C336.613 273.148 337.333 272.608 337.801 271.432L340.429 264.796H338.917L337.213 269.428L335.401 264.796H333.853L336.481 271.048L336.217 271.6C336.037 271.9 335.773 272.008 335.425 272.008C335.197 272.008 334.897 271.924 334.633 271.78L334.321 272.836C334.693 273.04 335.209 273.16 335.677 273.16ZM351.067 271.144C352.279 271.144 353.383 270.628 354.175 269.8L353.119 268.816C352.603 269.404 351.871 269.776 351.067 269.776C349.543 269.776 348.259 268.456 348.259 266.872C348.259 265.3 349.543 263.98 351.067 263.98C351.859 263.98 352.603 264.352 353.107 264.94L354.175 263.944C353.383 263.128 352.279 262.612 351.067 262.612C348.715 262.612 346.735 264.556 346.735 266.872C346.735 269.188 348.715 271.144 351.067 271.144ZM356.284 271H357.748V262.612H356.284V271ZM363.367 271.144C365.167 271.144 366.691 269.656 366.691 267.892C366.691 266.128 365.167 264.652 363.367 264.652C361.567 264.652 360.043 266.128 360.043 267.892C360.043 269.656 361.567 271.144 363.367 271.144ZM363.367 269.896C362.335 269.896 361.471 268.984 361.471 267.892C361.471 266.812 362.335 265.9 363.367 265.9C364.387 265.9 365.251 266.812 365.251 267.892C365.251 268.984 364.387 269.896 363.367 269.896ZM373.16 264.796V268.72C373.064 269.38 372.428 269.896 371.66 269.896C370.892 269.896 370.352 269.296 370.352 268.456V264.796H368.936V268.744C368.936 270.148 369.884 271.144 371.24 271.144C372.056 271.144 372.776 270.748 373.16 270.172V271H374.624V264.796H373.16ZM381.954 262.612V265.756C381.462 265.06 380.718 264.652 379.806 264.652C378.162 264.652 376.962 265.996 376.962 267.892C376.962 269.8 378.162 271.144 379.806 271.144C380.718 271.144 381.462 270.736 381.954 270.04V271H383.418V262.612H381.954ZM380.202 269.896C379.158 269.896 378.414 269.056 378.414 267.892C378.414 266.728 379.158 265.9 380.202 265.9C381.234 265.9 381.954 266.728 381.954 267.892C381.954 269.056 381.234 269.896 380.202 269.896ZM395.084 264.796V265.72C394.64 265.06 393.836 264.652 392.96 264.652C391.352 264.652 390.164 265.864 390.164 267.592C390.164 269.32 391.352 270.544 392.96 270.544C393.848 270.544 394.592 270.148 395.084 269.488V270.292C395.084 271.228 394.316 271.816 393.092 271.816C392.36 271.816 391.616 271.564 391.184 271.168L390.644 272.236C391.256 272.716 392.24 273.064 393.308 273.064C395.204 273.064 396.548 271.936 396.548 270.34V264.796H395.084ZM393.38 269.296C392.396 269.296 391.688 268.588 391.688 267.592C391.688 266.608 392.396 265.9 393.38 265.9C394.376 265.9 395.084 266.608 395.084 267.592C395.084 268.588 394.376 269.296 393.38 269.296ZM401.887 264.652C401.107 264.652 400.291 264.868 399.415 265.3L399.919 266.32C400.447 266.056 401.011 265.852 401.599 265.852C402.727 265.852 403.123 266.548 403.123 267.268V267.436C402.559 267.22 401.947 267.1 401.383 267.1C399.991 267.1 398.851 267.94 398.851 269.164C398.851 270.364 399.847 271.144 401.167 271.144C401.887 271.144 402.667 270.832 403.123 270.256V271H404.551V267.268C404.551 265.696 403.531 264.652 401.887 264.652ZM401.491 270.076C400.795 270.076 400.279 269.704 400.279 269.116C400.279 268.528 400.867 268.12 401.599 268.12C402.151 268.12 402.667 268.204 403.123 268.36V269.056C402.955 269.716 402.199 270.076 401.491 270.076ZM410.232 269.668C410.1 269.8 409.872 269.896 409.62 269.896C409.272 269.896 409.008 269.596 409.008 269.176V266.008H410.412V264.796H409.008V263.092H407.58V264.796H406.68V266.008H407.58V269.356C407.58 270.4 408.3 271.144 409.332 271.144C409.8 271.144 410.304 270.952 410.652 270.652L410.232 269.668ZM415.68 269.848C414.792 269.848 414.144 269.248 413.964 268.396H418.644C418.644 266.104 417.528 264.652 415.608 264.652C413.844 264.652 412.452 266.02 412.452 267.88C412.452 269.788 413.916 271.144 415.692 271.144C416.592 271.144 417.672 270.76 418.212 270.184L417.288 269.224C416.94 269.584 416.256 269.848 415.68 269.848ZM415.668 265.948C416.544 265.948 417.072 266.5 417.24 267.28H413.976C414.192 266.464 414.852 265.948 415.668 265.948ZM422.193 271H423.525L424.845 266.752L426.177 271H427.509L429.597 264.796H428.133L426.849 269.032L425.457 264.796H424.233L422.853 269.032L421.557 264.796H420.093L422.193 271ZM434.375 264.652C433.595 264.652 432.779 264.868 431.903 265.3L432.407 266.32C432.935 266.056 433.499 265.852 434.087 265.852C435.215 265.852 435.611 266.548 435.611 267.268V267.436C435.047 267.22 434.435 267.1 433.871 267.1C432.479 267.1 431.339 267.94 431.339 269.164C431.339 270.364 432.335 271.144 433.655 271.144C434.375 271.144 435.155 270.832 435.611 270.256V271H437.039V267.268C437.039 265.696 436.019 264.652 434.375 264.652ZM433.979 270.076C433.283 270.076 432.767 269.704 432.767 269.116C432.767 268.528 433.355 268.12 434.087 268.12C434.639 268.12 435.155 268.204 435.611 268.36V269.056C435.443 269.716 434.687 270.076 433.979 270.076ZM440.884 273.16C441.82 273.148 442.54 272.608 443.008 271.432L445.636 264.796H444.124L442.42 269.428L440.608 264.796H439.06L441.688 271.048L441.424 271.6C441.244 271.9 440.98 272.008 440.632 272.008C440.404 272.008 440.104 271.924 439.84 271.78L439.528 272.836C439.9 273.04 440.416 273.16 440.884 273.16Z" fill="#434343"/>
<rect x="291.5" y="249.5" width="158" height="35" rx="2.5" stroke="#434343"/>
<path d="M301.136 206.144C302.348 206.144 303.452 205.628 304.244 204.8L303.188 203.816C302.672 204.404 301.94 204.776 301.136 204.776C299.612 204.776 298.328 203.456 298.328 201.872C298.328 200.3 299.612 198.98 301.136 198.98C301.928 198.98 302.672 199.352 303.176 199.94L304.244 198.944C303.452 198.128 302.348 197.612 301.136 197.612C298.784 197.612 296.804 199.556 296.804 201.872C296.804 204.188 298.784 206.144 301.136 206.144ZM309.353 206.144C311.153 206.144 312.677 204.656 312.677 202.892C312.677 201.128 311.153 199.652 309.353 199.652C307.553 199.652 306.029 201.128 306.029 202.892C306.029 204.656 307.553 206.144 309.353 206.144ZM309.353 204.896C308.321 204.896 307.457 203.984 307.457 202.892C307.457 201.812 308.321 200.9 309.353 200.9C310.373 200.9 311.237 201.812 311.237 202.892C311.237 203.984 310.373 204.896 309.353 204.896ZM318.331 199.652C317.515 199.652 316.795 200.048 316.411 200.624V199.796H314.947V206H316.411V202.076C316.507 201.416 317.143 200.9 317.911 200.9C318.679 200.9 319.219 201.5 319.219 202.34V206H320.635V202.052C320.635 200.648 319.687 199.652 318.331 199.652ZM326.608 199.652C325.792 199.652 325.072 200.048 324.688 200.624V199.796H323.224V206H324.688V202.076C324.784 201.416 325.42 200.9 326.188 200.9C326.956 200.9 327.496 201.5 327.496 202.34V206H328.912V202.052C328.912 200.648 327.964 199.652 326.608 199.652ZM334.393 204.848C333.505 204.848 332.857 204.248 332.677 203.396H337.357C337.357 201.104 336.241 199.652 334.321 199.652C332.557 199.652 331.165 201.02 331.165 202.88C331.165 204.788 332.629 206.144 334.405 206.144C335.305 206.144 336.385 205.76 336.925 205.184L336.001 204.224C335.653 204.584 334.969 204.848 334.393 204.848ZM334.381 200.948C335.257 200.948 335.785 201.5 335.953 202.28H332.689C332.905 201.464 333.565 200.948 334.381 200.948ZM342.614 206.144C343.598 206.144 344.426 205.736 345.026 205.1L344.042 204.248C343.694 204.644 343.166 204.896 342.626 204.896C341.606 204.896 340.754 203.984 340.754 202.892C340.754 201.812 341.606 200.9 342.626 200.9C343.154 200.9 343.67 201.152 344.006 201.524L344.99 200.66C344.402 200.048 343.574 199.652 342.638 199.652C340.826 199.652 339.302 201.128 339.302 202.892C339.302 204.656 340.826 206.144 342.614 206.144ZM350.273 204.668C350.141 204.8 349.913 204.896 349.661 204.896C349.313 204.896 349.049 204.596 349.049 204.176V201.008H350.453V199.796H349.049V198.092H347.621V199.796H346.721V201.008H347.621V204.356C347.621 205.4 348.341 206.144 349.373 206.144C349.841 206.144 350.345 205.952 350.693 205.652L350.273 204.668ZM361.944 197.612V200.756C361.452 200.06 360.708 199.652 359.796 199.652C358.152 199.652 356.952 200.996 356.952 202.892C356.952 204.8 358.152 206.144 359.796 206.144C360.708 206.144 361.452 205.736 361.944 205.04V206H363.408V197.612H361.944ZM360.192 204.896C359.148 204.896 358.404 204.056 358.404 202.892C358.404 201.728 359.148 200.9 360.192 200.9C361.224 200.9 361.944 201.728 361.944 202.892C361.944 204.056 361.224 204.896 360.192 204.896ZM368.756 199.652C367.976 199.652 367.16 199.868 366.284 200.3L366.788 201.32C367.316 201.056 367.88 200.852 368.468 200.852C369.596 200.852 369.992 201.548 369.992 202.268V202.436C369.428 202.22 368.816 202.1 368.252 202.1C366.86 202.1 365.72 202.94 365.72 204.164C365.72 205.364 366.716 206.144 368.036 206.144C368.756 206.144 369.536 205.832 369.992 205.256V206H371.42V202.268C371.42 200.696 370.4 199.652 368.756 199.652ZM368.36 205.076C367.664 205.076 367.148 204.704 367.148 204.116C367.148 203.528 367.736 203.12 368.468 203.12C369.02 203.12 369.536 203.204 369.992 203.36V204.056C369.824 204.716 369.068 205.076 368.36 205.076ZM377.101 204.668C376.969 204.8 376.741 204.896 376.489 204.896C376.141 204.896 375.877 204.596 375.877 204.176V201.008H377.281V199.796H375.877V198.092H374.449V199.796H373.549V201.008H374.449V204.356C374.449 205.4 375.169 206.144 376.201 206.144C376.669 206.144 377.173 205.952 377.521 205.652L377.101 204.668ZM382.358 199.652C381.578 199.652 380.762 199.868 379.886 200.3L380.39 201.32C380.918 201.056 381.482 200.852 382.07 200.852C383.198 200.852 383.594 201.548 383.594 202.268V202.436C383.03 202.22 382.418 202.1 381.854 202.1C380.462 202.1 379.322 202.94 379.322 204.164C379.322 205.364 380.318 206.144 381.638 206.144C382.358 206.144 383.138 205.832 383.594 205.256V206H385.022V202.268C385.022 200.696 384.002 199.652 382.358 199.652ZM381.962 205.076C381.266 205.076 380.75 204.704 380.75 204.116C380.75 203.528 381.338 203.12 382.07 203.12C382.622 203.12 383.138 203.204 383.594 203.36V204.056C383.426 204.716 382.67 205.076 381.962 205.076ZM394.993 206.144C395.977 206.144 396.805 205.736 397.405 205.1L396.421 204.248C396.073 204.644 395.545 204.896 395.005 204.896C393.985 204.896 393.133 203.984 393.133 202.892C393.133 201.812 393.985 200.9 395.005 200.9C395.533 200.9 396.049 201.152 396.385 201.524L397.369 200.66C396.781 200.048 395.953 199.652 395.017 199.652C393.205 199.652 391.681 201.128 391.681 202.892C391.681 204.656 393.205 206.144 394.993 206.144ZM402.448 204.848C401.56 204.848 400.912 204.248 400.732 203.396H405.412C405.412 201.104 404.296 199.652 402.376 199.652C400.612 199.652 399.22 201.02 399.22 202.88C399.22 204.788 400.684 206.144 402.46 206.144C403.36 206.144 404.44 205.76 404.98 205.184L404.056 204.224C403.708 204.584 403.024 204.848 402.448 204.848ZM402.436 200.948C403.312 200.948 403.84 201.5 404.008 202.28H400.744C400.96 201.464 401.62 200.948 402.436 200.948ZM411.065 199.652C410.249 199.652 409.529 200.048 409.145 200.624V199.796H407.681V206H409.145V202.076C409.241 201.416 409.877 200.9 410.645 200.9C411.413 200.9 411.953 201.5 411.953 202.34V206H413.369V202.052C413.369 200.648 412.421 199.652 411.065 199.652ZM419.054 204.668C418.922 204.8 418.694 204.896 418.442 204.896C418.094 204.896 417.83 204.596 417.83 204.176V201.008H419.234V199.796H417.83V198.092H416.402V199.796H415.502V201.008H416.402V204.356C416.402 205.4 417.122 206.144 418.154 206.144C418.622 206.144 419.126 205.952 419.474 205.652L419.054 204.668ZM424.503 204.848C423.615 204.848 422.967 204.248 422.787 203.396H427.467C427.467 201.104 426.351 199.652 424.431 199.652C422.667 199.652 421.275 201.02 421.275 202.88C421.275 204.788 422.739 206.144 424.515 206.144C425.415 206.144 426.495 205.76 427.035 205.184L426.111 204.224C425.763 204.584 425.079 204.848 424.503 204.848ZM424.491 200.948C425.367 200.948 425.895 201.5 426.063 202.28H422.799C423.015 201.464 423.675 200.948 424.491 200.948ZM431.236 200.996V199.796H429.772V206H431.236V202.868C431.236 201.692 432.124 200.9 433.456 200.9V199.652C432.436 199.652 431.632 200.168 431.236 200.996ZM437.832 206.144C439.284 206.144 440.268 205.376 440.268 204.188C440.268 202.892 439.14 202.532 438.096 202.244C437.148 201.968 436.824 201.848 436.824 201.452C436.824 201.104 437.22 200.9 437.736 200.9C438.276 200.9 438.912 201.092 439.5 201.464L440.112 200.396C439.44 199.952 438.588 199.652 437.736 199.652C436.356 199.652 435.396 200.444 435.396 201.608C435.408 202.712 436.26 203.096 437.604 203.444C438.312 203.636 438.852 203.792 438.852 204.272C438.852 204.656 438.444 204.908 437.856 204.908C437.076 204.908 436.38 204.62 435.78 204.188L435.12 205.208C435.864 205.808 436.884 206.144 437.832 206.144Z" fill="#434343"/>
<rect x="291.5" y="184.5" width="155" height="35" rx="2.5" stroke="#434343"/>
<path d="M645.835 199.124V197.756H639.631V206H645.835V204.632H641.131V202.484H645.391V201.116H641.131V199.124H645.835ZM653.912 206L651.584 202.82L653.804 199.796H652.208L650.792 201.728L649.376 199.796H647.768L649.988 202.832L647.66 206H649.256L650.78 203.924L652.292 206H653.912ZM659.61 199.652C658.686 199.652 657.942 200.072 657.45 200.78V199.796H655.986V208.064H657.45V205.016C657.942 205.724 658.686 206.144 659.61 206.144C661.254 206.144 662.454 204.8 662.454 202.892C662.454 200.996 661.254 199.652 659.61 199.652ZM659.214 204.896C658.182 204.896 657.462 204.056 657.462 202.892C657.462 201.728 658.182 200.9 659.214 200.9C660.258 200.9 661.002 201.728 661.002 202.892C661.002 204.056 660.258 204.896 659.214 204.896ZM664.779 206H666.243V197.612H664.779V206ZM671.861 206.144C673.661 206.144 675.185 204.656 675.185 202.892C675.185 201.128 673.661 199.652 671.861 199.652C670.061 199.652 668.537 201.128 668.537 202.892C668.537 204.656 670.061 206.144 671.861 206.144ZM671.861 204.896C670.829 204.896 669.965 203.984 669.965 202.892C669.965 201.812 670.829 200.9 671.861 200.9C672.881 200.9 673.745 201.812 673.745 202.892C673.745 203.984 672.881 204.896 671.861 204.896ZM678.954 200.996V199.796H677.49V206H678.954V202.868C678.954 201.692 679.842 200.9 681.174 200.9V199.652C680.154 199.652 679.35 200.168 678.954 200.996ZM686.151 204.848C685.263 204.848 684.615 204.248 684.435 203.396H689.115C689.115 201.104 687.999 199.652 686.079 199.652C684.315 199.652 682.923 201.02 682.923 202.88C682.923 204.788 684.387 206.144 686.163 206.144C687.063 206.144 688.143 205.76 688.683 205.184L687.759 204.224C687.411 204.584 686.727 204.848 686.151 204.848ZM686.139 200.948C687.015 200.948 687.543 201.5 687.711 202.28H684.447C684.663 201.464 685.323 200.948 686.139 200.948ZM698.879 204.668C698.747 204.8 698.519 204.896 698.267 204.896C697.919 204.896 697.655 204.596 697.655 204.176V201.008H699.059V199.796H697.655V198.092H696.227V199.796H695.327V201.008H696.227V204.356C696.227 205.4 696.947 206.144 697.979 206.144C698.447 206.144 698.951 205.952 699.299 205.652L698.879 204.668ZM704.819 199.652C703.991 199.652 703.259 200.048 702.887 200.648V197.612H701.423V206H702.887V202.244C702.887 201.5 703.571 200.9 704.399 200.9C705.167 200.9 705.707 201.5 705.707 202.34V206H707.123V202.052C707.123 200.648 706.175 199.652 704.819 199.652ZM712.604 204.848C711.716 204.848 711.068 204.248 710.888 203.396H715.568C715.568 201.104 714.452 199.652 712.532 199.652C710.768 199.652 709.376 201.02 709.376 202.88C709.376 204.788 710.84 206.144 712.616 206.144C713.516 206.144 714.596 205.76 715.136 205.184L714.212 204.224C713.864 204.584 713.18 204.848 712.604 204.848ZM712.592 200.948C713.468 200.948 713.996 201.5 714.164 202.28H710.9C711.116 201.464 711.776 200.948 712.592 200.948ZM724.528 206.144C725.98 206.144 726.964 205.376 726.964 204.188C726.964 202.892 725.836 202.532 724.792 202.244C723.844 201.968 723.52 201.848 723.52 201.452C723.52 201.104 723.916 200.9 724.432 200.9C724.972 200.9 725.608 201.092 726.196 201.464L726.808 200.396C726.136 199.952 725.284 199.652 724.432 199.652C723.052 199.652 722.092 200.444 722.092 201.608C722.104 202.712 722.956 203.096 724.3 203.444C725.008 203.636 725.548 203.792 725.548 204.272C725.548 204.656 725.14 204.908 724.552 204.908C723.772 204.908 723.076 204.62 722.476 204.188L721.816 205.208C722.56 205.808 723.58 206.144 724.528 206.144ZM732.128 204.848C731.24 204.848 730.592 204.248 730.412 203.396H735.092C735.092 201.104 733.976 199.652 732.056 199.652C730.292 199.652 728.9 201.02 728.9 202.88C728.9 204.788 730.364 206.144 732.14 206.144C733.04 206.144 734.12 205.76 734.66 205.184L733.736 204.224C733.388 204.584 732.704 204.848 732.128 204.848ZM732.116 200.948C732.992 200.948 733.52 201.5 733.688 202.28H730.424C730.64 201.464 731.3 200.948 732.116 200.948ZM738.861 200.996V199.796H737.397V206H738.861V202.868C738.861 201.692 739.749 200.9 741.081 200.9V199.652C740.061 199.652 739.257 200.168 738.861 200.996ZM745.241 206H746.621L749.249 199.796H747.689L745.925 204.308L744.125 199.796H742.577L745.241 206ZM752.011 198.86C752.467 198.86 752.839 198.464 752.839 198.02C752.839 197.576 752.467 197.192 752.011 197.192C751.543 197.192 751.171 197.576 751.171 198.02C751.171 198.464 751.543 198.86 752.011 198.86ZM751.267 206H752.731V199.796H751.267V206ZM758.337 206.144C759.321 206.144 760.149 205.736 760.749 205.1L759.765 204.248C759.417 204.644 758.889 204.896 758.349 204.896C757.329 204.896 756.477 203.984 756.477 202.892C756.477 201.812 757.329 200.9 758.349 200.9C758.877 200.9 759.393 201.152 759.729 201.524L760.713 200.66C760.125 200.048 759.297 199.652 758.361 199.652C756.549 199.652 755.025 201.128 755.025 202.892C755.025 204.656 756.549 206.144 758.337 206.144ZM765.792 204.848C764.904 204.848 764.256 204.248 764.076 203.396H768.756C768.756 201.104 767.64 199.652 765.72 199.652C763.956 199.652 762.564 201.02 762.564 202.88C762.564 204.788 764.028 206.144 765.804 206.144C766.704 206.144 767.784 205.76 768.324 205.184L767.4 204.224C767.052 204.584 766.368 204.848 765.792 204.848ZM765.78 200.948C766.656 200.948 767.184 201.5 767.352 202.28H764.088C764.304 201.464 764.964 200.948 765.78 200.948ZM773.317 206.144C774.769 206.144 775.753 205.376 775.753 204.188C775.753 202.892 774.625 202.532 773.581 202.244C772.633 201.968 772.309 201.848 772.309 201.452C772.309 201.104 772.705 200.9 773.221 200.9C773.761 200.9 774.397 201.092 774.985 201.464L775.597 200.396C774.925 199.952 774.073 199.652 773.221 199.652C771.841 199.652 770.881 200.444 770.881 201.608C770.893 202.712 771.745 203.096 773.089 203.444C773.797 203.636 774.337 203.792 774.337 204.272C774.337 204.656 773.929 204.908 773.341 204.908C772.561 204.908 771.865 204.62 771.265 204.188L770.605 205.208C771.349 205.808 772.369 206.144 773.317 206.144Z" fill="#434343"/>
<rect x="634.5" y="184.5" width="147" height="35" rx="2.5" stroke="#434343"/>
<path d="M494.845 206.144C496.057 206.144 497.161 205.628 497.953 204.8L496.897 203.816C496.381 204.404 495.649 204.776 494.845 204.776C493.321 204.776 492.037 203.456 492.037 201.872C492.037 200.3 493.321 198.98 494.845 198.98C495.637 198.98 496.381 199.352 496.885 199.94L497.953 198.944C497.161 198.128 496.057 197.612 494.845 197.612C492.493 197.612 490.513 199.556 490.513 201.872C490.513 204.188 492.493 206.144 494.845 206.144ZM503.062 206.144C504.862 206.144 506.386 204.656 506.386 202.892C506.386 201.128 504.862 199.652 503.062 199.652C501.262 199.652 499.738 201.128 499.738 202.892C499.738 204.656 501.262 206.144 503.062 206.144ZM503.062 204.896C502.03 204.896 501.166 203.984 501.166 202.892C501.166 201.812 502.03 200.9 503.062 200.9C504.082 200.9 504.946 201.812 504.946 202.892C504.946 203.984 504.082 204.896 503.062 204.896ZM512.04 199.652C511.224 199.652 510.504 200.048 510.12 200.624V199.796H508.656V206H510.12V202.076C510.216 201.416 510.852 200.9 511.62 200.9C512.388 200.9 512.928 201.5 512.928 202.34V206H514.344V202.052C514.344 200.648 513.396 199.652 512.04 199.652ZM519.009 206H520.389L523.017 199.796H521.457L519.693 204.308L517.893 199.796H516.345L519.009 206ZM527.528 204.848C526.64 204.848 525.992 204.248 525.812 203.396H530.492C530.492 201.104 529.376 199.652 527.456 199.652C525.692 199.652 524.3 201.02 524.3 202.88C524.3 204.788 525.764 206.144 527.54 206.144C528.44 206.144 529.52 205.76 530.06 205.184L529.136 204.224C528.788 204.584 528.104 204.848 527.528 204.848ZM527.516 200.948C528.392 200.948 528.92 201.5 529.088 202.28H525.824C526.04 201.464 526.7 200.948 527.516 200.948ZM534.261 200.996V199.796H532.797V206H534.261V202.868C534.261 201.692 535.149 200.9 536.481 200.9V199.652C535.461 199.652 534.657 200.168 534.261 200.996ZM541.662 204.668C541.53 204.8 541.302 204.896 541.05 204.896C540.702 204.896 540.438 204.596 540.438 204.176V201.008H541.842V199.796H540.438V198.092H539.01V199.796H538.11V201.008H539.01V204.356C539.01 205.4 539.73 206.144 540.762 206.144C541.23 206.144 541.734 205.952 542.082 205.652L541.662 204.668ZM551.713 204.668C551.581 204.8 551.353 204.896 551.101 204.896C550.753 204.896 550.489 204.596 550.489 204.176V201.008H551.893V199.796H550.489V198.092H549.061V199.796H548.161V201.008H549.061V204.356C549.061 205.4 549.781 206.144 550.812 206.144C551.281 206.144 551.785 205.952 552.133 205.652L551.713 204.668ZM557.269 206.144C559.069 206.144 560.593 204.656 560.593 202.892C560.593 201.128 559.069 199.652 557.269 199.652C555.469 199.652 553.945 201.128 553.945 202.892C553.945 204.656 555.469 206.144 557.269 206.144ZM557.269 204.896C556.237 204.896 555.373 203.984 555.373 202.892C555.373 201.812 556.237 200.9 557.269 200.9C558.289 200.9 559.153 201.812 559.153 202.892C559.153 203.984 558.289 204.896 557.269 204.896ZM570.357 204.668C570.225 204.8 569.997 204.896 569.745 204.896C569.397 204.896 569.133 204.596 569.133 204.176V201.008H570.537V199.796H569.133V198.092H567.705V199.796H566.805V201.008H567.705V204.356C567.705 205.4 568.425 206.144 569.457 206.144C569.925 206.144 570.429 205.952 570.777 205.652L570.357 204.668ZM574.413 200.996V199.796H572.949V206H574.413V202.868C574.413 201.692 575.301 200.9 576.633 200.9V199.652C575.613 199.652 574.809 200.168 574.413 200.996ZM579.462 198.86C579.918 198.86 580.29 198.464 580.29 198.02C580.29 197.576 579.918 197.192 579.462 197.192C578.994 197.192 578.622 197.576 578.622 198.02C578.622 198.464 578.994 198.86 579.462 198.86ZM578.718 206H580.182V199.796H578.718V206ZM585.5 199.652C584.72 199.652 583.904 199.868 583.028 200.3L583.532 201.32C584.06 201.056 584.624 200.852 585.212 200.852C586.34 200.852 586.736 201.548 586.736 202.268V202.436C586.172 202.22 585.56 202.1 584.996 202.1C583.604 202.1 582.464 202.94 582.464 204.164C582.464 205.364 583.46 206.144 584.78 206.144C585.5 206.144 586.28 205.832 586.736 205.256V206H588.164V202.268C588.164 200.696 587.144 199.652 585.5 199.652ZM585.104 205.076C584.408 205.076 583.892 204.704 583.892 204.116C583.892 203.528 584.48 203.12 585.212 203.12C585.764 203.12 586.28 203.204 586.736 203.36V204.056C586.568 204.716 585.812 205.076 585.104 205.076ZM590.749 206H592.213V197.612H590.749V206Z" fill="#434343"/>
<rect x="468.5" y="184.5" width="147" height="35" rx="2.5" stroke="#434343"/>
<path d="M839.183 167.132C841.151 167.132 842.279 166.088 842.279 164.612C842.279 163.112 841.127 162.56 839.411 162.176C838.103 161.876 837.491 161.636 837.491 160.964C837.491 160.388 838.055 159.884 838.883 159.884C839.699 159.884 840.527 160.232 841.247 160.856L842.063 159.752C841.235 159.044 840.251 158.6 838.943 158.6C837.203 158.6 835.979 159.656 835.979 161.096C835.979 162.644 837.167 163.136 838.871 163.532C840.191 163.844 840.779 164.072 840.779 164.756C840.779 165.344 840.251 165.848 839.231 165.848C838.151 165.848 837.275 165.416 836.519 164.732L835.655 165.8C836.567 166.652 837.767 167.132 839.183 167.132ZM848.799 160.796V164.72C848.703 165.38 848.067 165.896 847.299 165.896C846.531 165.896 845.991 165.296 845.991 164.456V160.796H844.575V164.744C844.575 166.148 845.523 167.144 846.879 167.144C847.695 167.144 848.415 166.748 848.799 166.172V167H850.263V160.796H848.799ZM856.536 160.652C855.612 160.652 854.868 161.072 854.376 161.78V158.612H852.912V167H854.376V166.016C854.868 166.724 855.612 167.144 856.536 167.144C858.18 167.144 859.38 165.8 859.38 163.892C859.38 161.996 858.18 160.652 856.536 160.652ZM856.14 165.896C855.108 165.896 854.388 165.056 854.388 163.892C854.388 162.728 855.108 161.9 856.14 161.9C857.184 161.9 857.928 162.728 857.928 163.892C857.928 165.056 857.184 165.896 856.14 165.896ZM863.996 167.144C865.448 167.144 866.432 166.376 866.432 165.188C866.432 163.892 865.304 163.532 864.26 163.244C863.312 162.968 862.988 162.848 862.988 162.452C862.988 162.104 863.384 161.9 863.9 161.9C864.44 161.9 865.076 162.092 865.664 162.464L866.276 161.396C865.604 160.952 864.752 160.652 863.9 160.652C862.52 160.652 861.56 161.444 861.56 162.608C861.572 163.712 862.424 164.096 863.768 164.444C864.476 164.636 865.016 164.792 865.016 165.272C865.016 165.656 864.608 165.908 864.02 165.908C863.24 165.908 862.544 165.62 861.944 165.188L861.284 166.208C862.028 166.808 863.048 167.144 863.996 167.144ZM871.692 167.144C872.676 167.144 873.504 166.736 874.104 166.1L873.12 165.248C872.772 165.644 872.244 165.896 871.704 165.896C870.684 165.896 869.832 164.984 869.832 163.892C869.832 162.812 870.684 161.9 871.704 161.9C872.232 161.9 872.748 162.152 873.084 162.524L874.068 161.66C873.48 161.048 872.652 160.652 871.716 160.652C869.904 160.652 868.38 162.128 868.38 163.892C868.38 165.656 869.904 167.144 871.692 167.144ZM877.755 161.996V160.796H876.291V167H877.755V163.868C877.755 162.692 878.643 161.9 879.975 161.9V160.652C878.955 160.652 878.151 161.168 877.755 161.996ZM882.804 159.86C883.26 159.86 883.632 159.464 883.632 159.02C883.632 158.576 883.26 158.192 882.804 158.192C882.336 158.192 881.964 158.576 881.964 159.02C881.964 159.464 882.336 159.86 882.804 159.86ZM882.06 167H883.524V160.796H882.06V167ZM889.802 160.652C888.878 160.652 888.134 161.072 887.642 161.78V158.612H886.178V167H887.642V166.016C888.134 166.724 888.878 167.144 889.802 167.144C891.446 167.144 892.646 165.8 892.646 163.892C892.646 161.996 891.446 160.652 889.802 160.652ZM889.406 165.896C888.374 165.896 887.654 165.056 887.654 163.892C887.654 162.728 888.374 161.9 889.406 161.9C890.45 161.9 891.194 162.728 891.194 163.892C891.194 165.056 890.45 165.896 889.406 165.896ZM897.862 165.848C896.974 165.848 896.326 165.248 896.146 164.396H900.826C900.826 162.104 899.71 160.652 897.79 160.652C896.026 160.652 894.634 162.02 894.634 163.88C894.634 165.788 896.098 167.144 897.874 167.144C898.774 167.144 899.854 166.76 900.394 166.184L899.47 165.224C899.122 165.584 898.438 165.848 897.862 165.848ZM897.85 161.948C898.726 161.948 899.254 162.5 899.422 163.28H896.158C896.374 162.464 897.034 161.948 897.85 161.948ZM910.193 160.652C909.413 160.652 908.597 160.868 907.721 161.3L908.225 162.32C908.753 162.056 909.317 161.852 909.905 161.852C911.033 161.852 911.429 162.548 911.429 163.268V163.436C910.865 163.22 910.253 163.1 909.689 163.1C908.297 163.1 907.157 163.94 907.157 165.164C907.157 166.364 908.153 167.144 909.473 167.144C910.193 167.144 910.973 166.832 911.429 166.256V167H912.857V163.268C912.857 161.696 911.837 160.652 910.193 160.652ZM909.797 166.076C909.101 166.076 908.585 165.704 908.585 165.116C908.585 164.528 909.173 164.12 909.905 164.12C910.457 164.12 910.973 164.204 911.429 164.36V165.056C911.261 165.716 910.505 166.076 909.797 166.076ZM918.827 160.652C918.011 160.652 917.291 161.048 916.907 161.624V160.796H915.443V167H916.907V163.076C917.003 162.416 917.639 161.9 918.407 161.9C919.175 161.9 919.715 162.5 919.715 163.34V167H921.131V163.052C921.131 161.648 920.183 160.652 918.827 160.652ZM928.436 158.612V161.756C927.944 161.06 927.2 160.652 926.288 160.652C924.644 160.652 923.444 161.996 923.444 163.892C923.444 165.8 924.644 167.144 926.288 167.144C927.2 167.144 927.944 166.736 928.436 166.04V167H929.9V158.612H928.436ZM926.684 165.896C925.64 165.896 924.896 165.056 924.896 163.892C924.896 162.728 925.64 161.9 926.684 161.9C927.716 161.9 928.436 162.728 928.436 163.892C928.436 165.056 927.716 165.896 926.684 165.896ZM942.803 160.796H941.075L938.387 163.736V158.612H936.923V167H938.387V165.452L939.263 164.528L941.015 167H942.719L940.247 163.568L942.803 160.796ZM947.577 165.848C946.689 165.848 946.041 165.248 945.861 164.396H950.541C950.541 162.104 949.425 160.652 947.505 160.652C945.741 160.652 944.349 162.02 944.349 163.88C944.349 165.788 945.813 167.144 947.589 167.144C948.489 167.144 949.569 166.76 950.109 166.184L949.185 165.224C948.837 165.584 948.153 165.848 947.577 165.848ZM947.565 161.948C948.441 161.948 948.969 162.5 949.137 163.28H945.873C946.089 162.464 946.749 161.948 947.565 161.948ZM955.702 165.848C954.814 165.848 954.166 165.248 953.986 164.396H958.666C958.666 162.104 957.55 160.652 955.63 160.652C953.866 160.652 952.474 162.02 952.474 163.88C952.474 165.788 953.938 167.144 955.714 167.144C956.614 167.144 957.694 166.76 958.234 166.184L957.31 165.224C956.962 165.584 956.278 165.848 955.702 165.848ZM955.69 161.948C956.566 161.948 957.094 162.5 957.262 163.28H953.998C954.214 162.464 954.874 161.948 955.69 161.948ZM964.595 160.652C963.671 160.652 962.927 161.072 962.435 161.78V160.796H960.971V169.064H962.435V166.016C962.927 166.724 963.671 167.144 964.595 167.144C966.239 167.144 967.439 165.8 967.439 163.892C967.439 161.996 966.239 160.652 964.595 160.652ZM964.199 165.896C963.167 165.896 962.447 165.056 962.447 163.892C962.447 162.728 963.167 161.9 964.199 161.9C965.243 161.9 965.987 162.728 965.987 163.892C965.987 165.056 965.243 165.896 964.199 165.896ZM978.361 160.796V164.72C978.265 165.38 977.629 165.896 976.861 165.896C976.093 165.896 975.553 165.296 975.553 164.456V160.796H974.137V164.744C974.137 166.148 975.085 167.144 976.441 167.144C977.257 167.144 977.977 166.748 978.361 166.172V167H979.825V160.796H978.361ZM984.731 167.144C986.183 167.144 987.167 166.376 987.167 165.188C987.167 163.892 986.039 163.532 984.995 163.244C984.047 162.968 983.723 162.848 983.723 162.452C983.723 162.104 984.119 161.9 984.635 161.9C985.175 161.9 985.811 162.092 986.399 162.464L987.011 161.396C986.339 160.952 985.487 160.652 984.635 160.652C983.255 160.652 982.295 161.444 982.295 162.608C982.307 163.712 983.159 164.096 984.503 164.444C985.211 164.636 985.751 164.792 985.751 165.272C985.751 165.656 985.343 165.908 984.755 165.908C983.975 165.908 983.279 165.62 982.679 165.188L982.019 166.208C982.763 166.808 983.783 167.144 984.731 167.144ZM990.183 159.86C990.639 159.86 991.011 159.464 991.011 159.02C991.011 158.576 990.639 158.192 990.183 158.192C989.715 158.192 989.343 158.576 989.343 159.02C989.343 159.464 989.715 159.86 990.183 159.86ZM989.439 167H990.903V160.796H989.439V167ZM996.905 160.652C996.089 160.652 995.369 161.048 994.985 161.624V160.796H993.521V167H994.985V163.076C995.081 162.416 995.717 161.9 996.485 161.9C997.253 161.9 997.793 162.5 997.793 163.34V167H999.209V163.052C999.209 161.648 998.261 160.652 996.905 160.652ZM1006.42 160.796V161.72C1005.97 161.06 1005.17 160.652 1004.29 160.652C1002.69 160.652 1001.5 161.864 1001.5 163.592C1001.5 165.32 1002.69 166.544 1004.29 166.544C1005.18 166.544 1005.93 166.148 1006.42 165.488V166.292C1006.42 167.228 1005.65 167.816 1004.43 167.816C1003.69 167.816 1002.95 167.564 1002.52 167.168L1001.98 168.236C1002.59 168.716 1003.57 169.064 1004.64 169.064C1006.54 169.064 1007.88 167.936 1007.88 166.34V160.796H1006.42ZM1004.71 165.296C1003.73 165.296 1003.02 164.588 1003.02 163.592C1003.02 162.608 1003.73 161.9 1004.71 161.9C1005.71 161.9 1006.42 162.608 1006.42 163.592C1006.42 164.588 1005.71 165.296 1004.71 165.296Z" fill="#434343"/>
<rect x="823.5" y="145.5" width="198" height="35" rx="2.5" stroke="#434343"/>
<path d="M1048 163L1038 157.226V168.774L1048 163ZM1022 164H1039V162H1022V164Z" fill="#0079B8"/>
<path d="M922 277L927.774 267L916.226 267L922 277ZM921 251L921 268L923 268L923 251L921 251Z" fill="#0079B8"/>
<path d="M804.5 202V203H805.5V202H804.5ZM804.5 166V165H803.5V166H804.5ZM822 166L812 160.226V171.774L822 166ZM786 203H804.5V201H786V203ZM805.5 202V166H803.5V202H805.5ZM804.5 167H813V165H804.5V167Z" fill="#0079B8"/>
<path d="M804.5 202H805.5V201H804.5V202ZM804.5 237H803.5V238H804.5V237ZM822 237L812 231.226V242.774L822 237ZM786 203H804.5V201H786V203ZM803.5 202V237H805.5V202H803.5ZM804.5 238H813V236H804.5V238Z" fill="#0079B8"/>
<path d="M148 202H147V203H148V202ZM162 202L152 196.226V207.774L162 202ZM148 174H149V173H148V174ZM148 203H153V201H148V203ZM134 175H148V173H134V175ZM147 174V202H149V174H147Z" fill="#0079B8"/>
<path d="M148 202V201H147V202H148ZM162 202L152 196.226V207.774L162 202ZM148 225V226H149V225H148ZM148 203H153V201H148V203ZM134 226H148V224H134V226ZM149 225V202H147V225H149Z" fill="#0079B8"/>
<path d="M289 267L279 261.226V272.774L289 267ZM273 268H280V266H273V268Z" fill="#0079B8"/>
<path d="M218 247L223.774 237L212.226 237L218 247ZM217 221L217 238L219 238L219 221L217 221Z" fill="#0079B8"/>
<path d="M371 221L365.226 231L376.774 231L371 221ZM372 247L372 230L370 230L370 247L372 247Z" fill="#0079B8"/>
<path d="M464 202L454 196.226V207.774L464 202ZM448 203H455V201H448V203Z" fill="#0079B8"/>
<path d="M632 202L622 196.226V207.774L632 202ZM616 203H623V201H616V203Z" fill="#0079B8"/>
<rect x="16" y="54" width="139" height="36" rx="3" fill="#0079B8"/>
<path d="M68.7563 74.632V67.756H67.2683V76H72.9923V74.632H68.7563ZM78.0515 74.848C77.1635 74.848 76.5155 74.248 76.3355 73.396H81.0155C81.0155 71.104 79.8995 69.652 77.9795 69.652C76.2155 69.652 74.8235 71.02 74.8235 72.88C74.8235 74.788 76.2875 76.144 78.0635 76.144C78.9635 76.144 80.0435 75.76 80.5835 75.184L79.6595 74.224C79.3115 74.584 78.6275 74.848 78.0515 74.848ZM78.0395 70.948C78.9155 70.948 79.4435 71.5 79.6115 72.28H76.3475C76.5635 71.464 77.2235 70.948 78.0395 70.948ZM85.9845 69.652C85.2045 69.652 84.3885 69.868 83.5125 70.3L84.0165 71.32C84.5445 71.056 85.1085 70.852 85.6965 70.852C86.8245 70.852 87.2205 71.548 87.2205 72.268V72.436C86.6565 72.22 86.0445 72.1 85.4805 72.1C84.0885 72.1 82.9485 72.94 82.9485 74.164C82.9485 75.364 83.9445 76.144 85.2645 76.144C85.9845 76.144 86.7645 75.832 87.2205 75.256V76H88.6485V72.268C88.6485 70.696 87.6285 69.652 85.9845 69.652ZM85.5885 75.076C84.8925 75.076 84.3765 74.704 84.3765 74.116C84.3765 73.528 84.9645 73.12 85.6965 73.12C86.2485 73.12 86.7645 73.204 87.2205 73.36V74.056C87.0525 74.716 86.2965 75.076 85.5885 75.076ZM92.7337 70.996V69.796H91.2697V76H92.7337V72.868C92.7337 71.692 93.6217 70.9 94.9537 70.9V69.652C93.9337 69.652 93.1297 70.168 92.7337 70.996ZM100.422 69.652C99.6064 69.652 98.8864 70.048 98.5024 70.624V69.796H97.0384V76H98.5024V72.076C98.5984 71.416 99.2344 70.9 100.002 70.9C100.77 70.9 101.31 71.5 101.31 72.34V76H102.726V72.052C102.726 70.648 101.778 69.652 100.422 69.652Z" fill="white"/>
<rect x="16" y="16" width="600" height="24" rx="3" fill="#0079B8" fill-opacity="0.3"/>
<path d="M288.973 32H290.473V29.228H292.561C294.325 29.228 295.645 28.1 295.645 26.492C295.645 24.884 294.325 23.756 292.561 23.756H288.973V32ZM290.473 27.848V25.136H292.393C293.413 25.136 294.121 25.652 294.121 26.492C294.121 27.332 293.413 27.848 292.393 27.848H290.473ZM299.277 26.996V25.796H297.813V32H299.277V28.868C299.277 27.692 300.165 26.9 301.497 26.9V25.652C300.477 25.652 299.673 26.168 299.277 26.996ZM306.473 30.848C305.585 30.848 304.937 30.248 304.757 29.396H309.437C309.437 27.104 308.321 25.652 306.401 25.652C304.637 25.652 303.245 27.02 303.245 28.88C303.245 30.788 304.709 32.144 306.485 32.144C307.385 32.144 308.465 31.76 309.005 31.184L308.081 30.224C307.733 30.584 307.049 30.848 306.473 30.848ZM306.461 26.948C307.337 26.948 307.865 27.5 308.033 28.28H304.769C304.985 27.464 305.645 26.948 306.461 26.948ZM311.49 29.348H314.718V28.064H311.49V29.348ZM320.209 30.668C320.077 30.8 319.849 30.896 319.597 30.896C319.249 30.896 318.985 30.596 318.985 30.176V27.008H320.389V25.796H318.985V24.092H317.557V25.796H316.657V27.008H317.557V30.356C317.557 31.4 318.277 32.144 319.309 32.144C319.777 32.144 320.281 31.952 320.629 31.652L320.209 30.668ZM324.265 26.996V25.796H322.801V32H324.265V28.868C324.265 27.692 325.153 26.9 326.485 26.9V25.652C325.465 25.652 324.661 26.168 324.265 26.996ZM329.314 24.86C329.77 24.86 330.142 24.464 330.142 24.02C330.142 23.576 329.77 23.192 329.314 23.192C328.846 23.192 328.474 23.576 328.474 24.02C328.474 24.464 328.846 24.86 329.314 24.86ZM328.57 32H330.034V25.796H328.57V32ZM335.352 25.652C334.572 25.652 333.756 25.868 332.88 26.3L333.384 27.32C333.912 27.056 334.476 26.852 335.064 26.852C336.192 26.852 336.588 27.548 336.588 28.268V28.436C336.024 28.22 335.412 28.1 334.848 28.1C333.456 28.1 332.316 28.94 332.316 30.164C332.316 31.364 333.312 32.144 334.632 32.144C335.352 32.144 336.132 31.832 336.588 31.256V32H338.016V28.268C338.016 26.696 336.996 25.652 335.352 25.652ZM334.956 31.076C334.26 31.076 333.744 30.704 333.744 30.116C333.744 29.528 334.332 29.12 335.064 29.12C335.616 29.12 336.132 29.204 336.588 29.36V30.056C336.42 30.716 335.664 31.076 334.956 31.076ZM340.601 32H342.065V23.612H340.601V32Z" fill="#1E4489"/>
<rect x="634" y="16" width="144" height="24" rx="3" fill="#0079B8" fill-opacity="0.3"/>
<path d="M668.329 32H671.233C673.957 32 675.877 30.284 675.877 27.872C675.877 25.46 673.957 23.756 671.233 23.756H668.329V32ZM669.829 30.644V25.112H671.389C673.129 25.112 674.353 26.252 674.353 27.872C674.353 29.492 673.129 30.644 671.389 30.644H669.829ZM682.502 25.796V29.72C682.406 30.38 681.77 30.896 681.002 30.896C680.234 30.896 679.694 30.296 679.694 29.456V25.796H678.278V29.744C678.278 31.148 679.226 32.144 680.582 32.144C681.398 32.144 682.118 31.748 682.502 31.172V32H683.966V25.796H682.502ZM688.079 26.996V25.796H686.615V32H688.079V28.868C688.079 27.692 688.967 26.9 690.299 26.9V25.652C689.279 25.652 688.475 26.168 688.079 26.996ZM693.128 24.86C693.584 24.86 693.956 24.464 693.956 24.02C693.956 23.576 693.584 23.192 693.128 23.192C692.66 23.192 692.288 23.576 692.288 24.02C692.288 24.464 692.66 24.86 693.128 24.86ZM692.384 32H693.848V25.796H692.384V32ZM699.85 25.652C699.034 25.652 698.314 26.048 697.93 26.624V25.796H696.466V32H697.93V28.076C698.026 27.416 698.662 26.9 699.43 26.9C700.198 26.9 700.738 27.5 700.738 28.34V32H702.154V28.052C702.154 26.648 701.206 25.652 699.85 25.652ZM709.363 25.796V26.72C708.919 26.06 708.115 25.652 707.239 25.652C705.631 25.652 704.443 26.864 704.443 28.592C704.443 30.32 705.631 31.544 707.239 31.544C708.127 31.544 708.871 31.148 709.363 30.488V31.292C709.363 32.228 708.595 32.816 707.371 32.816C706.639 32.816 705.895 32.564 705.463 32.168L704.923 33.236C705.535 33.716 706.519 34.064 707.587 34.064C709.483 34.064 710.827 32.936 710.827 31.34V25.796H709.363ZM707.659 30.296C706.675 30.296 705.967 29.588 705.967 28.592C705.967 27.608 706.675 26.9 707.659 26.9C708.655 26.9 709.363 27.608 709.363 28.592C709.363 29.588 708.655 30.296 707.659 30.296ZM720.961 30.668C720.829 30.8 720.601 30.896 720.349 30.896C720.001 30.896 719.737 30.596 719.737 30.176V27.008H721.141V25.796H719.737V24.092H718.309V25.796H717.409V27.008H718.309V30.356C718.309 31.4 719.029 32.144 720.061 32.144C720.529 32.144 721.033 31.952 721.381 31.652L720.961 30.668ZM725.017 26.996V25.796H723.553V32H725.017V28.868C725.017 27.692 725.905 26.9 727.237 26.9V25.652C726.217 25.652 725.413 26.168 725.017 26.996ZM730.066 24.86C730.522 24.86 730.894 24.464 730.894 24.02C730.894 23.576 730.522 23.192 730.066 23.192C729.598 23.192 729.226 23.576 729.226 24.02C729.226 24.464 729.598 24.86 730.066 24.86ZM729.322 32H730.786V25.796H729.322V32ZM736.104 25.652C735.324 25.652 734.508 25.868 733.632 26.3L734.136 27.32C734.664 27.056 735.228 26.852 735.816 26.852C736.944 26.852 737.34 27.548 737.34 28.268V28.436C736.776 28.22 736.164 28.1 735.6 28.1C734.208 28.1 733.068 28.94 733.068 30.164C733.068 31.364 734.064 32.144 735.384 32.144C736.104 32.144 736.884 31.832 737.34 31.256V32H738.768V28.268C738.768 26.696 737.748 25.652 736.104 25.652ZM735.708 31.076C735.012 31.076 734.496 30.704 734.496 30.116C734.496 29.528 735.084 29.12 735.816 29.12C736.368 29.12 736.884 29.204 737.34 29.36V30.056C737.172 30.716 736.416 31.076 735.708 31.076ZM741.353 32H742.817V23.612H741.353V32Z" fill="#1E4489"/>
<rect x="822" y="16" width="409" height="24" rx="3" fill="#0079B8" fill-opacity="0.3"/>
<path d="M995.815 32H997.315V29.228H999.403C1001.17 29.228 1002.49 28.1 1002.49 26.492C1002.49 24.884 1001.17 23.756 999.403 23.756H995.815V32ZM997.315 27.848V25.136H999.235C1000.25 25.136 1000.96 25.652 1000.96 26.492C1000.96 27.332 1000.25 27.848 999.235 27.848H997.315ZM1007.62 32.144C1009.42 32.144 1010.94 30.656 1010.94 28.892C1010.94 27.128 1009.42 25.652 1007.62 25.652C1005.82 25.652 1004.29 27.128 1004.29 28.892C1004.29 30.656 1005.82 32.144 1007.62 32.144ZM1007.62 30.896C1006.59 30.896 1005.72 29.984 1005.72 28.892C1005.72 27.812 1006.59 26.9 1007.62 26.9C1008.64 26.9 1009.5 27.812 1009.5 28.892C1009.5 29.984 1008.64 30.896 1007.62 30.896ZM1015.5 32.144C1016.96 32.144 1017.94 31.376 1017.94 30.188C1017.94 28.892 1016.81 28.532 1015.77 28.244C1014.82 27.968 1014.5 27.848 1014.5 27.452C1014.5 27.104 1014.89 26.9 1015.41 26.9C1015.95 26.9 1016.58 27.092 1017.17 27.464L1017.78 26.396C1017.11 25.952 1016.26 25.652 1015.41 25.652C1014.03 25.652 1013.07 26.444 1013.07 27.608C1013.08 28.712 1013.93 29.096 1015.28 29.444C1015.98 29.636 1016.52 29.792 1016.52 30.272C1016.52 30.656 1016.12 30.908 1015.53 30.908C1014.75 30.908 1014.05 30.62 1013.45 30.188L1012.79 31.208C1013.54 31.808 1014.56 32.144 1015.5 32.144ZM1023.31 30.668C1023.18 30.8 1022.95 30.896 1022.7 30.896C1022.35 30.896 1022.08 30.596 1022.08 30.176V27.008H1023.49V25.796H1022.08V24.092H1020.66V25.796H1019.76V27.008H1020.66V30.356C1020.66 31.4 1021.38 32.144 1022.41 32.144C1022.88 32.144 1023.38 31.952 1023.73 31.652L1023.31 30.668ZM1025.65 29.348H1028.88V28.064H1025.65V29.348ZM1034.37 30.668C1034.23 30.8 1034.01 30.896 1033.75 30.896C1033.41 30.896 1033.14 30.596 1033.14 30.176V27.008H1034.55V25.796H1033.14V24.092H1031.71V25.796H1030.81V27.008H1031.71V30.356C1031.71 31.4 1032.43 32.144 1033.47 32.144C1033.93 32.144 1034.44 31.952 1034.79 31.652L1034.37 30.668ZM1038.42 26.996V25.796H1036.96V32H1038.42V28.868C1038.42 27.692 1039.31 26.9 1040.64 26.9V25.652C1039.62 25.652 1038.82 26.168 1038.42 26.996ZM1043.47 24.86C1043.93 24.86 1044.3 24.464 1044.3 24.02C1044.3 23.576 1043.93 23.192 1043.47 23.192C1043 23.192 1042.63 23.576 1042.63 24.02C1042.63 24.464 1043 24.86 1043.47 24.86ZM1042.73 32H1044.19V25.796H1042.73V32ZM1049.51 25.652C1048.73 25.652 1047.91 25.868 1047.04 26.3L1047.54 27.32C1048.07 27.056 1048.63 26.852 1049.22 26.852C1050.35 26.852 1050.75 27.548 1050.75 28.268V28.436C1050.18 28.22 1049.57 28.1 1049.01 28.1C1047.61 28.1 1046.47 28.94 1046.47 30.164C1046.47 31.364 1047.47 32.144 1048.79 32.144C1049.51 32.144 1050.29 31.832 1050.75 31.256V32H1052.17V28.268C1052.17 26.696 1051.15 25.652 1049.51 25.652ZM1049.11 31.076C1048.42 31.076 1047.9 30.704 1047.9 30.116C1047.9 29.528 1048.49 29.12 1049.22 29.12C1049.77 29.12 1050.29 29.204 1050.75 29.36V30.056C1050.58 30.716 1049.82 31.076 1049.11 31.076ZM1054.76 32H1056.22V23.612H1054.76V32Z" fill="#1E4489"/>
<rect x="164" y="54" width="452" height="36" rx="3" fill="#0079B8"/>
<path d="M364.108 76H365.608V73.228H367.696C369.46 73.228 370.78 72.1 370.78 70.492C370.78 68.884 369.46 67.756 367.696 67.756H364.108V76ZM365.608 71.848V69.136H367.528C368.548 69.136 369.256 69.652 369.256 70.492C369.256 71.332 368.548 71.848 367.528 71.848H365.608ZM374.411 70.996V69.796H372.947V76H374.411V72.868C374.411 71.692 375.299 70.9 376.631 70.9V69.652C375.611 69.652 374.807 70.168 374.411 70.996ZM381.608 74.848C380.72 74.848 380.072 74.248 379.892 73.396H384.572C384.572 71.104 383.456 69.652 381.536 69.652C379.772 69.652 378.38 71.02 378.38 72.88C378.38 74.788 379.844 76.144 381.62 76.144C382.52 76.144 383.6 75.76 384.14 75.184L383.216 74.224C382.868 74.584 382.184 74.848 381.608 74.848ZM381.596 70.948C382.472 70.948 383 71.5 383.168 72.28H379.904C380.12 71.464 380.78 70.948 381.596 70.948ZM390.501 69.652C389.577 69.652 388.833 70.072 388.341 70.78V69.796H386.877V78.064H388.341V75.016C388.833 75.724 389.577 76.144 390.501 76.144C392.145 76.144 393.345 74.8 393.345 72.892C393.345 70.996 392.145 69.652 390.501 69.652ZM390.105 74.896C389.073 74.896 388.353 74.056 388.353 72.892C388.353 71.728 389.073 70.9 390.105 70.9C391.149 70.9 391.893 71.728 391.893 72.892C391.893 74.056 391.149 74.896 390.105 74.896ZM398.369 69.652C397.589 69.652 396.773 69.868 395.897 70.3L396.401 71.32C396.929 71.056 397.493 70.852 398.081 70.852C399.209 70.852 399.605 71.548 399.605 72.268V72.436C399.041 72.22 398.429 72.1 397.865 72.1C396.473 72.1 395.333 72.94 395.333 74.164C395.333 75.364 396.329 76.144 397.649 76.144C398.369 76.144 399.149 75.832 399.605 75.256V76H401.033V72.268C401.033 70.696 400.013 69.652 398.369 69.652ZM397.973 75.076C397.277 75.076 396.761 74.704 396.761 74.116C396.761 73.528 397.349 73.12 398.081 73.12C398.633 73.12 399.149 73.204 399.605 73.36V74.056C399.437 74.716 398.681 75.076 397.973 75.076ZM405.118 70.996V69.796H403.654V76H405.118V72.868C405.118 71.692 406.006 70.9 407.338 70.9V69.652C406.318 69.652 405.514 70.168 405.118 70.996ZM412.315 74.848C411.427 74.848 410.779 74.248 410.599 73.396H415.279C415.279 71.104 414.163 69.652 412.243 69.652C410.479 69.652 409.087 71.02 409.087 72.88C409.087 74.788 410.551 76.144 412.327 76.144C413.227 76.144 414.307 75.76 414.847 75.184L413.923 74.224C413.575 74.584 412.891 74.848 412.315 74.848ZM412.303 70.948C413.179 70.948 413.707 71.5 413.875 72.28H410.611C410.827 71.464 411.487 70.948 412.303 70.948Z" fill="white"/>
<rect x="634" y="54" width="144" height="36" rx="3" fill="#0079B8"/>
<path d="M697.763 76H699.251V69.124H701.891V67.756H695.123V69.124H697.763V76ZM705.624 70.996V69.796H704.16V76H705.624V72.868C705.624 71.692 706.512 70.9 707.844 70.9V69.652C706.824 69.652 706.02 70.168 705.624 70.996ZM711.189 78.16C712.125 78.148 712.845 77.608 713.313 76.432L715.941 69.796H714.429L712.725 74.428L710.913 69.796H709.365L711.993 76.048L711.729 76.6C711.549 76.9 711.285 77.008 710.937 77.008C710.709 77.008 710.409 76.924 710.145 76.78L709.833 77.836C710.205 78.04 710.721 78.16 711.189 78.16Z" fill="white"/>
<rect x="822" y="54" width="199" height="36" rx="3" fill="#0079B8"/>
<path d="M909.564 76H913.764C915.3 76 916.392 75.076 916.392 73.756C916.392 72.856 915.828 72.1 914.88 71.644C915.612 71.248 916.044 70.66 916.044 69.82C916.044 68.62 915.036 67.756 913.608 67.756H909.564V76ZM911.052 71.128V69.052H913.248C913.98 69.052 914.508 69.484 914.508 70.096C914.508 70.696 913.98 71.128 913.248 71.128H911.052ZM911.052 74.704V72.352H913.464C914.28 72.352 914.856 72.844 914.856 73.528C914.856 74.212 914.28 74.704 913.464 74.704H911.052ZM922.94 69.796V73.72C922.844 74.38 922.208 74.896 921.44 74.896C920.672 74.896 920.132 74.296 920.132 73.456V69.796H918.716V73.744C918.716 75.148 919.664 76.144 921.02 76.144C921.836 76.144 922.556 75.748 922.94 75.172V76H924.404V69.796H922.94ZM928.277 78.16C929.213 78.148 929.933 77.608 930.401 76.432L933.029 69.796H931.517L929.813 74.428L928.001 69.796H926.453L929.081 76.048L928.817 76.6C928.637 76.9 928.373 77.008 928.025 77.008C927.797 77.008 927.497 76.924 927.233 76.78L926.921 77.836C927.293 78.04 927.809 78.16 928.277 78.16Z" fill="white"/>
<rect x="1048" y="54" width="184" height="36" rx="3" fill="#0079B8"/>
<path d="M1127.18 72.688H1129.23V74.188C1128.72 74.56 1128.05 74.776 1127.42 74.776C1125.89 74.776 1124.59 73.456 1124.59 71.872C1124.59 70.3 1125.89 68.98 1127.42 68.98C1128.23 68.98 1129.11 69.34 1129.63 69.94L1130.7 68.944C1129.91 68.116 1128.62 67.612 1127.42 67.612C1125.06 67.612 1123.07 69.556 1123.07 71.872C1123.07 74.188 1125.06 76.144 1127.42 76.144C1128.62 76.144 1129.91 75.628 1130.7 74.8V71.464H1127.18V72.688ZM1134.75 70.996V69.796H1133.28V76H1134.75V72.868C1134.75 71.692 1135.64 70.9 1136.97 70.9V69.652C1135.95 69.652 1135.14 70.168 1134.75 70.996ZM1141.9 76.144C1143.7 76.144 1145.22 74.656 1145.22 72.892C1145.22 71.128 1143.7 69.652 1141.9 69.652C1140.1 69.652 1138.58 71.128 1138.58 72.892C1138.58 74.656 1140.1 76.144 1141.9 76.144ZM1141.9 74.896C1140.87 74.896 1140 73.984 1140 72.892C1140 71.812 1140.87 70.9 1141.9 70.9C1142.92 70.9 1143.78 71.812 1143.78 72.892C1143.78 73.984 1142.92 74.896 1141.9 74.896ZM1148.8 76H1150.13L1151.45 71.752L1152.78 76H1154.11L1156.2 69.796H1154.74L1153.45 74.032L1152.06 69.796H1150.84L1149.46 74.032L1148.16 69.796H1146.7L1148.8 76Z" fill="white"/>
</svg>
