<svg width="1248" height="328" viewBox="0 0 1248 328" fill="none" xmlns="http://www.w3.org/2000/svg">
<path d="M34.0928 220.756L31.4768 227.008L28.8608 220.756H27.2048L30.6488 229H32.3168L35.7608 220.756H34.0928ZM37.96 229H39.46V223.492L42.172 228.52L44.896 223.492V229H46.384V220.756H44.896L42.172 225.784L39.46 220.756H37.96V229ZM50.7474 229H52.0794L53.3994 224.752L54.7314 229H56.0634L58.1514 222.796H56.6874L55.4034 227.032L54.0114 222.796H52.7874L51.4074 227.032L50.1114 222.796H48.6474L50.7474 229ZM62.9298 222.652C62.1498 222.652 61.3338 222.868 60.4578 223.3L60.9618 224.32C61.4898 224.056 62.0538 223.852 62.6418 223.852C63.7698 223.852 64.1658 224.548 64.1658 225.268V225.436C63.6018 225.22 62.9898 225.1 62.4258 225.1C61.0338 225.1 59.8938 225.94 59.8938 227.164C59.8938 228.364 60.8898 229.144 62.2098 229.144C62.9298 229.144 63.7098 228.832 64.1658 228.256V229H65.5938V225.268C65.5938 223.696 64.5738 222.652 62.9298 222.652ZM62.5338 228.076C61.8378 228.076 61.3218 227.704 61.3218 227.116C61.3218 226.528 61.9098 226.12 62.6418 226.12C63.1938 226.12 63.7098 226.204 64.1658 226.36V227.056C63.9978 227.716 63.2418 228.076 62.5338 228.076ZM69.679 223.996V222.796H68.215V229H69.679V225.868C69.679 224.692 70.567 223.9 71.899 223.9V222.652C70.879 222.652 70.075 223.168 69.679 223.996ZM76.8757 227.848C75.9877 227.848 75.3397 227.248 75.1597 226.396H79.8397C79.8397 224.104 78.7237 222.652 76.8037 222.652C75.0397 222.652 73.6477 224.02 73.6477 225.88C73.6477 227.788 75.1117 229.144 76.8877 229.144C77.7877 229.144 78.8677 228.76 79.4077 228.184L78.4837 227.224C78.1357 227.584 77.4517 227.848 76.8757 227.848ZM76.8637 223.948C77.7397 223.948 78.2677 224.5 78.4357 225.28H75.1717C75.3877 224.464 76.0477 223.948 76.8637 223.948ZM89.4951 229.144C90.4791 229.144 91.3071 228.736 91.9071 228.1L90.9231 227.248C90.5751 227.644 90.0471 227.896 89.5071 227.896C88.4871 227.896 87.6351 226.984 87.6351 225.892C87.6351 224.812 88.4871 223.9 89.5071 223.9C90.0351 223.9 90.5511 224.152 90.8871 224.524L91.8711 223.66C91.2831 223.048 90.4551 222.652 89.5191 222.652C87.7071 222.652 86.1831 224.128 86.1831 225.892C86.1831 227.656 87.7071 229.144 89.4951 229.144ZM94.0579 229H95.5219V220.612H94.0579V229ZM101.14 229.144C102.94 229.144 104.464 227.656 104.464 225.892C104.464 224.128 102.94 222.652 101.14 222.652C99.3399 222.652 97.8159 224.128 97.8159 225.892C97.8159 227.656 99.3399 229.144 101.14 229.144ZM101.14 227.896C100.108 227.896 99.2439 226.984 99.2439 225.892C99.2439 224.812 100.108 223.9 101.14 223.9C102.16 223.9 103.024 224.812 103.024 225.892C103.024 226.984 102.16 227.896 101.14 227.896ZM110.934 222.796V226.72C110.838 227.38 110.202 227.896 109.434 227.896C108.666 227.896 108.126 227.296 108.126 226.456V222.796H106.71V226.744C106.71 228.148 107.658 229.144 109.014 229.144C109.83 229.144 110.55 228.748 110.934 228.172V229H112.398V222.796H110.934ZM119.727 220.612V223.756C119.235 223.06 118.491 222.652 117.579 222.652C115.935 222.652 114.735 223.996 114.735 225.892C114.735 227.8 115.935 229.144 117.579 229.144C118.491 229.144 119.235 228.736 119.727 228.04V229H121.191V220.612H119.727ZM117.975 227.896C116.931 227.896 116.187 227.056 116.187 225.892C116.187 224.728 116.931 223.9 117.975 223.9C119.007 223.9 119.727 224.728 119.727 225.892C119.727 227.056 119.007 227.896 117.975 227.896Z" fill="#434343"/>
<rect x="16.5" y="207.5" width="117" height="35" rx="2.5" stroke="#434343"/>
<path d="M23.0928 179H24.5928V173.492L27.3048 178.52L30.0288 173.492V179H31.5168V170.756H30.0288L27.3048 175.784L24.5928 170.756H23.0928V179ZM36.9962 172.652C36.2162 172.652 35.4002 172.868 34.5242 173.3L35.0282 174.32C35.5562 174.056 36.1202 173.852 36.7082 173.852C37.8362 173.852 38.2322 174.548 38.2322 175.268V175.436C37.6682 175.22 37.0562 175.1 36.4922 175.1C35.1002 175.1 33.9602 175.94 33.9602 177.164C33.9602 178.364 34.9562 179.144 36.2762 179.144C36.9962 179.144 37.7762 178.832 38.2322 178.256V179H39.6602V175.268C39.6602 173.696 38.6402 172.652 36.9962 172.652ZM36.6002 178.076C35.9042 178.076 35.3882 177.704 35.3882 177.116C35.3882 176.528 35.9762 176.12 36.7082 176.12C37.2602 176.12 37.7762 176.204 38.2322 176.36V177.056C38.0642 177.716 37.3082 178.076 36.6002 178.076ZM43.7454 173.996V172.796H42.2814V179H43.7454V175.868C43.7454 174.692 44.6334 173.9 45.9654 173.9V172.652C44.9454 172.652 44.1414 173.168 43.7454 173.996ZM53.9061 172.796H52.1781L49.4901 175.736V170.612H48.0261V179H49.4901V177.452L50.3661 176.528L52.1181 179H53.8221L51.3501 175.568L53.9061 172.796ZM58.6804 177.848C57.7924 177.848 57.1444 177.248 56.9644 176.396H61.6444C61.6444 174.104 60.5284 172.652 58.6084 172.652C56.8444 172.652 55.4524 174.02 55.4524 175.88C55.4524 177.788 56.9164 179.144 58.6924 179.144C59.5924 179.144 60.6724 178.76 61.2124 178.184L60.2884 177.224C59.9404 177.584 59.2564 177.848 58.6804 177.848ZM58.6684 173.948C59.5444 173.948 60.0724 174.5 60.2404 175.28H56.9764C57.1924 174.464 57.8524 173.948 58.6684 173.948ZM67.0094 177.668C66.8774 177.8 66.6494 177.896 66.3974 177.896C66.0494 177.896 65.7854 177.596 65.7854 177.176V174.008H67.1894V172.796H65.7854V171.092H64.3574V172.796H63.4574V174.008H64.3574V177.356C64.3574 178.4 65.0774 179.144 66.1094 179.144C66.5774 179.144 67.0814 178.952 67.4294 178.652L67.0094 177.668ZM70.3097 171.86C70.7657 171.86 71.1377 171.464 71.1377 171.02C71.1377 170.576 70.7657 170.192 70.3097 170.192C69.8417 170.192 69.4697 170.576 69.4697 171.02C69.4697 171.464 69.8417 171.86 70.3097 171.86ZM69.5657 179H71.0297V172.796H69.5657V179ZM77.0318 172.652C76.2158 172.652 75.4958 173.048 75.1118 173.624V172.796H73.6478V179H75.1118V175.076C75.2078 174.416 75.8438 173.9 76.6118 173.9C77.3798 173.9 77.9198 174.5 77.9198 175.34V179H79.3358V175.052C79.3358 173.648 78.3878 172.652 77.0318 172.652ZM86.5451 172.796V173.72C86.1011 173.06 85.2971 172.652 84.4211 172.652C82.8131 172.652 81.6251 173.864 81.6251 175.592C81.6251 177.32 82.8131 178.544 84.4211 178.544C85.3091 178.544 86.0531 178.148 86.5451 177.488V178.292C86.5451 179.228 85.7771 179.816 84.5531 179.816C83.8211 179.816 83.0771 179.564 82.6451 179.168L82.1051 180.236C82.7171 180.716 83.7011 181.064 84.7691 181.064C86.6651 181.064 88.0091 179.936 88.0091 178.34V172.796H86.5451ZM84.8411 177.296C83.8571 177.296 83.1491 176.588 83.1491 175.592C83.1491 174.608 83.8571 173.9 84.8411 173.9C85.8371 173.9 86.5451 174.608 86.5451 175.592C86.5451 176.588 85.8371 177.296 84.8411 177.296ZM98.7062 172.652C97.7822 172.652 97.0382 173.072 96.5462 173.78V172.796H95.0822V181.064H96.5462V178.016C97.0382 178.724 97.7822 179.144 98.7062 179.144C100.35 179.144 101.55 177.8 101.55 175.892C101.55 173.996 100.35 172.652 98.7062 172.652ZM98.3102 177.896C97.2782 177.896 96.5582 177.056 96.5582 175.892C96.5582 174.728 97.2782 173.9 98.3102 173.9C99.3542 173.9 100.098 174.728 100.098 175.892C100.098 177.056 99.3542 177.896 98.3102 177.896ZM106.574 172.652C105.794 172.652 104.978 172.868 104.102 173.3L104.606 174.32C105.134 174.056 105.698 173.852 106.286 173.852C107.414 173.852 107.81 174.548 107.81 175.268V175.436C107.246 175.22 106.634 175.1 106.07 175.1C104.678 175.1 103.538 175.94 103.538 177.164C103.538 178.364 104.534 179.144 105.854 179.144C106.574 179.144 107.354 178.832 107.81 178.256V179H109.238V175.268C109.238 173.696 108.218 172.652 106.574 172.652ZM106.178 178.076C105.482 178.076 104.966 177.704 104.966 177.116C104.966 176.528 105.554 176.12 106.286 176.12C106.838 176.12 107.354 176.204 107.81 176.36V177.056C107.642 177.716 106.886 178.076 106.178 178.076ZM116.444 172.796V173.72C116 173.06 115.196 172.652 114.32 172.652C112.712 172.652 111.524 173.864 111.524 175.592C111.524 177.32 112.712 178.544 114.32 178.544C115.208 178.544 115.952 178.148 116.444 177.488V178.292C116.444 179.228 115.676 179.816 114.452 179.816C113.72 179.816 112.976 179.564 112.544 179.168L112.004 180.236C112.616 180.716 113.6 181.064 114.668 181.064C116.564 181.064 117.908 179.936 117.908 178.34V172.796H116.444ZM114.74 177.296C113.756 177.296 113.048 176.588 113.048 175.592C113.048 174.608 113.756 173.9 114.74 173.9C115.736 173.9 116.444 174.608 116.444 175.592C116.444 176.588 115.736 177.296 114.74 177.296ZM123.438 177.848C122.55 177.848 121.902 177.248 121.722 176.396H126.402C126.402 174.104 125.286 172.652 123.366 172.652C121.602 172.652 120.21 174.02 120.21 175.88C120.21 177.788 121.674 179.144 123.45 179.144C124.35 179.144 125.43 178.76 125.97 178.184L125.046 177.224C124.698 177.584 124.014 177.848 123.438 177.848ZM123.426 173.948C124.302 173.948 124.83 174.5 124.998 175.28H121.734C121.95 174.464 122.61 173.948 123.426 173.948Z" fill="#434343"/>
<rect x="16.5" y="157.5" width="117" height="35" rx="2.5" stroke="#434343"/>
<path d="M707.255 237H708.755V231.204L713.111 237H714.599V228.756H713.111V234.552L708.755 228.756H707.255V237ZM720.368 237.144C722.168 237.144 723.692 235.656 723.692 233.892C723.692 232.128 722.168 230.652 720.368 230.652C718.568 230.652 717.044 232.128 717.044 233.892C717.044 235.656 718.568 237.144 720.368 237.144ZM720.368 235.896C719.336 235.896 718.472 234.984 718.472 233.892C718.472 232.812 719.336 231.9 720.368 231.9C721.388 231.9 722.252 232.812 722.252 233.892C722.252 234.984 721.388 235.896 720.368 235.896ZM729.058 235.668C728.926 235.8 728.698 235.896 728.446 235.896C728.098 235.896 727.834 235.596 727.834 235.176V232.008H729.238V230.796H727.834V229.092H726.406V230.796H725.506V232.008H726.406V235.356C726.406 236.4 727.126 237.144 728.158 237.144C728.626 237.144 729.13 236.952 729.478 236.652L729.058 235.668ZM738.305 237.144C739.757 237.144 740.741 236.376 740.741 235.188C740.741 233.892 739.613 233.532 738.569 233.244C737.621 232.968 737.297 232.848 737.297 232.452C737.297 232.104 737.693 231.9 738.209 231.9C738.749 231.9 739.385 232.092 739.973 232.464L740.585 231.396C739.913 230.952 739.061 230.652 738.209 230.652C736.829 230.652 735.869 231.444 735.869 232.608C735.881 233.712 736.733 234.096 738.077 234.444C738.785 234.636 739.325 234.792 739.325 235.272C739.325 235.656 738.917 235.908 738.329 235.908C737.549 235.908 736.853 235.62 736.253 235.188L735.593 236.208C736.337 236.808 737.357 237.144 738.305 237.144ZM747.213 230.796V234.72C747.117 235.38 746.481 235.896 745.713 235.896C744.945 235.896 744.405 235.296 744.405 234.456V230.796H742.989V234.744C742.989 236.148 743.937 237.144 745.293 237.144C746.109 237.144 746.829 236.748 747.213 236.172V237H748.677V230.796H747.213ZM754.95 230.652C754.026 230.652 753.282 231.072 752.79 231.78V228.612H751.326V237H752.79V236.016C753.282 236.724 754.026 237.144 754.95 237.144C756.594 237.144 757.794 235.8 757.794 233.892C757.794 231.996 756.594 230.652 754.95 230.652ZM754.554 235.896C753.522 235.896 752.802 235.056 752.802 233.892C752.802 232.728 753.522 231.9 754.554 231.9C755.598 231.9 756.342 232.728 756.342 233.892C756.342 235.056 755.598 235.896 754.554 235.896ZM762.41 237.144C763.862 237.144 764.846 236.376 764.846 235.188C764.846 233.892 763.718 233.532 762.674 233.244C761.726 232.968 761.402 232.848 761.402 232.452C761.402 232.104 761.798 231.9 762.314 231.9C762.854 231.9 763.49 232.092 764.078 232.464L764.69 231.396C764.018 230.952 763.166 230.652 762.314 230.652C760.934 230.652 759.974 231.444 759.974 232.608C759.986 233.712 760.838 234.096 762.182 234.444C762.89 234.636 763.43 234.792 763.43 235.272C763.43 235.656 763.022 235.908 762.434 235.908C761.654 235.908 760.958 235.62 760.358 235.188L759.698 236.208C760.442 236.808 761.462 237.144 762.41 237.144ZM770.106 237.144C771.09 237.144 771.918 236.736 772.518 236.1L771.534 235.248C771.186 235.644 770.658 235.896 770.118 235.896C769.098 235.896 768.246 234.984 768.246 233.892C768.246 232.812 769.098 231.9 770.118 231.9C770.646 231.9 771.162 232.152 771.498 232.524L772.482 231.66C771.894 231.048 771.066 230.652 770.13 230.652C768.318 230.652 766.794 232.128 766.794 233.892C766.794 235.656 768.318 237.144 770.106 237.144ZM776.169 231.996V230.796H774.705V237H776.169V233.868C776.169 232.692 777.057 231.9 778.389 231.9V230.652C777.369 230.652 776.565 231.168 776.169 231.996ZM781.218 229.86C781.674 229.86 782.046 229.464 782.046 229.02C782.046 228.576 781.674 228.192 781.218 228.192C780.75 228.192 780.378 228.576 780.378 229.02C780.378 229.464 780.75 229.86 781.218 229.86ZM780.474 237H781.938V230.796H780.474V237ZM788.216 230.652C787.292 230.652 786.548 231.072 786.056 231.78V228.612H784.592V237H786.056V236.016C786.548 236.724 787.292 237.144 788.216 237.144C789.86 237.144 791.06 235.8 791.06 233.892C791.06 231.996 789.86 230.652 788.216 230.652ZM787.82 235.896C786.788 235.896 786.068 235.056 786.068 233.892C786.068 232.728 786.788 231.9 787.82 231.9C788.864 231.9 789.608 232.728 789.608 233.892C789.608 235.056 788.864 235.896 787.82 235.896ZM796.276 235.848C795.388 235.848 794.74 235.248 794.56 234.396H799.24C799.24 232.104 798.124 230.652 796.204 230.652C794.44 230.652 793.048 232.02 793.048 233.88C793.048 235.788 794.512 237.144 796.288 237.144C797.188 237.144 798.268 236.76 798.808 236.184L797.884 235.224C797.536 235.584 796.852 235.848 796.276 235.848ZM796.264 231.948C797.14 231.948 797.668 232.5 797.836 233.28H794.572C794.788 232.464 795.448 231.948 796.264 231.948Z" fill="#434343"/>
<rect x="654.5" y="215.5" width="198" height="35" rx="2.5" stroke="#434343"/>
<path d="M899.964 167H901.62L898.176 158.756H896.508L893.064 167H894.732L895.356 165.512H899.34L899.964 167ZM895.896 164.216L897.348 160.748L898.8 164.216H895.896ZM908.379 158.612V161.756C907.887 161.06 907.143 160.652 906.231 160.652C904.587 160.652 903.387 161.996 903.387 163.892C903.387 165.8 904.587 167.144 906.231 167.144C907.143 167.144 907.887 166.736 908.379 166.04V167H909.843V158.612H908.379ZM906.627 165.896C905.583 165.896 904.839 165.056 904.839 163.892C904.839 162.728 905.583 161.9 906.627 161.9C907.659 161.9 908.379 162.728 908.379 163.892C908.379 165.056 907.659 165.896 906.627 165.896ZM917.208 158.612V161.756C916.716 161.06 915.972 160.652 915.06 160.652C913.416 160.652 912.216 161.996 912.216 163.892C912.216 165.8 913.416 167.144 915.06 167.144C915.972 167.144 916.716 166.736 917.208 166.04V167H918.672V158.612H917.208ZM915.456 165.896C914.412 165.896 913.668 165.056 913.668 163.892C913.668 162.728 914.412 161.9 915.456 161.9C916.488 161.9 917.208 162.728 917.208 163.892C917.208 165.056 916.488 165.896 915.456 165.896ZM932.882 160.652C931.958 160.652 931.178 161.108 930.878 161.828C930.494 161.096 929.774 160.652 928.898 160.652C928.118 160.652 927.482 161.036 927.17 161.636V160.796H925.706V167H927.17V163.196C927.17 162.44 927.734 161.9 928.526 161.9C929.246 161.9 929.738 162.476 929.738 163.292V167H931.166V163.196C931.166 162.44 931.718 161.9 932.522 161.9C933.23 161.9 933.722 162.476 933.722 163.292V167H935.15V163.052C935.15 161.648 934.178 160.652 932.882 160.652ZM940.734 167.144C942.534 167.144 944.058 165.656 944.058 163.892C944.058 162.128 942.534 160.652 940.734 160.652C938.934 160.652 937.41 162.128 937.41 163.892C937.41 165.656 938.934 167.144 940.734 167.144ZM940.734 165.896C939.702 165.896 938.838 164.984 938.838 163.892C938.838 162.812 939.702 161.9 940.734 161.9C941.754 161.9 942.618 162.812 942.618 163.892C942.618 164.984 941.754 165.896 940.734 165.896ZM947.827 161.996V160.796H946.363V167H947.827V163.868C947.827 162.692 948.715 161.9 950.047 161.9V160.652C949.027 160.652 948.223 161.168 947.827 161.996ZM955.024 165.848C954.136 165.848 953.488 165.248 953.308 164.396H957.988C957.988 162.104 956.872 160.652 954.952 160.652C953.188 160.652 951.796 162.02 951.796 163.88C951.796 165.788 953.26 167.144 955.036 167.144C955.936 167.144 957.016 166.76 957.556 166.184L956.632 165.224C956.284 165.584 955.6 165.848 955.024 165.848ZM955.012 161.948C955.888 161.948 956.416 162.5 956.584 163.28H953.32C953.536 162.464 954.196 161.948 955.012 161.948ZM969.372 158.612V161.756C968.88 161.06 968.136 160.652 967.224 160.652C965.58 160.652 964.38 161.996 964.38 163.892C964.38 165.8 965.58 167.144 967.224 167.144C968.136 167.144 968.88 166.736 969.372 166.04V167H970.836V158.612H969.372ZM967.62 165.896C966.576 165.896 965.832 165.056 965.832 163.892C965.832 162.728 966.576 161.9 967.62 161.9C968.652 161.9 969.372 162.728 969.372 163.892C969.372 165.056 968.652 165.896 967.62 165.896ZM976.184 160.652C975.404 160.652 974.588 160.868 973.712 161.3L974.216 162.32C974.744 162.056 975.308 161.852 975.896 161.852C977.024 161.852 977.42 162.548 977.42 163.268V163.436C976.856 163.22 976.244 163.1 975.68 163.1C974.288 163.1 973.148 163.94 973.148 165.164C973.148 166.364 974.144 167.144 975.464 167.144C976.184 167.144 976.964 166.832 977.42 166.256V167H978.848V163.268C978.848 161.696 977.828 160.652 976.184 160.652ZM975.788 166.076C975.092 166.076 974.576 165.704 974.576 165.116C974.576 164.528 975.164 164.12 975.896 164.12C976.448 164.12 976.964 164.204 977.42 164.36V165.056C977.252 165.716 976.496 166.076 975.788 166.076ZM984.529 165.668C984.397 165.8 984.169 165.896 983.917 165.896C983.569 165.896 983.305 165.596 983.305 165.176V162.008H984.709V160.796H983.305V159.092H981.877V160.796H980.977V162.008H981.877V165.356C981.877 166.4 982.597 167.144 983.629 167.144C984.097 167.144 984.601 166.952 984.949 166.652L984.529 165.668ZM989.785 160.652C989.005 160.652 988.189 160.868 987.313 161.3L987.817 162.32C988.345 162.056 988.909 161.852 989.497 161.852C990.625 161.852 991.021 162.548 991.021 163.268V163.436C990.457 163.22 989.845 163.1 989.281 163.1C987.889 163.1 986.749 163.94 986.749 165.164C986.749 166.364 987.745 167.144 989.065 167.144C989.785 167.144 990.565 166.832 991.021 166.256V167H992.449V163.268C992.449 161.696 991.429 160.652 989.785 160.652ZM989.389 166.076C988.693 166.076 988.177 165.704 988.177 165.116C988.177 164.528 988.765 164.12 989.497 164.12C990.049 164.12 990.565 164.204 991.021 164.36V165.056C990.853 165.716 990.097 166.076 989.389 166.076ZM1002.42 167.144C1003.4 167.144 1004.23 166.736 1004.83 166.1L1003.85 165.248C1003.5 165.644 1002.97 165.896 1002.43 165.896C1001.41 165.896 1000.56 164.984 1000.56 163.892C1000.56 162.812 1001.41 161.9 1002.43 161.9C1002.96 161.9 1003.48 162.152 1003.81 162.524L1004.8 161.66C1004.21 161.048 1003.38 160.652 1002.44 160.652C1000.63 160.652 999.109 162.128 999.109 163.892C999.109 165.656 1000.63 167.144 1002.42 167.144ZM1009.88 165.848C1008.99 165.848 1008.34 165.248 1008.16 164.396H1012.84C1012.84 162.104 1011.72 160.652 1009.8 160.652C1008.04 160.652 1006.65 162.02 1006.65 163.88C1006.65 165.788 1008.11 167.144 1009.89 167.144C1010.79 167.144 1011.87 166.76 1012.41 166.184L1011.48 165.224C1011.14 165.584 1010.45 165.848 1009.88 165.848ZM1009.86 161.948C1010.74 161.948 1011.27 162.5 1011.44 163.28H1008.17C1008.39 162.464 1009.05 161.948 1009.86 161.948ZM1018.49 160.652C1017.68 160.652 1016.96 161.048 1016.57 161.624V160.796H1015.11V167H1016.57V163.076C1016.67 162.416 1017.3 161.9 1018.07 161.9C1018.84 161.9 1019.38 162.5 1019.38 163.34V167H1020.8V163.052C1020.8 161.648 1019.85 160.652 1018.49 160.652ZM1026.48 165.668C1026.35 165.8 1026.12 165.896 1025.87 165.896C1025.52 165.896 1025.26 165.596 1025.26 165.176V162.008H1026.66V160.796H1025.26V159.092H1023.83V160.796H1022.93V162.008H1023.83V165.356C1023.83 166.4 1024.55 167.144 1025.58 167.144C1026.05 167.144 1026.55 166.952 1026.9 166.652L1026.48 165.668ZM1031.93 165.848C1031.04 165.848 1030.39 165.248 1030.21 164.396H1034.89C1034.89 162.104 1033.78 160.652 1031.86 160.652C1030.09 160.652 1028.7 162.02 1028.7 163.88C1028.7 165.788 1030.17 167.144 1031.94 167.144C1032.84 167.144 1033.92 166.76 1034.46 166.184L1033.54 165.224C1033.19 165.584 1032.51 165.848 1031.93 165.848ZM1031.92 161.948C1032.79 161.948 1033.32 162.5 1033.49 163.28H1030.23C1030.44 162.464 1031.1 161.948 1031.92 161.948ZM1038.66 161.996V160.796H1037.2V167H1038.66V163.868C1038.66 162.692 1039.55 161.9 1040.88 161.9V160.652C1039.86 160.652 1039.06 161.168 1038.66 161.996ZM1045.26 167.144C1046.71 167.144 1047.7 166.376 1047.7 165.188C1047.7 163.892 1046.57 163.532 1045.52 163.244C1044.58 162.968 1044.25 162.848 1044.25 162.452C1044.25 162.104 1044.65 161.9 1045.16 161.9C1045.7 161.9 1046.34 162.092 1046.93 162.464L1047.54 161.396C1046.87 160.952 1046.02 160.652 1045.16 160.652C1043.78 160.652 1042.82 161.444 1042.82 162.608C1042.84 163.712 1043.69 164.096 1045.03 164.444C1045.74 164.636 1046.28 164.792 1046.28 165.272C1046.28 165.656 1045.87 165.908 1045.28 165.908C1044.5 165.908 1043.81 165.62 1043.21 165.188L1042.55 166.208C1043.29 166.808 1044.31 167.144 1045.26 167.144Z" fill="#434343"/>
<rect x="879.5" y="145.5" width="183" height="35" rx="2.5" stroke="#434343"/>
<path d="M188.63 206.132C190.598 206.132 191.726 205.088 191.726 203.612C191.726 202.112 190.574 201.56 188.858 201.176C187.55 200.876 186.938 200.636 186.938 199.964C186.938 199.388 187.502 198.884 188.33 198.884C189.146 198.884 189.974 199.232 190.694 199.856L191.51 198.752C190.682 198.044 189.698 197.6 188.39 197.6C186.65 197.6 185.426 198.656 185.426 200.096C185.426 201.644 186.614 202.136 188.318 202.532C189.638 202.844 190.226 203.072 190.226 203.756C190.226 204.344 189.698 204.848 188.678 204.848C187.598 204.848 186.722 204.416 185.966 203.732L185.102 204.8C186.014 205.652 187.214 206.132 188.63 206.132ZM197.142 204.668C197.01 204.8 196.782 204.896 196.53 204.896C196.182 204.896 195.918 204.596 195.918 204.176V201.008H197.322V199.796H195.918V198.092H194.49V199.796H193.59V201.008H194.49V204.356C194.49 205.4 195.21 206.144 196.242 206.144C196.71 206.144 197.214 205.952 197.562 205.652L197.142 204.668ZM202.399 199.652C201.619 199.652 200.803 199.868 199.927 200.3L200.431 201.32C200.959 201.056 201.523 200.852 202.111 200.852C203.239 200.852 203.635 201.548 203.635 202.268V202.436C203.071 202.22 202.459 202.1 201.895 202.1C200.503 202.1 199.363 202.94 199.363 204.164C199.363 205.364 200.359 206.144 201.679 206.144C202.399 206.144 203.179 205.832 203.635 205.256V206H205.063V202.268C205.063 200.696 204.043 199.652 202.399 199.652ZM202.003 205.076C201.307 205.076 200.791 204.704 200.791 204.116C200.791 203.528 201.379 203.12 202.111 203.12C202.663 203.12 203.179 203.204 203.635 203.36V204.056C203.467 204.716 202.711 205.076 202.003 205.076ZM209.148 200.996V199.796H207.684V206H209.148V202.868C209.148 201.692 210.036 200.9 211.368 200.9V199.652C210.348 199.652 209.544 200.168 209.148 200.996ZM216.548 204.668C216.416 204.8 216.188 204.896 215.936 204.896C215.588 204.896 215.324 204.596 215.324 204.176V201.008H216.728V199.796H215.324V198.092H213.896V199.796H212.996V201.008H213.896V204.356C213.896 205.4 214.616 206.144 215.648 206.144C216.116 206.144 216.62 205.952 216.968 205.652L216.548 204.668ZM226.599 204.668C226.467 204.8 226.239 204.896 225.987 204.896C225.639 204.896 225.375 204.596 225.375 204.176V201.008H226.779V199.796H225.375V198.092H223.947V199.796H223.047V201.008H223.947V204.356C223.947 205.4 224.667 206.144 225.699 206.144C226.167 206.144 226.671 205.952 227.019 205.652L226.599 204.668ZM230.656 200.996V199.796H229.192V206H230.656V202.868C230.656 201.692 231.544 200.9 232.876 200.9V199.652C231.856 199.652 231.052 200.168 230.656 200.996ZM235.704 198.86C236.16 198.86 236.532 198.464 236.532 198.02C236.532 197.576 236.16 197.192 235.704 197.192C235.236 197.192 234.864 197.576 234.864 198.02C234.864 198.464 235.236 198.86 235.704 198.86ZM234.96 206H236.424V199.796H234.96V206ZM241.742 199.652C240.962 199.652 240.146 199.868 239.27 200.3L239.774 201.32C240.302 201.056 240.866 200.852 241.454 200.852C242.582 200.852 242.978 201.548 242.978 202.268V202.436C242.414 202.22 241.802 202.1 241.238 202.1C239.846 202.1 238.706 202.94 238.706 204.164C238.706 205.364 239.702 206.144 241.022 206.144C241.742 206.144 242.522 205.832 242.978 205.256V206H244.406V202.268C244.406 200.696 243.386 199.652 241.742 199.652ZM241.346 205.076C240.65 205.076 240.134 204.704 240.134 204.116C240.134 203.528 240.722 203.12 241.454 203.12C242.006 203.12 242.522 203.204 242.978 203.36V204.056C242.81 204.716 242.054 205.076 241.346 205.076ZM246.992 206H248.456V197.612H246.992V206Z" fill="#434343"/>
<rect x="164.5" y="184.5" width="106" height="35" rx="2.5" stroke="#434343"/>
<path d="M315.62 206.144C316.832 206.144 317.936 205.628 318.728 204.8L317.672 203.816C317.156 204.404 316.424 204.776 315.62 204.776C314.096 204.776 312.812 203.456 312.812 201.872C312.812 200.3 314.096 198.98 315.62 198.98C316.412 198.98 317.156 199.352 317.66 199.94L318.728 198.944C317.936 198.128 316.832 197.612 315.62 197.612C313.268 197.612 311.288 199.556 311.288 201.872C311.288 204.188 313.268 206.144 315.62 206.144ZM323.837 206.144C325.637 206.144 327.161 204.656 327.161 202.892C327.161 201.128 325.637 199.652 323.837 199.652C322.037 199.652 320.513 201.128 320.513 202.892C320.513 204.656 322.037 206.144 323.837 206.144ZM323.837 204.896C322.805 204.896 321.941 203.984 321.941 202.892C321.941 201.812 322.805 200.9 323.837 200.9C324.857 200.9 325.721 201.812 325.721 202.892C325.721 203.984 324.857 204.896 323.837 204.896ZM332.815 199.652C331.999 199.652 331.279 200.048 330.895 200.624V199.796H329.431V206H330.895V202.076C330.991 201.416 331.627 200.9 332.395 200.9C333.163 200.9 333.703 201.5 333.703 202.34V206H335.119V202.052C335.119 200.648 334.171 199.652 332.815 199.652ZM341.092 199.652C340.276 199.652 339.556 200.048 339.172 200.624V199.796H337.708V206H339.172V202.076C339.268 201.416 339.904 200.9 340.672 200.9C341.44 200.9 341.98 201.5 341.98 202.34V206H343.396V202.052C343.396 200.648 342.448 199.652 341.092 199.652ZM348.878 204.848C347.99 204.848 347.342 204.248 347.162 203.396H351.842C351.842 201.104 350.726 199.652 348.806 199.652C347.042 199.652 345.65 201.02 345.65 202.88C345.65 204.788 347.114 206.144 348.89 206.144C349.79 206.144 350.87 205.76 351.41 205.184L350.486 204.224C350.138 204.584 349.454 204.848 348.878 204.848ZM348.866 200.948C349.742 200.948 350.27 201.5 350.438 202.28H347.174C347.39 201.464 348.05 200.948 348.866 200.948ZM357.099 206.144C358.083 206.144 358.911 205.736 359.511 205.1L358.527 204.248C358.179 204.644 357.651 204.896 357.111 204.896C356.091 204.896 355.239 203.984 355.239 202.892C355.239 201.812 356.091 200.9 357.111 200.9C357.639 200.9 358.155 201.152 358.491 201.524L359.475 200.66C358.887 200.048 358.059 199.652 357.123 199.652C355.311 199.652 353.787 201.128 353.787 202.892C353.787 204.656 355.311 206.144 357.099 206.144ZM364.757 204.668C364.625 204.8 364.397 204.896 364.145 204.896C363.797 204.896 363.533 204.596 363.533 204.176V201.008H364.937V199.796H363.533V198.092H362.105V199.796H361.205V201.008H362.105V204.356C362.105 205.4 362.825 206.144 363.857 206.144C364.325 206.144 364.829 205.952 365.177 205.652L364.757 204.668ZM376.332 199.796V200.72C375.888 200.06 375.084 199.652 374.208 199.652C372.6 199.652 371.412 200.864 371.412 202.592C371.412 204.32 372.6 205.544 374.208 205.544C375.096 205.544 375.84 205.148 376.332 204.488V205.292C376.332 206.228 375.564 206.816 374.34 206.816C373.608 206.816 372.864 206.564 372.432 206.168L371.892 207.236C372.504 207.716 373.488 208.064 374.556 208.064C376.452 208.064 377.796 206.936 377.796 205.34V199.796H376.332ZM374.628 204.296C373.644 204.296 372.936 203.588 372.936 202.592C372.936 201.608 373.644 200.9 374.628 200.9C375.624 200.9 376.332 201.608 376.332 202.592C376.332 203.588 375.624 204.296 374.628 204.296ZM383.135 199.652C382.355 199.652 381.539 199.868 380.663 200.3L381.167 201.32C381.695 201.056 382.259 200.852 382.847 200.852C383.975 200.852 384.371 201.548 384.371 202.268V202.436C383.807 202.22 383.195 202.1 382.631 202.1C381.239 202.1 380.099 202.94 380.099 204.164C380.099 205.364 381.095 206.144 382.415 206.144C383.135 206.144 383.915 205.832 384.371 205.256V206H385.799V202.268C385.799 200.696 384.779 199.652 383.135 199.652ZM382.739 205.076C382.043 205.076 381.527 204.704 381.527 204.116C381.527 203.528 382.115 203.12 382.847 203.12C383.399 203.12 383.915 203.204 384.371 203.36V204.056C384.203 204.716 383.447 205.076 382.739 205.076ZM391.48 204.668C391.348 204.8 391.12 204.896 390.868 204.896C390.52 204.896 390.256 204.596 390.256 204.176V201.008H391.66V199.796H390.256V198.092H388.828V199.796H387.928V201.008H388.828V204.356C388.828 205.4 389.548 206.144 390.58 206.144C391.048 206.144 391.552 205.952 391.9 205.652L391.48 204.668ZM396.928 204.848C396.04 204.848 395.392 204.248 395.212 203.396H399.892C399.892 201.104 398.776 199.652 396.856 199.652C395.092 199.652 393.7 201.02 393.7 202.88C393.7 204.788 395.164 206.144 396.94 206.144C397.84 206.144 398.92 205.76 399.46 205.184L398.536 204.224C398.188 204.584 397.504 204.848 396.928 204.848ZM396.916 200.948C397.792 200.948 398.32 201.5 398.488 202.28H395.224C395.44 201.464 396.1 200.948 396.916 200.948ZM403.441 206H404.773L406.093 201.752L407.425 206H408.757L410.845 199.796H409.381L408.097 204.032L406.705 199.796H405.481L404.101 204.032L402.805 199.796H401.341L403.441 206ZM415.623 199.652C414.843 199.652 414.027 199.868 413.151 200.3L413.655 201.32C414.183 201.056 414.747 200.852 415.335 200.852C416.463 200.852 416.859 201.548 416.859 202.268V202.436C416.295 202.22 415.683 202.1 415.119 202.1C413.727 202.1 412.587 202.94 412.587 204.164C412.587 205.364 413.583 206.144 414.903 206.144C415.623 206.144 416.403 205.832 416.859 205.256V206H418.287V202.268C418.287 200.696 417.267 199.652 415.623 199.652ZM415.227 205.076C414.531 205.076 414.015 204.704 414.015 204.116C414.015 203.528 414.603 203.12 415.335 203.12C415.887 203.12 416.403 203.204 416.859 203.36V204.056C416.691 204.716 415.935 205.076 415.227 205.076ZM422.132 208.16C423.068 208.148 423.788 207.608 424.256 206.432L426.884 199.796H425.372L423.668 204.428L421.856 199.796H420.308L422.936 206.048L422.672 206.6C422.492 206.9 422.228 207.008 421.88 207.008C421.652 207.008 421.352 206.924 421.088 206.78L420.776 207.836C421.148 208.04 421.664 208.16 422.132 208.16Z" fill="#434343"/>
<rect x="290.5" y="184.5" width="158" height="35" rx="2.5" stroke="#434343"/>
<path d="M478.835 199.124V197.756H472.631V206H478.835V204.632H474.131V202.484H478.391V201.116H474.131V199.124H478.835ZM486.912 206L484.584 202.82L486.804 199.796H485.208L483.792 201.728L482.376 199.796H480.768L482.988 202.832L480.66 206H482.256L483.78 203.924L485.292 206H486.912ZM492.61 199.652C491.686 199.652 490.942 200.072 490.45 200.78V199.796H488.986V208.064H490.45V205.016C490.942 205.724 491.686 206.144 492.61 206.144C494.254 206.144 495.454 204.8 495.454 202.892C495.454 200.996 494.254 199.652 492.61 199.652ZM492.214 204.896C491.182 204.896 490.462 204.056 490.462 202.892C490.462 201.728 491.182 200.9 492.214 200.9C493.258 200.9 494.002 201.728 494.002 202.892C494.002 204.056 493.258 204.896 492.214 204.896ZM497.779 206H499.243V197.612H497.779V206ZM504.861 206.144C506.661 206.144 508.185 204.656 508.185 202.892C508.185 201.128 506.661 199.652 504.861 199.652C503.061 199.652 501.537 201.128 501.537 202.892C501.537 204.656 503.061 206.144 504.861 206.144ZM504.861 204.896C503.829 204.896 502.965 203.984 502.965 202.892C502.965 201.812 503.829 200.9 504.861 200.9C505.881 200.9 506.745 201.812 506.745 202.892C506.745 203.984 505.881 204.896 504.861 204.896ZM511.954 200.996V199.796H510.49V206H511.954V202.868C511.954 201.692 512.842 200.9 514.174 200.9V199.652C513.154 199.652 512.35 200.168 511.954 200.996ZM519.151 204.848C518.263 204.848 517.615 204.248 517.435 203.396H522.115C522.115 201.104 520.999 199.652 519.079 199.652C517.315 199.652 515.923 201.02 515.923 202.88C515.923 204.788 517.387 206.144 519.163 206.144C520.063 206.144 521.143 205.76 521.683 205.184L520.759 204.224C520.411 204.584 519.727 204.848 519.151 204.848ZM519.139 200.948C520.015 200.948 520.543 201.5 520.711 202.28H517.447C517.663 201.464 518.323 200.948 519.139 200.948ZM531.879 204.668C531.747 204.8 531.519 204.896 531.267 204.896C530.919 204.896 530.655 204.596 530.655 204.176V201.008H532.059V199.796H530.655V198.092H529.227V199.796H528.327V201.008H529.227V204.356C529.227 205.4 529.947 206.144 530.979 206.144C531.447 206.144 531.951 205.952 532.299 205.652L531.879 204.668ZM537.819 199.652C536.991 199.652 536.259 200.048 535.887 200.648V197.612H534.423V206H535.887V202.244C535.887 201.5 536.571 200.9 537.399 200.9C538.167 200.9 538.707 201.5 538.707 202.34V206H540.123V202.052C540.123 200.648 539.175 199.652 537.819 199.652ZM545.604 204.848C544.716 204.848 544.068 204.248 543.888 203.396H548.568C548.568 201.104 547.452 199.652 545.532 199.652C543.768 199.652 542.376 201.02 542.376 202.88C542.376 204.788 543.84 206.144 545.616 206.144C546.516 206.144 547.596 205.76 548.136 205.184L547.212 204.224C546.864 204.584 546.18 204.848 545.604 204.848ZM545.592 200.948C546.468 200.948 546.996 201.5 547.164 202.28H543.9C544.116 201.464 544.776 200.948 545.592 200.948ZM557.528 206.144C558.98 206.144 559.964 205.376 559.964 204.188C559.964 202.892 558.836 202.532 557.792 202.244C556.844 201.968 556.52 201.848 556.52 201.452C556.52 201.104 556.916 200.9 557.432 200.9C557.972 200.9 558.608 201.092 559.196 201.464L559.808 200.396C559.136 199.952 558.284 199.652 557.432 199.652C556.052 199.652 555.092 200.444 555.092 201.608C555.104 202.712 555.956 203.096 557.3 203.444C558.008 203.636 558.548 203.792 558.548 204.272C558.548 204.656 558.14 204.908 557.552 204.908C556.772 204.908 556.076 204.62 555.476 204.188L554.816 205.208C555.56 205.808 556.58 206.144 557.528 206.144ZM565.128 204.848C564.24 204.848 563.592 204.248 563.412 203.396H568.092C568.092 201.104 566.976 199.652 565.056 199.652C563.292 199.652 561.9 201.02 561.9 202.88C561.9 204.788 563.364 206.144 565.14 206.144C566.04 206.144 567.12 205.76 567.66 205.184L566.736 204.224C566.388 204.584 565.704 204.848 565.128 204.848ZM565.116 200.948C565.992 200.948 566.52 201.5 566.688 202.28H563.424C563.64 201.464 564.3 200.948 565.116 200.948ZM571.861 200.996V199.796H570.397V206H571.861V202.868C571.861 201.692 572.749 200.9 574.081 200.9V199.652C573.061 199.652 572.257 200.168 571.861 200.996ZM578.241 206H579.621L582.249 199.796H580.689L578.925 204.308L577.125 199.796H575.577L578.241 206ZM585.011 198.86C585.467 198.86 585.839 198.464 585.839 198.02C585.839 197.576 585.467 197.192 585.011 197.192C584.543 197.192 584.171 197.576 584.171 198.02C584.171 198.464 584.543 198.86 585.011 198.86ZM584.267 206H585.731V199.796H584.267V206ZM591.337 206.144C592.321 206.144 593.149 205.736 593.749 205.1L592.765 204.248C592.417 204.644 591.889 204.896 591.349 204.896C590.329 204.896 589.477 203.984 589.477 202.892C589.477 201.812 590.329 200.9 591.349 200.9C591.877 200.9 592.393 201.152 592.729 201.524L593.713 200.66C593.125 200.048 592.297 199.652 591.361 199.652C589.549 199.652 588.025 201.128 588.025 202.892C588.025 204.656 589.549 206.144 591.337 206.144ZM598.792 204.848C597.904 204.848 597.256 204.248 597.076 203.396H601.756C601.756 201.104 600.64 199.652 598.72 199.652C596.956 199.652 595.564 201.02 595.564 202.88C595.564 204.788 597.028 206.144 598.804 206.144C599.704 206.144 600.784 205.76 601.324 205.184L600.4 204.224C600.052 204.584 599.368 204.848 598.792 204.848ZM598.78 200.948C599.656 200.948 600.184 201.5 600.352 202.28H597.088C597.304 201.464 597.964 200.948 598.78 200.948ZM606.317 206.144C607.769 206.144 608.753 205.376 608.753 204.188C608.753 202.892 607.625 202.532 606.581 202.244C605.633 201.968 605.309 201.848 605.309 201.452C605.309 201.104 605.705 200.9 606.221 200.9C606.761 200.9 607.397 201.092 607.985 201.464L608.597 200.396C607.925 199.952 607.073 199.652 606.221 199.652C604.841 199.652 603.881 200.444 603.881 201.608C603.893 202.712 604.745 203.096 606.089 203.444C606.797 203.636 607.337 203.792 607.337 204.272C607.337 204.656 606.929 204.908 606.341 204.908C605.561 204.908 604.865 204.62 604.265 204.188L603.605 205.208C604.349 205.808 605.369 206.144 606.317 206.144Z" fill="#434343"/>
<rect x="467.5" y="184.5" width="147" height="35" rx="2.5" stroke="#434343"/>
<path d="M670.183 167.132C672.151 167.132 673.279 166.088 673.279 164.612C673.279 163.112 672.127 162.56 670.411 162.176C669.103 161.876 668.491 161.636 668.491 160.964C668.491 160.388 669.055 159.884 669.883 159.884C670.699 159.884 671.527 160.232 672.247 160.856L673.063 159.752C672.235 159.044 671.251 158.6 669.943 158.6C668.203 158.6 666.979 159.656 666.979 161.096C666.979 162.644 668.167 163.136 669.871 163.532C671.191 163.844 671.779 164.072 671.779 164.756C671.779 165.344 671.251 165.848 670.231 165.848C669.151 165.848 668.275 165.416 667.519 164.732L666.655 165.8C667.567 166.652 668.767 167.132 670.183 167.132ZM679.799 160.796V164.72C679.703 165.38 679.067 165.896 678.299 165.896C677.531 165.896 676.991 165.296 676.991 164.456V160.796H675.575V164.744C675.575 166.148 676.523 167.144 677.879 167.144C678.695 167.144 679.415 166.748 679.799 166.172V167H681.263V160.796H679.799ZM687.536 160.652C686.612 160.652 685.868 161.072 685.376 161.78V158.612H683.912V167H685.376V166.016C685.868 166.724 686.612 167.144 687.536 167.144C689.18 167.144 690.38 165.8 690.38 163.892C690.38 161.996 689.18 160.652 687.536 160.652ZM687.14 165.896C686.108 165.896 685.388 165.056 685.388 163.892C685.388 162.728 686.108 161.9 687.14 161.9C688.184 161.9 688.928 162.728 688.928 163.892C688.928 165.056 688.184 165.896 687.14 165.896ZM694.996 167.144C696.448 167.144 697.432 166.376 697.432 165.188C697.432 163.892 696.304 163.532 695.26 163.244C694.312 162.968 693.988 162.848 693.988 162.452C693.988 162.104 694.384 161.9 694.9 161.9C695.44 161.9 696.076 162.092 696.664 162.464L697.276 161.396C696.604 160.952 695.752 160.652 694.9 160.652C693.52 160.652 692.56 161.444 692.56 162.608C692.572 163.712 693.424 164.096 694.768 164.444C695.476 164.636 696.016 164.792 696.016 165.272C696.016 165.656 695.608 165.908 695.02 165.908C694.24 165.908 693.544 165.62 692.944 165.188L692.284 166.208C693.028 166.808 694.048 167.144 694.996 167.144ZM702.692 167.144C703.676 167.144 704.504 166.736 705.104 166.1L704.12 165.248C703.772 165.644 703.244 165.896 702.704 165.896C701.684 165.896 700.832 164.984 700.832 163.892C700.832 162.812 701.684 161.9 702.704 161.9C703.232 161.9 703.748 162.152 704.084 162.524L705.068 161.66C704.48 161.048 703.652 160.652 702.716 160.652C700.904 160.652 699.38 162.128 699.38 163.892C699.38 165.656 700.904 167.144 702.692 167.144ZM708.755 161.996V160.796H707.291V167H708.755V163.868C708.755 162.692 709.643 161.9 710.975 161.9V160.652C709.955 160.652 709.151 161.168 708.755 161.996ZM713.804 159.86C714.26 159.86 714.632 159.464 714.632 159.02C714.632 158.576 714.26 158.192 713.804 158.192C713.336 158.192 712.964 158.576 712.964 159.02C712.964 159.464 713.336 159.86 713.804 159.86ZM713.06 167H714.524V160.796H713.06V167ZM720.802 160.652C719.878 160.652 719.134 161.072 718.642 161.78V158.612H717.178V167H718.642V166.016C719.134 166.724 719.878 167.144 720.802 167.144C722.446 167.144 723.646 165.8 723.646 163.892C723.646 161.996 722.446 160.652 720.802 160.652ZM720.406 165.896C719.374 165.896 718.654 165.056 718.654 163.892C718.654 162.728 719.374 161.9 720.406 161.9C721.45 161.9 722.194 162.728 722.194 163.892C722.194 165.056 721.45 165.896 720.406 165.896ZM728.862 165.848C727.974 165.848 727.326 165.248 727.146 164.396H731.826C731.826 162.104 730.71 160.652 728.79 160.652C727.026 160.652 725.634 162.02 725.634 163.88C725.634 165.788 727.098 167.144 728.874 167.144C729.774 167.144 730.854 166.76 731.394 166.184L730.47 165.224C730.122 165.584 729.438 165.848 728.862 165.848ZM728.85 161.948C729.726 161.948 730.254 162.5 730.422 163.28H727.158C727.374 162.464 728.034 161.948 728.85 161.948ZM741.193 160.652C740.413 160.652 739.597 160.868 738.721 161.3L739.225 162.32C739.753 162.056 740.317 161.852 740.905 161.852C742.033 161.852 742.429 162.548 742.429 163.268V163.436C741.865 163.22 741.253 163.1 740.689 163.1C739.297 163.1 738.157 163.94 738.157 165.164C738.157 166.364 739.153 167.144 740.473 167.144C741.193 167.144 741.973 166.832 742.429 166.256V167H743.857V163.268C743.857 161.696 742.837 160.652 741.193 160.652ZM740.797 166.076C740.101 166.076 739.585 165.704 739.585 165.116C739.585 164.528 740.173 164.12 740.905 164.12C741.457 164.12 741.973 164.204 742.429 164.36V165.056C742.261 165.716 741.505 166.076 740.797 166.076ZM749.827 160.652C749.011 160.652 748.291 161.048 747.907 161.624V160.796H746.443V167H747.907V163.076C748.003 162.416 748.639 161.9 749.407 161.9C750.175 161.9 750.715 162.5 750.715 163.34V167H752.131V163.052C752.131 161.648 751.183 160.652 749.827 160.652ZM759.436 158.612V161.756C758.944 161.06 758.2 160.652 757.288 160.652C755.644 160.652 754.444 161.996 754.444 163.892C754.444 165.8 755.644 167.144 757.288 167.144C758.2 167.144 758.944 166.736 759.436 166.04V167H760.9V158.612H759.436ZM757.684 165.896C756.64 165.896 755.896 165.056 755.896 163.892C755.896 162.728 756.64 161.9 757.684 161.9C758.716 161.9 759.436 162.728 759.436 163.892C759.436 165.056 758.716 165.896 757.684 165.896ZM773.803 160.796H772.075L769.387 163.736V158.612H767.923V167H769.387V165.452L770.263 164.528L772.015 167H773.719L771.247 163.568L773.803 160.796ZM778.577 165.848C777.689 165.848 777.041 165.248 776.861 164.396H781.541C781.541 162.104 780.425 160.652 778.505 160.652C776.741 160.652 775.349 162.02 775.349 163.88C775.349 165.788 776.813 167.144 778.589 167.144C779.489 167.144 780.569 166.76 781.109 166.184L780.185 165.224C779.837 165.584 779.153 165.848 778.577 165.848ZM778.565 161.948C779.441 161.948 779.969 162.5 780.137 163.28H776.873C777.089 162.464 777.749 161.948 778.565 161.948ZM786.702 165.848C785.814 165.848 785.166 165.248 784.986 164.396H789.666C789.666 162.104 788.55 160.652 786.63 160.652C784.866 160.652 783.474 162.02 783.474 163.88C783.474 165.788 784.938 167.144 786.714 167.144C787.614 167.144 788.694 166.76 789.234 166.184L788.31 165.224C787.962 165.584 787.278 165.848 786.702 165.848ZM786.69 161.948C787.566 161.948 788.094 162.5 788.262 163.28H784.998C785.214 162.464 785.874 161.948 786.69 161.948ZM795.595 160.652C794.671 160.652 793.927 161.072 793.435 161.78V160.796H791.971V169.064H793.435V166.016C793.927 166.724 794.671 167.144 795.595 167.144C797.239 167.144 798.439 165.8 798.439 163.892C798.439 161.996 797.239 160.652 795.595 160.652ZM795.199 165.896C794.167 165.896 793.447 165.056 793.447 163.892C793.447 162.728 794.167 161.9 795.199 161.9C796.243 161.9 796.987 162.728 796.987 163.892C796.987 165.056 796.243 165.896 795.199 165.896ZM809.361 160.796V164.72C809.265 165.38 808.629 165.896 807.861 165.896C807.093 165.896 806.553 165.296 806.553 164.456V160.796H805.137V164.744C805.137 166.148 806.085 167.144 807.441 167.144C808.257 167.144 808.977 166.748 809.361 166.172V167H810.825V160.796H809.361ZM815.731 167.144C817.183 167.144 818.167 166.376 818.167 165.188C818.167 163.892 817.039 163.532 815.995 163.244C815.047 162.968 814.723 162.848 814.723 162.452C814.723 162.104 815.119 161.9 815.635 161.9C816.175 161.9 816.811 162.092 817.399 162.464L818.011 161.396C817.339 160.952 816.487 160.652 815.635 160.652C814.255 160.652 813.295 161.444 813.295 162.608C813.307 163.712 814.159 164.096 815.503 164.444C816.211 164.636 816.751 164.792 816.751 165.272C816.751 165.656 816.343 165.908 815.755 165.908C814.975 165.908 814.279 165.62 813.679 165.188L813.019 166.208C813.763 166.808 814.783 167.144 815.731 167.144ZM821.183 159.86C821.639 159.86 822.011 159.464 822.011 159.02C822.011 158.576 821.639 158.192 821.183 158.192C820.715 158.192 820.343 158.576 820.343 159.02C820.343 159.464 820.715 159.86 821.183 159.86ZM820.439 167H821.903V160.796H820.439V167ZM827.905 160.652C827.089 160.652 826.369 161.048 825.985 161.624V160.796H824.521V167H825.985V163.076C826.081 162.416 826.717 161.9 827.485 161.9C828.253 161.9 828.793 162.5 828.793 163.34V167H830.209V163.052C830.209 161.648 829.261 160.652 827.905 160.652ZM837.418 160.796V161.72C836.974 161.06 836.17 160.652 835.294 160.652C833.686 160.652 832.498 161.864 832.498 163.592C832.498 165.32 833.686 166.544 835.294 166.544C836.182 166.544 836.926 166.148 837.418 165.488V166.292C837.418 167.228 836.65 167.816 835.426 167.816C834.694 167.816 833.95 167.564 833.518 167.168L832.978 168.236C833.59 168.716 834.574 169.064 835.642 169.064C837.538 169.064 838.882 167.936 838.882 166.34V160.796H837.418ZM835.714 165.296C834.73 165.296 834.022 164.588 834.022 163.592C834.022 162.608 834.73 161.9 835.714 161.9C836.71 161.9 837.418 162.608 837.418 163.592C837.418 164.588 836.71 165.296 835.714 165.296Z" fill="#434343"/>
<rect x="654.5" y="145.5" width="198" height="35" rx="2.5" stroke="#434343"/>
<path d="M879 163L869 157.226V168.774L879 163ZM853 164H870V162H853V164Z" fill="#0079B8"/>
<path d="M635.5 202V203H636.5V202H635.5ZM635.5 166V165H634.5V166H635.5ZM653 166L643 160.226V171.774L653 166ZM617 203H635.5V201H617V203ZM636.5 202V166H634.5V202H636.5ZM635.5 167H644V165H635.5V167Z" fill="#0079B8"/>
<path d="M635.5 202H636.5V201H635.5V202ZM635.5 237H634.5V238H635.5V237ZM653 237L643 231.226V242.774L653 237ZM617 203H635.5V201H617V203ZM634.5 202V237H636.5V202H634.5ZM635.5 238H644V236H635.5V238Z" fill="#0079B8"/>
<path d="M148 202H147V203H148V202ZM162 202L152 196.226V207.774L162 202ZM148 174H149V173H148V174ZM148 203H153V201H148V203ZM134 175H148V173H134V175ZM147 174V202H149V174H147Z" fill="#0079B8"/>
<path d="M148 202V201H147V202H148ZM162 202L152 196.226V207.774L162 202ZM148 225V226H149V225H148ZM148 203H153V201H148V203ZM134 226H148V224H134V226ZM149 225V202H147V225H149Z" fill="#0079B8"/>
<path d="M288 202L278 196.226V207.774L288 202ZM271 203H279V201H271V203Z" fill="#0079B8"/>
<path d="M465 202L455 196.226V207.774L465 202ZM449 203H456V201H449V203Z" fill="#0079B8"/>
<rect x="16" y="54" width="139" height="36" rx="3" fill="#0079B8"/>
<path d="M68.7563 74.632V67.756H67.2683V76H72.9923V74.632H68.7563ZM78.0515 74.848C77.1635 74.848 76.5155 74.248 76.3355 73.396H81.0155C81.0155 71.104 79.8995 69.652 77.9795 69.652C76.2155 69.652 74.8235 71.02 74.8235 72.88C74.8235 74.788 76.2875 76.144 78.0635 76.144C78.9635 76.144 80.0435 75.76 80.5835 75.184L79.6595 74.224C79.3115 74.584 78.6275 74.848 78.0515 74.848ZM78.0395 70.948C78.9155 70.948 79.4435 71.5 79.6115 72.28H76.3475C76.5635 71.464 77.2235 70.948 78.0395 70.948ZM85.9845 69.652C85.2045 69.652 84.3885 69.868 83.5125 70.3L84.0165 71.32C84.5445 71.056 85.1085 70.852 85.6965 70.852C86.8245 70.852 87.2205 71.548 87.2205 72.268V72.436C86.6565 72.22 86.0445 72.1 85.4805 72.1C84.0885 72.1 82.9485 72.94 82.9485 74.164C82.9485 75.364 83.9445 76.144 85.2645 76.144C85.9845 76.144 86.7645 75.832 87.2205 75.256V76H88.6485V72.268C88.6485 70.696 87.6285 69.652 85.9845 69.652ZM85.5885 75.076C84.8925 75.076 84.3765 74.704 84.3765 74.116C84.3765 73.528 84.9645 73.12 85.6965 73.12C86.2485 73.12 86.7645 73.204 87.2205 73.36V74.056C87.0525 74.716 86.2965 75.076 85.5885 75.076ZM92.7337 70.996V69.796H91.2697V76H92.7337V72.868C92.7337 71.692 93.6217 70.9 94.9537 70.9V69.652C93.9337 69.652 93.1297 70.168 92.7337 70.996ZM100.422 69.652C99.6064 69.652 98.8864 70.048 98.5024 70.624V69.796H97.0384V76H98.5024V72.076C98.5984 71.416 99.2344 70.9 100.002 70.9C100.77 70.9 101.31 71.5 101.31 72.34V76H102.726V72.052C102.726 70.648 101.778 69.652 100.422 69.652Z" fill="white"/>
<rect x="16" y="16" width="433" height="24" rx="3" fill="#0079B8" fill-opacity="0.3"/>
<path d="M205.473 32H206.973V29.228H209.061C210.825 29.228 212.145 28.1 212.145 26.492C212.145 24.884 210.825 23.756 209.061 23.756H205.473V32ZM206.973 27.848V25.136H208.893C209.913 25.136 210.621 25.652 210.621 26.492C210.621 27.332 209.913 27.848 208.893 27.848H206.973ZM215.777 26.996V25.796H214.313V32H215.777V28.868C215.777 27.692 216.665 26.9 217.997 26.9V25.652C216.977 25.652 216.173 26.168 215.777 26.996ZM222.973 30.848C222.085 30.848 221.437 30.248 221.257 29.396H225.937C225.937 27.104 224.821 25.652 222.901 25.652C221.137 25.652 219.745 27.02 219.745 28.88C219.745 30.788 221.209 32.144 222.985 32.144C223.885 32.144 224.965 31.76 225.505 31.184L224.581 30.224C224.233 30.584 223.549 30.848 222.973 30.848ZM222.961 26.948C223.837 26.948 224.365 27.5 224.533 28.28H221.269C221.485 27.464 222.145 26.948 222.961 26.948ZM227.99 29.348H231.218V28.064H227.99V29.348ZM236.709 30.668C236.577 30.8 236.349 30.896 236.097 30.896C235.749 30.896 235.485 30.596 235.485 30.176V27.008H236.889V25.796H235.485V24.092H234.057V25.796H233.157V27.008H234.057V30.356C234.057 31.4 234.777 32.144 235.809 32.144C236.277 32.144 236.781 31.952 237.129 31.652L236.709 30.668ZM240.765 26.996V25.796H239.301V32H240.765V28.868C240.765 27.692 241.653 26.9 242.985 26.9V25.652C241.965 25.652 241.161 26.168 240.765 26.996ZM245.814 24.86C246.27 24.86 246.642 24.464 246.642 24.02C246.642 23.576 246.27 23.192 245.814 23.192C245.346 23.192 244.974 23.576 244.974 24.02C244.974 24.464 245.346 24.86 245.814 24.86ZM245.07 32H246.534V25.796H245.07V32ZM251.852 25.652C251.072 25.652 250.256 25.868 249.38 26.3L249.884 27.32C250.412 27.056 250.976 26.852 251.564 26.852C252.692 26.852 253.088 27.548 253.088 28.268V28.436C252.524 28.22 251.912 28.1 251.348 28.1C249.956 28.1 248.816 28.94 248.816 30.164C248.816 31.364 249.812 32.144 251.132 32.144C251.852 32.144 252.632 31.832 253.088 31.256V32H254.516V28.268C254.516 26.696 253.496 25.652 251.852 25.652ZM251.456 31.076C250.76 31.076 250.244 30.704 250.244 30.116C250.244 29.528 250.832 29.12 251.564 29.12C252.116 29.12 252.632 29.204 253.088 29.36V30.056C252.92 30.716 252.164 31.076 251.456 31.076ZM257.101 32H258.565V23.612H257.101V32Z" fill="#1E4489"/>
<rect x="467" y="16" width="144" height="24" rx="3" fill="#0079B8" fill-opacity="0.3"/>
<path d="M501.329 32H504.233C506.957 32 508.877 30.284 508.877 27.872C508.877 25.46 506.957 23.756 504.233 23.756H501.329V32ZM502.829 30.644V25.112H504.389C506.129 25.112 507.353 26.252 507.353 27.872C507.353 29.492 506.129 30.644 504.389 30.644H502.829ZM515.502 25.796V29.72C515.406 30.38 514.77 30.896 514.002 30.896C513.234 30.896 512.694 30.296 512.694 29.456V25.796H511.278V29.744C511.278 31.148 512.226 32.144 513.582 32.144C514.398 32.144 515.118 31.748 515.502 31.172V32H516.966V25.796H515.502ZM521.079 26.996V25.796H519.615V32H521.079V28.868C521.079 27.692 521.967 26.9 523.299 26.9V25.652C522.279 25.652 521.475 26.168 521.079 26.996ZM526.128 24.86C526.584 24.86 526.956 24.464 526.956 24.02C526.956 23.576 526.584 23.192 526.128 23.192C525.66 23.192 525.288 23.576 525.288 24.02C525.288 24.464 525.66 24.86 526.128 24.86ZM525.384 32H526.848V25.796H525.384V32ZM532.85 25.652C532.034 25.652 531.314 26.048 530.93 26.624V25.796H529.466V32H530.93V28.076C531.026 27.416 531.662 26.9 532.43 26.9C533.198 26.9 533.738 27.5 533.738 28.34V32H535.154V28.052C535.154 26.648 534.206 25.652 532.85 25.652ZM542.363 25.796V26.72C541.919 26.06 541.115 25.652 540.239 25.652C538.631 25.652 537.443 26.864 537.443 28.592C537.443 30.32 538.631 31.544 540.239 31.544C541.127 31.544 541.871 31.148 542.363 30.488V31.292C542.363 32.228 541.595 32.816 540.371 32.816C539.639 32.816 538.895 32.564 538.463 32.168L537.923 33.236C538.535 33.716 539.519 34.064 540.587 34.064C542.483 34.064 543.827 32.936 543.827 31.34V25.796H542.363ZM540.659 30.296C539.675 30.296 538.967 29.588 538.967 28.592C538.967 27.608 539.675 26.9 540.659 26.9C541.655 26.9 542.363 27.608 542.363 28.592C542.363 29.588 541.655 30.296 540.659 30.296ZM553.961 30.668C553.829 30.8 553.601 30.896 553.349 30.896C553.001 30.896 552.737 30.596 552.737 30.176V27.008H554.141V25.796H552.737V24.092H551.309V25.796H550.409V27.008H551.309V30.356C551.309 31.4 552.029 32.144 553.061 32.144C553.529 32.144 554.033 31.952 554.381 31.652L553.961 30.668ZM558.017 26.996V25.796H556.553V32H558.017V28.868C558.017 27.692 558.905 26.9 560.237 26.9V25.652C559.217 25.652 558.413 26.168 558.017 26.996ZM563.066 24.86C563.522 24.86 563.894 24.464 563.894 24.02C563.894 23.576 563.522 23.192 563.066 23.192C562.598 23.192 562.226 23.576 562.226 24.02C562.226 24.464 562.598 24.86 563.066 24.86ZM562.322 32H563.786V25.796H562.322V32ZM569.104 25.652C568.324 25.652 567.508 25.868 566.632 26.3L567.136 27.32C567.664 27.056 568.228 26.852 568.816 26.852C569.944 26.852 570.34 27.548 570.34 28.268V28.436C569.776 28.22 569.164 28.1 568.6 28.1C567.208 28.1 566.068 28.94 566.068 30.164C566.068 31.364 567.064 32.144 568.384 32.144C569.104 32.144 569.884 31.832 570.34 31.256V32H571.768V28.268C571.768 26.696 570.748 25.652 569.104 25.652ZM568.708 31.076C568.012 31.076 567.496 30.704 567.496 30.116C567.496 29.528 568.084 29.12 568.816 29.12C569.368 29.12 569.884 29.204 570.34 29.36V30.056C570.172 30.716 569.416 31.076 568.708 31.076ZM574.353 32H575.817V23.612H574.353V32Z" fill="#1E4489"/>
<rect x="653" y="16" width="409" height="24" rx="3" fill="#0079B8" fill-opacity="0.3"/>
<path d="M826.815 32H828.315V29.228H830.403C832.167 29.228 833.487 28.1 833.487 26.492C833.487 24.884 832.167 23.756 830.403 23.756H826.815V32ZM828.315 27.848V25.136H830.235C831.255 25.136 831.963 25.652 831.963 26.492C831.963 27.332 831.255 27.848 830.235 27.848H828.315ZM838.618 32.144C840.418 32.144 841.942 30.656 841.942 28.892C841.942 27.128 840.418 25.652 838.618 25.652C836.818 25.652 835.294 27.128 835.294 28.892C835.294 30.656 836.818 32.144 838.618 32.144ZM838.618 30.896C837.586 30.896 836.722 29.984 836.722 28.892C836.722 27.812 837.586 26.9 838.618 26.9C839.638 26.9 840.502 27.812 840.502 28.892C840.502 29.984 839.638 30.896 838.618 30.896ZM846.504 32.144C847.956 32.144 848.94 31.376 848.94 30.188C848.94 28.892 847.812 28.532 846.768 28.244C845.82 27.968 845.496 27.848 845.496 27.452C845.496 27.104 845.892 26.9 846.408 26.9C846.948 26.9 847.584 27.092 848.172 27.464L848.784 26.396C848.112 25.952 847.26 25.652 846.408 25.652C845.028 25.652 844.068 26.444 844.068 27.608C844.08 28.712 844.932 29.096 846.276 29.444C846.984 29.636 847.524 29.792 847.524 30.272C847.524 30.656 847.116 30.908 846.528 30.908C845.748 30.908 845.052 30.62 844.452 30.188L843.792 31.208C844.536 31.808 845.556 32.144 846.504 32.144ZM854.308 30.668C854.176 30.8 853.948 30.896 853.696 30.896C853.348 30.896 853.084 30.596 853.084 30.176V27.008H854.488V25.796H853.084V24.092H851.656V25.796H850.756V27.008H851.656V30.356C851.656 31.4 852.376 32.144 853.408 32.144C853.876 32.144 854.38 31.952 854.728 31.652L854.308 30.668ZM856.649 29.348H859.877V28.064H856.649V29.348ZM865.367 30.668C865.235 30.8 865.007 30.896 864.755 30.896C864.407 30.896 864.143 30.596 864.143 30.176V27.008H865.547V25.796H864.143V24.092H862.715V25.796H861.815V27.008H862.715V30.356C862.715 31.4 863.435 32.144 864.467 32.144C864.935 32.144 865.439 31.952 865.787 31.652L865.367 30.668ZM869.423 26.996V25.796H867.959V32H869.423V28.868C869.423 27.692 870.311 26.9 871.643 26.9V25.652C870.623 25.652 869.819 26.168 869.423 26.996ZM874.472 24.86C874.928 24.86 875.3 24.464 875.3 24.02C875.3 23.576 874.928 23.192 874.472 23.192C874.004 23.192 873.632 23.576 873.632 24.02C873.632 24.464 874.004 24.86 874.472 24.86ZM873.728 32H875.192V25.796H873.728V32ZM880.51 25.652C879.73 25.652 878.914 25.868 878.038 26.3L878.542 27.32C879.07 27.056 879.634 26.852 880.222 26.852C881.35 26.852 881.746 27.548 881.746 28.268V28.436C881.182 28.22 880.57 28.1 880.006 28.1C878.614 28.1 877.474 28.94 877.474 30.164C877.474 31.364 878.47 32.144 879.79 32.144C880.51 32.144 881.29 31.832 881.746 31.256V32H883.174V28.268C883.174 26.696 882.154 25.652 880.51 25.652ZM880.114 31.076C879.418 31.076 878.902 30.704 878.902 30.116C878.902 29.528 879.49 29.12 880.222 29.12C880.774 29.12 881.29 29.204 881.746 29.36V30.056C881.578 30.716 880.822 31.076 880.114 31.076ZM885.759 32H887.223V23.612H885.759V32Z" fill="#1E4489"/>
<rect x="164" y="54" width="285" height="36" rx="3" fill="#0079B8"/>
<path d="M280.608 76H282.108V73.228H284.196C285.96 73.228 287.28 72.1 287.28 70.492C287.28 68.884 285.96 67.756 284.196 67.756H280.608V76ZM282.108 71.848V69.136H284.028C285.048 69.136 285.756 69.652 285.756 70.492C285.756 71.332 285.048 71.848 284.028 71.848H282.108ZM290.911 70.996V69.796H289.447V76H290.911V72.868C290.911 71.692 291.799 70.9 293.131 70.9V69.652C292.111 69.652 291.307 70.168 290.911 70.996ZM298.108 74.848C297.22 74.848 296.572 74.248 296.392 73.396H301.072C301.072 71.104 299.956 69.652 298.036 69.652C296.272 69.652 294.88 71.02 294.88 72.88C294.88 74.788 296.344 76.144 298.12 76.144C299.02 76.144 300.1 75.76 300.64 75.184L299.716 74.224C299.368 74.584 298.684 74.848 298.108 74.848ZM298.096 70.948C298.972 70.948 299.5 71.5 299.668 72.28H296.404C296.62 71.464 297.28 70.948 298.096 70.948ZM307.001 69.652C306.077 69.652 305.333 70.072 304.841 70.78V69.796H303.377V78.064H304.841V75.016C305.333 75.724 306.077 76.144 307.001 76.144C308.645 76.144 309.845 74.8 309.845 72.892C309.845 70.996 308.645 69.652 307.001 69.652ZM306.605 74.896C305.573 74.896 304.853 74.056 304.853 72.892C304.853 71.728 305.573 70.9 306.605 70.9C307.649 70.9 308.393 71.728 308.393 72.892C308.393 74.056 307.649 74.896 306.605 74.896ZM314.869 69.652C314.089 69.652 313.273 69.868 312.397 70.3L312.901 71.32C313.429 71.056 313.993 70.852 314.581 70.852C315.709 70.852 316.105 71.548 316.105 72.268V72.436C315.541 72.22 314.929 72.1 314.365 72.1C312.973 72.1 311.833 72.94 311.833 74.164C311.833 75.364 312.829 76.144 314.149 76.144C314.869 76.144 315.649 75.832 316.105 75.256V76H317.533V72.268C317.533 70.696 316.513 69.652 314.869 69.652ZM314.473 75.076C313.777 75.076 313.261 74.704 313.261 74.116C313.261 73.528 313.849 73.12 314.581 73.12C315.133 73.12 315.649 73.204 316.105 73.36V74.056C315.937 74.716 315.181 75.076 314.473 75.076ZM321.618 70.996V69.796H320.154V76H321.618V72.868C321.618 71.692 322.506 70.9 323.838 70.9V69.652C322.818 69.652 322.014 70.168 321.618 70.996ZM328.815 74.848C327.927 74.848 327.279 74.248 327.099 73.396H331.779C331.779 71.104 330.663 69.652 328.743 69.652C326.979 69.652 325.587 71.02 325.587 72.88C325.587 74.788 327.051 76.144 328.827 76.144C329.727 76.144 330.807 75.76 331.347 75.184L330.423 74.224C330.075 74.584 329.391 74.848 328.815 74.848ZM328.803 70.948C329.679 70.948 330.207 71.5 330.375 72.28H327.111C327.327 71.464 327.987 70.948 328.803 70.948Z" fill="white"/>
<rect x="467" y="54" width="144" height="36" rx="3" fill="#0079B8"/>
<path d="M530.763 76H532.251V69.124H534.891V67.756H528.123V69.124H530.763V76ZM538.624 70.996V69.796H537.16V76H538.624V72.868C538.624 71.692 539.512 70.9 540.844 70.9V69.652C539.824 69.652 539.02 70.168 538.624 70.996ZM544.189 78.16C545.125 78.148 545.845 77.608 546.313 76.432L548.941 69.796H547.429L545.725 74.428L543.913 69.796H542.365L544.993 76.048L544.729 76.6C544.549 76.9 544.285 77.008 543.937 77.008C543.709 77.008 543.409 76.924 543.145 76.78L542.833 77.836C543.205 78.04 543.721 78.16 544.189 78.16Z" fill="white"/>
<rect x="653" y="54" width="199" height="36" rx="3" fill="#0079B8"/>
<path d="M740.564 76H744.764C746.3 76 747.392 75.076 747.392 73.756C747.392 72.856 746.828 72.1 745.88 71.644C746.612 71.248 747.044 70.66 747.044 69.82C747.044 68.62 746.036 67.756 744.608 67.756H740.564V76ZM742.052 71.128V69.052H744.248C744.98 69.052 745.508 69.484 745.508 70.096C745.508 70.696 744.98 71.128 744.248 71.128H742.052ZM742.052 74.704V72.352H744.464C745.28 72.352 745.856 72.844 745.856 73.528C745.856 74.212 745.28 74.704 744.464 74.704H742.052ZM753.94 69.796V73.72C753.844 74.38 753.208 74.896 752.44 74.896C751.672 74.896 751.132 74.296 751.132 73.456V69.796H749.716V73.744C749.716 75.148 750.664 76.144 752.02 76.144C752.836 76.144 753.556 75.748 753.94 75.172V76H755.404V69.796H753.94ZM759.277 78.16C760.213 78.148 760.933 77.608 761.401 76.432L764.029 69.796H762.517L760.813 74.428L759.001 69.796H757.453L760.081 76.048L759.817 76.6C759.637 76.9 759.373 77.008 759.025 77.008C758.797 77.008 758.497 76.924 758.233 76.78L757.921 77.836C758.293 78.04 758.809 78.16 759.277 78.16Z" fill="white"/>
<rect x="879" y="54" width="184" height="36" rx="3" fill="#0079B8"/>
<path d="M958.181 72.688H960.233V74.188C959.717 74.56 959.045 74.776 958.421 74.776C956.885 74.776 955.589 73.456 955.589 71.872C955.589 70.3 956.885 68.98 958.421 68.98C959.225 68.98 960.113 69.34 960.629 69.94L961.697 68.944C960.905 68.116 959.621 67.612 958.421 67.612C956.057 67.612 954.065 69.556 954.065 71.872C954.065 74.188 956.057 76.144 958.421 76.144C959.621 76.144 960.905 75.628 961.697 74.8V71.464H958.181V72.688ZM965.747 70.996V69.796H964.283V76H965.747V72.868C965.747 71.692 966.635 70.9 967.967 70.9V69.652C966.947 69.652 966.143 70.168 965.747 70.996ZM972.9 76.144C974.7 76.144 976.224 74.656 976.224 72.892C976.224 71.128 974.7 69.652 972.9 69.652C971.1 69.652 969.576 71.128 969.576 72.892C969.576 74.656 971.1 76.144 972.9 76.144ZM972.9 74.896C971.868 74.896 971.004 73.984 971.004 72.892C971.004 71.812 971.868 70.9 972.9 70.9C973.92 70.9 974.784 71.812 974.784 72.892C974.784 73.984 973.92 74.896 972.9 74.896ZM979.796 76H981.128L982.448 71.752L983.78 76H985.112L987.2 69.796H985.736L984.452 74.032L983.06 69.796H981.836L980.456 74.032L979.16 69.796H977.696L979.796 76Z" fill="white"/>
</svg>
