<?xml version="1.0" encoding="UTF-8"?>
<svg width="118px" height="30px" viewBox="0 0 118 30" version="1.1" xmlns="http://www.w3.org/2000/svg" xmlns:xlink="http://www.w3.org/1999/xlink">
    <!-- Generator: Sketch 52.5 (67469) - http://www.bohemiancoding.com/sketch -->
    <title>poynt_logo/mark+type_color</title>
    <desc>Created with Sketch.</desc>
    <defs>
        <polygon id="path-1" points="1.9576163e-05 0 29.951549 0 29.951549 29.9741081 1.9576163e-05 29.9741081"></polygon>
        <polygon id="path-3" points="1.9576163e-05 0 29.951549 0 29.951549 29.9741081 1.9576163e-05 29.9741081"></polygon>
        <polygon id="path-5" points="1.9576163e-05 0 29.951549 0 29.951549 29.9741081 1.9576163e-05 29.9741081"></polygon>
    </defs>
    <g id="poynt_logo/mark+type_color" stroke="none" stroke-width="1" fill="none" fill-rule="evenodd">
        <g id="Page-1">
            <path d="M40.1633468,14.6993316 L41.0665909,14.6993316 C43.2886812,14.6993316 44.3990412,13.8418359 44.3990412,12.1260609 C44.3990412,10.4669037 43.2536399,9.63712915 40.9631309,9.63712915 L40.1633468,9.63712915 L40.1633468,14.6993316 Z M40.1633468,16.9494497 L40.1633468,23.4810711 L37.7447118,23.4810711 L37.7447118,7.39739426 L40.4853746,7.39739426 C41.8281037,7.39739426 42.8424426,7.49084307 43.5274125,7.67813251 C44.2192341,7.86610764 44.8287379,8.21982217 45.3548473,8.74084338 C46.2748291,9.64379007 46.7358477,10.7827097 46.7358477,12.1573084 C46.7358477,13.6298619 46.2438988,14.7969925 45.261469,15.6576228 C44.2777668,16.5188407 42.9534394,16.9494497 41.2848651,16.9494497 L40.1633468,16.9494497 Z" id="Fill-1" fill="#627793"></path>
            <path d="M52.894166,15.392185 C52.894166,17.16879 53.4889878,18.6294909 54.6791206,19.7744837 C55.8631848,20.9194766 57.2295031,21.491826 58.7804246,21.491826 C60.4630937,21.491826 61.8808973,20.9084077 63.0361846,19.7431382 C64.1927443,18.5630776 64.7708284,17.1269633 64.7708284,15.4339137 C64.7708284,13.7201957 64.2002811,12.2840815 63.0577184,11.1248852 C61.9226924,9.95961571 60.5178091,9.37658916 58.8425789,9.37658916 C57.1742004,9.37658916 55.7661849,9.95961571 54.6165747,11.1248852 C53.4680413,12.2765389 52.894166,13.6992334 52.894166,15.392185 M50.4541931,15.3658352 C50.4541931,13.1021994 51.2807966,11.1579939 52.9349823,9.532729 C54.5821207,7.9079539 56.5620538,7.09453782 58.8740966,7.09453782 C61.1579496,7.09453782 63.1166426,7.91471278 64.7503713,9.55359336 C66.391441,11.1930617 67.2108013,13.1617558 67.2108013,15.4597738 C67.2108013,17.7725829 66.3875258,19.7345182 64.7398002,21.3456776 C63.0856144,22.9636938 61.0892373,23.7727019 58.7491028,23.7727019 C56.6789235,23.7727019 54.8214393,23.054204 53.17342,21.6168163 C51.3611567,20.0257376 50.4541931,17.9426323 50.4541931,15.3658352" id="Fill-3" fill="#627793"></path>
            <polygon id="Fill-5" fill="#627793" points="75.476337 16.5329266 70.2435307 7.39737467 73.0254014 7.39737467 76.6910379 13.8245763 80.3663646 7.39737467 83.148431 7.39737467 77.8946783 16.5329266 77.8946783 23.4811495 75.476337 23.4811495"></polygon>
            <polygon id="Fill-7" fill="#627793" points="87.9014647 23.4811103 87.9014647 6.30347502 99.5921535 18.5747538 99.5921535 7.39743344 102.011669 7.39743344 102.011669 24.4602658 90.3208827 12.2206264 90.3208827 23.4811103"></polygon>
            <polygon id="Fill-9" fill="#627793" points="113.827929 9.67881869 113.827929 23.4811299 111.408218 23.4811299 111.408218 9.67881869 107.721831 9.67881869 107.721831 7.39735508 117.502767 7.39735508 117.502767 9.67881869"></polygon>
            <path d="M14.9777223,20.0819636 C12.1612998,20.0819636 9.87783822,17.7970716 9.87783822,14.9782283 C9.87783822,12.1596789 12.1612998,9.87449305 14.9777223,9.87449305 C17.7942428,9.87449305 20.0776064,12.1596789 20.0776064,14.9782283 C20.0776064,17.7970716 17.7942428,20.0819636 14.9777223,20.0819636 M14.9777223,4.20369784 C9.03165857,4.20369784 4.21141995,9.02767442 4.21141995,14.9782283 C4.21141995,20.9288802 9.03165857,25.7527588 14.9777223,25.7527588 C20.9237861,25.7527588 25.7441226,20.9288802 25.7441226,14.9782283 C25.7441226,13.0291251 25.2268225,11.200898 24.3224037,9.62353304 L25.8798833,4.70669538 C25.6404668,4.43927897 25.4129918,4.22965584 25.2443431,4.08644603 L20.3501066,5.63912645 C18.7689399,4.72618837 16.9343598,4.20369784 14.9777223,4.20369784" id="Fill-11" fill="#FEFEFE"></path>
            <path d="M20.0706373,14.9766904 C20.0706373,17.7954358 17.7872737,20.0803278 14.9707532,20.0803278 C12.1542328,20.0803278 9.8708691,17.7954358 9.8708691,14.9766904 C9.8708691,12.1580431 12.1542328,9.87295516 14.9707532,9.87295516 C17.7872737,9.87295516 20.0706373,12.1580431 20.0706373,14.9766904" id="Fill-13" fill="#375270"></path>
            <g id="Group-17">
                <mask id="mask-2" fill="white">
                    <use xlink:href="#path-1"></use>
                </mask>
                <g id="Clip-16"></g>
                <path d="M25.8784346,4.71383628 L24.3203678,9.63243712 C25.2247866,11.2097042 25.7420867,13.0379313 25.7420867,14.9870345 C25.7420867,20.9375884 20.921848,25.761565 14.9757843,25.761565 C9.02972053,25.761565 4.20938403,20.9375884 4.20938403,14.9870345 C4.20938403,9.0365785 9.02972053,4.21260192 14.9757843,4.21260192 C16.9323239,4.21260192 18.7670019,4.7349945 20.3481686,5.64803053 L25.2567936,4.09064829 C22.5744677,1.55499215 18.9566949,-3.91818919e-05 14.9757843,-3.91818919e-05 C6.70485541,-3.91818919e-05 1.9576163e-05,6.70995776 1.9576163e-05,14.9870345 C1.9576163e-05,23.2641112 6.70485541,29.9741081 14.9757843,29.9741081 C23.2466153,29.9741081 29.951549,23.2641112 29.951549,14.9870345 C29.951549,11.0107581 28.403466,7.39662041 25.8784346,4.71383628" id="Fill-15" fill="#627793" mask="url(#mask-2)"></path>
            </g>
        </g>
        <g id="Page-1-Copy">
            <path d="M40.1633468,14.6993316 L41.0665909,14.6993316 C43.2886812,14.6993316 44.3990412,13.8418359 44.3990412,12.1260609 C44.3990412,10.4669037 43.2536399,9.63712915 40.9631309,9.63712915 L40.1633468,9.63712915 L40.1633468,14.6993316 Z M40.1633468,16.9494497 L40.1633468,23.4810711 L37.7447118,23.4810711 L37.7447118,7.39739426 L40.4853746,7.39739426 C41.8281037,7.39739426 42.8424426,7.49084307 43.5274125,7.67813251 C44.2192341,7.86610764 44.8287379,8.21982217 45.3548473,8.74084338 C46.2748291,9.64379007 46.7358477,10.7827097 46.7358477,12.1573084 C46.7358477,13.6298619 46.2438988,14.7969925 45.261469,15.6576228 C44.2777668,16.5188407 42.9534394,16.9494497 41.2848651,16.9494497 L40.1633468,16.9494497 Z" id="Fill-1" fill="#627793"></path>
            <path d="M52.894166,15.392185 C52.894166,17.16879 53.4889878,18.6294909 54.6791206,19.7744837 C55.8631848,20.9194766 57.2295031,21.491826 58.7804246,21.491826 C60.4630937,21.491826 61.8808973,20.9084077 63.0361846,19.7431382 C64.1927443,18.5630776 64.7708284,17.1269633 64.7708284,15.4339137 C64.7708284,13.7201957 64.2002811,12.2840815 63.0577184,11.1248852 C61.9226924,9.95961571 60.5178091,9.37658916 58.8425789,9.37658916 C57.1742004,9.37658916 55.7661849,9.95961571 54.6165747,11.1248852 C53.4680413,12.2765389 52.894166,13.6992334 52.894166,15.392185 M50.4541931,15.3658352 C50.4541931,13.1021994 51.2807966,11.1579939 52.9349823,9.532729 C54.5821207,7.9079539 56.5620538,7.09453782 58.8740966,7.09453782 C61.1579496,7.09453782 63.1166426,7.91471278 64.7503713,9.55359336 C66.391441,11.1930617 67.2108013,13.1617558 67.2108013,15.4597738 C67.2108013,17.7725829 66.3875258,19.7345182 64.7398002,21.3456776 C63.0856144,22.9636938 61.0892373,23.7727019 58.7491028,23.7727019 C56.6789235,23.7727019 54.8214393,23.054204 53.17342,21.6168163 C51.3611567,20.0257376 50.4541931,17.9426323 50.4541931,15.3658352" id="Fill-3" fill="#627793"></path>
            <polygon id="Fill-5" fill="#627793" points="75.476337 16.5329266 70.2435307 7.39737467 73.0254014 7.39737467 76.6910379 13.8245763 80.3663646 7.39737467 83.148431 7.39737467 77.8946783 16.5329266 77.8946783 23.4811495 75.476337 23.4811495"></polygon>
            <polygon id="Fill-7" fill="#627793" points="87.9014647 23.4811103 87.9014647 6.30347502 99.5921535 18.5747538 99.5921535 7.39743344 102.011669 7.39743344 102.011669 24.4602658 90.3208827 12.2206264 90.3208827 23.4811103"></polygon>
            <polygon id="Fill-9" fill="#627793" points="113.827929 9.67881869 113.827929 23.4811299 111.408218 23.4811299 111.408218 9.67881869 107.721831 9.67881869 107.721831 7.39735508 117.502767 7.39735508 117.502767 9.67881869"></polygon>
            <path d="M14.9777223,20.0819636 C12.1612998,20.0819636 9.87783822,17.7970716 9.87783822,14.9782283 C9.87783822,12.1596789 12.1612998,9.87449305 14.9777223,9.87449305 C17.7942428,9.87449305 20.0776064,12.1596789 20.0776064,14.9782283 C20.0776064,17.7970716 17.7942428,20.0819636 14.9777223,20.0819636 M14.9777223,4.20369784 C9.03165857,4.20369784 4.21141995,9.02767442 4.21141995,14.9782283 C4.21141995,20.9288802 9.03165857,25.7527588 14.9777223,25.7527588 C20.9237861,25.7527588 25.7441226,20.9288802 25.7441226,14.9782283 C25.7441226,13.0291251 25.2268225,11.200898 24.3224037,9.62353304 L25.8798833,4.70669538 C25.6404668,4.43927897 25.4129918,4.22965584 25.2443431,4.08644603 L20.3501066,5.63912645 C18.7689399,4.72618837 16.9343598,4.20369784 14.9777223,4.20369784" id="Fill-11" fill="#FEFEFE"></path>
            <path d="M20.0706373,14.9766904 C20.0706373,17.7954358 17.7872737,20.0803278 14.9707532,20.0803278 C12.1542328,20.0803278 9.8708691,17.7954358 9.8708691,14.9766904 C9.8708691,12.1580431 12.1542328,9.87295516 14.9707532,9.87295516 C17.7872737,9.87295516 20.0706373,12.1580431 20.0706373,14.9766904" id="Fill-13" fill="#375270"></path>
            <g id="Group-17">
                <mask id="mask-4" fill="white">
                    <use xlink:href="#path-3"></use>
                </mask>
                <g id="Clip-16"></g>
                <path d="M25.8784346,4.71383628 L24.3203678,9.63243712 C25.2247866,11.2097042 25.7420867,13.0379313 25.7420867,14.9870345 C25.7420867,20.9375884 20.921848,25.761565 14.9757843,25.761565 C9.02972053,25.761565 4.20938403,20.9375884 4.20938403,14.9870345 C4.20938403,9.0365785 9.02972053,4.21260192 14.9757843,4.21260192 C16.9323239,4.21260192 18.7670019,4.7349945 20.3481686,5.64803053 L25.2567936,4.09064829 C22.5744677,1.55499215 18.9566949,-3.91818919e-05 14.9757843,-3.91818919e-05 C6.70485541,-3.91818919e-05 1.9576163e-05,6.70995776 1.9576163e-05,14.9870345 C1.9576163e-05,23.2641112 6.70485541,29.9741081 14.9757843,29.9741081 C23.2466153,29.9741081 29.951549,23.2641112 29.951549,14.9870345 C29.951549,11.0107581 28.403466,7.39662041 25.8784346,4.71383628" id="Fill-15" fill="#627793" mask="url(#mask-4)"></path>
            </g>
        </g>
        <g id="Page-1-Copy-2">
            <path d="M40.1633468,14.6993316 L41.0665909,14.6993316 C43.2886812,14.6993316 44.3990412,13.8418359 44.3990412,12.1260609 C44.3990412,10.4669037 43.2536399,9.63712915 40.9631309,9.63712915 L40.1633468,9.63712915 L40.1633468,14.6993316 Z M40.1633468,16.9494497 L40.1633468,23.4810711 L37.7447118,23.4810711 L37.7447118,7.39739426 L40.4853746,7.39739426 C41.8281037,7.39739426 42.8424426,7.49084307 43.5274125,7.67813251 C44.2192341,7.86610764 44.8287379,8.21982217 45.3548473,8.74084338 C46.2748291,9.64379007 46.7358477,10.7827097 46.7358477,12.1573084 C46.7358477,13.6298619 46.2438988,14.7969925 45.261469,15.6576228 C44.2777668,16.5188407 42.9534394,16.9494497 41.2848651,16.9494497 L40.1633468,16.9494497 Z" id="Fill-1" fill="#627793"></path>
            <path d="M52.894166,15.392185 C52.894166,17.16879 53.4889878,18.6294909 54.6791206,19.7744837 C55.8631848,20.9194766 57.2295031,21.491826 58.7804246,21.491826 C60.4630937,21.491826 61.8808973,20.9084077 63.0361846,19.7431382 C64.1927443,18.5630776 64.7708284,17.1269633 64.7708284,15.4339137 C64.7708284,13.7201957 64.2002811,12.2840815 63.0577184,11.1248852 C61.9226924,9.95961571 60.5178091,9.37658916 58.8425789,9.37658916 C57.1742004,9.37658916 55.7661849,9.95961571 54.6165747,11.1248852 C53.4680413,12.2765389 52.894166,13.6992334 52.894166,15.392185 M50.4541931,15.3658352 C50.4541931,13.1021994 51.2807966,11.1579939 52.9349823,9.532729 C54.5821207,7.9079539 56.5620538,7.09453782 58.8740966,7.09453782 C61.1579496,7.09453782 63.1166426,7.91471278 64.7503713,9.55359336 C66.391441,11.1930617 67.2108013,13.1617558 67.2108013,15.4597738 C67.2108013,17.7725829 66.3875258,19.7345182 64.7398002,21.3456776 C63.0856144,22.9636938 61.0892373,23.7727019 58.7491028,23.7727019 C56.6789235,23.7727019 54.8214393,23.054204 53.17342,21.6168163 C51.3611567,20.0257376 50.4541931,17.9426323 50.4541931,15.3658352" id="Fill-3" fill="#627793"></path>
            <polygon id="Fill-5" fill="#627793" points="75.476337 16.5329266 70.2435307 7.39737467 73.0254014 7.39737467 76.6910379 13.8245763 80.3663646 7.39737467 83.148431 7.39737467 77.8946783 16.5329266 77.8946783 23.4811495 75.476337 23.4811495"></polygon>
            <polygon id="Fill-7" fill="#627793" points="87.9014647 23.4811103 87.9014647 6.30347502 99.5921535 18.5747538 99.5921535 7.39743344 102.011669 7.39743344 102.011669 24.4602658 90.3208827 12.2206264 90.3208827 23.4811103"></polygon>
            <polygon id="Fill-9" fill="#627793" points="113.827929 9.67881869 113.827929 23.4811299 111.408218 23.4811299 111.408218 9.67881869 107.721831 9.67881869 107.721831 7.39735508 117.502767 7.39735508 117.502767 9.67881869"></polygon>
            <path d="M14.9777223,20.0819636 C12.1612998,20.0819636 9.87783822,17.7970716 9.87783822,14.9782283 C9.87783822,12.1596789 12.1612998,9.87449305 14.9777223,9.87449305 C17.7942428,9.87449305 20.0776064,12.1596789 20.0776064,14.9782283 C20.0776064,17.7970716 17.7942428,20.0819636 14.9777223,20.0819636 M14.9777223,4.20369784 C9.03165857,4.20369784 4.21141995,9.02767442 4.21141995,14.9782283 C4.21141995,20.9288802 9.03165857,25.7527588 14.9777223,25.7527588 C20.9237861,25.7527588 25.7441226,20.9288802 25.7441226,14.9782283 C25.7441226,13.0291251 25.2268225,11.200898 24.3224037,9.62353304 L25.8798833,4.70669538 C25.6404668,4.43927897 25.4129918,4.22965584 25.2443431,4.08644603 L20.3501066,5.63912645 C18.7689399,4.72618837 16.9343598,4.20369784 14.9777223,4.20369784" id="Fill-11" fill="#FEFEFE"></path>
            <path d="M20.0706373,14.9766904 C20.0706373,17.7954358 17.7872737,20.0803278 14.9707532,20.0803278 C12.1542328,20.0803278 9.8708691,17.7954358 9.8708691,14.9766904 C9.8708691,12.1580431 12.1542328,9.87295516 14.9707532,9.87295516 C17.7872737,9.87295516 20.0706373,12.1580431 20.0706373,14.9766904" id="Fill-13" fill="#375270"></path>
            <g id="Group-17">
                <mask id="mask-6" fill="white">
                    <use xlink:href="#path-5"></use>
                </mask>
                <g id="Clip-16"></g>
                <path d="M25.8784346,4.71383628 L24.3203678,9.63243712 C25.2247866,11.2097042 25.7420867,13.0379313 25.7420867,14.9870345 C25.7420867,20.9375884 20.921848,25.761565 14.9757843,25.761565 C9.02972053,25.761565 4.20938403,20.9375884 4.20938403,14.9870345 C4.20938403,9.0365785 9.02972053,4.21260192 14.9757843,4.21260192 C16.9323239,4.21260192 18.7670019,4.7349945 20.3481686,5.64803053 L25.2567936,4.09064829 C22.5744677,1.55499215 18.9566949,-3.91818919e-05 14.9757843,-3.91818919e-05 C6.70485541,-3.91818919e-05 1.9576163e-05,6.70995776 1.9576163e-05,14.9870345 C1.9576163e-05,23.2641112 6.70485541,29.9741081 14.9757843,29.9741081 C23.2466153,29.9741081 29.951549,23.2641112 29.951549,14.9870345 C29.951549,11.0107581 28.403466,7.39662041 25.8784346,4.71383628" id="Fill-15" fill="#627793" mask="url(#mask-6)"></path>
            </g>
        </g>
    </g>
</svg>