<?xml version="1.0" encoding="UTF-8"?>
<svg width="706px" height="77px" viewBox="0 0 706 77" version="1.1" xmlns="http://www.w3.org/2000/svg" xmlns:xlink="http://www.w3.org/1999/xlink">
    <title>SevenRooms_Black_Logo_Thick</title>
    <g id="Page-1" stroke="none" stroke-width="1" fill="none" fill-rule="evenodd">
        <g id="SevenRooms_Black_Logo_Thick" transform="translate(2.000000, 1.000000)">
            <polygon id="Fill-1" fill="#1A1919" points="160.6181 73.5206 124.2601 1.3266 164.9991 1.3266 163.0371 5.3266 130.7521 5.3266 160.6201 64.6326 172.9991 40.0866 177.4801 40.0866"></polygon>
            <polygon id="Stroke-2" stroke="#1A1919" stroke-width="2" points="160.6181 73.5206 124.2601 1.3266 164.9991 1.3266 163.0371 5.3266 130.7521 5.3266 160.6201 64.6326 172.9991 40.0866 177.4801 40.0866"></polygon>
            <polygon id="Fill-3" fill="#1A1919" points="181.5197 32.0764 177.0397 32.0764 190.5297 5.3264 172.4997 5.3264 174.5147 1.3264 197.0277 1.3264"></polygon>
            <polygon id="Stroke-4" stroke="#1A1919" stroke-width="2" points="181.5197 32.0764 177.0397 32.0764 190.5297 5.3264 172.4997 5.3264 174.5147 1.3264 197.0277 1.3264"></polygon>
            <g id="Group-41" transform="translate(0.000000, 0.333300)">
                <path d="M44.1313,11.0373 C41.5603,8.0273 38.8823,5.9683 36.0983,4.8543 C33.3123,3.7423 29.9933,3.1863 26.1383,3.1863 C22.4033,3.1863 19.2063,3.5793 16.5443,4.3633 C13.8813,5.1473 11.6933,6.2763 9.9803,7.7493 C8.2653,9.2213 7.0113,10.9723 6.2163,12.9993 C5.4203,15.0273 5.0223,17.3163 5.0223,19.8683 C5.0223,22.3553 5.4203,24.4313 6.2163,26.1003 C7.0113,27.7683 8.2363,29.1773 9.8873,30.3203 C11.5403,31.4663 13.6663,32.4463 16.2683,33.2643 C18.8693,34.0833 21.9753,34.8833 25.5863,35.6693 C29.1973,36.4533 32.4723,37.3043 35.4103,38.2193 C38.3473,39.1373 40.8403,40.2803 42.8923,41.6553 C44.9413,43.0273 46.5173,44.7303 47.6203,46.7573 C48.7213,48.7873 49.2723,51.3373 49.2723,54.4123 C49.2723,60.1033 47.2363,64.4553 43.1673,67.4643 C39.0963,70.4743 33.4813,71.9793 26.3213,71.9793 C21.0563,71.9793 16.3903,71.1123 12.3203,69.3773 C8.2503,67.6453 4.4723,64.9123 0.9833,61.1823 L2.3603,59.9073 C5.6653,63.5733 9.2603,66.2213 13.1473,67.8573 C17.0323,69.4923 21.4553,70.3113 26.4133,70.3113 C32.8993,70.3113 38.0263,69.0183 41.7903,66.4343 C45.5533,63.8493 47.4363,59.9423 47.4363,54.7063 C47.4363,52.0903 47.0073,49.8823 46.1513,48.0823 C45.2933,46.2833 43.9773,44.7303 42.2033,43.4203 C40.4273,42.1133 38.1643,41.0013 35.4103,40.0843 C32.6553,39.1703 29.4103,38.3183 25.6783,37.5323 C22.0663,36.8133 18.8693,36.0453 16.0843,35.2263 C13.2993,34.4093 10.9443,33.3623 9.0163,32.0853 C7.0883,30.8103 5.6333,29.2073 4.6553,27.2773 C3.6753,25.3483 3.1863,22.9443 3.1863,20.0643 C3.1863,17.0553 3.7213,14.3903 4.7933,12.0673 C5.8633,9.7453 7.3933,7.7833 9.3833,6.1793 C11.3713,4.5763 13.7583,3.3663 16.5443,2.5473 C19.3283,1.7303 22.4653,1.3203 25.9543,1.3203 C30.1153,1.3203 33.7413,1.9593 36.8323,3.2343 C39.9223,4.5113 42.7543,6.6543 45.3243,9.6623 L44.1313,11.0373 Z" id="Fill-5" fill="#1A1919"></path>
                <path d="M44.1313,11.0373 C41.5603,8.0273 38.8823,5.9683 36.0983,4.8543 C33.3123,3.7423 29.9933,3.1863 26.1383,3.1863 C22.4033,3.1863 19.2063,3.5793 16.5443,4.3633 C13.8813,5.1473 11.6933,6.2763 9.9803,7.7493 C8.2653,9.2213 7.0113,10.9723 6.2163,12.9993 C5.4203,15.0273 5.0223,17.3163 5.0223,19.8683 C5.0223,22.3553 5.4203,24.4313 6.2163,26.1003 C7.0113,27.7683 8.2363,29.1773 9.8873,30.3203 C11.5403,31.4663 13.6663,32.4463 16.2683,33.2643 C18.8693,34.0833 21.9753,34.8833 25.5863,35.6693 C29.1973,36.4533 32.4723,37.3043 35.4103,38.2193 C38.3473,39.1373 40.8403,40.2803 42.8923,41.6553 C44.9413,43.0273 46.5173,44.7303 47.6203,46.7573 C48.7213,48.7873 49.2723,51.3373 49.2723,54.4123 C49.2723,60.1033 47.2363,64.4553 43.1673,67.4643 C39.0963,70.4743 33.4813,71.9793 26.3213,71.9793 C21.0563,71.9793 16.3903,71.1123 12.3203,69.3773 C8.2503,67.6453 4.4723,64.9123 0.9833,61.1823 L2.3603,59.9073 C5.6653,63.5733 9.2603,66.2213 13.1473,67.8573 C17.0323,69.4923 21.4553,70.3113 26.4133,70.3113 C32.8993,70.3113 38.0263,69.0183 41.7903,66.4343 C45.5533,63.8493 47.4363,59.9423 47.4363,54.7063 C47.4363,52.0903 47.0073,49.8823 46.1513,48.0823 C45.2933,46.2833 43.9773,44.7303 42.2033,43.4203 C40.4273,42.1133 38.1643,41.0013 35.4103,40.0843 C32.6553,39.1703 29.4103,38.3183 25.6783,37.5323 C22.0663,36.8133 18.8693,36.0453 16.0843,35.2263 C13.2993,34.4093 10.9443,33.3623 9.0163,32.0853 C7.0883,30.8103 5.6333,29.2073 4.6553,27.2773 C3.6753,25.3483 3.1863,22.9443 3.1863,20.0643 C3.1863,17.0553 3.7213,14.3903 4.7933,12.0673 C5.8633,9.7453 7.3933,7.7833 9.3833,6.1793 C11.3713,4.5763 13.7583,3.3663 16.5443,2.5473 C19.3283,1.7303 22.4653,1.3203 25.9543,1.3203 C30.1153,1.3203 33.7413,1.9593 36.8323,3.2343 C39.9223,4.5113 42.7543,6.6543 45.3243,9.6623 L44.1313,11.0373 Z" id="Stroke-7" stroke="#1A1919" stroke-width="4"></path>
                <polygon id="Fill-9" fill="#1A1919" points="110.722 69.176 110.722 71.118 65.477 71.118 65.477 2.181 110.722 2.181 110.722 4.124 67.418 4.124 67.418 34.902 104.605 34.902 104.605 36.844 67.418 36.844 67.418 69.176"></polygon>
                <polygon id="Stroke-11" stroke="#1A1919" stroke-width="4" points="110.722 69.176 110.722 71.118 65.477 71.118 65.477 2.181 110.722 2.181 110.722 4.124 67.418 4.124 67.418 34.902 104.605 34.902 104.605 36.844 67.418 36.844 67.418 69.176"></polygon>
                <polygon id="Fill-13" fill="#1A1919" points="255.8019 69.176 255.8019 71.118 210.5569 71.118 210.5569 2.181 255.8019 2.181 255.8019 4.124 212.4979 4.124 212.4979 34.902 249.6849 34.902 249.6849 36.844 212.4979 36.844 212.4979 69.176"></polygon>
                <polygon id="Stroke-15" stroke="#1A1919" stroke-width="4" points="255.8019 69.176 255.8019 71.118 210.5569 71.118 210.5569 2.181 255.8019 2.181 255.8019 4.124 212.4979 4.124 212.4979 34.902 249.6849 34.902 249.6849 36.844 212.4979 36.844 212.4979 69.176"></polygon>
                <polygon id="Fill-17" fill="#1A1919" points="274.0249 5.9675 274.0249 71.1185 272.0829 71.1185 272.0829 2.1815 273.5399 2.1815 326.2619 68.3015 326.2619 2.2775 328.2039 2.2775 328.2039 71.1185 325.9699 71.1185"></polygon>
                <polygon id="Stroke-19" stroke="#1A1919" stroke-width="4" points="274.0249 5.9675 274.0249 71.1185 272.0829 71.1185 272.0829 2.1815 273.5399 2.1815 326.2619 68.3015 326.2619 2.2775 328.2039 2.2775 328.2039 71.1185 325.9699 71.1185"></polygon>
                <path d="M351.1852,34.7484 L377.9832,34.7484 C380.5722,34.7484 382.9012,34.3004 384.9742,33.4034 C387.0452,32.5064 388.8092,31.3334 390.2652,29.8814 C391.7222,28.4314 392.8382,26.7824 393.6152,24.9354 C394.3922,23.0894 394.7812,21.1904 394.7812,19.2374 C394.7812,17.2324 394.3272,15.3074 393.4212,13.4604 C392.5142,11.6144 391.2692,9.9784 389.6832,8.5544 C388.0962,7.1304 386.2362,5.9814 384.1002,5.1114 C381.9642,4.2404 379.6972,3.8064 377.3032,3.8064 L351.1852,3.8064 L351.1852,34.7484 Z M349.2432,71.1604 L349.2432,2.2224 L377.3032,2.2224 C380.0862,2.2224 382.6752,2.7114 385.0712,3.6874 C387.4652,4.6644 389.5212,5.9564 391.2362,7.5644 C392.9502,9.1744 394.2952,10.9954 395.2662,13.0254 C396.2372,15.0574 396.7222,17.1274 396.7222,19.2374 C396.7222,21.4004 396.3002,23.4854 395.4602,25.4884 C394.6182,27.4954 393.4212,29.2754 391.8682,30.8304 C390.3142,32.3874 388.4532,33.6534 386.2842,34.6294 C384.1152,35.6064 381.7372,36.1724 379.1482,36.3304 L398.8212,71.1604 L396.5712,71.1604 L376.8182,36.6914 L351.1852,36.6914 L351.1852,71.1604 L349.2432,71.1604 Z" id="Fill-21" fill="#1A1919"></path>
                <path d="M351.1852,34.7484 L377.9832,34.7484 C380.5722,34.7484 382.9012,34.3004 384.9742,33.4034 C387.0452,32.5064 388.8092,31.3334 390.2652,29.8814 C391.7222,28.4314 392.8382,26.7824 393.6152,24.9354 C394.3922,23.0894 394.7812,21.1904 394.7812,19.2374 C394.7812,17.2324 394.3272,15.3074 393.4212,13.4604 C392.5142,11.6144 391.2692,9.9784 389.6832,8.5544 C388.0962,7.1304 386.2362,5.9814 384.1002,5.1114 C381.9642,4.2404 379.6972,3.8064 377.3032,3.8064 L351.1852,3.8064 L351.1852,34.7484 Z M349.2432,71.1604 L349.2432,2.2224 L377.3032,2.2224 C380.0862,2.2224 382.6752,2.7114 385.0712,3.6874 C387.4652,4.6644 389.5212,5.9564 391.2362,7.5644 C392.9502,9.1744 394.2952,10.9954 395.2662,13.0254 C396.2372,15.0574 396.7222,17.1274 396.7222,19.2374 C396.7222,21.4004 396.3002,23.4854 395.4602,25.4884 C394.6182,27.4954 393.4212,29.2754 391.8682,30.8304 C390.3142,32.3874 388.4532,33.6534 386.2842,34.6294 C384.1152,35.6064 381.7372,36.1724 379.1482,36.3304 L398.8212,71.1604 L396.5712,71.1604 L376.8182,36.6914 L351.1852,36.6914 L351.1852,71.1604 L349.2432,71.1604 Z" id="Stroke-23" stroke="#1A1919" stroke-width="4"></path>
                <path d="M412.4971,36.6316 C412.4971,40.8386 413.2451,44.9006 414.7431,48.8186 C416.2391,52.7376 418.2941,56.2116 420.9081,59.2366 C423.5191,62.2656 426.6441,64.6706 430.2751,66.4536 C433.9081,68.2386 437.8901,69.1296 442.2221,69.1296 C446.6181,69.1296 450.6501,68.1906 454.3141,66.3096 C457.9771,64.4316 461.1001,61.9606 463.6811,58.9026 C466.2611,55.8436 468.2671,52.3716 469.7011,48.4836 C471.1351,44.5976 471.8541,40.6466 471.8541,36.6316 C471.8541,32.4266 471.1021,28.3646 469.6081,24.4466 C468.1101,20.5266 466.0211,17.0556 463.3461,14.0286 C460.6691,11.0016 457.5301,8.5966 453.9331,6.8106 C450.3291,5.0276 446.4281,4.1346 442.2221,4.1346 C437.8261,4.1346 433.7951,5.0756 430.1311,6.9546 C426.4671,8.8356 423.3281,11.3036 420.7161,14.3626 C418.1031,17.4216 416.0811,20.8946 414.6471,24.7806 C413.2141,28.6666 412.4971,32.6186 412.4971,36.6316 M442.2221,71.0416 C437.5051,71.0416 433.2201,70.0546 429.3651,68.0786 C425.5111,66.1046 422.1811,63.5236 419.3781,60.3366 C416.5741,57.1506 414.4081,53.4886 412.8791,49.3446 C411.3501,45.2026 410.5851,40.9656 410.5851,36.6316 C410.5851,32.1086 411.3981,27.7766 413.0231,23.6326 C414.6471,19.4926 416.8771,15.8286 419.7141,12.6406 C422.5481,9.4566 425.8921,6.9226 429.7501,5.0426 C433.6041,3.1636 437.7631,2.2226 442.2221,2.2226 C446.8721,2.2226 451.1411,3.2276 455.0291,5.2346 C458.9171,7.2406 462.2461,9.8696 465.0181,13.1196 C467.7891,16.3706 469.9421,20.0486 471.4701,24.1596 C473.0011,28.2696 473.7631,32.4266 473.7631,36.6316 C473.7631,41.2196 472.9501,45.5856 471.3261,49.7276 C469.7011,53.8696 467.4711,57.5166 464.6371,60.6706 C461.7981,63.8246 458.4721,66.3436 454.6481,68.2226 C450.8241,70.1026 446.6821,71.0416 442.2221,71.0416" id="Fill-25" fill="#1A1919"></path>
                <path d="M412.4971,36.6316 C412.4971,40.8386 413.2451,44.9006 414.7431,48.8186 C416.2391,52.7376 418.2941,56.2116 420.9081,59.2366 C423.5191,62.2656 426.6441,64.6706 430.2751,66.4536 C433.9081,68.2386 437.8901,69.1296 442.2221,69.1296 C446.6181,69.1296 450.6501,68.1906 454.3141,66.3096 C457.9771,64.4316 461.1001,61.9606 463.6811,58.9026 C466.2611,55.8436 468.2671,52.3716 469.7011,48.4836 C471.1351,44.5976 471.8541,40.6466 471.8541,36.6316 C471.8541,32.4266 471.1021,28.3646 469.6081,24.4466 C468.1101,20.5266 466.0211,17.0556 463.3461,14.0286 C460.6691,11.0016 457.5301,8.5966 453.9331,6.8106 C450.3291,5.0276 446.4281,4.1346 442.2221,4.1346 C437.8261,4.1346 433.7951,5.0756 430.1311,6.9546 C426.4671,8.8356 423.3281,11.3036 420.7161,14.3626 C418.1031,17.4216 416.0811,20.8946 414.6471,24.7806 C413.2141,28.6666 412.4971,32.6186 412.4971,36.6316 Z M442.2221,71.0416 C437.5051,71.0416 433.2201,70.0546 429.3651,68.0786 C425.5111,66.1046 422.1811,63.5236 419.3781,60.3366 C416.5741,57.1506 414.4081,53.4886 412.8791,49.3446 C411.3501,45.2026 410.5851,40.9656 410.5851,36.6316 C410.5851,32.1086 411.3981,27.7766 413.0231,23.6326 C414.6471,19.4926 416.8771,15.8286 419.7141,12.6406 C422.5481,9.4566 425.8921,6.9226 429.7501,5.0426 C433.6041,3.1636 437.7631,2.2226 442.2221,2.2226 C446.8721,2.2226 451.1411,3.2276 455.0291,5.2346 C458.9171,7.2406 462.2461,9.8696 465.0181,13.1196 C467.7891,16.3706 469.9421,20.0486 471.4701,24.1596 C473.0011,28.2696 473.7631,32.4266 473.7631,36.6316 C473.7631,41.2196 472.9501,45.5856 471.3261,49.7276 C469.7011,53.8696 467.4711,57.5166 464.6371,60.6706 C461.7981,63.8246 458.4721,66.3436 454.6481,68.2226 C450.8241,70.1026 446.6821,71.0416 442.2221,71.0416 Z" id="Stroke-27" stroke="#1A1919" stroke-width="4"></path>
                <path d="M490.8333,36.6316 C490.8333,40.8386 491.5813,44.9006 493.0793,48.8186 C494.5753,52.7376 496.6303,56.2116 499.2443,59.2366 C501.8553,62.2656 504.9803,64.6706 508.6113,66.4536 C512.2443,68.2386 516.2263,69.1296 520.5583,69.1296 C524.9543,69.1296 528.9863,68.1906 532.6503,66.3096 C536.3133,64.4316 539.4363,61.9606 542.0173,58.9026 C544.5973,55.8436 546.6033,52.3716 548.0373,48.4836 C549.4713,44.5976 550.1903,40.6466 550.1903,36.6316 C550.1903,32.4266 549.4383,28.3646 547.9443,24.4466 C546.4463,20.5266 544.3573,17.0556 541.6823,14.0286 C539.0053,11.0016 535.8663,8.5966 532.2693,6.8106 C528.6653,5.0276 524.7643,4.1346 520.5583,4.1346 C516.1623,4.1346 512.1313,5.0756 508.4673,6.9546 C504.8033,8.8356 501.6643,11.3036 499.0523,14.3626 C496.4393,17.4216 494.4173,20.8946 492.9833,24.7806 C491.5503,28.6666 490.8333,32.6186 490.8333,36.6316 M520.5583,71.0416 C515.8413,71.0416 511.5563,70.0546 507.7013,68.0786 C503.8473,66.1046 500.5173,63.5236 497.7143,60.3366 C494.9103,57.1506 492.7443,53.4886 491.2153,49.3446 C489.6863,45.2026 488.9213,40.9656 488.9213,36.6316 C488.9213,32.1086 489.7343,27.7766 491.3593,23.6326 C492.9833,19.4926 495.2133,15.8286 498.0503,12.6406 C500.8843,9.4566 504.2283,6.9226 508.0863,5.0426 C511.9403,3.1636 516.0993,2.2226 520.5583,2.2226 C525.2083,2.2226 529.4773,3.2276 533.3653,5.2346 C537.2533,7.2406 540.5823,9.8696 543.3543,13.1196 C546.1253,16.3706 548.2783,20.0486 549.8063,24.1596 C551.3373,28.2696 552.0993,32.4266 552.0993,36.6316 C552.0993,41.2196 551.2873,45.5856 549.6623,49.7276 C548.0373,53.8696 545.8073,57.5166 542.9733,60.6706 C540.1343,63.8246 536.8083,66.3436 532.9843,68.2226 C529.1603,70.1026 525.0183,71.0416 520.5583,71.0416" id="Fill-29" fill="#1A1919"></path>
                <path d="M490.8333,36.6316 C490.8333,40.8386 491.5813,44.9006 493.0793,48.8186 C494.5753,52.7376 496.6303,56.2116 499.2443,59.2366 C501.8553,62.2656 504.9803,64.6706 508.6113,66.4536 C512.2443,68.2386 516.2263,69.1296 520.5583,69.1296 C524.9543,69.1296 528.9863,68.1906 532.6503,66.3096 C536.3133,64.4316 539.4363,61.9606 542.0173,58.9026 C544.5973,55.8436 546.6033,52.3716 548.0373,48.4836 C549.4713,44.5976 550.1903,40.6466 550.1903,36.6316 C550.1903,32.4266 549.4383,28.3646 547.9443,24.4466 C546.4463,20.5266 544.3573,17.0556 541.6823,14.0286 C539.0053,11.0016 535.8663,8.5966 532.2693,6.8106 C528.6653,5.0276 524.7643,4.1346 520.5583,4.1346 C516.1623,4.1346 512.1313,5.0756 508.4673,6.9546 C504.8033,8.8356 501.6643,11.3036 499.0523,14.3626 C496.4393,17.4216 494.4173,20.8946 492.9833,24.7806 C491.5503,28.6666 490.8333,32.6186 490.8333,36.6316 Z M520.5583,71.0416 C515.8413,71.0416 511.5563,70.0546 507.7013,68.0786 C503.8473,66.1046 500.5173,63.5236 497.7143,60.3366 C494.9103,57.1506 492.7443,53.4886 491.2153,49.3446 C489.6863,45.2026 488.9213,40.9656 488.9213,36.6316 C488.9213,32.1086 489.7343,27.7766 491.3593,23.6326 C492.9833,19.4926 495.2133,15.8286 498.0503,12.6406 C500.8843,9.4566 504.2283,6.9226 508.0863,5.0426 C511.9403,3.1636 516.0993,2.2226 520.5583,2.2226 C525.2083,2.2226 529.4773,3.2276 533.3653,5.2346 C537.2533,7.2406 540.5823,9.8696 543.3543,13.1196 C546.1253,16.3706 548.2783,20.0486 549.8063,24.1596 C551.3373,28.2696 552.0993,32.4266 552.0993,36.6316 C552.0993,41.2196 551.2873,45.5856 549.6623,49.7276 C548.0373,53.8696 545.8073,57.5166 542.9733,60.6706 C540.1343,63.8246 536.8083,66.3436 532.9843,68.2226 C529.1603,70.1026 525.0183,71.0416 520.5583,71.0416 Z" id="Stroke-31" stroke="#1A1919" stroke-width="4"></path>
                <polygon id="Fill-33" fill="#1A1919" points="635.4224 71.0883 635.4994 8.3333 602.9214 70.4773 570.5004 8.4163 570.4494 71.1183 568.5084 71.1183 568.5084 2.1813 570.0624 2.1813 602.9214 66.9463 635.8114 2.2213 637.3654 2.2213 637.3654 71.0883"></polygon>
                <polygon id="Stroke-35" stroke="#1A1919" stroke-width="4" points="635.4224 71.0883 635.4994 8.3333 602.9214 70.4773 570.5004 8.4163 570.4494 71.1183 568.5084 71.1183 568.5084 2.1813 570.0624 2.1813 602.9214 66.9463 635.8114 2.2213 637.3654 2.2213 637.3654 71.0883"></polygon>
                <path d="M696.6112,10.6601 C694.0402,7.6501 691.3622,5.5911 688.5772,4.4771 C685.7922,3.3651 682.4732,2.8091 678.6182,2.8091 C674.8832,2.8091 671.6862,3.2021 669.0242,3.9861 C666.3612,4.7701 664.1732,5.8991 662.4602,7.3721 C660.7452,8.8441 659.4912,10.5951 658.6962,12.6221 C657.9002,14.6501 657.5022,16.9391 657.5022,19.4911 C657.5022,21.9781 657.9002,24.0541 658.6962,25.7231 C659.4912,27.3911 660.7152,28.8001 662.3672,29.9431 C664.0202,31.0891 666.1462,32.0691 668.7482,32.8871 C671.3492,33.7061 674.4552,34.5061 678.0662,35.2921 C681.6772,36.0761 684.9522,36.9271 687.8902,37.8421 C690.8272,38.7601 693.3202,39.9031 695.3722,41.2781 C697.4212,42.6501 698.9972,44.3531 700.1002,46.3801 C701.2012,48.4101 701.7522,50.9601 701.7522,54.0351 C701.7522,59.7261 699.7162,64.0781 695.6472,67.0871 C691.5762,70.0971 685.9612,71.6021 678.8012,71.6021 C673.5362,71.6021 668.8702,70.7351 664.8012,69.0001 C660.7302,67.2681 656.9522,64.5351 653.4632,60.8051 L654.8402,59.5301 C658.1452,63.1961 661.7402,65.8441 665.6272,67.4801 C669.5122,69.1151 673.9352,69.9341 678.8932,69.9341 C685.3792,69.9341 690.5062,68.6411 694.2702,66.0571 C698.0332,63.4721 699.9162,59.5651 699.9162,54.3291 C699.9162,51.7131 699.4872,49.5051 698.6312,47.7051 C697.7722,45.9061 696.4572,44.3531 694.6832,43.0431 C692.9072,41.7361 690.6442,40.6241 687.8902,39.7071 C685.1352,38.7931 681.8902,37.9411 678.1582,37.1551 C674.5462,36.4361 671.3492,35.6681 668.5642,34.8491 C665.7792,34.0321 663.4242,32.9851 661.4962,31.7081 C659.5682,30.4331 658.1132,28.8301 657.1352,26.9001 C656.1552,24.9711 655.6662,22.5671 655.6662,19.6871 C655.6662,16.6781 656.2012,14.0131 657.2732,11.6901 C658.3432,9.3681 659.8742,7.4061 661.8632,5.8021 C663.8512,4.1991 666.2382,2.9891 669.0242,2.1701 C671.8082,1.3531 674.9452,0.9431 678.4342,0.9431 C682.5952,0.9431 686.2212,1.5821 689.3122,2.8571 C692.4022,4.1341 695.2342,6.2771 697.8042,9.2851 L696.6112,10.6601 Z" id="Fill-37" fill="#1A1919"></path>
                <path d="M696.6112,10.6601 C694.0402,7.6501 691.3622,5.5911 688.5772,4.4771 C685.7922,3.3651 682.4732,2.8091 678.6182,2.8091 C674.8832,2.8091 671.6862,3.2021 669.0242,3.9861 C666.3612,4.7701 664.1732,5.8991 662.4602,7.3721 C660.7452,8.8441 659.4912,10.5951 658.6962,12.6221 C657.9002,14.6501 657.5022,16.9391 657.5022,19.4911 C657.5022,21.9781 657.9002,24.0541 658.6962,25.7231 C659.4912,27.3911 660.7152,28.8001 662.3672,29.9431 C664.0202,31.0891 666.1462,32.0691 668.7482,32.8871 C671.3492,33.7061 674.4552,34.5061 678.0662,35.2921 C681.6772,36.0761 684.9522,36.9271 687.8902,37.8421 C690.8272,38.7601 693.3202,39.9031 695.3722,41.2781 C697.4212,42.6501 698.9972,44.3531 700.1002,46.3801 C701.2012,48.4101 701.7522,50.9601 701.7522,54.0351 C701.7522,59.7261 699.7162,64.0781 695.6472,67.0871 C691.5762,70.0971 685.9612,71.6021 678.8012,71.6021 C673.5362,71.6021 668.8702,70.7351 664.8012,69.0001 C660.7302,67.2681 656.9522,64.5351 653.4632,60.8051 L654.8402,59.5301 C658.1452,63.1961 661.7402,65.8441 665.6272,67.4801 C669.5122,69.1151 673.9352,69.9341 678.8932,69.9341 C685.3792,69.9341 690.5062,68.6411 694.2702,66.0571 C698.0332,63.4721 699.9162,59.5651 699.9162,54.3291 C699.9162,51.7131 699.4872,49.5051 698.6312,47.7051 C697.7722,45.9061 696.4572,44.3531 694.6832,43.0431 C692.9072,41.7361 690.6442,40.6241 687.8902,39.7071 C685.1352,38.7931 681.8902,37.9411 678.1582,37.1551 C674.5462,36.4361 671.3492,35.6681 668.5642,34.8491 C665.7792,34.0321 663.4242,32.9851 661.4962,31.7081 C659.5682,30.4331 658.1132,28.8301 657.1352,26.9001 C656.1552,24.9711 655.6662,22.5671 655.6662,19.6871 C655.6662,16.6781 656.2012,14.0131 657.2732,11.6901 C658.3432,9.3681 659.8742,7.4061 661.8632,5.8021 C663.8512,4.1991 666.2382,2.9891 669.0242,2.1701 C671.8082,1.3531 674.9452,0.9431 678.4342,0.9431 C682.5952,0.9431 686.2212,1.5821 689.3122,2.8571 C692.4022,4.1341 695.2342,6.2771 697.8042,9.2851 L696.6112,10.6601 Z" id="Stroke-39" stroke="#1A1919" stroke-width="4"></path>
            </g>
        </g>
    </g>
</svg>