<?xml version="1.0" encoding="UTF-8"?>
<svg width="118px" height="19px" viewBox="0 0 118 19" version="1.1" xmlns="http://www.w3.org/2000/svg" xmlns:xlink="http://www.w3.org/1999/xlink">
    <title>vmw-logo-vmware-logo-grey</title>
    <g id="Page-1" stroke="none" stroke-width="1" fill="none" fill-rule="evenodd">
        <g id="vmw-logo-vmware-logo-grey" fill="#727174" fill-rule="nonzero">
            <path d="M50.7838843,16.7979339 L45.6152893,2.43801653 C45.5421488,2.24297521 45.4446281,1.97479339 45.4446281,1.7553719 C45.4446281,1.1214876 45.9809917,0.536363636 46.7367769,0.536363636 C47.3950413,0.536363636 47.8338843,0.975206612 48.0289256,1.58471074 L52.2954545,13.9698347 L56.6107438,1.56033058 C56.8057851,0.975206612 57.1958678,0.536363636 57.8541322,0.536363636 L57.9760331,0.536363636 C58.6586777,0.536363636 59.0975207,0.975206612 59.292562,1.56033058 L63.5590909,13.9698347 L67.8987603,1.51157025 C68.0694215,0.975206612 68.435124,0.536363636 69.1177686,0.536363636 C69.8491736,0.536363636 70.361157,1.09710744 70.361157,1.73099174 C70.361157,1.95041322 70.2636364,2.21859504 70.1904959,2.41363636 L64.9975207,16.822314 C64.7293388,17.5780992 64.2173554,17.9681818 63.6078512,17.9681818 L63.5103306,17.9681818 C62.8520661,17.9681818 62.3644628,17.5780992 62.1206612,16.822314 L57.8785124,4.60785124 L53.6363636,16.7979339 C53.4169421,17.553719 52.9049587,17.9438017 52.2466942,17.9438017 L52.1735537,17.9438017 C51.5640496,17.9438017 51.0520661,17.553719 50.7838843,16.7979339" id="Path"></path>
            <path d="M88.4024793,1.77975207 C88.4024793,1.09710744 88.9632231,0.487603306 89.6458678,0.487603306 C90.3772727,0.487603306 90.9380165,1.04834711 90.9380165,1.77975207 L90.9380165,4.7053719 C92.181405,1.87727273 94.9607438,0.536363636 96.7892562,0.536363636 C97.5450413,0.536363636 98.0326446,1.09710744 98.0326446,1.8285124 C98.0326446,2.51115702 97.5694215,3.0231405 96.911157,3.12066116 C93.6198347,3.5107438 90.9136364,5.99752066 90.9136364,10.8979339 L90.9136364,16.6760331 C90.9136364,17.3586777 90.3772727,17.9681818 89.6702479,17.9681818 C88.938843,17.9681818 88.3780992,17.407438 88.3780992,16.6760331 L88.3780992,1.77975207" id="Path"></path>
            <path d="M106.2,18.0657025 C101.616529,18.0657025 97.8619835,14.5061983 97.8619835,9.28884298 L97.8619835,9.21570248 C97.8619835,4.36404959 101.250826,0.438842975 105.858678,0.438842975 C110.783471,0.438842975 113.61157,4.51033058 113.61157,8.97190083 C113.61157,9.65454545 113.050826,10.1421488 112.441322,10.1421488 L100.37314,10.1421488 C100.714463,13.7991736 103.27438,15.8471074 106.24876,15.8471074 C108.321074,15.8471074 109.832645,15.042562 111.051653,13.8966942 C111.246694,13.7260331 111.466116,13.6041322 111.758678,13.6041322 C112.368182,13.6041322 112.855785,14.0917355 112.855785,14.6768595 C112.855785,14.9694215 112.733884,15.2619835 112.465702,15.481405 C110.905372,17.0661157 109.028099,18.0657025 106.2,18.0657025 M111.124793,8.33801653 C110.856612,5.2661157 109.12562,2.60867769 105.809917,2.60867769 C102.908678,2.60867769 100.714463,5.04669421 100.397521,8.33801653 L111.124793,8.33801653 Z" id="Shape"></path>
            <path d="M70.4342975,12.7995868 L70.4342975,12.7264463 C70.4342975,9.14256198 73.3842975,7.24090909 77.6995868,7.24090909 C79.8694215,7.24090909 81.4053719,7.53347107 82.9169421,7.97231405 L82.9169421,7.38719008 C82.9169421,4.33966942 81.0396694,2.75495868 77.8702479,2.75495868 C76.1636364,2.75495868 75.1640496,2.97438017 73.9206612,3.53512397 C73.75,3.60826446 73.5793388,3.63264463 73.457438,3.63264463 C72.872314,3.63264463 72.3359504,3.14504132 72.3359504,2.55991736 C72.3359504,2.02355372 72.5553719,1.70661157 73.018595,1.51157025 C74.7008264,0.780165289 75.9442149,0.536363636 78.1140496,0.536363636 C80.5033058,0.536363636 82.3561983,1.14586777 83.5995868,2.41363636 C84.7454545,3.55950413 85.3305785,5.19297521 85.3305785,7.36280992 L85.3305785,16.7247934 C85.3305785,17.4561983 84.7942149,17.9681818 84.1115702,17.9681818 C83.3801653,17.9681818 82.892562,17.4318182 82.892562,16.7735537 L82.892562,15.1644628 C81.6979339,16.7004132 79.7475207,18.0900826 76.7487603,18.0900826 C73.6280992,18.0900826 70.4342975,16.2859504 70.4342975,12.7995868 M82.9413223,11.4830579 L82.9413223,9.84958678 C81.6979339,9.4838843 80.0157025,9.11818182 77.9433884,9.11818182 C74.7739669,9.11818182 72.9942149,10.5078512 72.9942149,12.6289256 L72.9942149,12.7020661 C72.9942149,14.8231405 74.9690083,16.0909091 77.2607438,16.0909091 C80.381405,16.0909091 82.9413223,14.164876 82.9413223,11.4830579" id="Shape"></path>
            <path d="M4.7785124,1.58471074 C4.2177686,0.365702479 2.85247934,-0.195041322 1.56033058,0.390082645 C0.268181818,0.950826446 -0.195041322,2.3892562 0.390082645,3.60826446 L5.77809917,15.3107438 C6.63140496,17.1392562 7.50909091,18.1144628 9.19132231,18.1144628 C10.9710744,18.1144628 11.7512397,17.0661157 12.6045455,15.3107438 C12.6045455,15.3107438 17.3099174,5.07107438 17.3586777,4.97355372 C17.407438,4.85165289 17.553719,4.53471074 18.0413223,4.53471074 C18.4557851,4.53471074 18.7971074,4.85165289 18.7971074,5.29049587 L18.7971074,15.3107438 C18.7971074,16.8466942 19.6504132,18.1144628 21.3082645,18.1144628 C22.9417355,18.1144628 23.8438017,16.8466942 23.8438017,15.3107438 L23.8438017,7.11900826 C23.8438017,5.53429752 24.9652893,4.51033058 26.5256198,4.51033058 C28.0615702,4.51033058 29.0855372,5.55867769 29.0855372,7.11900826 L29.0855372,15.3107438 C29.0855372,16.8466942 29.938843,18.1144628 31.5966942,18.1144628 C33.2301653,18.1144628 34.1322314,16.8466942 34.1322314,15.3107438 L34.1322314,7.11900826 C34.1322314,5.53429752 35.253719,4.51033058 36.8140496,4.51033058 C38.35,4.51033058 39.3739669,5.55867769 39.3739669,7.11900826 L39.3739669,15.3107438 C39.3739669,16.8466942 40.2272727,18.1144628 41.885124,18.1144628 C43.518595,18.1144628 44.4206612,16.8466942 44.4206612,15.3107438 L44.4206612,5.9731405 C44.4206612,2.53553719 41.6657025,0.146280992 38.35,0.146280992 C35.0342975,0.146280992 32.9619835,2.43801653 32.9619835,2.43801653 C31.864876,0.999586777 30.3289256,0.146280992 27.7690083,0.146280992 C25.0628099,0.146280992 22.6735537,2.43801653 22.6735537,2.43801653 C21.5764463,0.999586777 19.6991736,0.146280992 18.138843,0.146280992 C15.7252066,0.146280992 13.8235537,1.1946281 12.6533058,3.87644628 L9.21570248,11.9950413 L4.7785124,1.58471074" id="Path"></path>
            <path d="M113.806612,2.60867769 L113.806612,2.60867769 C113.806612,1.43842975 114.733058,0.487603306 115.903306,0.487603306 C117.097934,0.487603306 118,1.43842975 118,2.58429752 L118,2.58429752 C118,3.73016529 117.073554,4.7053719 115.903306,4.7053719 C114.733058,4.7053719 113.806612,3.75454545 113.806612,2.60867769 M117.609917,2.58429752 L117.609917,2.58429752 C117.609917,1.63347107 116.878512,0.853305785 115.903306,0.853305785 C114.952479,0.853305785 114.196694,1.63347107 114.196694,2.58429752 L114.196694,2.60867769 C114.196694,3.55950413 114.928099,4.31528926 115.903306,4.31528926 C116.878512,4.31528926 117.609917,3.5107438 117.609917,2.58429752" id="Shape"></path>
            <path d="M115.12314,1.7553719 C115.12314,1.63347107 115.220661,1.53595041 115.342562,1.53595041 L116.049587,1.53595041 C116.317769,1.53595041 116.51281,1.60909091 116.634711,1.7553719 C116.756612,1.87727273 116.805372,2.02355372 116.805372,2.21859504 L116.805372,2.21859504 C116.805372,2.53553719 116.634711,2.73057851 116.390909,2.82809917 L116.707851,3.19380165 C116.756612,3.24256198 116.780992,3.29132231 116.780992,3.36446281 C116.780992,3.48636364 116.683471,3.55950413 116.56157,3.55950413 C116.46405,3.55950413 116.390909,3.5107438 116.342149,3.43760331 L115.903306,2.8768595 L115.561983,2.8768595 L115.561983,3.31570248 C115.561983,3.43760331 115.464463,3.53512397 115.342562,3.53512397 C115.220661,3.53512397 115.12314,3.43760331 115.12314,3.31570248 L115.12314,1.7553719 Z M116.025207,2.51115702 C116.244628,2.51115702 116.366529,2.3892562 116.366529,2.21859504 L116.366529,2.21859504 C116.366529,2.02355372 116.244628,1.92603306 116.025207,1.92603306 L115.561983,1.92603306 L115.561983,2.51115702 L116.025207,2.51115702 Z" id="Shape"></path>
        </g>
    </g>
</svg>