<svg width="320" height="240" viewBox="0 0 320 240" fill="none" xmlns="http://www.w3.org/2000/svg">
<path d="M113.444 210.256H116.252V223H113.444V210.256Z" fill="#565656"/>
<path d="M118.465 214.252H121.057V215.44H121.093C121.177 215.272 121.297 215.104 121.453 214.936C121.609 214.768 121.795 214.618 122.011 214.486C122.227 214.354 122.473 214.246 122.749 214.162C123.025 214.078 123.325 214.036 123.649 214.036C124.333 214.036 124.885 214.144 125.305 214.36C125.725 214.564 126.049 214.852 126.277 215.224C126.517 215.596 126.679 216.034 126.763 216.538C126.847 217.042 126.889 217.588 126.889 218.176V223H124.189V218.716C124.189 218.464 124.177 218.206 124.153 217.942C124.141 217.666 124.087 217.414 123.991 217.186C123.907 216.958 123.769 216.772 123.577 216.628C123.397 216.484 123.133 216.412 122.785 216.412C122.437 216.412 122.155 216.478 121.939 216.61C121.723 216.73 121.555 216.898 121.435 217.114C121.327 217.318 121.255 217.552 121.219 217.816C121.183 218.08 121.165 218.356 121.165 218.644V223H118.465V214.252Z" fill="#565656"/>
<path d="M129.736 216.412H127.954V214.252H129.736V212.704C129.736 212.224 129.778 211.774 129.862 211.354C129.946 210.922 130.108 210.544 130.348 210.22C130.588 209.896 130.93 209.644 131.374 209.464C131.83 209.272 132.424 209.176 133.156 209.176C133.432 209.176 133.702 209.188 133.966 209.212C134.23 209.236 134.488 209.278 134.74 209.338L134.614 211.624C134.458 211.564 134.314 211.522 134.182 211.498C134.05 211.462 133.9 211.444 133.732 211.444C133.3 211.444 132.976 211.54 132.76 211.732C132.544 211.912 132.436 212.29 132.436 212.866V214.252H134.434V216.412H132.436V223H129.736V216.412Z" fill="#565656"/>
<path d="M135.139 218.626C135.139 217.93 135.265 217.3 135.517 216.736C135.769 216.172 136.111 215.692 136.543 215.296C136.987 214.888 137.503 214.576 138.091 214.36C138.691 214.144 139.327 214.036 139.999 214.036C140.671 214.036 141.301 214.144 141.889 214.36C142.489 214.576 143.005 214.888 143.437 215.296C143.881 215.692 144.229 216.172 144.481 216.736C144.733 217.3 144.859 217.93 144.859 218.626C144.859 219.322 144.733 219.952 144.481 220.516C144.229 221.08 143.881 221.566 143.437 221.974C143.005 222.37 142.489 222.676 141.889 222.892C141.301 223.108 140.671 223.216 139.999 223.216C139.327 223.216 138.691 223.108 138.091 222.892C137.503 222.676 136.987 222.37 136.543 221.974C136.111 221.566 135.769 221.08 135.517 220.516C135.265 219.952 135.139 219.322 135.139 218.626ZM137.839 218.626C137.839 219.286 138.025 219.82 138.397 220.228C138.781 220.636 139.315 220.84 139.999 220.84C140.683 220.84 141.211 220.636 141.583 220.228C141.967 219.82 142.159 219.286 142.159 218.626C142.159 217.966 141.967 217.432 141.583 217.024C141.211 216.616 140.683 216.412 139.999 216.412C139.315 216.412 138.781 216.616 138.397 217.024C138.025 217.432 137.839 217.966 137.839 218.626Z" fill="#565656"/>
<path d="M146.449 214.252H149.149V215.656H149.185C149.473 215.116 149.815 214.714 150.211 214.45C150.607 214.174 151.105 214.036 151.705 214.036C151.861 214.036 152.017 214.042 152.173 214.054C152.329 214.066 152.473 214.09 152.605 214.126V216.592C152.413 216.532 152.221 216.49 152.029 216.466C151.849 216.43 151.657 216.412 151.453 216.412C150.937 216.412 150.529 216.484 150.229 216.628C149.929 216.772 149.695 216.976 149.527 217.24C149.371 217.492 149.269 217.798 149.221 218.158C149.173 218.518 149.149 218.914 149.149 219.346V223H146.449V214.252Z" fill="#565656"/>
<path d="M154.095 214.252H156.687V215.44H156.723C156.807 215.272 156.927 215.104 157.083 214.936C157.239 214.768 157.425 214.618 157.641 214.486C157.857 214.354 158.103 214.246 158.379 214.162C158.655 214.078 158.955 214.036 159.279 214.036C159.891 214.036 160.431 214.162 160.899 214.414C161.379 214.666 161.739 215.062 161.979 215.602C162.291 215.038 162.669 214.636 163.113 214.396C163.557 214.156 164.103 214.036 164.751 214.036C165.339 214.036 165.831 214.138 166.227 214.342C166.635 214.534 166.953 214.804 167.181 215.152C167.421 215.488 167.589 215.89 167.685 216.358C167.793 216.814 167.847 217.306 167.847 217.834V223H165.147V217.906C165.147 217.498 165.057 217.15 164.877 216.862C164.709 216.562 164.403 216.412 163.959 216.412C163.647 216.412 163.383 216.466 163.167 216.574C162.963 216.67 162.795 216.808 162.663 216.988C162.543 217.168 162.453 217.378 162.393 217.618C162.345 217.858 162.321 218.11 162.321 218.374V223H159.621V218.374C159.621 218.218 159.615 218.026 159.603 217.798C159.591 217.57 159.549 217.354 159.477 217.15C159.405 216.946 159.285 216.772 159.117 216.628C158.961 216.484 158.727 216.412 158.415 216.412C158.067 216.412 157.785 216.478 157.569 216.61C157.353 216.73 157.185 216.898 157.065 217.114C156.957 217.318 156.885 217.552 156.849 217.816C156.813 218.08 156.795 218.356 156.795 218.644V223H154.095V214.252Z" fill="#565656"/>
<path d="M175.247 221.902H175.211C174.911 222.37 174.509 222.706 174.005 222.91C173.513 223.114 172.991 223.216 172.439 223.216C172.031 223.216 171.635 223.156 171.251 223.036C170.879 222.928 170.549 222.76 170.261 222.532C169.973 222.304 169.745 222.022 169.577 221.686C169.409 221.35 169.325 220.96 169.325 220.516C169.325 220.012 169.415 219.586 169.595 219.238C169.787 218.89 170.039 218.602 170.351 218.374C170.675 218.146 171.041 217.972 171.449 217.852C171.857 217.72 172.277 217.624 172.709 217.564C173.153 217.504 173.591 217.468 174.023 217.456C174.467 217.444 174.875 217.438 175.247 217.438C175.247 216.958 175.073 216.58 174.725 216.304C174.389 216.016 173.987 215.872 173.519 215.872C173.075 215.872 172.667 215.968 172.295 216.16C171.935 216.34 171.611 216.592 171.323 216.916L169.883 215.44C170.387 214.972 170.975 214.624 171.647 214.396C172.319 214.156 173.015 214.036 173.735 214.036C174.527 214.036 175.175 214.138 175.679 214.342C176.195 214.534 176.603 214.822 176.903 215.206C177.215 215.59 177.431 216.064 177.551 216.628C177.671 217.18 177.731 217.822 177.731 218.554V223H175.247V221.902ZM174.581 219.166C174.377 219.166 174.119 219.178 173.807 219.202C173.507 219.214 173.213 219.262 172.925 219.346C172.649 219.43 172.409 219.556 172.205 219.724C172.013 219.892 171.917 220.126 171.917 220.426C171.917 220.75 172.055 220.99 172.331 221.146C172.607 221.302 172.895 221.38 173.195 221.38C173.459 221.38 173.711 221.344 173.951 221.272C174.203 221.2 174.425 221.098 174.617 220.966C174.809 220.834 174.959 220.666 175.067 220.462C175.187 220.258 175.247 220.018 175.247 219.742V219.166H174.581Z" fill="#565656"/>
<path d="M185.383 216.412H183.007V219.328C183.007 219.568 183.019 219.79 183.043 219.994C183.067 220.186 183.121 220.354 183.205 220.498C183.289 220.642 183.415 220.756 183.583 220.84C183.763 220.912 183.997 220.948 184.285 220.948C184.429 220.948 184.615 220.936 184.843 220.912C185.083 220.876 185.263 220.804 185.383 220.696V222.946C185.083 223.054 184.771 223.126 184.447 223.162C184.123 223.198 183.805 223.216 183.493 223.216C183.037 223.216 182.617 223.168 182.233 223.072C181.849 222.976 181.513 222.826 181.225 222.622C180.937 222.406 180.709 222.13 180.541 221.794C180.385 221.458 180.307 221.05 180.307 220.57V216.412H178.579V214.252H180.307V211.66H183.007V214.252H185.383V216.412Z" fill="#565656"/>
<path d="M186.792 214.252H189.492V223H186.792V214.252ZM186.576 211.498C186.576 211.066 186.726 210.7 187.026 210.4C187.338 210.088 187.71 209.932 188.142 209.932C188.574 209.932 188.94 210.088 189.24 210.4C189.552 210.7 189.708 211.066 189.708 211.498C189.708 211.93 189.552 212.302 189.24 212.614C188.94 212.914 188.574 213.064 188.142 213.064C187.71 213.064 187.338 212.914 187.026 212.614C186.726 212.302 186.576 211.93 186.576 211.498Z" fill="#565656"/>
<path d="M190.513 214.252H193.429L195.643 220.192H195.679L197.731 214.252H200.449L196.993 223H194.131L190.513 214.252Z" fill="#565656"/>
<path d="M209.713 221.488C209.281 222.04 208.735 222.466 208.075 222.766C207.415 223.066 206.731 223.216 206.023 223.216C205.351 223.216 204.715 223.108 204.115 222.892C203.527 222.676 203.011 222.37 202.567 221.974C202.135 221.566 201.793 221.08 201.541 220.516C201.289 219.952 201.163 219.322 201.163 218.626C201.163 217.93 201.289 217.3 201.541 216.736C201.793 216.172 202.135 215.692 202.567 215.296C203.011 214.888 203.527 214.576 204.115 214.36C204.715 214.144 205.351 214.036 206.023 214.036C206.647 214.036 207.211 214.144 207.715 214.36C208.231 214.576 208.663 214.888 209.011 215.296C209.371 215.692 209.647 216.172 209.839 216.736C210.031 217.3 210.127 217.93 210.127 218.626V219.472H203.863C203.971 219.988 204.205 220.402 204.565 220.714C204.925 221.014 205.369 221.164 205.897 221.164C206.341 221.164 206.713 221.068 207.013 220.876C207.325 220.672 207.595 220.414 207.823 220.102L209.713 221.488ZM207.427 217.636C207.439 217.18 207.289 216.79 206.977 216.466C206.665 216.142 206.263 215.98 205.771 215.98C205.471 215.98 205.207 216.028 204.979 216.124C204.751 216.22 204.553 216.346 204.385 216.502C204.229 216.646 204.103 216.82 204.007 217.024C203.923 217.216 203.875 217.42 203.863 217.636H207.427Z" fill="#565656"/>
<path d="M218 110.5C218 137.286 196.286 159 169.5 159C142.714 159 121 137.286 121 110.5C121 83.7142 142.714 62 169.5 62C196.286 62 218 83.7142 218 110.5Z" fill="#AED6E6"/>
<path fill-rule="evenodd" clip-rule="evenodd" d="M170.492 149C195.849 144.102 215 121.788 215 95C215 64.6243 190.376 40 160 40C129.624 40 105 64.6243 105 95C105 121.788 124.151 144.102 149.508 149L160 172.68L170.492 149Z" fill="white"/>
<path d="M170.492 149L170.113 147.037L169.087 147.235L168.664 148.19L170.492 149ZM149.508 149L151.336 148.19L150.913 147.235L149.887 147.037L149.508 149ZM160 172.68L158.172 173.491L160 177.617L161.829 173.491L160 172.68ZM213 95C213 120.811 194.547 142.317 170.113 147.037L170.872 150.964C197.152 145.888 217 122.764 217 95H213ZM160 42C189.271 42 213 65.7289 213 95H217C217 63.5198 191.48 38 160 38V42ZM107 95C107 65.7289 130.729 42 160 42V38C128.52 38 103 63.5198 103 95H107ZM149.887 147.037C125.453 142.317 107 120.811 107 95H103C103 122.764 122.848 145.888 149.129 150.964L149.887 147.037ZM161.829 171.87L151.336 148.19L147.679 149.811L158.172 173.491L161.829 171.87ZM168.664 148.19L158.172 171.87L161.829 173.491L172.321 149.811L168.664 148.19Z" fill="#B9C8D1"/>
<circle cx="160" cy="75" r="8" fill="#2CB1E5"/>
<rect x="154" y="88" width="12" height="29" rx="6" fill="#2CB1E5"/>
</svg>
