<svg width="320" height="240" viewBox="0 0 320 240" fill="none" xmlns="http://www.w3.org/2000/svg">
<path d="M98.2262 78.6434H94.8096V57.3234L224.643 30.8101V64.7034H221.226V34.9101L98.2262 60.0567V78.6434Z" fill="#2CB1E5"/>
<path d="M186.786 140.143H214.119V143.56H186.786V140.143Z" fill="#AED6E6"/>
<path d="M186.786 126.203H214.119V129.62H186.786V126.203Z" fill="#AED6E6"/>
<path d="M186.786 112.81H214.119V116.227H186.786V112.81Z" fill="#AED6E6"/>
<path d="M186.786 99.28H214.119V102.697H186.786V99.28Z" fill="#AED6E6"/>
<path d="M104.376 140.007H128.293V143.423H104.376V140.007Z" fill="#AED6E6"/>
<path d="M104.376 126.34H128.293V129.757H104.376V126.34Z" fill="#AED6E6"/>
<path d="M104.376 112.81H128.293V116.227H104.376V112.81Z" fill="#AED6E6"/>
<path d="M145.923 144.107H169.84V147.523H145.923V144.107Z" fill="#AED6E6"/>
<path d="M145.923 130.167H169.84V133.583H145.923V130.167Z" fill="#AED6E6"/>
<path d="M145.923 116.773H169.84V120.19H145.923V116.773Z" fill="#AED6E6"/>
<path d="M145.923 103.243H169.84V106.66H145.923V103.243Z" fill="#AED6E6"/>
<path d="M220.817 88.7566V157.09H179.817V88.7566H220.817ZM224.234 85.34H176.4V160.507H224.234V85.34Z" fill="#B9C8D1"/>
<path d="M179.27 82.47L183.234 71.5367H217.264L221.5 82.47H224.37L219.04 68.8033H181.457L176.537 82.47H179.27Z" fill="#B9C8D1"/>
<path d="M169.84 160.37H135.673V92.0366H169.84V95.4533H139.09V156.953H169.84V160.37Z" fill="#B9C8D1"/>
<path d="M142.096 75.3633H169.84V78.2333H144.146L139.09 89.0299H135.673L142.096 75.3633Z" fill="#B9C8D1"/>
<path d="M128.84 160.507H94.6729V99.0067H128.84V102.423H98.0895V157.09H128.84V160.507Z" fill="#B9C8D1"/>
<path d="M101.233 82.47H128.84V85.2033H103.283L98.0895 96.1366H94.8095H94.6729L101.233 82.47Z" fill="#B9C8D1"/>
<path d="M133.905 213.37C133.677 213.082 133.365 212.872 132.969 212.74C132.585 212.596 132.219 212.524 131.871 212.524C131.667 212.524 131.457 212.548 131.241 212.596C131.025 212.644 130.821 212.722 130.629 212.83C130.437 212.926 130.281 213.058 130.161 213.226C130.041 213.394 129.981 213.598 129.981 213.838C129.981 214.222 130.125 214.516 130.413 214.72C130.701 214.924 131.061 215.098 131.493 215.242C131.937 215.386 132.411 215.53 132.915 215.674C133.419 215.818 133.887 216.022 134.319 216.286C134.763 216.55 135.129 216.904 135.417 217.348C135.705 217.792 135.849 218.386 135.849 219.13C135.849 219.838 135.717 220.456 135.453 220.984C135.189 221.512 134.829 221.95 134.373 222.298C133.929 222.646 133.407 222.904 132.807 223.072C132.219 223.24 131.595 223.324 130.935 223.324C130.107 223.324 129.339 223.198 128.631 222.946C127.923 222.694 127.263 222.286 126.651 221.722L128.649 219.526C128.937 219.91 129.297 220.21 129.729 220.426C130.173 220.63 130.629 220.732 131.097 220.732C131.325 220.732 131.553 220.708 131.781 220.66C132.021 220.6 132.231 220.516 132.411 220.408C132.603 220.3 132.753 220.162 132.861 219.994C132.981 219.826 133.041 219.628 133.041 219.4C133.041 219.016 132.891 218.716 132.591 218.5C132.303 218.272 131.937 218.08 131.493 217.924C131.049 217.768 130.569 217.612 130.053 217.456C129.537 217.3 129.057 217.09 128.613 216.826C128.169 216.562 127.797 216.214 127.497 215.782C127.209 215.35 127.065 214.78 127.065 214.072C127.065 213.388 127.197 212.788 127.461 212.272C127.737 211.756 128.097 211.324 128.541 210.976C128.997 210.628 129.519 210.37 130.107 210.202C130.695 210.022 131.301 209.932 131.925 209.932C132.645 209.932 133.341 210.034 134.013 210.238C134.685 210.442 135.291 210.784 135.831 211.264L133.905 213.37Z" fill="#565656"/>
<path d="M143.521 217.078C143.389 216.886 143.203 216.73 142.963 216.61C142.723 216.478 142.465 216.412 142.189 216.412C141.505 216.412 140.971 216.616 140.587 217.024C140.215 217.432 140.029 217.966 140.029 218.626C140.029 219.286 140.215 219.82 140.587 220.228C140.971 220.636 141.505 220.84 142.189 220.84C142.489 220.84 142.747 220.774 142.963 220.642C143.179 220.51 143.365 220.354 143.521 220.174L145.303 222.046C144.883 222.478 144.385 222.784 143.809 222.964C143.245 223.132 142.705 223.216 142.189 223.216C141.517 223.216 140.881 223.108 140.281 222.892C139.693 222.676 139.177 222.37 138.733 221.974C138.301 221.566 137.959 221.08 137.707 220.516C137.455 219.952 137.329 219.322 137.329 218.626C137.329 217.93 137.455 217.3 137.707 216.736C137.959 216.172 138.301 215.692 138.733 215.296C139.177 214.888 139.693 214.576 140.281 214.36C140.881 214.144 141.517 214.036 142.189 214.036C142.705 214.036 143.245 214.126 143.809 214.306C144.385 214.474 144.883 214.774 145.303 215.206L143.521 217.078Z" fill="#565656"/>
<path d="M151.773 221.902H151.737C151.437 222.37 151.035 222.706 150.531 222.91C150.039 223.114 149.517 223.216 148.965 223.216C148.557 223.216 148.161 223.156 147.777 223.036C147.405 222.928 147.075 222.76 146.787 222.532C146.499 222.304 146.271 222.022 146.103 221.686C145.935 221.35 145.851 220.96 145.851 220.516C145.851 220.012 145.941 219.586 146.121 219.238C146.313 218.89 146.565 218.602 146.877 218.374C147.201 218.146 147.567 217.972 147.975 217.852C148.383 217.72 148.803 217.624 149.235 217.564C149.679 217.504 150.117 217.468 150.549 217.456C150.993 217.444 151.401 217.438 151.773 217.438C151.773 216.958 151.599 216.58 151.251 216.304C150.915 216.016 150.513 215.872 150.045 215.872C149.601 215.872 149.193 215.968 148.821 216.16C148.461 216.34 148.137 216.592 147.849 216.916L146.409 215.44C146.913 214.972 147.501 214.624 148.173 214.396C148.845 214.156 149.541 214.036 150.261 214.036C151.053 214.036 151.701 214.138 152.205 214.342C152.721 214.534 153.129 214.822 153.429 215.206C153.741 215.59 153.957 216.064 154.077 216.628C154.197 217.18 154.257 217.822 154.257 218.554V223H151.773V221.902ZM151.107 219.166C150.903 219.166 150.645 219.178 150.333 219.202C150.033 219.214 149.739 219.262 149.451 219.346C149.175 219.43 148.935 219.556 148.731 219.724C148.539 219.892 148.443 220.126 148.443 220.426C148.443 220.75 148.581 220.99 148.857 221.146C149.133 221.302 149.421 221.38 149.721 221.38C149.985 221.38 150.237 221.344 150.477 221.272C150.729 221.2 150.951 221.098 151.143 220.966C151.335 220.834 151.485 220.666 151.593 220.462C151.713 220.258 151.773 220.018 151.773 219.742V219.166H151.107Z" fill="#565656"/>
<path d="M155.987 209.392H158.687V223H155.987V209.392Z" fill="#565656"/>
<path d="M166.117 221.902H166.081C165.781 222.37 165.379 222.706 164.875 222.91C164.383 223.114 163.861 223.216 163.309 223.216C162.901 223.216 162.505 223.156 162.121 223.036C161.749 222.928 161.419 222.76 161.131 222.532C160.843 222.304 160.615 222.022 160.447 221.686C160.279 221.35 160.195 220.96 160.195 220.516C160.195 220.012 160.285 219.586 160.465 219.238C160.657 218.89 160.909 218.602 161.221 218.374C161.545 218.146 161.911 217.972 162.319 217.852C162.727 217.72 163.147 217.624 163.579 217.564C164.023 217.504 164.461 217.468 164.893 217.456C165.337 217.444 165.745 217.438 166.117 217.438C166.117 216.958 165.943 216.58 165.595 216.304C165.259 216.016 164.857 215.872 164.389 215.872C163.945 215.872 163.537 215.968 163.165 216.16C162.805 216.34 162.481 216.592 162.193 216.916L160.753 215.44C161.257 214.972 161.845 214.624 162.517 214.396C163.189 214.156 163.885 214.036 164.605 214.036C165.397 214.036 166.045 214.138 166.549 214.342C167.065 214.534 167.473 214.822 167.773 215.206C168.085 215.59 168.301 216.064 168.421 216.628C168.541 217.18 168.601 217.822 168.601 218.554V223H166.117V221.902ZM165.451 219.166C165.247 219.166 164.989 219.178 164.677 219.202C164.377 219.214 164.083 219.262 163.795 219.346C163.519 219.43 163.279 219.556 163.075 219.724C162.883 219.892 162.787 220.126 162.787 220.426C162.787 220.75 162.925 220.99 163.201 221.146C163.477 221.302 163.765 221.38 164.065 221.38C164.329 221.38 164.581 221.344 164.821 221.272C165.073 221.2 165.295 221.098 165.487 220.966C165.679 220.834 165.829 220.666 165.937 220.462C166.057 220.258 166.117 220.018 166.117 219.742V219.166H165.451Z" fill="#565656"/>
<path d="M170.547 209.392H173.247V215.188H173.283C173.595 214.768 173.991 214.474 174.471 214.306C174.963 214.126 175.491 214.036 176.055 214.036C176.679 214.036 177.237 214.168 177.729 214.432C178.221 214.684 178.635 215.026 178.971 215.458C179.319 215.89 179.583 216.388 179.763 216.952C179.955 217.504 180.051 218.086 180.051 218.698C180.051 219.358 179.949 219.964 179.745 220.516C179.541 221.068 179.247 221.548 178.863 221.956C178.491 222.352 178.041 222.664 177.513 222.892C176.985 223.108 176.397 223.216 175.749 223.216C175.437 223.216 175.143 223.174 174.867 223.09C174.591 223.006 174.333 222.898 174.093 222.766C173.865 222.634 173.661 222.49 173.481 222.334C173.313 222.166 173.175 222.004 173.067 221.848H173.031V223H170.547V209.392ZM173.031 218.626C173.031 219.286 173.217 219.82 173.589 220.228C173.973 220.636 174.507 220.84 175.191 220.84C175.875 220.84 176.403 220.636 176.775 220.228C177.159 219.82 177.351 219.286 177.351 218.626C177.351 217.966 177.159 217.432 176.775 217.024C176.403 216.616 175.875 216.412 175.191 216.412C174.507 216.412 173.973 216.616 173.589 217.024C173.217 217.432 173.031 217.966 173.031 218.626Z" fill="#565656"/>
<path d="M181.669 209.392H184.369V223H181.669V209.392Z" fill="#565656"/>
<path d="M194.588 221.488C194.156 222.04 193.61 222.466 192.95 222.766C192.29 223.066 191.606 223.216 190.898 223.216C190.226 223.216 189.59 223.108 188.99 222.892C188.402 222.676 187.886 222.37 187.442 221.974C187.01 221.566 186.668 221.08 186.416 220.516C186.164 219.952 186.038 219.322 186.038 218.626C186.038 217.93 186.164 217.3 186.416 216.736C186.668 216.172 187.01 215.692 187.442 215.296C187.886 214.888 188.402 214.576 188.99 214.36C189.59 214.144 190.226 214.036 190.898 214.036C191.522 214.036 192.086 214.144 192.59 214.36C193.106 214.576 193.538 214.888 193.886 215.296C194.246 215.692 194.522 216.172 194.714 216.736C194.906 217.3 195.002 217.93 195.002 218.626V219.472H188.738C188.846 219.988 189.08 220.402 189.44 220.714C189.8 221.014 190.244 221.164 190.772 221.164C191.216 221.164 191.588 221.068 191.888 220.876C192.2 220.672 192.47 220.414 192.698 220.102L194.588 221.488ZM192.302 217.636C192.314 217.18 192.164 216.79 191.852 216.466C191.54 216.142 191.138 215.98 190.646 215.98C190.346 215.98 190.082 216.028 189.854 216.124C189.626 216.22 189.428 216.346 189.26 216.502C189.104 216.646 188.978 216.82 188.882 217.024C188.798 217.216 188.75 217.42 188.738 217.636H192.302Z" fill="#565656"/>
</svg>
