<svg width="320" height="240" viewBox="0 0 320 240" fill="none" xmlns="http://www.w3.org/2000/svg">
<g opacity="0.3">
<path d="M160.014 52.5573C147.164 52.5573 134.84 57.661 125.753 66.746C116.665 75.8309 111.558 88.1533 111.554 101.003C111.554 102.011 111.554 103.003 111.654 103.982H124.777C124.69 103.023 124.647 102.03 124.647 101.003C124.647 91.6235 128.373 82.6278 135.006 75.9952C141.639 69.3626 150.634 65.6364 160.014 65.6364C169.394 65.6364 178.39 69.3626 185.022 75.9952C191.655 82.6278 195.381 91.6235 195.381 101.003C195.381 102.011 195.381 103.003 195.237 103.982H208.359C208.359 103.003 208.46 102.011 208.46 101.003C208.456 88.1558 203.351 75.8356 194.266 66.751C185.182 57.6665 172.862 52.5611 160.014 52.5573V52.5573Z" fill="#2CB1E5"/>
</g>
<path d="M160.014 171C146.169 171.003 132.634 166.9 121.121 159.21C109.607 151.52 100.633 140.588 95.3326 127.798C90.0323 115.007 88.644 100.932 91.3433 87.3525C94.0426 73.7729 100.708 61.2988 110.497 51.5076C120.287 41.7165 132.759 35.0482 146.338 32.3461C159.917 29.644 173.993 31.0294 186.785 36.3271C199.576 41.6248 210.51 50.5969 218.202 62.1086C225.894 73.6204 230 87.1547 230 101C229.981 119.557 222.602 137.348 209.482 150.471C196.361 163.594 178.571 170.977 160.014 171V171ZM160.014 33.8921C146.738 33.8893 133.758 37.8239 122.718 45.1983C111.677 52.5727 103.072 63.0556 97.9899 75.3212C92.9077 87.5867 91.5773 101.084 94.1668 114.106C96.7562 127.128 103.149 139.089 112.537 148.477C121.925 157.865 133.887 164.258 146.909 166.848C159.93 169.437 173.428 168.107 185.693 163.025C197.959 157.942 208.442 149.337 215.816 138.297C223.191 127.256 227.125 114.277 227.122 101C227.099 83.2089 220.022 66.153 207.442 53.5728C194.861 40.9926 177.806 33.915 160.014 33.8921V33.8921Z" fill="#B9C8D1"/>
<path d="M144.849 159.085H144.475C135.108 156.576 126.488 151.837 119.351 145.273C112.214 138.708 106.772 130.513 103.49 121.389C100.208 112.264 99.1843 102.48 100.506 92.8736C101.827 83.267 105.454 74.1231 111.077 66.2231C116.7 58.323 124.153 51.9017 132.797 47.5077C141.441 43.1137 151.021 40.8777 160.717 40.9907C170.413 41.1036 179.938 43.5623 188.478 48.1565C197.018 52.7507 204.318 59.3439 209.756 67.3728C209.913 67.688 209.949 68.0497 209.857 68.3895C209.765 68.7294 209.552 69.0238 209.258 69.217C208.963 69.4103 208.608 69.4889 208.26 69.4381C207.912 69.3872 207.594 69.2104 207.367 68.9412C202.189 61.297 195.238 55.02 187.107 50.6463C178.976 46.2727 169.907 43.9325 160.675 43.8257C151.443 43.7188 142.322 45.8486 134.092 50.0329C125.862 54.2172 118.768 60.3317 113.415 67.854C108.061 75.3763 104.609 84.0827 103.352 93.2294C102.095 102.376 103.071 111.691 106.196 120.379C109.322 129.066 114.504 136.868 121.3 143.117C128.097 149.366 136.305 153.877 145.223 156.265C145.605 156.314 145.951 156.514 146.186 156.819C146.421 157.123 146.525 157.509 146.475 157.891C146.426 158.272 146.226 158.619 145.921 158.853C145.617 159.088 145.231 159.192 144.849 159.143V159.085Z" fill="#B9C8D1"/>
<path d="M160.014 56.1504C159.632 56.1504 159.266 55.9988 158.997 55.729C158.727 55.4592 158.575 55.0932 158.575 54.7116V48.0065C158.575 47.6249 158.727 47.259 158.997 46.9891C159.266 46.7193 159.632 46.5677 160.014 46.5677C160.396 46.5677 160.762 46.7193 161.031 46.9891C161.301 47.259 161.453 47.6249 161.453 48.0065V54.7116C161.453 55.0932 161.301 55.4592 161.031 55.729C160.762 55.9988 160.396 56.1504 160.014 56.1504Z" fill="#B9C8D1"/>
<path d="M160.014 154.064C159.632 154.064 159.266 153.912 158.997 153.642C158.727 153.373 158.575 153.007 158.575 152.625V145.92C158.575 145.538 158.727 145.172 158.997 144.903C159.266 144.633 159.632 144.481 160.014 144.481C160.396 144.481 160.762 144.633 161.031 144.903C161.301 145.172 161.453 145.538 161.453 145.92V152.625C161.453 153.007 161.301 153.373 161.031 153.642C160.762 153.912 160.396 154.064 160.014 154.064Z" fill="#B9C8D1"/>
<path d="M144.418 58.8709C144.122 58.8708 143.834 58.7796 143.592 58.6097C143.349 58.4397 143.166 58.1994 143.065 57.9213L140.763 51.6767C140.631 51.318 140.648 50.9217 140.808 50.5749C140.969 50.2282 141.26 49.9594 141.619 49.8278C141.978 49.6961 142.374 49.7124 142.721 49.8729C143.068 50.0335 143.336 50.3252 143.468 50.6839L145.77 56.9861C145.9 57.3448 145.882 57.7403 145.72 58.0856C145.558 58.431 145.266 58.6979 144.907 58.8278C144.747 58.8685 144.582 58.8831 144.418 58.8709V58.8709Z" fill="#B9C8D1"/>
<path d="M177.9 150.955C177.606 150.956 177.318 150.867 177.077 150.7C176.835 150.532 176.65 150.295 176.547 150.02L174.259 143.718C174.189 143.539 174.155 143.347 174.16 143.155C174.164 142.963 174.208 142.773 174.287 142.598C174.366 142.423 174.479 142.265 174.621 142.134C174.762 142.004 174.928 141.903 175.109 141.837C175.29 141.772 175.482 141.743 175.674 141.753C175.866 141.763 176.054 141.812 176.227 141.896C176.4 141.98 176.554 142.098 176.681 142.243C176.808 142.388 176.904 142.557 176.964 142.739L179.252 149.027C179.382 149.386 179.364 149.781 179.202 150.127C179.04 150.472 178.747 150.739 178.389 150.869C178.232 150.926 178.066 150.955 177.9 150.955V150.955Z" fill="#B9C8D1"/>
<path d="M130.691 66.8134C130.483 66.8135 130.278 66.7684 130.089 66.6815C129.9 66.5946 129.733 66.4678 129.598 66.3098L125.281 61.1732C125.16 61.0277 125.069 60.8598 125.013 60.6791C124.957 60.4984 124.937 60.3084 124.954 60.12C124.972 59.9316 125.026 59.7485 125.114 59.5811C125.202 59.4137 125.323 59.2653 125.468 59.1444C125.614 59.0234 125.781 58.9324 125.962 58.8763C126.143 58.8203 126.333 58.8004 126.521 58.8177C126.902 58.8528 127.253 59.0376 127.497 59.3314L131.813 64.4537C131.935 64.5982 132.028 64.7654 132.085 64.9456C132.142 65.1258 132.164 65.3155 132.148 65.5039C132.132 65.6923 132.079 65.8757 131.992 66.0437C131.905 66.2116 131.785 66.3607 131.641 66.4825C131.374 66.7035 131.037 66.8209 130.691 66.8134V66.8134Z" fill="#B9C8D1"/>
<path d="M193.626 141.822C193.417 141.82 193.211 141.773 193.022 141.683C192.834 141.594 192.667 141.464 192.533 141.304L188.216 136.181C187.97 135.887 187.851 135.508 187.885 135.126C187.918 134.744 188.102 134.391 188.396 134.145C188.69 133.899 189.07 133.78 189.451 133.814C189.833 133.847 190.186 134.031 190.432 134.325L194.749 139.462C194.924 139.672 195.035 139.928 195.07 140.199C195.105 140.471 195.062 140.746 194.945 140.994C194.829 141.242 194.645 141.451 194.414 141.598C194.182 141.744 193.914 141.822 193.641 141.822H193.626Z" fill="#B9C8D1"/>
<path d="M120.518 79.0164C120.264 79.0138 120.016 78.9443 119.798 78.815L114.043 75.4769C113.878 75.3824 113.734 75.2564 113.618 75.1063C113.503 74.9561 113.418 74.7845 113.368 74.6015C113.319 74.4185 113.306 74.2275 113.33 74.0394C113.355 73.8514 113.416 73.67 113.51 73.5056C113.605 73.3412 113.731 73.1971 113.881 73.0814C114.031 72.9656 114.203 72.8806 114.386 72.8312C114.569 72.7818 114.76 72.7689 114.948 72.7932C115.136 72.8176 115.317 72.8788 115.482 72.9733L121.237 76.3258C121.514 76.4828 121.731 76.7275 121.855 77.0213C121.978 77.3151 122 77.6415 121.918 77.9493C121.835 78.2571 121.653 78.5288 121.4 78.7219C121.146 78.9151 120.836 79.0186 120.518 79.0164V79.0164Z" fill="#B9C8D1"/>
<path d="M205.309 127.934C205.057 127.936 204.809 127.872 204.59 127.747L198.834 124.395C198.662 124.305 198.51 124.181 198.388 124.031C198.265 123.881 198.174 123.707 198.119 123.521C198.065 123.334 198.05 123.139 198.073 122.946C198.096 122.754 198.159 122.568 198.256 122.4C198.353 122.232 198.483 122.085 198.638 121.969C198.793 121.852 198.971 121.768 199.159 121.722C199.348 121.676 199.543 121.669 199.735 121.7C199.926 121.732 200.11 121.801 200.273 121.906L206.029 125.244C206.306 125.401 206.523 125.645 206.646 125.939C206.769 126.233 206.792 126.559 206.709 126.867C206.627 127.175 206.445 127.447 206.192 127.64C205.938 127.833 205.628 127.937 205.309 127.934Z" fill="#B9C8D1"/>
<path d="M115.094 93.8358H114.849L108.245 92.6704C107.863 92.6036 107.524 92.388 107.301 92.0709C107.079 91.7538 106.991 91.3613 107.058 90.9797C107.125 90.5981 107.34 90.2587 107.657 90.0361C107.975 89.8134 108.367 89.7259 108.749 89.7927L115.353 90.9581C115.542 90.9752 115.726 91.0292 115.894 91.1172C116.062 91.2053 116.211 91.3255 116.332 91.4711C116.454 91.6168 116.546 91.7849 116.602 91.966C116.659 92.1471 116.679 92.3375 116.662 92.5265C116.645 92.7154 116.591 92.8992 116.503 93.0673C116.415 93.2353 116.295 93.3844 116.149 93.506C116.004 93.6276 115.836 93.7193 115.654 93.7759C115.473 93.8325 115.283 93.8529 115.094 93.8358V93.8358Z" fill="#B9C8D1"/>
<path d="M211.597 110.842H211.338L204.748 109.677C204.375 109.61 204.043 109.399 203.825 109.089C203.607 108.779 203.52 108.396 203.582 108.022C203.646 107.646 203.856 107.311 204.166 107.09C204.476 106.869 204.861 106.78 205.237 106.842L211.841 108.008C212.223 108.04 212.576 108.223 212.823 108.516C213.07 108.808 213.19 109.187 213.158 109.569C213.126 109.95 212.943 110.303 212.65 110.55C212.357 110.797 211.978 110.918 211.597 110.885V110.842Z" fill="#B9C8D1"/>
<path d="M108.504 110.841C108.122 110.875 107.743 110.756 107.448 110.511C107.303 110.389 107.183 110.24 107.095 110.072C107.007 109.904 106.953 109.72 106.936 109.531C106.918 109.342 106.939 109.152 106.995 108.971C107.052 108.79 107.144 108.622 107.265 108.476C107.511 108.182 107.863 107.997 108.245 107.963L114.849 106.798C115.036 106.764 115.228 106.769 115.414 106.81C115.599 106.852 115.774 106.93 115.93 107.04C116.085 107.149 116.217 107.289 116.318 107.45C116.419 107.611 116.487 107.79 116.518 107.977C116.581 108.351 116.494 108.734 116.276 109.044C116.057 109.354 115.726 109.565 115.353 109.632L108.748 110.797L108.504 110.841Z" fill="#B9C8D1"/>
<path d="M204.921 93.8358C204.539 93.8683 204.16 93.7478 203.868 93.5009C203.575 93.254 203.392 92.9009 203.36 92.5193C203.327 92.1377 203.448 91.7588 203.695 91.4661C203.942 91.1733 204.295 90.9906 204.676 90.9581L211.266 89.7927C211.455 89.7596 211.649 89.7641 211.836 89.8058C212.023 89.8476 212.2 89.9258 212.357 90.0361C212.514 90.1463 212.648 90.2864 212.751 90.4483C212.854 90.6102 212.924 90.7908 212.957 90.9797C212.99 91.1687 212.985 91.3623 212.944 91.5495C212.902 91.7367 212.824 91.9139 212.713 92.0709C212.603 92.2279 212.463 92.3616 212.301 92.4645C212.139 92.5673 211.959 92.6373 211.77 92.6704L205.165 93.8358H204.921Z" fill="#B9C8D1"/>
<path d="M114.719 127.934C114.401 127.937 114.091 127.833 113.837 127.64C113.584 127.447 113.402 127.175 113.319 126.867C113.237 126.559 113.259 126.233 113.382 125.939C113.506 125.645 113.723 125.401 114 125.244L119.755 121.906C120.084 121.717 120.474 121.665 120.84 121.762C121.207 121.859 121.52 122.097 121.712 122.424C121.808 122.587 121.87 122.768 121.896 122.955C121.922 123.143 121.911 123.334 121.862 123.517C121.814 123.7 121.731 123.872 121.616 124.022C121.501 124.173 121.358 124.3 121.194 124.395L115.439 127.747C115.22 127.872 114.971 127.936 114.719 127.934Z" fill="#B9C8D1"/>
<path d="M199.51 79.0164C199.192 79.0186 198.882 78.9151 198.628 78.7219C198.375 78.5288 198.193 78.2571 198.11 77.9493C198.028 77.6415 198.05 77.3151 198.173 77.0213C198.297 76.7275 198.514 76.4828 198.791 76.3258L204.546 72.9733C204.711 72.8788 204.892 72.8176 205.08 72.7932C205.268 72.7689 205.459 72.7818 205.642 72.8312C205.825 72.8806 205.997 72.9656 206.147 73.0814C206.297 73.1971 206.423 73.3412 206.518 73.5056C206.612 73.67 206.673 73.8514 206.698 74.0394C206.722 74.2275 206.709 74.4185 206.66 74.6015C206.61 74.7845 206.525 74.9561 206.41 75.1063C206.294 75.2564 206.15 75.3824 205.985 75.4769L200.23 78.815C200.012 78.9443 199.764 79.0138 199.51 79.0164Z" fill="#B9C8D1"/>
<path d="M126.389 141.821C126.111 141.827 125.838 141.752 125.602 141.606C125.366 141.46 125.178 141.249 125.059 140.998C124.94 140.747 124.897 140.467 124.934 140.192C124.97 139.917 125.086 139.658 125.267 139.447L129.583 134.311C129.829 134.019 130.181 133.836 130.562 133.804C130.942 133.772 131.32 133.892 131.612 134.138C131.904 134.384 132.086 134.736 132.118 135.116C132.151 135.497 132.031 135.875 131.785 136.167L127.468 141.289C127.337 141.45 127.173 141.581 126.987 141.673C126.8 141.765 126.597 141.816 126.389 141.821Z" fill="#B9C8D1"/>
<path d="M189.324 66.8132C188.988 66.8138 188.662 66.6968 188.403 66.4823C188.258 66.3615 188.137 66.2131 188.049 66.0457C187.961 65.8783 187.906 65.6951 187.889 65.5067C187.872 65.3182 187.891 65.1282 187.948 64.9475C188.004 64.7667 188.095 64.5989 188.216 64.4535L192.533 59.3312C192.776 59.0412 193.124 58.8589 193.502 58.8239C193.879 58.7888 194.254 58.9039 194.547 59.1441C194.693 59.2649 194.813 59.4133 194.902 59.5807C194.99 59.7481 195.044 59.9312 195.062 60.1197C195.079 60.3082 195.059 60.4982 195.003 60.6789C194.947 60.8596 194.855 61.0275 194.734 61.1729L190.418 66.3096C190.283 66.4675 190.115 66.5943 189.926 66.6813C189.737 66.7682 189.532 66.8132 189.324 66.8132Z" fill="#B9C8D1"/>
<path d="M142.115 150.955C141.948 150.955 141.782 150.926 141.626 150.869C141.267 150.739 140.975 150.472 140.813 150.127C140.651 149.782 140.633 149.386 140.762 149.027L143.065 142.74C143.194 142.381 143.461 142.089 143.807 141.927C144.152 141.765 144.548 141.747 144.906 141.876C145.265 142.006 145.557 142.273 145.719 142.619C145.881 142.964 145.899 143.359 145.77 143.718L143.467 150.02C143.364 150.296 143.18 150.533 142.938 150.7C142.696 150.867 142.409 150.956 142.115 150.955Z" fill="#B9C8D1"/>
<path d="M175.626 58.8716C175.455 58.871 175.285 58.8419 175.123 58.7852C174.767 58.6525 174.478 58.3844 174.319 58.0394C174.16 57.6943 174.143 57.3004 174.274 56.9435L176.562 50.6414C176.693 50.2826 176.962 49.9909 177.309 49.8304C177.655 49.6698 178.052 49.6536 178.41 49.7852C178.769 49.9169 179.061 50.1857 179.221 50.5324C179.382 50.8791 179.398 51.2755 179.267 51.6342L176.979 57.9219C176.878 58.2 176.695 58.4404 176.453 58.6103C176.211 58.7802 175.922 58.8714 175.626 58.8716Z" fill="#B9C8D1"/>
<path d="M160.403 111.632C159.13 111.631 157.876 111.317 156.753 110.716C155.631 110.115 154.673 109.247 153.967 108.188C153.26 107.129 152.825 105.912 152.701 104.645C152.577 103.377 152.767 102.099 153.255 100.923C153.743 99.7472 154.514 98.7097 155.499 97.9027C156.484 97.0958 157.653 96.5442 158.902 96.2969C160.151 96.0496 161.442 96.1143 162.66 96.4851C163.878 96.856 164.986 97.5216 165.885 98.4229C166.153 98.6925 166.303 99.0572 166.303 99.4373C166.303 99.8174 166.153 100.182 165.885 100.452C165.751 100.587 165.592 100.694 165.417 100.767C165.241 100.84 165.053 100.877 164.863 100.877C164.673 100.877 164.485 100.84 164.31 100.767C164.135 100.694 163.975 100.587 163.842 100.452C163.276 99.8862 162.58 99.4688 161.815 99.2367C161.049 99.0045 160.238 98.9647 159.454 99.1207C158.67 99.2767 157.936 99.6238 157.318 100.131C156.699 100.639 156.216 101.291 155.91 102.029C155.604 102.768 155.485 103.571 155.563 104.367C155.641 105.163 155.915 105.927 156.359 106.592C156.803 107.257 157.405 107.803 158.11 108.18C158.816 108.557 159.603 108.754 160.403 108.754C160.784 108.754 161.15 108.905 161.42 109.175C161.69 109.445 161.842 109.811 161.842 110.193C161.842 110.574 161.69 110.94 161.42 111.21C161.15 111.48 160.784 111.632 160.403 111.632V111.632Z" fill="#2CB1E5"/>
<path d="M160.446 97.9645C160.064 97.9645 159.698 97.8129 159.428 97.543C159.158 97.2732 159.007 96.9072 159.007 96.5256V62.6263C159.007 62.2447 159.158 61.8788 159.428 61.6089C159.698 61.3391 160.064 61.1875 160.446 61.1875C160.827 61.1875 161.193 61.3391 161.463 61.6089C161.733 61.8788 161.885 62.2447 161.885 62.6263V96.5256C161.885 96.9072 161.733 97.2732 161.463 97.543C161.193 97.8129 160.827 97.9645 160.446 97.9645Z" fill="#2CB1E5"/>
<path d="M127.555 210.256H136.213V212.848H130.363V215.224H135.889V217.816H130.363V220.408H136.537V223H127.555V210.256Z" fill="#565656"/>
<path d="M139.379 216.412H137.597V214.252H139.379V212.704C139.379 212.224 139.421 211.774 139.505 211.354C139.589 210.922 139.751 210.544 139.991 210.22C140.231 209.896 140.573 209.644 141.017 209.464C141.473 209.272 142.067 209.176 142.799 209.176C143.075 209.176 143.345 209.188 143.609 209.212C143.873 209.236 144.131 209.278 144.383 209.338L144.257 211.624C144.101 211.564 143.957 211.522 143.825 211.498C143.693 211.462 143.543 211.444 143.375 211.444C142.943 211.444 142.619 211.54 142.403 211.732C142.187 211.912 142.079 212.29 142.079 212.866V214.252H144.077V216.412H142.079V223H139.379V216.412Z" fill="#565656"/>
<path d="M151.801 214.252H154.501V223H151.801V214.252ZM151.585 211.498C151.585 211.066 151.735 210.7 152.035 210.4C152.347 210.088 152.719 209.932 153.151 209.932C153.583 209.932 153.949 210.088 154.249 210.4C154.561 210.7 154.717 211.066 154.717 211.498C154.717 211.93 154.561 212.302 154.249 212.614C153.949 212.914 153.583 213.064 153.151 213.064C152.719 213.064 152.347 212.914 152.035 212.614C151.735 212.302 151.585 211.93 151.585 211.498ZM146.041 216.412H144.259V214.252H146.041V212.704C146.041 212.224 146.083 211.774 146.167 211.354C146.251 210.922 146.413 210.544 146.653 210.22C146.893 209.896 147.235 209.644 147.679 209.464C148.135 209.272 148.729 209.176 149.461 209.176C149.737 209.176 150.007 209.188 150.271 209.212C150.535 209.236 150.793 209.278 151.045 209.338L150.919 211.624C150.763 211.564 150.619 211.522 150.487 211.498C150.355 211.462 150.205 211.444 150.037 211.444C149.605 211.444 149.281 211.54 149.065 211.732C148.849 211.912 148.741 212.29 148.741 212.866V214.252H150.739V216.412H148.741V223H146.041V216.412Z" fill="#565656"/>
<path d="M162.365 217.078C162.233 216.886 162.047 216.73 161.807 216.61C161.567 216.478 161.309 216.412 161.033 216.412C160.349 216.412 159.815 216.616 159.431 217.024C159.059 217.432 158.873 217.966 158.873 218.626C158.873 219.286 159.059 219.82 159.431 220.228C159.815 220.636 160.349 220.84 161.033 220.84C161.333 220.84 161.591 220.774 161.807 220.642C162.023 220.51 162.209 220.354 162.365 220.174L164.147 222.046C163.727 222.478 163.229 222.784 162.653 222.964C162.089 223.132 161.549 223.216 161.033 223.216C160.361 223.216 159.725 223.108 159.125 222.892C158.537 222.676 158.021 222.37 157.577 221.974C157.145 221.566 156.803 221.08 156.551 220.516C156.299 219.952 156.173 219.322 156.173 218.626C156.173 217.93 156.299 217.3 156.551 216.736C156.803 216.172 157.145 215.692 157.577 215.296C158.021 214.888 158.537 214.576 159.125 214.36C159.725 214.144 160.361 214.036 161.033 214.036C161.549 214.036 162.089 214.126 162.653 214.306C163.229 214.474 163.727 214.774 164.147 215.206L162.365 217.078Z" fill="#565656"/>
<path d="M165.162 214.252H167.862V223H165.162V214.252ZM164.946 211.498C164.946 211.066 165.096 210.7 165.396 210.4C165.708 210.088 166.08 209.932 166.512 209.932C166.944 209.932 167.31 210.088 167.61 210.4C167.922 210.7 168.078 211.066 168.078 211.498C168.078 211.93 167.922 212.302 167.61 212.614C167.31 212.914 166.944 213.064 166.512 213.064C166.08 213.064 165.708 212.914 165.396 212.614C165.096 212.302 164.946 211.93 164.946 211.498Z" fill="#565656"/>
<path d="M178.082 221.488C177.65 222.04 177.104 222.466 176.444 222.766C175.784 223.066 175.1 223.216 174.392 223.216C173.72 223.216 173.084 223.108 172.484 222.892C171.896 222.676 171.38 222.37 170.936 221.974C170.504 221.566 170.162 221.08 169.91 220.516C169.658 219.952 169.532 219.322 169.532 218.626C169.532 217.93 169.658 217.3 169.91 216.736C170.162 216.172 170.504 215.692 170.936 215.296C171.38 214.888 171.896 214.576 172.484 214.36C173.084 214.144 173.72 214.036 174.392 214.036C175.016 214.036 175.58 214.144 176.084 214.36C176.6 214.576 177.032 214.888 177.38 215.296C177.74 215.692 178.016 216.172 178.208 216.736C178.4 217.3 178.496 217.93 178.496 218.626V219.472H172.232C172.34 219.988 172.574 220.402 172.934 220.714C173.294 221.014 173.738 221.164 174.266 221.164C174.71 221.164 175.082 221.068 175.382 220.876C175.694 220.672 175.964 220.414 176.192 220.102L178.082 221.488ZM175.796 217.636C175.808 217.18 175.658 216.79 175.346 216.466C175.034 216.142 174.632 215.98 174.14 215.98C173.84 215.98 173.576 216.028 173.348 216.124C173.12 216.22 172.922 216.346 172.754 216.502C172.598 216.646 172.472 216.82 172.376 217.024C172.292 217.216 172.244 217.42 172.232 217.636H175.796Z" fill="#565656"/>
<path d="M180.138 214.252H182.73V215.44H182.766C182.85 215.272 182.97 215.104 183.126 214.936C183.282 214.768 183.468 214.618 183.684 214.486C183.9 214.354 184.146 214.246 184.422 214.162C184.698 214.078 184.998 214.036 185.322 214.036C186.006 214.036 186.558 214.144 186.978 214.36C187.398 214.564 187.722 214.852 187.95 215.224C188.19 215.596 188.352 216.034 188.436 216.538C188.52 217.042 188.562 217.588 188.562 218.176V223H185.862V218.716C185.862 218.464 185.85 218.206 185.826 217.942C185.814 217.666 185.76 217.414 185.664 217.186C185.58 216.958 185.442 216.772 185.25 216.628C185.07 216.484 184.806 216.412 184.458 216.412C184.11 216.412 183.828 216.478 183.612 216.61C183.396 216.73 183.228 216.898 183.108 217.114C183 217.318 182.928 217.552 182.892 217.816C182.856 218.08 182.838 218.356 182.838 218.644V223H180.138V214.252Z" fill="#565656"/>
<path d="M196.432 216.412H194.056V219.328C194.056 219.568 194.068 219.79 194.092 219.994C194.116 220.186 194.17 220.354 194.254 220.498C194.338 220.642 194.464 220.756 194.632 220.84C194.812 220.912 195.046 220.948 195.334 220.948C195.478 220.948 195.664 220.936 195.892 220.912C196.132 220.876 196.312 220.804 196.432 220.696V222.946C196.132 223.054 195.82 223.126 195.496 223.162C195.172 223.198 194.854 223.216 194.542 223.216C194.086 223.216 193.666 223.168 193.282 223.072C192.898 222.976 192.562 222.826 192.274 222.622C191.986 222.406 191.758 222.13 191.59 221.794C191.434 221.458 191.356 221.05 191.356 220.57V216.412H189.628V214.252H191.356V211.66H194.056V214.252H196.432V216.412Z" fill="#565656"/>
</svg>
